<?xml version="1.0" encoding="utf-8"?>
<!-- Generator: Adobe Illustrator 27.3.1, SVG Export Plug-In . SVG Version: 6.00 Build 0)  -->
<svg version="1.1" id="Layer_1" xmlns="http://www.w3.org/2000/svg" xmlns:xlink="http://www.w3.org/1999/xlink" x="0px" y="0px"
	 viewBox="0 0 24 24" style="enable-background:new 0 0 24 24;" xml:space="preserve">
<style type="text/css">
	.st0{fill:#464646;}
</style>
<path class="st0" d="M5.3,16.1c0,0.5,0.2,1,0.6,1.3c0.4,0.5,1,0.8,1.7,0.8c0.2,0,0.3,0,0.5,0c0.7-0.1,1.3-0.6,1.7-1.2
	c0.1-0.3,0.2-0.6,0.3-0.9l0-0.1h0.1l0.1,0l0-0.1c0-0.1,0-0.2,0.1-0.3c0-0.1,0.1-0.3,0.1-0.4l0.1-0.2H1v0c0-0.3,0.1-0.6,0.2-0.9
	c0.2-0.8,0.7-1.5,1.3-2.1c0.2-0.2,0.4-0.4,0.6-0.7c0.4-0.6,0.7-1.3,0.9-2.1C4,8.5,4,7.9,4,7.2c0-0.5,0-1.1,0-1.6
	c0.2-1.2,0.9-2.2,2-2.7c0.4-0.2,0.8-0.3,1.2-0.3c0.3,0,0.6,0,0.9,0c1.5,0.2,2.7,1.3,3.1,2.7c0.1,0.7,0.2,1.5,0.1,2.2
	c0,1.1,0,1.8,0,1.9c0,0.6,0.3,1.3,0.7,1.8c0.1,0.2,0.3,0.3,0.4,0.5c0.1,0,0.1-0.1,0.2-0.1c0.1-0.1,0.3-0.2,0.5-0.3
	c0,0,0.1-0.1,0.1-0.1c0-0.1-0.1-0.1-0.1-0.2c-0.4-0.4-0.6-0.9-0.7-1.4l0-0.2c0,0,0-0.8,0-1.8c0.1-0.8,0-1.5-0.1-2.3
	c-0.1-0.4-0.2-0.7-0.4-1.1C11.3,3.2,10.6,2.5,9.7,2L9.5,1.9l0,0L9.4,1.8c0,0-0.1,0-0.1-0.1c0-0.1,0-0.2,0-0.4c0-0.4-0.1-0.7-0.3-1
	C8.8,0.3,8.6,0.2,8.5,0.1C8.3,0,8.2,0,7.6,0C7.4,0,7.2,0,7,0C6.5,0.2,6.1,0.6,6,1c0,0.2,0,0.3,0,0.5l0,0.3L5.8,1.9c0,0,0,0,0,0
	L5.6,2C4.3,2.7,3.4,3.8,3.1,5.2C3,5.9,3,6.5,3,7.2c0.1,0.7,0,1.3-0.1,2C2.8,9.8,2.5,10.4,2.1,11C2,11,1.8,11.2,1.7,11.4
	c-0.6,0.6-1.1,1.4-1.4,2.3C0.1,14.2,0,14.9,0,15.5L0,16h5.3L5.3,16.1z M9,16L9,16c0,0.2-0.1,0.4-0.1,0.5c-0.2,0.3-0.5,0.6-0.8,0.7
	c-0.1,0-0.2,0.1-0.4,0c-0.2,0-0.5,0-0.7-0.2c-0.4-0.2-0.6-0.6-0.7-1l0-0.1H9z M7.1,1c0.1,0,0.1,0,0.5,0c0.4,0,0.5,0,0.5,0
	c0.1,0.1,0.1,0.1,0.1,0.3l0,0.2l0,0c-0.3,0-0.6,0-0.9,0c-0.2,0-0.3,0-0.3,0c0,0,0,0,0-0.2C7,1.2,7,1.1,7.1,1z"/>
<polygon class="st0" points="18,14 17,14 17,17 14,17 14,18 17,18 17,21 18,21 18,18 21,18 21,17 18,17 "/>
<path class="st0" d="M17.5,11c-3.6,0-6.5,2.9-6.5,6.5s2.9,6.5,6.5,6.5s6.5-2.9,6.5-6.5S21.1,11,17.5,11z M17.5,23
	c-3,0-5.5-2.5-5.5-5.5s2.5-5.5,5.5-5.5s5.5,2.5,5.5,5.5S20.5,23,17.5,23z"/>
</svg>
