<svg id="Layer_2" data-name="Layer 2" xmlns="http://www.w3.org/2000/svg" viewBox="0 0 13 13">
  <path d="M7,13c-.354,0-1,0-2.658-6.011L1.5,6.98A1.4,1.4,0,0,1,.239,6.3,1.605,1.605,0,0,1,.233,4.7,1.408,1.408,0,0,1,1.508,4h0l5.359.018c-.766-2.043.235-3,.594-3.264A1.521,1.521,0,0,1,9.354.646l.1.1.034.135A7.92,7.92,0,0,0,11.218,4h1.133l.119.33A11.665,11.665,0,0,1,13,8a11.665,11.665,0,0,1-.53,3.67l-.092.257-.266.06C11.376,12.156,7.67,13,7,13ZM5.384,7a27.433,27.433,0,0,0,1.76,4.989c.675-.078,2.924-.562,4.463-.912A11.659,11.659,0,0,0,12,8a11.794,11.794,0,0,0-.371-3h-.836l-.147-.146a9.088,9.088,0,0,1-2.069-3.5,1.083,1.083,0,0,0-.673.34c-.484.52-.42,1.442.183,2.6l.383.734-.828,0S1.865,5,1.5,5a.451.451,0,0,0-.4.2.615.615,0,0,0,0,.59.4.4,0,0,0,.387.19L8,6,8,7Z" fill="#464646"/>
  <rect x="6" y="7.003" width="1" height="3" transform="translate(-2.013 14.989) rotate(-89.907)" fill="#464646"/>
  <rect x="6.5" y="9.506" width="1" height="2" transform="translate(-3.551 17.44) rotate(-89.636)" class="aw-theme-iconOutline" fill="#464646"/>
</svg>
