<svg id="Layer_2" data-name="Layer 2" xmlns="http://www.w3.org/2000/svg" viewBox="0 0 24 24">
  <path d="M14.736,20.063c-.436,0-.884,0-1.338-.013-.338-.006-.643-.012-.9-.012a1.564,1.564,0,0,1-1.289-.566A2.216,2.216,0,0,1,10.824,18h-.28A2,2,0,0,1,8.89,14.878a2.044,2.044,0,0,1-1.345-1.919A1.942,1.942,0,0,1,7.8,12H2.355A2.042,2.042,0,0,1,.315,9.96,1.963,1.963,0,0,1,2.276,8H14.168c-1.153-2.6-.531-3.989-.022-4.6a2.4,2.4,0,0,1,2.461-.815,1.206,1.206,0,0,1,.918,1.02A9.214,9.214,0,0,0,21.572,10l.423.011c.282.06,1.69.562,1.69,4.561,0,3.621-.714,4.389-1.14,4.525a8.165,8.165,0,0,1-2.925.1C18.77,19.919,16.9,20.063,14.736,20.063Zm-2.911-2.039a1.3,1.3,0,0,0,.17.827.575.575,0,0,0,.505.187c.26,0,.571.006.917.012,1.531.031,5.115.094,5.643-.705l.247-.374.4.2a5.712,5.712,0,0,0,2.467-.024c.119-.173.513-.946.513-3.58,0-2.825-.724-3.461-.9-3.572H21.3l-.115-.063a10.06,10.06,0,0,1-4.656-7.222c-.011-.108-.168-.163-.216-.177a1.411,1.411,0,0,0-1.4.5c-.4.479-.86,1.667.492,4.234L15.8,9H2.276a.962.962,0,0,0-.961.96A1.042,1.042,0,0,0,2.355,11h9.71v1H9.5a.961.961,0,0,0-.959.959A1.042,1.042,0,0,0,9.586,14h2.959v1h-2a1,1,0,0,0,0,2h2.067l.016,1Z" class="aw-theme-iconOutline" fill="#464646"/>
</svg>
