<svg id="Layer_1" data-name="Layer 1" xmlns="http://www.w3.org/2000/svg" viewBox="0 0 24 24">
  <g>
    <path d="M11.5,9A5.5,5.5,0,1,0,17,14.5,5.5066,5.5066,0,0,0,11.5,9ZM7,14.5A4.505,4.505,0,0,1,11.5,10a4.4556,4.4556,0,0,1,2.7935,1L8,17.293A4.4553,4.4553,0,0,1,7,14.5ZM11.5,19a4.4556,4.4556,0,0,1-2.7935-1L15,11.707A4.4553,4.4553,0,0,1,16,14.5,4.505,4.505,0,0,1,11.5,19Z" fill="#464646"/>
    <path d="M11.5,3a.4035.4035,0,0,0,.19-.04.3575.3575,0,0,0,.16-.11A.4681.4681,0,0,0,12,2.5a.4393.4393,0,0,0-.04-.19.3579.3579,0,0,0-.11-.16.4907.4907,0,0,0-.54-.1094.3526.3526,0,0,0-.16.1094.4838.4838,0,0,0,0,.7A.4666.4666,0,0,0,11.5,3Z" fill="#464646"/>
    <path d="M15.7256,3A1.9975,1.9975,0,0,0,14,2V1.8408A2.0467,2.0467,0,0,0,11.8945,0h-.6938A2.1355,2.1355,0,0,0,9,1.8408V2A1.9975,1.9975,0,0,0,7.2744,3H2V24H21V3ZM9,3h1V1.8408C10,1.4082,10.6763,1,11.2007,1h.6938C12.395,1,13,1.375,13,1.8408V3h1a1,1,0,0,1,.937.667L15,3.8445V5H8V3.8445l.063-.1775A1,1,0,0,1,9,3ZM20,23H3V4H7V5.5a.5.5,0,0,0,.5.5h8a.5.5,0,0,0,.5-.5V4h4Z" fill="#464646"/>
  </g>
</svg>
