<?xml version="1.0" encoding="utf-8"?>
<!-- Generator: Adobe Illustrator 27.3.1, SVG Export Plug-In . SVG Version: 6.00 Build 0)  -->
<svg version="1.1" id="Layer_1" xmlns="http://www.w3.org/2000/svg" xmlns:xlink="http://www.w3.org/1999/xlink" x="0px" y="0px"
	 viewBox="0 0 24 24" style="enable-background:new 0 0 24 24;" xml:space="preserve">
<style type="text/css">
	.st0{fill:#464646;}
</style>
<polygon class="st0" points="17.4,15.4 16.6,14.6 13.8,17.5 16.6,20.4 17.4,19.6 15.7,18 21,18 21,17 15.7,17 "/>
<path class="st0" d="M17.5,11c-3.6,0-6.5,2.9-6.5,6.5s2.9,6.5,6.5,6.5s6.5-2.9,6.5-6.5S21.1,11,17.5,11z M17.5,23
	c-3,0-5.5-2.5-5.5-5.5s2.5-5.5,5.5-5.5s5.5,2.5,5.5,5.5S20.5,23,17.5,23z"/>
<path class="st0" d="M19.8,0L8.5,2.5L7.4,0.7C7.1,0.3,6.7,0.1,6.2,0.1H1.4C0.6,0.1,0,0.7,0,1.5v19.6h9v-1H1v-13h22v4h1v-8h-3.5
	L19.8,0z M1,6.1V1.5c0-0.2,0.2-0.4,0.4-0.4h4.9c0.1,0,0.3,0.1,0.3,0.1l0.9,1.5L2.2,3.9l0.5,2.2H1z M3.7,6.1L3.4,4.7L19,1.2l1.2,4.9
	H3.7z M23,4.1v2h-1.8l-0.5-2H23z"/>
</svg>
