<svg id="Layer_1" data-name="Layer 1" xmlns="http://www.w3.org/2000/svg" viewBox="0 0 16 16">
  <path d="M15.666,9.307c0-2.579-.914-3.164-1.1-3.255L14.464,6h-.277a4.859,4.859,0,0,1-2.416-3.648.941.941,0,0,0-.7-.8,1.7,1.7,0,0,0-1.749.569C8.982,2.525,8.57,3.4,9.193,5H1.751A1.458,1.458,0,0,0,.33,6.484,1.523,1.523,0,0,0,1.842,8H5.089a1.388,1.388,0,0,0-.071.486,1.516,1.516,0,0,0,.809,1.338A1.5,1.5,0,0,0,6.621,11.9a1.2,1.2,0,0,0-.051.352A1.25,1.25,0,0,0,7.82,13.5c.193,0,.451.008.746.016.5.014.958.023,1.375.023a5.635,5.635,0,0,0,3.042-.5,4.854,4.854,0,0,0,1.79-.052l.252-.055.1-.239A7.118,7.118,0,0,0,15.666,9.307ZM14.3,12.059a3.879,3.879,0,0,1-1.376-.047l-.332-.079-.189.287c-.352.395-2.954.32-3.812.3-.307-.009-.574-.017-.775-.017a.25.25,0,0,1-.25-.25.242.242,0,0,1,.21-.233h.87v-1H7.82V11H7.166a.5.5,0,0,1-.5-.5.494.494,0,0,1,.418-.483H8.65v-1H7.166V9H6.524a.518.518,0,0,1-.506-.53A.431.431,0,0,1,6.4,8.017H8.65v-1H6.477V7H1.85a.528.528,0,0,1-.52-.532.453.453,0,0,1,.126-.326A.466.466,0,0,1,1.8,6h9l-.382-.731c-.635-1.216-.723-2.188-.236-2.6a1.045,1.045,0,0,1,.6-.211A5.875,5.875,0,0,0,13.82,6.941L13.932,7h.23a3.75,3.75,0,0,1,.506,2.352A6.207,6.207,0,0,1,14.3,12.059Z" class="aw-theme-iconOutline" fill="#464646"/>
</svg>
