<?xml version="1.0" encoding="utf-8"?>
<!-- Generator: Adobe Illustrator 27.3.1, SVG Export Plug-In . SVG Version: 6.00 Build 0)  -->
<svg version="1.1" id="Layer_1" xmlns="http://www.w3.org/2000/svg" xmlns:xlink="http://www.w3.org/1999/xlink" x="0px" y="0px"
	 viewBox="0 0 24 24" style="enable-background:new 0 0 24 24;" xml:space="preserve">
<style type="text/css">
	.st0{fill:#464646;}
</style>
<polygon class="st0" points="12.5,7.5 11.5,7.5 11.5,11.5 7.5,11.5 7.5,12.5 11.5,12.5 11.5,16.5 12.5,16.5 12.5,12.5 16.5,12.5 
	16.5,11.5 12.5,11.5 "/>
<path class="st0" d="M12,0.5C5.7,0.5,0.5,5.7,0.5,12S5.7,23.5,12,23.5S23.5,18.3,23.5,12S18.3,0.5,12,0.5z M12,22.5
	C6.2,22.5,1.5,17.8,1.5,12S6.2,1.5,12,1.5S22.5,6.2,22.5,12S17.8,22.5,12,22.5z"/>
</svg>
