<?xml version="1.0" encoding="utf-8"?>
<!-- Generator: Adobe Illustrator 27.3.1, SVG Export Plug-In . SVG Version: 6.00 Build 0)  -->
<svg version="1.1" id="Layer_1" xmlns="http://www.w3.org/2000/svg" xmlns:xlink="http://www.w3.org/1999/xlink" x="0px" y="0px"
	 viewBox="0 0 24 24" style="enable-background:new 0 0 24 24;" xml:space="preserve">
<style type="text/css">
	.st0{fill:#464646;}
</style>
<polygon class="st0" points="18,14 17,14 17,17 14,17 14,18 17,18 17,21 18,21 18,18 21,18 21,17 18,17 "/>
<path class="st0" d="M2.1,18H9v-1l-6.9-0.1c-0.4,0-0.8-0.2-1-0.5c-0.2-0.3-0.2-0.7,0-1.1L8.5,1.7c0.4-0.7,1.6-0.7,2,0l4.1,7.6
	l0.9-0.5l-4.1-7.6C11,0.5,10.3,0.1,9.5,0.1S8,0.5,7.6,1.2L0.3,14.9C0.1,15.2,0,15.6,0,16s0.1,0.7,0.3,1C0.7,17.6,1.3,18,2.1,18z"/>
<path class="st0" d="M17.5,11c-3.6,0-6.5,2.9-6.5,6.5s2.9,6.5,6.5,6.5s6.5-2.9,6.5-6.5S21.1,11,17.5,11z M17.5,23
	c-3,0-5.5-2.5-5.5-5.5s2.5-5.5,5.5-5.5s5.5,2.5,5.5,5.5S20.5,23,17.5,23z"/>
<polygon class="st0" points="8,14.1 5.9,11.2 5.1,11.8 8,15.9 12.9,8.8 12.1,8.2 "/>
</svg>
