<svg id="Layer_1" data-name="Layer 1" xmlns="http://www.w3.org/2000/svg" viewBox="0 0 24 24">
  <polygon points="21 17 18 17 18 14 17 14 17 17 14 17 14 18 17 18 17 21 18 21 18 18 21 18 21 17" class="aw-theme-iconOutline" fill="#464646"/>
  <path d="M17.5,11c-.056,0-.111.007-.167.008L14.417.082,10,1.245V0H1V16H0v1H11.025c-.013.166-.025.332-.025.5A6.5,6.5,0,1,0,17.5,11ZM13.708,1.3l2.618,9.81a6.471,6.471,0,0,0-2.919,1.346L10.645,2.109ZM2,16V1H5V12H3v1H5v3Zm7-4H7v1H9v3H6V1H9Zm1,4V3.572l2.585,9.687A6.482,6.482,0,0,0,11.182,16Zm7.5,7A5.5,5.5,0,1,1,23,17.5,5.506,5.506,0,0,1,17.5,23Z" class="aw-theme-iconOutline" fill="#464646"/>
</svg>
