<?xml version="1.0" encoding="utf-8"?>
<!-- Generator: Adobe Illustrator 27.3.1, SVG Export Plug-In . SVG Version: 6.00 Build 0)  -->
<svg version="1.1" id="Artwork" xmlns="http://www.w3.org/2000/svg" xmlns:xlink="http://www.w3.org/1999/xlink" x="0px" y="0px"
	 viewBox="0 0 16 16" style="enable-background:new 0 0 16 16;" xml:space="preserve">
<style type="text/css">
	.st0{fill:#464646;}
</style>
<path class="st0" d="M6.5,1.2v0.7C5,2.4,4,3.9,4,5.5v1.8c0,1-0.4,1.9-1,2.6c-1,1-1.5,2.3-1.5,3.6V14h4.4C6,15.2,7,16.1,8.1,16
	c1.1-0.1,1.9-0.9,2-2h4.4v-0.5c0-1.4-0.5-2.7-1.5-3.6c-0.7-0.7-1-1.6-1-2.6V5.5c0-1.6-1-3.1-2.5-3.7V1.2C9.5,0.5,9,0,8.3,0H7.7
	C7,0,6.5,0.5,6.5,1.2z M8,15c-0.6,0-1.1-0.4-1.1-1h2.2C9.1,14.6,8.6,15,8,15z M11,5.5v1.8c0,1.2,0.5,2.4,1.3,3.2
	c0.6,0.7,1.1,1.5,1.2,2.4h-11c0,0,0,0.1,0,0.1v-0.1h0C2.6,12,3,11.2,3.7,10.6C4.5,9.7,5,8.5,5,7.3V5.5c0-1.6,1.3-3,3-3
	S11,3.8,11,5.5z M8.4,1c0.1,0,0.2,0.1,0.2,0.2v0.4c-0.2,0-0.9,0-1.1,0V1.2C7.5,1.1,7.6,1,7.7,1H8.4z"/>
</svg>
