<svg id="Layer_2" data-name="Layer 2" xmlns="http://www.w3.org/2000/svg" viewBox="0 0 10 10">
  <title>cmdModifierAssign</title>  <path d="M5,10c-.344,0-.859,0-1.889-4H1C.4,6,0,5.4,0,4.5a2.257,2.257,0,0,1,.168-.89A.917.917,0,0,1,1,3H5.154A2.4,2.4,0,0,1,5.513.657,1.509,1.509,0,0,1,7,.064a.71.71,0,0,1,.483.5c.373.757,1.011,1.79,1.3,2.243H10V5.856a9.117,9.117,0,0,1-.406,2.888L9.5,8.991l-.255.066C8.384,9.278,5.522,10,5,10ZM4.147,6A17.3,17.3,0,0,0,5.16,8.981c.541-.085,2.1-.452,3.567-.823A9.165,9.165,0,0,0,9,5.856V3.805H8.228L8.08,3.576C8.04,3.514,7.126,2.1,6.605,1.054a.946.946,0,0,0-.409.358,1.9,1.9,0,0,0,.145,1.862L6.708,4H1.086a1.517,1.517,0,0,0,0,1H6V6Z" class="aw-theme-iconOutline" fill="#464646"/>
  <rect x="4.414" y="7" width="1.586" height="1" fill="#464646"/>
</svg>
