<svg version="1.1" id="Artwork" xmlns="http://www.w3.org/2000/svg" xmlns:xlink="http://www.w3.org/1999/xlink" x="0px" y="0px"
	 viewBox="0 0 24 24" enable-background="new 0 0 24 24" xml:space="preserve">
<path class="aw-theme-iconOutline" fill="#464646" d="M6.2,23c-1.6,0-3.2-0.6-4.4-1.8c-2.4-2.4-2.4-6.3,0-8.7l9.8-9.8l0.7,0.7l-9.8,9.8c-2,2-2,5.3,0,7.3
	c2,2,5.3,2,7.3,0l12-12c1.5-1.5,1.5-3.8,0-5.3c-1.5-1.5-3.8-1.5-5.3,0L6.4,13.4c-0.4,0.4-0.7,1-0.7,1.6c0,0.6,0.2,1.2,0.7,1.6
	c0.9,0.9,2.4,0.9,3.3,0l8-8l0.7,0.7l-8,8c-1.3,1.3-3.4,1.3-4.7,0c-0.6-0.6-1-1.5-1-2.4c0-0.9,0.3-1.7,1-2.4L15.8,2.5
	c0.9-0.9,2.1-1.4,3.4-1.4s2.5,0.5,3.4,1.4s1.4,2.1,1.4,3.4s-0.5,2.5-1.4,3.4l-12,12C9.3,22.4,7.7,23,6.2,23z"/>
</svg>
