<svg width="24" height="24" viewBox="0 0 24 24" fill="none" xmlns="http://www.w3.org/2000/svg">
<g clip-path="url(#clip0_423_14673)">
<path d="M9 17H3V18H9V17Z" fill="#464646"/>
<path d="M17.8002 14.8L17.1002 14.1L14.1002 17.1C13.9002 17.3 13.9002 17.6 14.1002 17.8L17.1002 20.8L17.8002 20.1L15.7002 18H21.0002V17H15.7002L17.8002 14.8Z" fill="#464646"/>
<path d="M17.5 11C13.9 11 11 13.9 11 17.5C11 21.1 13.9 24 17.5 24C21.1 24 24 21.1 24 17.5C24 13.9 21.1 11 17.5 11ZM17.5 23C14.5 23 12 20.5 12 17.5C12 14.5 14.5 12 17.5 12C20.5 12 23 14.5 23 17.5C23 20.5 20.5 23 17.5 23Z" fill="#464646"/>
<path d="M12 23.5V22H11V23H8V20H4V23H1V8.2L11 1.5V13H12V0.5C12 0.2 11.8 0 11.5 0C11.4 0 11.3 0 11.2 0.1L0.2 7.5C0.1 7.6 0 7.8 0 7.9V23.5C0 23.8 0.2 24 0.5 24H11.5C11.8 24 12 23.8 12 23.5ZM7 23H5V21H7V23Z" fill="#464646"/>
<path d="M9 11H3V12H9V11Z" fill="#464646"/>
<path d="M9 15H3V16H9V15Z" fill="#464646"/>
<path d="M9 9H3V10H9V9Z" fill="#464646"/>
<path d="M9 13H3V14H9V13Z" fill="#464646"/>
</g>
<defs>
<clipPath id="clip0_423_14673">
<rect width="24" height="24" fill="white"/>
</clipPath>
</defs>
</svg>
