<svg version="1.1" id="Artwork" xmlns="http://www.w3.org/2000/svg" xmlns:xlink="http://www.w3.org/1999/xlink" x="0px" y="0px"
	 width="16px" height="16px" viewBox="0 0 16 16" enable-background="new 0 0 16 16" xml:space="preserve">
<path class="aw-theme-iconOutline" fill="#464646" d="M4.5,15.4c-1.1,0-2.2-0.4-3.1-1.3c-1.7-1.7-1.7-4.5,0-6.2l5.8-5.8l0.7,0.7L2.1,8.6c-1.3,1.3-1.3,3.5,0,4.8
	s3.5,1.3,4.8,0l7.2-7.2c0.9-0.9,0.9-2.4,0-3.3c-0.9-0.9-2.4-0.9-3.3,0L4.6,9.1c-0.5,0.5-0.5,1.3,0,1.8s1.3,0.5,1.8,0l4.8-4.8
	l0.7,0.7l-4.8,4.8c-0.9,0.9-2.3,0.9-3.2,0C3,10.7,3,9.3,3.9,8.4l6.2-6.2c1.3-1.3,3.4-1.3,4.7,0s1.3,3.4,0,4.7l-7.2,7.2
	C6.7,15,5.6,15.4,4.5,15.4z"/>
</svg>
