<?xml version="1.0" encoding="utf-8"?>
<!-- Generator: Adobe Illustrator 27.2.0, SVG Export Plug-In . SVG Version: 6.00 Build 0)  -->
<svg version="1.1" id="Layer_1" xmlns="http://www.w3.org/2000/svg" xmlns:xlink="http://www.w3.org/1999/xlink" x="0px" y="0px"
	 viewBox="0 0 24 24" style="enable-background:new 0 0 24 24;" xml:space="preserve">
<style type="text/css">
	.st0{fill:#464646;}
</style>
<g>
	<polygon class="st0" points="4,7 5,7 5,5 7,5 7,4 5,4 5,2 4,2 4,4 2,4 2,5 4,5 	"/>
	<path class="st0" d="M23.8,16c-0.6-2.4-2.4-4.3-4.8-4.8V0H0v19h11.2c0.8,3.5,4.3,5.7,7.8,4.8C22.5,23,24.7,19.5,23.8,16z M18,1v4.3
		L13.7,1H18z M13,1.7L17.3,6H13V1.7z M10,1h2v6h6v2h-8V1z M9,18H1v-8h8V18z M9,9H1V1h8V9z M11,18h-1v-8h8v1c-0.2,0-0.3,0-0.5,0
		c-3.6,0-6.5,2.9-6.5,6.5C11,17.7,11,17.8,11,18z M17.5,23c-3,0-5.5-2.5-5.5-5.5s2.5-5.5,5.5-5.5s5.5,2.5,5.5,5.5
		C23,20.5,20.5,23,17.5,23z"/>
	<polygon class="st0" points="18,14 17,14 17,17 14,17 14,18 17,18 17,21 18,21 18,18 21,18 21,17 18,17 	"/>
	<polygon class="st0" points="8,16 3.4,16 6.4,14 3.4,12 8,12 8,11 2,11 2,12.3 4.6,14 2,15.7 2,17 8,17 	"/>
</g>
</svg>
