<?xml version="1.0" encoding="utf-8"?>
<!-- Generator: Adobe Illustrator 27.2.0, SVG Export Plug-In . SVG Version: 6.00 Build 0)  -->
<svg version="1.1" id="Layer_1" xmlns="http://www.w3.org/2000/svg" xmlns:xlink="http://www.w3.org/1999/xlink" x="0px" y="0px"
	 viewBox="0 0 24 24" style="enable-background:new 0 0 24 24;" xml:space="preserve">
<style type="text/css">
	.st0{fill:#464646;}
</style>
<path id="Shape" class="st0" d="M4,0v1h3v2h1V1h7v5h-3v1h3v4.5c0.8-0.3,1.6-0.5,2.5-0.5c3.5,0,6.4,2.8,6.5,6.3s-2.6,6.5-6.2,6.7
	c-3.4,0.2-6.4-2.4-6.8-5.8l0-0.2H8v-5h3v-1H8V7h3V6H8V4H7v2H4v5H3V6H0V1h3V0H4z M19.6,12.4c-2.1-0.9-4.4-0.4-6,1.2s-2,3.9-1.2,6
	s2.9,3.4,5.1,3.4c3,0,5.5-2.5,5.5-5.5C23,15.3,21.7,13.3,19.6,12.4z M18,14v3h3v1h-3v3h-1v-3h-3v-1h3v-3H18z M12,14H9v3h2
	c0.1-1,0.4-1.9,0.8-2.7L12,14z M14,12H12v1h0.8c0.3-0.3,0.6-0.6,1-0.8L14,12z M14,8H9v3h5V8z M6,2H1v3h5V2z M14,2H9v3h5V2z"/>
</svg>
