<svg width="24" height="24" viewBox="0 0 24 24" fill="none" xmlns="http://www.w3.org/2000/svg">
<g clip-path="url(#clip0_423_14666)">
<path d="M4.99961 15H9.99961V9.99998H8.99961V13.3L3.39961 7.59998L2.59961 8.39998L8.29961 14H4.99961V15Z" fill="#464646"/>
<path d="M9 17H1V3H3V5H10V3H12V12H13V2H9.9C9.7 1.4 9.2 1 8.5 1H8C8 0.4 7.6 0 7 0H6C5.4 0 5 0.4 5 1H4.5C3.8 1 3.3 1.4 3.1 2H0V18H9V17ZM4 2.5C4 2.2 4.2 2 4.5 2H6V1H7V2H8.5C8.8 2 9 2.2 9 2.5V4H4V2.5Z" fill="#464646"/>
<path d="M14 9.6C14 11.6 15.6 14 17.5 14C19.4 14 21 11.6 21 9.6C21 7.6 19.4 6 17.5 6C15.6 6 14 7.6 14 9.6ZM20 9.6C20 11.1 18.8 13 17.5 13C16.2 13 15 11.1 15 9.6C15 8.1 16.1 7 17.5 7C18.9 7 20 8.1 20 9.6Z" fill="#464646"/>
<path d="M21.3 14C21.1 13.9 20.9 13.9 20.8 14C18.8 15.4 16.2 15.4 14.2 14C14.1 13.9 13.9 13.9 13.7 14C12 14.9 11 16.4 11 18V24H12V18C12 16.8 12.7 15.7 13.8 15.1C16.1 16.5 18.9 16.5 21.1 15.1C22.3 15.7 23 16.8 23 18V24H24V18C24 16.3 23 14.8 21.3 14Z" fill="#464646"/>
<path d="M15 20H14V24H15V20Z" fill="#464646"/>
<path d="M21 20H20V24H21V20Z" fill="#464646"/>
</g>
<defs>
<clipPath id="clip0_423_14666">
<rect width="24" height="24" fill="white"/>
</clipPath>
</defs>
</svg>
