<svg id="Layer_2" data-name="Layer 2" xmlns="http://www.w3.org/2000/svg" viewBox="0 0 32 32">
  <path d="M21.425,27.221c-1.156,0-2.442-.059-3.793-.132-.865-.047-1.627-.089-2.176-.089a2.008,2.008,0,0,1-1.876-3.015,2.084,2.084,0,0,1-1.7-1.094,3.059,3.059,0,0,1-.029-2.933.462.462,0,0,1,.028-.048,2.547,2.547,0,0,1-1.87-2.452A2.443,2.443,0,0,1,10.491,16H2.833A2.542,2.542,0,0,1,.294,13.461,2.463,2.463,0,0,1,2.755,11H19.187c-1.554-3.394-.766-5.166-.123-5.94a2.886,2.886,0,0,1,2.964-.983,1.4,1.4,0,0,1,1.065,1.174A10.3,10.3,0,0,0,28.285,13h1.238l.106.053c.213.1,2.077,1.188,2.077,6.624,0,5.279-1.1,6.289-1.321,6.437l-.186.077a11.018,11.018,0,0,1-4.011.1C25.37,27.009,23.634,27.221,21.425,27.221ZM15.456,24a1.01,1.01,0,1,0,0,2c.563,0,1.343.042,2.231.091,2.529.135,7.242.392,7.943-.666l.247-.374.4.205a8.111,8.111,0,0,0,3.586-.02c.166-.241.845-1.46.845-5.559,0-4.158-1.143-5.411-1.457-5.677l-1.291-.046A11.139,11.139,0,0,1,22.1,5.365c-.02-.2-.237-.293-.364-.332a1.921,1.921,0,0,0-1.9.666c-.529.637-1.156,2.209.6,5.57l.381.731H2.755a1.462,1.462,0,0,0-1.461,1.461A1.54,1.54,0,0,0,2.833,15H15.794v1H12.469a1.46,1.46,0,0,0-1.458,1.458A1.543,1.543,0,0,0,12.553,19h3.958v1H13.456a.817.817,0,0,0-.737.457,2.076,2.076,0,0,0,.028,1.933,1.135,1.135,0,0,0,1.04.605h0c.133,0,2.987,0,2.987,0v1Z" class="aw-theme-iconOutline" fill="#464646"/>
</svg>
