<?xml version="1.0" encoding="utf-8"?>
<!-- Generator: Adobe Illustrator 27.3.1, SVG Export Plug-In . SVG Version: 6.00 Build 0)  -->
<svg version="1.1" id="Layer_1" xmlns="http://www.w3.org/2000/svg" xmlns:xlink="http://www.w3.org/1999/xlink" x="0px" y="0px"
	 viewBox="0 0 24 24" style="enable-background:new 0 0 24 24;" xml:space="preserve">
<style type="text/css">
	.st0{fill:#464646;}
</style>
<path class="st0" d="M8.2,19.9C8.3,20,8.4,20,8.5,20c0.1,0,0.2,0,0.2-0.1c0,0,0,0,0,0l0,0l1.5-0.9l-0.5-0.8L9,18.6v-7.8l7-4.4v3.5h1
	V5.5c0-0.2-0.1-0.3-0.2-0.4l-8-5C8.7,0,8.6,0,8.5,0h0C8.4,0,8.3,0,8.2,0.1l-8,5C0.1,5.2,0,5.3,0,5.5v9c0,0.2,0.1,0.3,0.2,0.4
	L8.2,19.9z M8.5,1.1l7.1,4.4L8.5,9.9L1.4,5.5L8.5,1.1z M1,6.4l7,4.4v7.8l-7-4.4V6.4z"/>
<polygon class="st0" points="18,14 17,14 17,17 14,17 14,18 17,18 17,21 18,21 18,18 21,18 21,17 18,17 "/>
<path class="st0" d="M17.5,11c-3.6,0-6.5,2.9-6.5,6.5s2.9,6.5,6.5,6.5s6.5-2.9,6.5-6.5S21.1,11,17.5,11z M17.5,23
	c-3,0-5.5-2.5-5.5-5.5s2.5-5.5,5.5-5.5s5.5,2.5,5.5,5.5S20.5,23,17.5,23z"/>
</svg>
