<?xml version="1.0" encoding="utf-8"?>
<!-- Generator: Adobe Illustrator 27.3.1, SVG Export Plug-In . SVG Version: 6.00 Build 0)  -->
<svg version="1.1" id="Layer_1" xmlns="http://www.w3.org/2000/svg" xmlns:xlink="http://www.w3.org/1999/xlink" x="0px" y="0px"
	 viewBox="0 0 24 24" style="enable-background:new 0 0 24 24;" xml:space="preserve">
<style type="text/css">
	.st0{fill:#464646;}
	.st1{fill:#72FFAD;}
</style>
<path class="st0" d="M23,14.1c-0.5-0.9-1.3-1.6-2.2-2.2v0c0.1-0.5,0.1-1,0.1-1.5V10h-1v0.5c0,0.3,0,0.7-0.1,1
	c-3.3-1.3-7.1,0.3-8.5,3.6c-0.6,1.6-0.6,3.3,0,4.9c-0.3,0-0.6,0.1-1,0.1C5.3,20,1,15.8,1,10.5C1,5.3,5.2,1,10.5,1c3.1,0,6,1.5,7.8,4
	H15v1h5V1h-1v3.4C15.6-0.3,9.1-1.4,4.4,2S-1.4,11.9,2,16.6c2,2.7,5.1,4.4,8.5,4.4c0.5,0,1,0,1.5-0.1c1.9,3.1,5.9,4,8.9,2.2
	C24,21.2,24.9,17.2,23,14.1z M17.5,23c-3,0-5.5-2.5-5.5-5.5s2.5-5.5,5.5-5.5s5.5,2.5,5.5,5.5C23,20.5,20.5,23,17.5,23z"/>
<path class="st0" d="M14.1,7.1l-3.6,3.6L5.9,6.1C5.7,6,5.4,6,5.2,6.1C5,6.3,5,6.7,5.1,6.9l5,5c0.1,0.1,0.2,0.1,0.4,0.1
	c0.1,0,0.3-0.1,0.4-0.1l4-4c0,0,0,0,0,0c0.2-0.2,0.2-0.5,0-0.7C14.7,6.9,14.3,6.9,14.1,7.1z"/>
<polygon class="st0" points="18,14 17,14 17,17 14,17 14,18 17,18 17,21 18,21 18,18 21,18 21,17 18,17 "/>
<polygon class="st0" points="24,0 0,0 0,0 24,0 24,24 24,24 "/>
<polygon class="st1" points="0,0 0,0 0,24 24,24 24,24 0,24 "/>
</svg>
