<?xml version="1.0" encoding="utf-8"?>
<!-- Generator: Adobe Illustrator 27.3.1, SVG Export Plug-In . SVG Version: 6.00 Build 0)  -->
<svg version="1.1" id="Artwork" xmlns="http://www.w3.org/2000/svg" xmlns:xlink="http://www.w3.org/1999/xlink" x="0px" y="0px"
	 viewBox="0 0 24 24" style="enable-background:new 0 0 24 24;" xml:space="preserve">
<style type="text/css">
	.st0{fill:#464646;}
</style>
<path class="st0" d="M11.9,0.5C5.6,0.5,0.4,5.7,0.4,12s5.2,11.5,11.5,11.5c6.3,0,11.5-5.2,11.5-11.5S18.2,0.5,11.9,0.5z M11.9,22.5
	C6.1,22.5,1.4,17.8,1.4,12S6.1,1.5,11.9,1.5c5.8,0,10.5,4.7,10.5,10.5S17.7,22.5,11.9,22.5z"/>
<path class="st0" d="M11.4,6.5L3.5,12l7.9,5.5v-4.8l7,4.8v-11l-7,4.8V6.5z M10.4,15.5L5.3,12l5.1-3.5V15.5z M17.4,8.5v7L12.3,12
	L17.4,8.5z"/>
</svg>
