<svg id="Layer_1" data-name="Layer 1" xmlns="http://www.w3.org/2000/svg" viewBox="0 0 16 16">
  <path d="M14.039,6.66a2.765,2.765,0,0,0,.04-2.764A7.491,7.491,0,0,0,7.5,0h-.1A7.553,7.553,0,0,0,0,7.394a7.5,7.5,0,0,0,13.689,4.343l-.824-.565A6.5,6.5,0,0,1,1,7.407,6.626,6.626,0,0,1,7.407,1H7.5a6.494,6.494,0,0,1,5.7,3.377,1.776,1.776,0,0,1-.023,1.773A1.719,1.719,0,0,1,11.685,7H4.666L7.854,3.812a.5.5,0,1,0-.708-.707L3.105,7.146a.5.5,0,0,0,0,.708L7.146,11.9a.5.5,0,0,0,.708-.707L4.666,8h7.019A2.71,2.71,0,0,0,14.039,6.66Z" class="aw-theme-iconOutline" fill="#464646"/>
</svg>
