<?xml version="1.0" encoding="utf-8"?>
<!-- Generator: Adobe Illustrator 27.2.0, SVG Export Plug-In . SVG Version: 6.00 Build 0)  -->
<svg version="1.1" id="Artwork" xmlns="http://www.w3.org/2000/svg" xmlns:xlink="http://www.w3.org/1999/xlink" x="0px" y="0px"
	 viewBox="0 0 24 24" style="enable-background:new 0 0 24 24;" xml:space="preserve">
<style type="text/css">
	.st0{fill:#464646;}
</style>
<path class="st0" d="M21.5,1.5h-19C1.1,1.5,0,2.6,0,4v16c0,1.4,1.1,2.5,2.5,2.5h19c1.4,0,2.5-1.1,2.5-2.5V4
	C24,2.6,22.9,1.5,21.5,1.5z M15,2.5v4H9v-4H15z M1.3,20.8C1.1,20.6,1,20.3,1,20v-2.5h5.7L1.3,20.8z M1,7.5h5.8L1,11V7.5z M2.1,6.5
	L8,2.9v3.6H2.1z M8,7.9v3.6H2.1L8,7.9z M1,12.5h5.8L1,16V12.5z M8,12.9v3.6H2.1L8,12.9z M9,16.5v-4h6v4H9z M15,17.5v4H9v-4H15z
	 M9,11.5v-4h6v4H9z M2.5,2.5h4.3L1,6V4C1,3.2,1.7,2.5,2.5,2.5z M2.2,21.5L8,17.9v3.6H2.5C2.4,21.5,2.3,21.5,2.2,21.5z M23,20
	c0,0.8-0.7,1.5-1.5,1.5H16v-4h7V20z M23,16.5h-7v-4h7V16.5z M23,11.5h-7v-4h7V11.5z M23,6.5h-7v-4h5.5C22.3,2.5,23,3.2,23,4V6.5z"/>
</svg>
