<svg version="1.1" id="Artwork" xmlns="http://www.w3.org/2000/svg" xmlns:xlink="http://www.w3.org/1999/xlink" x="0px" y="0px"
	 width="16px" height="16px" viewBox="0 0 16 16" enable-background="new 0 0 16 16" xml:space="preserve">
<path class="aw-theme-iconOutline" fill="#464646" d="M15.9,9.2C15.8,9.1,15.7,9,15.5,9h-12C3.3,9,3.1,9.1,3.1,9.3L1,13.4V5.1C1,5,1,5,1.1,5l3.2,0l1.1,2H12v1h1V6
	H6L5.1,4.5C4.9,4.2,4.6,4,4.2,4H1.1C0.5,4,0,4.5,0,5.1V16h12.5c0.2,0,0.4-0.1,0.4-0.3l3-6C16,9.6,16,9.4,15.9,9.2z M12.2,15H1.3
	l2.5-5h10.9L12.2,15z"/>
<path class="aw-theme-iconOutline" fill="#464646" d="M12.2,2h-1.5l1.1-1.1l-0.7-0.7L8.8,2.5l2.4,2.4l0.7-0.7L10.7,3h1.5C13.7,3,15,4.3,15,5.8V7h1V5.8
	C16,3.7,14.3,2,12.2,2z"/>
	</svg>
