<?xml version="1.0" encoding="utf-8"?>
<!-- Generator: Adobe Illustrator 27.3.1, SVG Export Plug-In . SVG Version: 6.00 Build 0)  -->
<svg version="1.1" id="Layer_1" xmlns="http://www.w3.org/2000/svg" xmlns:xlink="http://www.w3.org/1999/xlink" x="0px" y="0px"
	 viewBox="0 0 24 24" style="enable-background:new 0 0 24 24;" xml:space="preserve">
<style type="text/css">
	.st0{fill:#464646;}
</style>
<path class="st0" d="M19.4,4.1c-0.2-0.2-0.5-0.2-0.7,0L14,8.3L9.4,0.3L8.6,0.7L13.3,9l-4.6,4.1c-0.1,0.1-0.1,0.2-0.1,0.2L8.1,15H1.4
	l4.8-8.6L5.3,5.9l-5.3,9.3c-0.1,0.2,0,0.5,0.2,0.7C0.3,16,0.4,16,0.5,16h7.4l-0.3,1.2l-1.4,1.4c-0.2,0.2-0.2,0.5,0,0.7
	c0.1,0.1,0.1,0.1,0.2,0.1L7.8,20c0,0,0.1,0,0.2,0c0.1,0,0.3-0.1,0.4-0.1l1-1c0.1-0.1,0.1-0.2,0.1-0.4c0-0.1-0.1-0.3-0.2-0.4
	l-0.8-0.8l0.7-2.9l0.9,0.9l0.7-0.7l-1.1-1.1L19,5.2l2.3,2.3L19,10l0.7,0.7l2.6-2.9c0.2-0.2,0.2-0.5,0-0.7L19.4,4.1z M7.9,18.9
	l-0.4-0.1L8,18.2l0.3,0.3L7.9,18.9z"/>
<path class="st0" d="M17.5,11c-3.6,0-6.5,2.9-6.5,6.5s2.9,6.5,6.5,6.5c3.6,0,6.5-2.9,6.5-6.5C24,13.9,21.1,11,17.5,11z M17.5,23
	c-3,0-5.5-2.5-5.5-5.5s2.5-5.5,5.5-5.5c3,0,5.5,2.5,5.5,5.5C23,20.5,20.5,23,17.5,23z"/>
<polygon class="st0" points="18,14 17,14 17,17 14,17 14,18 17,18 17,21 18,21 18,18 21,18 21,17 18,17 "/>
</svg>
