<?xml version="1.0" encoding="utf-8"?>
<!-- Generator: Adobe Illustrator 27.2.0, SVG Export Plug-In . SVG Version: 6.00 Build 0)  -->
<svg version="1.1" id="Layer_1" xmlns="http://www.w3.org/2000/svg" xmlns:xlink="http://www.w3.org/1999/xlink" x="0px" y="0px"
	 viewBox="0 0 24 24" style="enable-background:new 0 0 24 24;" xml:space="preserve">
<style type="text/css">
	.st0{fill:#464646;}
</style>
<g id="Page-1">
	<g id="cmdColumnUnfreeze24">
		<path id="Shape" class="st0" d="M16.5,8.5c4.1,0,7.5,3.4,7.5,7.5c0,4.1-3.4,7.5-7.5,7.5S9,20.1,9,16S12.4,8.5,16.5,8.5z M16.5,9.5
			c-3.6,0-6.5,2.9-6.5,6.5s2.9,6.5,6.5,6.5c3.6,0,6.5-2.9,6.5-6.5C23,12.4,20.1,9.5,16.5,9.5z M21.5,0.5c0.7,0,1.3,0.3,1.8,0.7
			c0.4,0.4,0.7,1,0.7,1.6L24,3v8h-1V6.5h-7v1h-1v-1H9v7H8v-1.5l-5.9,3.6H8v1l0.2,0.3l-6,3.7c0.1,0,0.1,0,0.2,0l0.1,0H8v-1.7h1v2.6
			H8.5v0h-6c-1.3,0-2.4-1-2.5-2.4L0,19V3c0-1.3,1-2.4,2.4-2.5l0.1,0H21.5z M19.6,12.1l0.7,0.7L17.2,16l3.1,3.1l-0.7,0.7l-3.1-3.1
			l-3.1,3.1l-0.7-0.7l3.1-3.1l-3.1-3.1l0.7-0.7l3.1,3.1L19.6,12.1z M6.7,16.5H1V19c0,0.3,0.1,0.5,0.2,0.7l0.1,0.1L6.7,16.5z
			 M6.8,11.5H1V15L6.8,11.5z M8,6.9l-5.9,3.6H8V6.9z M6.8,6.5H1V10L6.8,6.5z M8,1.9L2.1,5.5H8V1.9z M15,1.5H9v4h6V1.5z M21.5,1.5H16
			v4h7V3c0-0.8-0.6-1.4-1.4-1.5L21.5,1.5z M6.8,1.5H2.5C1.7,1.5,1.1,2.1,1,2.9L1,3v2L6.8,1.5z"/>
	</g>
</g>
</svg>
