<?xml version="1.0" encoding="utf-8"?>
<!-- Generator: Adobe Illustrator 27.3.1, SVG Export Plug-In . SVG Version: 6.00 Build 0)  -->
<svg version="1.1" id="Layer_1" xmlns="http://www.w3.org/2000/svg" xmlns:xlink="http://www.w3.org/1999/xlink" x="0px" y="0px"
	 viewBox="0 0 24 24" style="enable-background:new 0 0 24 24;" xml:space="preserve">
<style type="text/css">
	.st0{fill:#464646;}
</style>
<polygon class="st0" points="11,10 10,10 10,13.3 5.4,8.6 4.6,9.3 9.3,14 6,14 6,15 11,15 "/>
<path class="st0" d="M16,15c1.7,0,3-2.1,3-3.9C19,9.4,17.7,8,16,8s-3,1.4-3,3.1C13,12.9,14.3,15,16,15z M16,9c1.1,0,2,1,2,2.1
	c0,1.3-1,2.9-2,2.9s-2-1.6-2-2.9C14,10,14.9,9,16,9z"/>
<path class="st0" d="M22.9,7.6c-0.2-0.4-0.6-0.7-1-0.8c-0.5-0.1-0.9,0-1.3,0.3C20,7.5,19.9,8.3,20.2,9s0.5,1.4,0.5,2.1
	c0,2.3-1.7,5-4.2,5.4c-1.2,0.2-2.5-0.2-3.5-0.9c-0.1-0.1-0.3-0.1-0.5,0C11,16.4,10,17.8,10,19.3V24h1v-4.8c0-1,0.7-2,1.7-2.6
	c1.2,0.8,2.6,1.2,3.9,1h0.1c2.9-0.5,4.9-3.7,4.9-6.4c0-0.8-0.2-1.7-0.6-2.5c-0.1-0.3,0-0.6,0-0.6C21.2,8,21.3,8,21.5,8
	c0,0,0.2,0,0.3,0.2c0.7,1.3,1.1,2.8,1.1,4.3c0,2-0.2,4.3-1.8,6C21,18.6,21,18.7,21,18.8V24h1.1v-5c1.3-1.4,1.7-3,1.9-4.6V11
	C23.8,9.8,23.5,8.6,22.9,7.6z"/>
<path class="st0" d="M3,10H1V5h4v0.5C5,6.3,5.7,7,6.5,7h2c0.4,0,0.8-0.2,1.1-0.4C9.8,6.3,10,5.9,10,5.5V5h4v2h1V3.9L12.4,0H2.8
	L0,3.9V11h3V10z M3.4,1h8.5l2,3H9v1.5c0,0.1,0,0.3-0.1,0.4C8.8,5.9,8.6,6,8.5,6h-2C6.2,6,6,5.8,6,5.5V4H1.2L3.4,1z"/>
<path class="st0" d="M24,11v3.4c0.1-0.7,0.1-1.4,0.1-2C24.1,11.9,24.1,11.5,24,11z"/>
<path class="st0" d="M14,21h-1v3h1V21z"/>
</svg>
