<svg version="1.1" id="Artwork" xmlns="http://www.w3.org/2000/svg" xmlns:xlink="http://www.w3.org/1999/xlink" x="0px" y="0px"
	 width="16px" height="16px" viewBox="0 0 16 16" enable-background="new 0 0 16 16" xml:space="preserve">
<path class="aw-theme-iconOutline" fill="#464646" d="M7.5,11C7.2,11,7,10.8,7,10.5v-0.3c0-1,0.6-2,1.5-2.4c1-0.5,1.6-1.6,1.4-2.7C9.8,4,9,3.2,8,3
	C7.2,2.9,6.5,3.1,5.9,3.6C5.3,4.1,5,4.8,5,5.5C5,5.8,4.8,6,4.5,6S4,5.8,4,5.5c0-1,0.5-2,1.3-2.7C6,2.2,7.1,1.9,8.1,2.1
	c1.4,0.2,2.6,1.4,2.8,2.8c0.3,1.6-0.5,3.1-2,3.8c-0.6,0.3-1,0.9-1,1.5v0.3C8,10.8,7.8,11,7.5,11z"/>
<polygon class="aw-theme-iconOutline" fill="#464646" points="1,4 0,4 0,0 4,0 4,1 1,1 "/>
<polygon class="aw-theme-iconOutline" fill="#464646" points="15,4 14,4 14,1 11,1 11,0 15,0 "/>
<polygon class="aw-theme-iconOutline" fill="#464646" points="15,15 11,15 11,14 14,14 14,11 15,11 "/>
<polygon class="aw-theme-iconOutline" fill="#464646" points="4,15 0,15 0,11 1,11 1,14 4,14 "/>
<circle class="aw-theme-iconOutline" fill="#464646" cx="7.5" cy="13.5" r="0.5"/>
</svg>
