<?xml version="1.0" encoding="utf-8"?>
<!-- Generator: Adobe Illustrator 27.1.1, SVG Export Plug-In . SVG Version: 6.00 Build 0)  -->
<svg version="1.1" id="Layer_1" xmlns="http://www.w3.org/2000/svg" xmlns:xlink="http://www.w3.org/1999/xlink" x="0px" y="0px"
	 viewBox="0 0 32 32" style="enable-background:new 0 0 32 32;" xml:space="preserve">
<style type="text/css">
	.st0{fill:#464646;}
</style>
<path class="st0" d="M17.5,24h-0.7L9.4,5.3c-0.1-0.4-0.7-0.4-0.9,0L1.1,24H0.5C0.2,24,0,24.2,0,24.5S0.2,25,0.5,25h3.3
	c0.2,0,0.5-0.2,0.5-0.5S4.1,24,3.8,24H2.3l2.4-6h8.7l2.4,6h-1.5c-0.2,0-0.5,0.2-0.5,0.5S14,25,14.3,25h3.3c0.3,0,0.5-0.2,0.5-0.5
	S17.8,24,17.5,24z M5,17L9,6.9L13,17H5z"/>
<path class="st0" d="M30.3,10.2C29.2,9.3,27.8,8.8,26,9c-1.7,0.2-3.3,0.7-5,1.8c-0.3,0.2-0.3,0.5-0.2,0.7c0.2,0.3,0.5,0.3,0.7,0.2
	c1.7-1.1,3.1-1.6,4.6-1.7s2.7,0.2,3.5,1c0.9,0.8,1.4,2.2,1.4,4v0.7c-1.1-0.5-3.2-1.3-5.7-1.3c-3,0-5.3,2.3-5.3,5.3
	c0,2.9,2.4,5.3,5.3,5.3c2.8,0,4.7-1.1,5.7-1.9v1.4c0,0.3,0.2,0.5,0.5,0.5s0.5-0.2,0.5-0.5V15C32,13,31.4,11.3,30.3,10.2z M30.9,21.7
	c0,0.1-2,2.3-5.7,2.3c-2.4,0-4.3-1.9-4.3-4.3s1.9-4.3,4.3-4.3c2.8,0,5.1,1.1,5.8,1.5L30.9,21.7L30.9,21.7z"/>
</svg>
