<svg version="1.1" id="Layer_1" xmlns="http://www.w3.org/2000/svg" xmlns:xlink="http://www.w3.org/1999/xlink" x="0px" y="0px"
	 viewBox="0 0 24 24" enable-background="new 0 0 24 24" xml:space="preserve">
	<polygon class="aw-theme-iconOutline" fill="#464646" points="13,20 13,4.7 16.1,7.9 16.9,7.1 12.5,2.8 8.1,7.1 8.9,7.9 12,4.7 12,20 	"/>
	<path class="aw-theme-iconOutline" fill="#464646" d="M0,0v12h2h1h7v-1H3V1h20v10h-8v1h9V0H0z M2,11H1V1h1V11z"/>
	<path class="aw-theme-iconOutline" fill="#464646" d="M15,16h5v7H6v-7h4v-1H3v9h18v-9h-6V16z M4,23v-7h1v7H4z"/>
</svg>
