<svg version="1.1" id="Artwork" xmlns="http://www.w3.org/2000/svg" xmlns:xlink="http://www.w3.org/1999/xlink" x="0px" y="0px"
	 width="24px" height="24px" viewBox="0 0 24 24" enable-background="new 0 0 24 24" xml:space="preserve">
<path class="aw-theme-iconOutline" fill="#464646" d="M23.9,13.2c-0.1-0.1-0.2-0.2-0.4-0.2h-19c-0.2,0-0.4,0.1-0.5,0.3l-3,7.6V7.4C1,7.2,1.2,7,1.4,7h4.9
	c0.1,0,0.3,0.1,0.3,0.1L8.2,10H19v2h1V9H8.8L7.4,6.6C7.1,6.2,6.7,6,6.2,6H1.4C0.6,6,0,6.6,0,7.4V24h19.5c0.2,0,0.4-0.1,0.5-0.3l4-10
	C24,13.5,24,13.4,23.9,13.2z M19.2,23H1.2l3.6-9h17.9L19.2,23z"/>
<path class="aw-theme-iconOutline" fill="#464646" d="M18.5,3h-2.8l2.1-2.1l-0.7-0.7l-3.4,3.4l3.4,3.4l0.7-0.7L15.7,4h2.8C21,4,23,6,23,8.5V10h1V8.5
	C24,5.5,21.5,3,18.5,3z"/>
</svg>
