<svg id="Layer_1" data-name="Layer 1" xmlns="http://www.w3.org/2000/svg" viewBox="0 0 24 24">
  <polygon points="21 18 21 17 18 17 18 14 17 14 17 17 14 17 14 18 17 18 17 21 18 21 18 18 21 18" class="aw-theme-iconOutline" fill="#464646"/>
  <path d="M17.5,11a6.472,6.472,0,0,0-1.5.182V10h3V9H16V5.612L10,2.159V0H9V2.164L3,5.612V9H0v1H3v3.059l6,3.451V20h1V16.509l1.233-.709A6.5,6.5,0,1,0,17.5,11Zm-8-2.225L4.5,5.9l5-2.875L14.5,5.9ZM4,6.766L9,9.641v5.715L4,12.48V6.766Zm6,8.59V9.641l5-2.876V11.5a6.535,6.535,0,0,0-3.143,2.786ZM17.5,23A5.5,5.5,0,1,1,23,17.5,5.505,5.505,0,0,1,17.5,23Z" class="aw-theme-iconOutline" fill="#464646"/>
</svg>
