<?xml version="1.0" encoding="utf-8"?>
<!-- Generator: Adobe Illustrator 27.3.1, SVG Export Plug-In . SVG Version: 6.00 Build 0)  -->
<svg version="1.1" id="Layer_1" xmlns="http://www.w3.org/2000/svg" xmlns:xlink="http://www.w3.org/1999/xlink" x="0px" y="0px"
	 viewBox="0 0 24 24" style="enable-background:new 0 0 24 24;" xml:space="preserve">
<style type="text/css">
	.st0{fill:#464646;}
</style>
<polygon class="st0" points="17.3,15.4 16.6,14.7 13.7,17.6 16.6,20.5 17.3,19.8 15.7,18 21,18 21,17 15.7,17 "/>
<path class="st0" d="M10.8,8.6l-9.5,8.3c0,0,0,0-0.1,0c-1.6,1.6-1.6,4.2,0,5.8c1.6,1.6,4.2,1.6,5.8,0l2.7-3.1c0-0.4-0.1-0.8-0.2-1.2
	l-3.2,3.7c-1.2,1.2-3.2,1.2-4.4,0C1.3,21.5,1,20.7,1,19.9c0-0.8,0.3-1.6,0.9-2.2l9.7-8.5c0.1-0.1,0.2-0.3,0.2-0.5
	c-0.2-1-0.7-4.3,1-6c1.3-1.3,3.2-2,5.1-1.7l-2.5,2.5c-0.1,0.1-0.1,0.2-0.1,0.3l-0.6,2.7c0,0.2,0,0.3,0.1,0.5L17,9.2
	c0.1,0.1,0.2,0.1,0.4,0.1h0.1l2.7-0.6c0.1,0,0.2-0.1,0.3-0.1L23,6.1c0.2,1.6-0.2,3.3-1.3,4.6c0.3,0.2,0.6,0.4,0.8,0.6
	c1.2-1.5,1.7-3.4,1.4-5.3c-0.1-0.5-0.6-0.9-1.1-0.9c-0.2,0-0.4,0.1-0.6,0.3l-2.4,2.4l-2.3,0.5l-1.9-1.9l0.5-2.3l2.4-2.4
	c0.4-0.4,0.4-1,0-1.4C18.3,0.1,18.1,0,17.9,0H17c-1.9,0-3.6,0.7-4.9,2C10.2,3.9,10.5,7.1,10.8,8.6z"/>
<path class="st0" d="M17.5,11c-3.6,0-6.5,2.9-6.5,6.5s2.9,6.5,6.5,6.5s6.5-2.9,6.5-6.5S21.1,11,17.5,11z M17.5,23
	c-3,0-5.5-2.5-5.5-5.5s2.5-5.5,5.5-5.5s5.5,2.5,5.5,5.5S20.5,23,17.5,23z"/>
<path class="st0" d="M3.3,19.3c-0.4,0.4-0.4,1,0,1.4c0.4,0.4,1,0.4,1.4,0c0.4-0.4,0.4-1,0-1.4C4.3,18.9,3.7,18.9,3.3,19.3z"/>
</svg>
