<?xml version="1.0" encoding="utf-8"?>
<!-- Generator: Adobe Illustrator 27.3.1, SVG Export Plug-In . SVG Version: 6.00 Build 0)  -->
<svg version="1.1" id="Artwork" xmlns="http://www.w3.org/2000/svg" xmlns:xlink="http://www.w3.org/1999/xlink" x="0px" y="0px"
	 viewBox="0 0 24 24" style="enable-background:new 0 0 24 24;" xml:space="preserve">
<style type="text/css">
	.st0{fill:#464646;}
</style>
<path class="st0" d="M16.2,3c-0.1-0.1-0.2-0.3-0.3-0.4C15.5,2.2,15,2,14.5,2c0-1.1-0.9-2-2-2h-1c-1.1,0-2,0.9-2,2
	C8.8,2,8.1,2.4,7.8,3H3.5v21h17V3H16.2z M8.5,4c0-0.6,0.4-1,1-1h1V2c0-0.6,0.4-1,1-1h1c0.6,0,1,0.4,1,1v1h1c0.3,0,0.5,0.1,0.7,0.3
	s0.3,0.4,0.3,0.7v1h-7V4z M19.5,23h-15V4h3v2h9V4h3V23z"/>
<path class="st0" d="M11.6,2.2c-0.2,0.2-0.2,0.5,0,0.7c0.2,0.2,0.5,0.2,0.7,0s0.2-0.5,0-0.7S11.9,2,11.6,2.2z"/>
</svg>
