<svg width="24" height="24" viewBox="0 0 24 24" fill="none" xmlns="http://www.w3.org/2000/svg">
<g clip-path="url(#clip0_423_14699)">
<path d="M4.5 13.7H8.7C8.7 13.7 7 17.4 7 17.6C6.2 19.9 7.1 22.3 8.9 22.9C9.2 23 9.5 23.1 9.9 23.1C11.5 23.1 13.1 21.9 13.8 19.9C14.5 17.8 13.9 15.7 12.3 14.8L12.6 14.2C12.8 13.8 13 13.7 13.4 13.7H16.3C21.7 13.7 23.5 10.2 23.5 10.2L23.9 9.40002C24 9.30002 24 9.10002 23.9 8.90002C23.8 8.80002 23.6 8.70002 23.4 8.70002C22.5 8.70002 15.9 8.70002 15.9 8.70002L18.8 1.60002C18.9 1.40002 18.8 1.30002 18.7 1.10002C18.6 1.00002 18.4 0.900024 18.2 0.900024L17.5 1.00002C17.5 1.00002 13.5 1.40002 11.5 6.40002L10.1 9.70002H8.9C8.6 8.00002 6.8 6.70002 4.5 6.70002C2 6.70002 0 8.30002 0 10.2C0 12.2 2 13.7 4.5 13.7ZM12.8 19.6C12.2 21.4 10.6 22.4 9.3 22C7.9 21.5 7.3 19.7 8 17.9C8.3 17 8.9 16.3 9.6 15.8C10 15.5 10.5 15.4 10.9 15.4C11.1 15.4 11.3 15.4 11.5 15.5C12.8 16 13.4 17.8 12.8 19.6ZM12.4 6.80002C14.1 2.70002 17.2 2.10002 17.5 2.10002L14.8 8.70002H12.5C12.3 8.70002 11.9 8.70002 11.5 8.80002L12.4 6.80002ZM9 10.7H10.5C10.7 10.7 10.9 10.6 11 10.4C11.1 9.90002 12 9.70002 12.5 9.70002L22.6 9.80002C22.6 9.80002 20.9 12.7 16.3 12.7H13.4C12.9 12.7 12.2 12.8 11.7 13.8L11.3 14.5C10.6 14.4 9.9 14.5 9.3 14.9L9.9 13.5C10 13.3 10 13.2 9.9 13C9.8 12.8 9.7 12.7 9.5 12.7H7.7C8.4 12.2 8.8 11.5 9 10.7ZM4.5 7.70002C6.4 7.70002 8 8.80002 8 10.2C8 11.6 6.4 12.7 4.5 12.7C2.6 12.7 1 11.6 1 10.2C1 8.80002 2.6 7.70002 4.5 7.70002Z" fill="#464646"/>
<path d="M12.5 11C12.7761 11 13 10.7761 13 10.5C13 10.2239 12.7761 10 12.5 10C12.2239 10 12 10.2239 12 10.5C12 10.7761 12.2239 11 12.5 11Z" fill="#464646"/>
</g>
<defs>
<clipPath id="clip0_423_14699">
<rect width="24" height="24" fill="white"/>
</clipPath>
</defs>
</svg>
