<svg version="1.1" id="Layer_1" xmlns="http://www.w3.org/2000/svg" xmlns:xlink="http://www.w3.org/1999/xlink" x="0px" y="0px" viewBox="0 0 24 24" enable-background="new 0 0 24 24" xml:space="preserve">
<path class="aw-theme-iconOutline" fill="#464646" d="M7.5,24c-2,0-3.9-0.8-5.3-2.2c-1.8-1.8-2.5-4.2-2.1-6.7C0.7,12.1,3,9.7,6,9.1C7.6,8.8,9.2,9,10.6,9.7
	l9.2-9.2c0.7-0.7,1.8-0.7,2.4,0l1.3,1.3c0.7,0.7,0.7,1.8,0,2.4L21.7,6H19v3h-3v2.7l-1.7,1.7c0.7,1.4,0.8,3,0.5,4.6
	c-0.6,3-3,5.3-5.9,5.9C8.4,24,8,24,7.5,24z M7.5,10c-0.4,0-0.9,0-1.3,0.1c-2.6,0.5-4.6,2.6-5.1,5.1c-0.4,2.2,0.3,4.3,1.8,5.8
	s3.7,2.2,5.8,1.8c2.6-0.5,4.6-2.5,5.1-5.1c0.3-1.5,0.1-3-0.6-4.3l-0.2-0.3l1.9-1.9V8h3V5h3.3l1.5-1.5C22.9,3.4,23,3.2,23,3
	s-0.1-0.4-0.2-0.5l-1.3-1.3c-0.3-0.3-0.7-0.3-1,0l-9.7,9.7l-0.3-0.2C9.6,10.2,8.5,10,7.5,10z"/>
<path class="aw-theme-iconOutline" fill="#464646" d="M6.5,20C5.1,20,4,18.9,4,17.5S5.1,15,6.5,15S9,16.1,9,17.5S7.9,20,6.5,20z M6.5,16C5.7,16,5,16.7,5,17.5
	S5.7,19,6.5,19S8,18.3,8,17.5S7.3,16,6.5,16z"/>
</svg>
