<?xml version="1.0" encoding="utf-8"?>
<!-- Generator: Adobe Illustrator 27.3.1, SVG Export Plug-In . SVG Version: 6.00 Build 0)  -->
<svg version="1.1" id="Layer_1" xmlns="http://www.w3.org/2000/svg" xmlns:xlink="http://www.w3.org/1999/xlink" x="0px" y="0px"
	 viewBox="0 0 24 24" style="enable-background:new 0 0 24 24;" xml:space="preserve">
<style type="text/css">
	.st0{fill:#464646;}
</style>
<polygon class="st0" points="10,20 1,20 1,8 4,8 4,7 0,7 0,21 10,21 "/>
<path class="st0" d="M12.4,4.6L7.9,0.1C7.7,0,7.3,0,7.1,0.1L2.6,4.6l0.7,0.7L7,1.7V14h1V1.7l3.6,3.6L12.4,4.6z"/>
<path class="st0" d="M22.1,12.9c-2.5-2.5-6.7-2.5-9.2,0s-2.5,6.7,0,9.2c1.3,1.3,2.9,1.9,4.6,1.9s3.3-0.6,4.6-1.9
	C24.6,19.6,24.6,15.4,22.1,12.9z M13.6,13.6c2-2,5.2-2.1,7.4-0.3L13.3,21C11.5,18.8,11.6,15.6,13.6,13.6z M14,21.7l7.7-7.7
	c1.8,2.2,1.7,5.4-0.3,7.4S16.2,23.5,14,21.7z"/>
<polygon class="st0" points="11,8 14,8 14,10 15,10 15,7 11,7 "/>
</svg>
