<svg id="Layer_1" data-name="Layer 1" xmlns="http://www.w3.org/2000/svg" viewBox="0 0 24 24">
    <path d="M17.86,11.0182l1.509-1.5089a5.5706,5.5706,0,0,0-7.878-7.878L8.3467,4.7759l.707.707,3.1441-3.1445a4.5706,4.5706,0,0,1,6.4638,6.4638l-2.3048,2.3049a6.5,6.5,0,0,0-4.121,2.5954A4.56,4.56,0,0,1,7.3066,9.7012L6.3135,9.82a5.5429,5.5429,0,0,0,5.326,4.8871,6.4969,6.4969,0,1,0,6.22-3.6892ZM17.5,23A5.5,5.5,0,1,1,23,17.5,5.5062,5.5062,0,0,1,17.5,23Z" class="aw-theme-iconOutline" fill="#464646"/>
    <path d="M8.8022,18.6616a4.5706,4.5706,0,0,1-6.4638-6.4638l3.5854-3.585a4.5759,4.5759,0,0,1,6.4634,0,4.5246,4.5246,0,0,1,1.3018,2.6514l.9922-.126a5.5163,5.5163,0,0,0-1.587-3.2324,5.5754,5.5754,0,0,0-7.8774,0L1.6313,11.4907a5.5706,5.5706,0,0,0,7.878,7.878l.9355-.9361-.707-.707Z" class="aw-theme-iconOutline" fill="#464646"/>
    <polygon points="18 14 17 14 17 17 14 17 14 18 17 18 17 21 18 21 18 18 21 18 21 17 18 17 18 14" class="aw-theme-iconOutline" fill="#464646"/>
</svg>
