<?xml version="1.0" encoding="utf-8"?>
<!-- Generator: Adobe Illustrator 27.2.0, SVG Export Plug-In . SVG Version: 6.00 Build 0)  -->
<svg version="1.1" id="Layer_1" xmlns="http://www.w3.org/2000/svg" xmlns:xlink="http://www.w3.org/1999/xlink" x="0px" y="0px"
	 viewBox="0 0 24 24" style="enable-background:new 0 0 24 24;" xml:space="preserve">
<style type="text/css">
	.st0{fill:#464646;}
</style>
<path id="Shape" class="st0" d="M12,2c0.2,0,0.3,0.1,0.4,0.2l11,19c0.1,0.2,0.1,0.3,0,0.5C23.3,21.9,23.2,22,23,22H1
	c-0.2,0-0.3-0.1-0.4-0.3s-0.1-0.3,0-0.5l11-19C11.7,2.1,11.8,2,12,2z M12,3.5L1.9,21h20.3L12,3.5z M12,17c0.6,0,1,0.4,1,1
	s-0.4,1-1,1c-0.6,0-1-0.4-1-1S11.4,17,12,17z M12.5,10v5h-1v-5H12.5z"/>
</svg>
