<?xml version="1.0" encoding="utf-8"?>
<!-- Generator: Adobe Illustrator 27.3.1, SVG Export Plug-In . SVG Version: 6.00 Build 0)  -->
<svg version="1.1" id="Layer_1" xmlns="http://www.w3.org/2000/svg" xmlns:xlink="http://www.w3.org/1999/xlink" x="0px" y="0px"
	 viewBox="0 0 24 24" style="enable-background:new 0 0 24 24;" xml:space="preserve">
<style type="text/css">
	.st0{fill:#464646;}
</style>
<path class="st0" d="M5.7,5h9.6L17,6.7l2-2V2H2v2.7l2,2L5.7,5z M16,3h2v1.3l-1,1l-1-1V3z M6,3h9v1H6V3z M3,3h2v1.3l-1,1l-1-1V3z"/>
<path class="st0" d="M13,9.5v-1C13,7.7,12.3,7,11.5,7h-8C2.7,7,2,7.7,2,8.5v1C2,10.3,2.7,11,3.5,11h8C12.3,11,13,10.3,13,9.5z
	 M3,9.5v-1C3,8.2,3.2,8,3.5,8h8C11.8,8,12,8.2,12,8.5v1c0,0.3-0.2,0.5-0.5,0.5h-8C3.2,10,3,9.8,3,9.5z"/>
<polygon class="st0" points="18,14 17,14 17,17 14,17 14,18 17,18 17,21 18,21 18,18 21,18 21,17 18,17 "/>
<path class="st0" d="M8,13.5v1C8,15.3,8.7,16,9.5,16H10v-1H9.5C9.2,15,9,14.8,9,14.5v-1C9,13.2,9.2,13,9.5,13H11v-1H9.5
	C8.7,12,8,12.7,8,13.5z"/>
<path class="st0" d="M17.5,11c-3.6,0-6.5,2.9-6.5,6.5c0,3.6,2.9,6.5,6.5,6.5c3.6,0,6.5-2.9,6.5-6.5c0,0,0,0,0,0
	C24,13.9,21.1,11,17.5,11z M17.5,23c-3.1,0-5.5-2.5-5.5-5.5c0-3.1,2.5-5.5,5.5-5.5v0c3.1,0,5.5,2.5,5.5,5.5C23,20.6,20.6,23,17.5,23
	z"/>
<polygon class="st0" points="10,20 1,20 1,1 20,1 20,10 21,10 21,0 0,0 0,21 10,21 "/>
</svg>
