<?xml version="1.0" encoding="utf-8"?>
<!-- Generator: Adobe Illustrator 27.2.0, SVG Export Plug-In . SVG Version: 6.00 Build 0)  -->
<svg version="1.1" id="Layer_1" xmlns="http://www.w3.org/2000/svg" xmlns:xlink="http://www.w3.org/1999/xlink" x="0px" y="0px"
	 viewBox="0 0 32 32" style="enable-background:new 0 0 32 32;" xml:space="preserve">
<style type="text/css">
	.st0{fill:#464646;}
</style>
<path id="Shape" class="st0" d="M16,0c8.8,0,16,7.2,16,16s-7.2,16-16,16S0,24.8,0,16S7.2,0,16,0z M16,1C7.7,1,1,7.7,1,16
	s6.7,15,15,15s15-6.7,15-15S24.3,1,16,1z M16,2.8c0.2,0,0.4,0.2,0.5,0.3l1.4,8l5.2-2.5c0.2-0.1,0.5-0.1,0.6,0.1
	c0.2,0.2,0.2,0.4,0.1,0.5l0,0.1l-2.5,5.2l7.9,1.4c0.2,0.1,0.4,0.3,0.4,0.5c0,0.2-0.2,0.4-0.3,0.5l-8,1.4l2.5,5.2
	c0.1,0.2,0.1,0.4-0.1,0.6l-0.1,0l0,0l-0.2,0.1l0,0l-0.1,0h-0.2l-5.2-2.5l-1.4,7.9C16.4,29.8,16.2,30,16,30c-0.2,0-0.4-0.2-0.5-0.3
	l-1.4-8l-5.2,2.5c-0.2,0.1-0.5,0-0.6-0.1c-0.2-0.2-0.2-0.4-0.1-0.5l0-0.1l2.5-5.2l-7.9-1.4c-0.2-0.1-0.4-0.3-0.4-0.5
	c0-0.2,0.2-0.4,0.3-0.5l0.1,0l7.9-1.4L8.2,9.3c0-0.2,0-0.4,0.1-0.6c0.2-0.1,0.3-0.1,0.5-0.1l0.1,0l5.2,2.5l1.4-7.9
	C15.6,3,15.8,2.8,16,2.8z M16,20.7l-1,0.5l1,5.5l1-5.5L16,20.7z M11.8,18.5l-2,4.1l4.1-2l-0.3-1.8L11.8,18.5z M20.2,18.5l-1.8,0.3
	l-0.3,1.8l4.1,2L20.2,18.5z M17.2,12.6l-1,0.5c-0.1,0.1-0.2,0.1-0.3,0l-0.1,0l-1-0.5l-0.3,1.9c0,0.2-0.2,0.4-0.3,0.4l-0.1,0
	l-1.9,0.3l0.5,1c0.1,0.1,0.1,0.2,0,0.3l0,0.1l-0.5,1l1.9,0.3c0.2,0,0.3,0.2,0.4,0.3l0,0.1l0.3,1.9l1-0.5h0.4l1,0.5l0.3-1.9
	c0-0.2,0.2-0.3,0.3-0.4l0.1,0l1.9-0.3l-0.5-1v-0.4l0.5-1l-1.9-0.3c-0.2,0-0.4-0.2-0.4-0.3l0-0.1L17.2,12.6z M11.2,15.4l-5.5,1l5.5,1
	l0.5-1L11.2,15.4z M20.8,15.4l-0.5,1l0.5,1l5.5-1L20.8,15.4z M22.2,10.2l-4.1,2l0.3,1.8l1.8,0.3L22.2,10.2z M9.8,10.2l2,4.1l1.8-0.3
	l0.3-1.8L9.8,10.2z M16,6.1l-1,5.4l1,0.5l1-0.4L16,6.1z"/>
</svg>
