<?xml version="1.0" encoding="utf-8"?>
<!-- Generator: Adobe Illustrator 27.2.0, SVG Export Plug-In . SVG Version: 6.00 Build 0)  -->
<svg version="1.1" id="Layer_1" xmlns="http://www.w3.org/2000/svg" xmlns:xlink="http://www.w3.org/1999/xlink" x="0px" y="0px"
	 viewBox="0 0 24 24" style="enable-background:new 0 0 24 24;" xml:space="preserve">
<style type="text/css">
	.st0{fill:#464646;}
</style>
<g id="Page-1">
	<g id="cmdCloudDrive24" transform="translate(0.000000, -0.004112)">
		<path id="Shape" class="st0" d="M16,1c1.9-0.1,2.8,1.2,3.4,2.6L19.5,4l0,0l0.1,0.3l0,0l0.3,1L23,18.9l-0.1,0
			c0,0.1,0.1,0.3,0.1,0.4l0,0.2v1c0,1.3-1,2.4-2.3,2.5l-0.2,0h-17c-1.3,0-2.4-1-2.5-2.3l0-0.2v-1c0-0.1,0-0.3,0-0.4l0-0.2l-0.1,0
			L4.1,5.1l0.2-0.6l0,0l0.1-0.3l0,0l0.1-0.3C5.1,2.4,6.1,1,8.7,1L9,1H16z M20.5,18h-17c-0.8,0-1.4,0.6-1.5,1.4l0,0.1v1
			c0,0.8,0.6,1.4,1.4,1.5l0.1,0h17c0.8,0,1.4-0.6,1.5-1.4l0-0.1v-1c0-0.8-0.6-1.4-1.4-1.5L20.5,18z M7,19.1c0.6,0,1,0.4,1,1
			c0,0.6-0.4,1-1,1s-1-0.4-1-1C6,19.5,6.5,19.1,7,19.1z M4.1,19c0.6,0,1,0.4,1,1c0,0.6-0.4,1-1,1c-0.6,0-1-0.4-1-1
			C3.1,19.5,3.5,19,4.1,19z M9,2C6.8,1.9,6,2.9,5.5,4.3L5.4,4.6c0,0.1,0,0.1-0.1,0.2L5.1,5.2l0,0L5.1,5.4L5,5.6L2.4,17.3
			C2.7,17.1,3,17,3.3,17l0.2,0h17c0.3,0,0.6,0.1,0.9,0.2l0.2,0.1l-2.7-12l-0.2-0.6c0-0.1,0-0.1-0.1-0.2l-0.1-0.4
			C18,2.8,17.4,2,16.2,2L9,2z M9.2,5.7c1.2-0.4,2.4-0.1,3.3,0.7c1.3-0.1,2.6,0.7,3,1.9c0.7,0,1.4,0.3,1.9,0.7c0.7,0.6,1,1.4,1,2.3
			c0,1.6-1.2,2.9-2.8,3l-0.2,0H8.2c-1.2,0-2.3-0.9-2.7-2.1c-0.4-1.3,0-2.6,1.1-3.4C6.8,7.5,7.8,6.3,9.2,5.7z M10.3,6.4
			c-0.3,0-0.5,0-0.8,0.1C8.4,7,7.7,8,7.5,9.1l0,0.2l0,0.2L7.3,9.6c-0.8,0.5-1.2,1.6-0.9,2.5c0.2,0.8,0.9,1.3,1.7,1.4l0.2,0h7.3
			c1.2,0,2.1-1,2-2.2c0-0.6-0.3-1.2-0.7-1.6c-0.4-0.3-0.9-0.5-1.4-0.5l-0.2,0l-0.4,0l-0.1-0.4c-0.2-1-1.2-1.7-2.2-1.6l-0.2,0l-0.2,0
			l-0.2-0.1C11.6,6.7,10.9,6.5,10.3,6.4z"/>
	</g>
</g>
</svg>
