<svg version="1.1" id="Layer_1" xmlns="http://www.w3.org/2000/svg" xmlns:xlink="http://www.w3.org/1999/xlink" x="0px" y="0px"
	 viewBox="0 0 24 24" enable-background="new 0 0 24 24" xml:space="preserve">
	<polygon class="aw-theme-iconOutline" fill="#464646" points="21,17 18,17 18,14 17,14 17,17 14,17 14,18 17,18 17,21 18,21 18,18 21,18 	"/>
	<path class="aw-theme-iconOutline" fill="#464646" d="M17.5,11c-0.1,0-0.1,0-0.2,0L11.4,0.8l-0.9,0.5l5.7,9.9c-3,0.6-5.2,3.2-5.2,6.4c0,0.5,0.1,1,0.2,1.5H1.4
		L7.4,8.2L6.6,7.8L0.1,19.3c-0.1,0.2-0.1,0.3,0,0.5C0.2,19.9,0.3,20,0.5,20h11c1,2.3,3.3,4,6,4c3.6,0,6.5-2.9,6.5-6.5
		S21.1,11,17.5,11z M17.5,23c-3,0-5.5-2.5-5.5-5.5s2.5-5.5,5.5-5.5s5.5,2.5,5.5,5.5S20.5,23,17.5,23z"/>
</svg>
