<?xml version="1.0" encoding="utf-8"?>
<!-- Generator: Adobe Illustrator 27.3.1, SVG Export Plug-In . SVG Version: 6.00 Build 0)  -->
<svg version="1.1" id="Layer_1" xmlns="http://www.w3.org/2000/svg" xmlns:xlink="http://www.w3.org/1999/xlink" x="0px" y="0px"
	 viewBox="0 0 24 24" style="enable-background:new 0 0 24 24;" xml:space="preserve">
<style type="text/css">
	.st0{fill:#464646;}
</style>
<path class="st0" d="M17,11h-1v1h1v11h7V1h-7V11z M18,2h5v20h-5V2z"/>
<path class="st0" d="M11.4,7.6l-0.7,0.7l3.1,3.1l-3.1,3.1l0.7,0.7l3.5-3.5c0.2-0.2,0.2-0.5,0-0.7L11.4,7.6z"/>
<path class="st0" d="M7,12h1v-1H7V1H0v22h7V12z M6,11H4.9c-0.2-0.6-0.8-1-1.4-1C2.7,10,2,10.7,2,11.5S2.7,13,3.5,13
	c0.7,0,1.2-0.4,1.4-1H6v10H1V2h5V11z"/>
<path class="st0" d="M19.4,10.4c-0.6,0.6-0.6,1.5,0,2.1c0.6,0.6,1.5,0.6,2.1,0c0.6-0.6,0.6-1.5,0-2.1C21,9.9,20,9.9,19.4,10.4z"/>
<path class="st0" d="M13,11h-1v1h1V11z"/>
<path class="st0" d="M11,11H9v1h2V11z"/>
</svg>
