<?xml version="1.0" encoding="utf-8"?>
<!-- Generator: Adobe Illustrator 27.3.1, SVG Export Plug-In . SVG Version: 6.00 Build 0)  -->
<svg version="1.1" id="Layer_1" xmlns="http://www.w3.org/2000/svg" xmlns:xlink="http://www.w3.org/1999/xlink" x="0px" y="0px"
	 viewBox="0 0 24 24" style="enable-background:new 0 0 24 24;" xml:space="preserve">
<style type="text/css">
	.st0{fill:#464646;}
</style>
<path class="st0" d="M9,5C7.3,5,6,6.3,6,8c0,1.7,1.3,3,3,3s3-1.3,3-3C12,6.3,10.7,5,9,5z M9,10c-1.1,0-2-0.9-2-2c0-1.1,0.9-2,2-2
	s2,0.9,2,2C11,9.1,10.1,10,9,10z"/>
<polygon class="st0" points="18,14 17,14 17,17 14,17 14,18 17,18 17,21 18,21 18,18 21,18 21,17 18,17 "/>
<path class="st0" d="M17.5,11c-0.4,0-0.8,0-1.2,0.1C16.8,9.8,17,8.8,17,8c0-4.4-3.6-8-8-8S1,3.6,1,8c0,4.2,7.3,15.3,7.6,15.8
	C8.7,23.9,8.8,24,9,24s0.3-0.1,0.4-0.2c0,0,1-1.5,2.2-3.5c1,2.2,3.3,3.8,5.9,3.8c3.6,0,6.5-2.9,6.5-6.5S21.1,11,17.5,11z M11.2,19
	L11.2,19c-0.9,1.6-1.7,2.8-2.2,3.6C7.4,20.1,2,11.4,2,8c0-3.9,3.1-7,7-7s7,3.1,7,7c0,0.8-0.3,1.9-0.9,3.4l0,0.1
	c-2.4,1-4.1,3.3-4.1,6C11,18,11.1,18.5,11.2,19z M17.5,23c-3,0-5.5-2.5-5.5-5.5c0-3,2.5-5.5,5.5-5.5c3,0,5.5,2.5,5.5,5.5
	S20.5,23,17.5,23z"/>
</svg>
