<?xml version="1.0" encoding="utf-8"?>
<!-- Generator: Adobe Illustrator 27.3.1, SVG Export Plug-In . SVG Version: 6.00 Build 0)  -->
<svg version="1.1" id="Artwork" xmlns="http://www.w3.org/2000/svg" xmlns:xlink="http://www.w3.org/1999/xlink" x="0px" y="0px"
	 viewBox="0 0 16 16" style="enable-background:new 0 0 16 16;" xml:space="preserve">
<style type="text/css">
	.st0{fill:#464646;}
</style>
<path class="st0" d="M15.5,5h-4.4L13,0.7c0-0.1,0-0.3,0-0.4C12.9,0.1,12.8,0,12.6,0H12c-0.1,0-0.3,0-0.5,0.1c-1,0.2-2.9,0.9-4,3.6
	L6.7,6H5.9C5.7,4.9,4.4,4,3,4C1.3,4,0,5.1,0,6.5S1.3,9,3,9h2.7c0,0-1.5,3-1.6,3.2c-0.3,0.8-0.3,1.5,0,2.2c0.3,0.7,0.8,1.3,1.4,1.5
	C5.7,16,5.9,16,6.1,16c1.1,0,2.2-0.9,2.7-2.2C9.1,13,9.1,12,8.7,11.3c-0.1-0.2-0.3-0.5-0.5-0.6L9,9.2C9.1,9,9.2,9,9.4,9h1.4
	c1.6,0,3.7-0.5,4.9-2.7C15.9,5.9,16,5.7,16,5.6c0-0.1,0-0.3-0.1-0.4C15.8,5.1,15.7,5,15.5,5z M3,8C1.9,8,1,7.3,1,6.5S1.9,5,3,5
	s2,0.7,2,1.5S4.1,8,3,8z M8.5,4c0.9-2.3,2.4-3,3.2-3L10,5H8.1L8.5,4z M7.9,13.5c-0.4,1.1-1.3,1.7-2.1,1.4C5.4,14.8,5.2,14.5,5,14
	s-0.2-1,0-1.6C5.3,11.6,6,11,6.7,11c0.1,0,0.3,0,0.4,0.1c0.4,0.1,0.6,0.4,0.7,0.7C8.1,12.2,8.1,12.9,7.9,13.5z M10.8,8H9.4
	c-0.6,0-1,0.3-1.2,0.8l-0.7,1.3C7,10,6.6,10,6.2,10.1l0.7-1.3C7,8.6,7,8.4,6.9,8.2C6.8,8,6.7,8,6.5,8H5.4C5.7,7.7,5.9,7.4,6,7h1
	c0.2,0,0.4-0.1,0.5-0.3L7.7,6h7C13.8,7.6,12.1,8,10.8,8z"/>
<path class="st0" d="M8.3,7.7c0.2,0,0.4-0.2,0.4-0.4c0-0.1-0.1-0.2-0.2-0.3C8.3,7,8.1,7,8,7.2S8.1,7.7,8.3,7.7z"/>
<path class="st0" d="M12,0h0.6C12.5,0,12.3-0.1,12,0z"/>
</svg>
