<svg version="1.1" id="Layer_1" xmlns="http://www.w3.org/2000/svg" xmlns:xlink="http://www.w3.org/1999/xlink" x="0px" y="0px"
	 viewBox="0 0 24 24" enable-background="new 0 0 24 24" xml:space="preserve">
	<path class="aw-theme-iconOutline" fill="#464646" d="M1.2,17.3c-0.3-0.5-0.3-1,0-1.5L8.7,1.8C9,1.3,9.5,1,10,1c0.6,0,1.1,0.3,1.4,0.8l4.2,7.7l0.9-0.5l-4.2-7.7
		C11.8,0.5,11,0,10,0c-1,0-1.8,0.5-2.2,1.3L0.3,15.3c-0.4,0.8-0.4,1.7,0.1,2.5C0.8,18.6,1.6,19,2.5,19H9v-1H2.5
		C2,18,1.5,17.7,1.2,17.3z"/>
	<polygon class="aw-theme-iconOutline" fill="#464646" points="18,14 17,14 17,17 14,17 14,18 17,18 17,21 18,21 18,18 21,18 21,17 18,17 	"/>
	<path class="aw-theme-iconOutline" fill="#464646" d="M17.5,11c-3.6,0-6.5,2.9-6.5,6.5s2.9,6.5,6.5,6.5s6.5-2.9,6.5-6.5S21.1,11,17.5,11z M17.5,23
		c-3,0-5.5-2.5-5.5-5.5s2.5-5.5,5.5-5.5s5.5,2.5,5.5,5.5S20.5,23,17.5,23z"/>
	<path class="aw-theme-iconOutline" fill="#464646" d="M14,9.5c0-0.3-0.1-0.6-0.2-1c-0.1-0.2-0.2-0.3-0.4-0.3c-0.2,0-0.4,0-0.5,0.1l-1.5,1.5l-1.3-1.3L11.7,7
		c0.1-0.1,0.2-0.3,0.1-0.5c0-0.2-0.2-0.3-0.3-0.4c-0.4-0.1-0.7-0.2-1-0.2C8.6,6,7,7.6,7,9.5c0,0.2,0,0.5,0.1,0.7l-3.4,3.4
		c-0.7,0.7-0.7,2,0,2.7C4,16.7,4.5,16.9,5,16.9s1-0.2,1.4-0.6l3.4-3.4C10,13,10.3,13,10.5,13C12.4,13,14,11.4,14,9.5z M10.5,12
		c-0.2,0-0.4,0-0.7-0.1c-0.2-0.1-0.4,0-0.5,0.1l-3.6,3.6c-0.4,0.4-0.9,0.4-1.3,0c-0.4-0.4-0.4-0.9,0-1.3L8,10.7
		c0.1-0.1,0.2-0.3,0.1-0.5C8,9.9,8,9.7,8,9.5C8,8.2,9,7.1,10.3,7L9.1,8.1C9,8.3,9,8.7,9.1,8.9l2,2c0.2,0.2,0.5,0.2,0.7,0L13,9.7
		C12.9,11,11.8,12,10.5,12z"/>
	<circle class="aw-theme-iconOutline" fill="#464646" cx="5.5" cy="14.5" r="0.5"/>
</svg>
