<?xml version="1.0" encoding="utf-8"?>
<!-- Generator: Adobe Illustrator 27.3.1, SVG Export Plug-In . SVG Version: 6.00 Build 0)  -->
<svg version="1.1" id="Layer_1" xmlns="http://www.w3.org/2000/svg" xmlns:xlink="http://www.w3.org/1999/xlink" x="0px" y="0px"
	 viewBox="0 0 24 24" style="enable-background:new 0 0 24 24;" xml:space="preserve">
<style type="text/css">
	.st0{fill:#464646;}
</style>
<path class="st0" d="M15.7,17L15,16.3l-1.9,1.9C13,18.3,13,18.4,13,18.6c0,0.1,0.1,0.3,0.1,0.4l1.9,1.9l0.7-0.7l-1-1H18V18h-3.3
	L15.7,17z"/>
<path class="st0" d="M3,4.4C3,7,5,10,7.5,10S12,7,12,4.4C12,2,10,0,7.5,0S3,2,3,4.4z M7.5,1C9.4,1,11,2.5,11,4.4C11,6.4,9.4,9,7.5,9
	S4,6.4,4,4.4C4,2.5,5.6,1,7.5,1z"/>
<path class="st0" d="M17,10c-1.3,0-2.5,0.4-3.5,1c-0.4-0.4-0.9-0.7-1.4-0.9c-0.2-0.1-0.4-0.1-0.5,0c-2.4,1.7-5.6,1.7-8,0
	c-0.1-0.1-0.3-0.1-0.5,0C1.2,11,0,12.8,0,14.7V22h1v-7.3c0-1.4,0.9-2.8,2.3-3.6c2.6,1.7,6,1.7,8.6,0c0.2,0.1,0.5,0.3,0.7,0.5
	C11,12.8,10,14.8,10,17c0,3.9,3.1,7,7,7s7-3.1,7-7S20.9,10,17,10z M17,23c-3.3,0-6-2.7-6-6s2.7-6,6-6s6,2.7,6,6S20.3,23,17,23z"/>
<path class="st0" d="M19.3,14l1,1H17v1h3.3l-1,1l0.7,0.7l1.9-1.9c0.1-0.1,0.1-0.2,0.1-0.4c0,0-0.1-0.2-0.1-0.3L20,13.3L19.3,14z"/>
<path class="st0" d="M4,17H3v5h1V17z"/>
</svg>
