<svg version="1.1" id="Livello_1" xmlns="http://www.w3.org/2000/svg"  x="0px" y="0px"
	  viewBox="0 0 24 24" enable-background="new 0 0 24 24" xml:space="preserve">
<path class="aw-theme-iconOutline" fill="#464646" d="M12.074,18.678L7.021,5.386L1.967,18.678l-0.935-0.355L6.554,3.801c0.147-0.388,0.787-0.388,0.935,0
	l5.521,14.521L12.074,18.678z"/>
<path class="aw-theme-iconOutline" fill="#464646" d="M3,19H0.5C0.224,19,0,18.776,0,18.5S0.224,18,0.5,18H3c0.276,0,0.5,0.224,0.5,0.5S3.276,19,3,19z"/>
<path class="aw-theme-iconOutline" fill="#464646" d="M13.5,19H11c-0.276,0-0.5-0.224-0.5-0.5S10.724,18,11,18h2.5c0.276,0,0.5,0.224,0.5,0.5S13.776,19,13.5,19z"
	/>
<path class="aw-theme-iconOutline" fill="#464646" d="M23.501,19c-0.276,0-0.5-0.224-0.5-0.5v-7c0-1.245-0.347-2.222-1.003-2.824
	c-0.587-0.54-1.42-0.765-2.454-0.678c-1.09,0.093-2.077,0.452-3.304,1.2c-0.237,0.143-0.545,0.07-0.688-0.167
	c-0.144-0.236-0.069-0.543,0.166-0.687c1.35-0.823,2.503-1.237,3.74-1.342c1.306-0.114,2.425,0.211,3.216,0.938
	c0.867,0.797,1.326,2.028,1.326,3.561v7C24.001,18.776,23.777,19,23.501,19z"/>
<path class="aw-theme-iconOutline" fill="#464646" d="M19,19c-2.206,0-4-1.794-4-4c0-2.28,1.713-4,3.984-4c2.58,0,4.682,1.22,4.77,1.272l-0.507,0.861
	c-0.02-0.011-1.963-1.133-4.263-1.133C17.283,12.001,16,13.29,16,15c0,1.654,1.346,3,3,3c2.644,0,4.018-1.574,4.03-1.59l0.762,0.648
	C23.724,17.138,22.101,19,19,19z"/>
<rect x="3.243" y="13" class="aw-theme-iconOutline" fill="#464646" width="7.757" height="1"/>
</svg>
