<?xml version="1.0" encoding="utf-8"?>
<!-- Generator: Adobe Illustrator 27.3.1, SVG Export Plug-In . SVG Version: 6.00 Build 0)  -->
<svg version="1.1" id="Layer_1" xmlns="http://www.w3.org/2000/svg" xmlns:xlink="http://www.w3.org/1999/xlink" x="0px" y="0px"
	 viewBox="0 0 24 24" style="enable-background:new 0 0 24 24;" xml:space="preserve">
<style type="text/css">
	.st0{fill:#464646;}
</style>
<polygon class="st0" points="18,14 17,14 17,17 14,17 14,18 17,18 17,21 18,21 18,18 21,18 21,17 18,17 "/>
<path class="st0" d="M0.3,19.9l4,2c0.1,0.1,0.3,0.1,0.4,0l4-2C8.9,19.9,9,19.7,9,19.5v-5c0-0.2-0.1-0.4-0.3-0.4L5,12.2V6h8v1.5
	c0,0.2,0.1,0.4,0.3,0.4l4,2c0.1,0.1,0.3,0.1,0.4,0l4-2C21.9,7.9,22,7.7,22,7.5v-5c0-0.2-0.1-0.4-0.3-0.4l-4-2
	c-0.1-0.1-0.3-0.1-0.4,0l-4,2C13.1,2.1,13,2.3,13,2.5V5H4v7.2l-3.7,1.9C0.1,14.1,0,14.3,0,14.5v5C0,19.7,0.1,19.9,0.3,19.9z M21,7.2
	l-3,1.5V4.8l3-1.5V7.2z M17.5,1.1l2.9,1.4l-2.9,1.4l-2.9-1.4L17.5,1.1z M14,3.3l3,1.5v3.9l-3-1.5V3.3z M8,19.2l-3,1.5v-3.9l3-1.5
	V19.2z M4.5,13.1l2.9,1.4l-2.9,1.4l-2.9-1.4L4.5,13.1z M1,15.3l3,1.5v3.9l-3-1.5V15.3z"/>
<path class="st0" d="M17.5,11c-3.6,0-6.5,2.9-6.5,6.5s2.9,6.5,6.5,6.5c3.6,0,6.5-2.9,6.5-6.5C24,13.9,21.1,11,17.5,11z M17.5,23
	c-3,0-5.5-2.5-5.5-5.5s2.5-5.5,5.5-5.5c3,0,5.5,2.5,5.5,5.5C23,20.5,20.5,23,17.5,23z"/>
</svg>
