<?xml version="1.0" encoding="utf-8"?>
<!-- Generator: Adobe Illustrator 27.3.1, SVG Export Plug-In . SVG Version: 6.00 Build 0)  -->
<svg version="1.1" id="Artwork" xmlns="http://www.w3.org/2000/svg" xmlns:xlink="http://www.w3.org/1999/xlink" x="0px" y="0px"
	 viewBox="0 0 16 16" style="enable-background:new 0 0 16 16;" xml:space="preserve">
<style type="text/css">
	.st0{fill:#464646;}
</style>
<path class="st0" d="M14.5,2H13V0h-3v2H6V0H3v2H1.5C0.7,2,0,2.7,0,3.5v11C0,15.3,0.7,16,1.5,16h13c0.8,0,1.5-0.7,1.5-1.5v-11
	C16,2.7,15.3,2,14.5,2z M11,1h1v1h-1V1z M4,1h1v1H4V1z M4,15H1.5C1.2,15,1,14.8,1,14.5V13h3V15z M4,12H1v-2h3V12z M4,9H1V7h3V9z
	 M11,15H5v-2h6V15z M11,12H5v-2h6V12z M11,9H5V7h6V9z M15,14.5c0,0.3-0.2,0.5-0.5,0.5H12v-2h3V14.5z M15,12h-3v-2h3V12z M15,9h-3V7
	h3V9z M15,6H1V3.5C1,3.2,1.2,3,1.5,3h13C14.8,3,15,3.2,15,3.5V6z"/>
<path class="st0" d="M5,4H4v1h1V4z"/>
<path class="st0" d="M12,4h-1v1h1V4z"/>
</svg>
