<svg version="1.1" id="Layer_1" xmlns="http://www.w3.org/2000/svg" xmlns:xlink="http://www.w3.org/1999/xlink" x="0px" y="0px"
	 viewBox="0 0 24 24" enable-background="new 0 0 24 24" xml:space="preserve">
<path class="aw-theme-iconOutline" fill="#464646" d="M10,12V7H5v2H3V5h2V0H0v5h2v12h3v2h2v-1H6v-3h3v1h1v-2H5v2H3v-6h2v2H10z M1,1h3v3H1V1z M6,8h3v3H6V8z"/>
	<path class="aw-theme-iconOutline" fill="#464646" d="M18.9,8c0.2,0,0.4,0,0.6,0l-1.7,1.7c0,0-0.1,0.1-0.1,0.2l-0.4,1.8c0,0.1,0,0.2,0.1,0.3l1.5,1.5
		c0.1,0.1,0.2,0.1,0.2,0.1c0,0,0,0,0.1,0l1.8-0.4c0.1,0,0.1,0,0.2-0.1l1.7-1.7c0.2,1.3-0.2,2.5-1.2,3.5c-0.6,0.6-1.4,0.9-2.6,0.9
		c-0.5,0-1-0.1-1.5-0.2c0,0,0,0-0.1,0c-0.1,0-0.2,0-0.3,0.1l-5.8,6.6c-0.4,0.4-0.9,0.6-1.5,0.6c-0.6,0-1.1-0.2-1.5-0.6
		C8.2,22,8,21.4,8,20.9c0-0.6,0.2-1.1,0.6-1.5l6.6-5.8c0.1-0.1,0.1-0.2,0.1-0.3c-0.1-0.7-0.5-2.9,0.7-4.1C16.8,8.4,17.8,8,18.9,8
		 M18.9,7c-1.4,0-2.6,0.5-3.6,1.5c-1.3,1.3-1.2,3.4-1,4.6l-6.3,5.5c0,0,0,0-0.1,0C7.3,19.3,7,20,7,20.9c0,0.8,0.3,1.6,0.9,2.2
		c0.6,0.6,1.4,0.9,2.2,0.9c0.8,0,1.6-0.3,2.2-0.9c0,0,0,0,0,0l5.5-6.3c0.5,0.1,0.9,0.1,1.3,0.1c1.4,0,2.5-0.4,3.3-1.1
		c1.1-1.1,1.7-2.7,1.4-4.3c-0.1-0.4-0.3-0.7-0.7-0.8c-0.1,0-0.2-0.1-0.3-0.1c-0.3,0-0.5,0.1-0.7,0.3l-1.6,1.6l-1.3,0.3l-1-1l0.3-1.3
		l1.6-1.6c0.3-0.3,0.4-0.7,0.2-1C20.3,7.4,20,7.1,19.6,7C19.4,7,19.2,7,18.9,7L18.9,7z"/>
		<path class="aw-theme-iconOutline" fill="#464646" d="M10.1,20.1L10.1,20.1c-0.2,0.2-0.2,0.5,0,0.7c0.2,0.2,0.5,0.2,0.7,0l0,0c0.2-0.2,0.2-0.5,0-0.7
			C10.7,20,10.3,20,10.1,20.1z"/>
</svg>
