<svg width="24" height="24" viewBox="0 0 24 24" fill="none" xmlns="http://www.w3.org/2000/svg">
<g clip-path="url(#clip0_423_14682)">
<path d="M1 8H0V10H1V8Z" fill="#464646"/>
<path d="M1 12H0V14H1V12Z" fill="#464646"/>
<path d="M2 17H1V16H0V18H2V17Z" fill="#464646"/>
<path d="M1 4H0V6H1V4Z" fill="#464646"/>
<path d="M1 1H2V0H0V2H1V1Z" fill="#464646"/>
<path d="M13 1V2H14V0H12V1H13Z" fill="#464646"/>
<path d="M10 0H8V1H10V0Z" fill="#464646"/>
<path d="M18 14H17V17H14V18H17V21H18V18H21V17H18V14Z" fill="#464646"/>
<path d="M6 0H4V1H6V0Z" fill="#464646"/>
<path d="M14 8H13V10H14V8Z" fill="#464646"/>
<path d="M2 8H12V2H2V8ZM3 3H11V7H3V3Z" fill="#464646"/>
<path d="M14 4H13V6H14V4Z" fill="#464646"/>
<path d="M2 16H10V15H3V11H11V12H12V10H2V16Z" fill="#464646"/>
<path d="M10 17H8V18H10V17Z" fill="#464646"/>
<path d="M17.5 11C13.9 11 11 13.9 11 17.5C11 21.1 13.9 24 17.5 24C21.1 24 24 21.1 24 17.5C24 13.9 21.1 11 17.5 11ZM17.5 23C14.5 23 12 20.5 12 17.5C12 14.5 14.5 12 17.5 12C20.5 12 23 14.5 23 17.5C23 20.5 20.5 23 17.5 23Z" fill="#464646"/>
<path d="M6 17H4V18H6V17Z" fill="#464646"/>
</g>
<defs>
<clipPath id="clip0_423_14682">
<rect width="24" height="24" fill="white"/>
</clipPath>
</defs>
</svg>
