<svg version="1.1" id="Artwork" xmlns="http://www.w3.org/2000/svg" xmlns:xlink="http://www.w3.org/1999/xlink" x="0px" y="0px"
	 width="24px" height="24px" viewBox="0 0 24 24" enable-background="new 0 0 24 24" xml:space="preserve">
<path class="aw-theme-iconOutline" fill="#464646" d="M11.5,18c-0.3,0-0.5-0.2-0.5-0.5v-2.2c0-1.6,0.9-3.1,2.4-3.8c1.9-0.9,2.9-2.8,2.5-4.9
	c-0.3-1.8-1.8-3.3-3.6-3.6c-1.3-0.2-2.7,0.1-3.7,1S7,6.2,7,7.5C7,7.8,6.8,8,6.5,8S6,7.8,6,7.5c0-1.6,0.7-3.2,2-4.2s2.9-1.5,4.5-1.2
	c2.2,0.4,4,2.2,4.4,4.4c0.4,2.5-0.8,4.9-3.1,6C12.7,13,12,14.1,12,15.3v2.2C12,17.8,11.8,18,11.5,18z"/>
<polygon class="aw-theme-iconOutline" fill="#464646" points="1,6 0,6 0,0 6,0 6,1 1,1 "/>
<polygon class="aw-theme-iconOutline" fill="#464646" points="23,6 22,6 22,1 17,1 17,0 23,0 "/>
<polygon class="aw-theme-iconOutline" fill="#464646" points="23,23 17,23 17,22 22,22 22,17 23,17 "/>
<polygon class="aw-theme-iconOutline" fill="#464646" points="6,23 0,23 0,17 1,17 1,22 6,22 "/>
<circle class="aw-theme-iconOutline" fill="#464646" cx="11.5" cy="20.5" r="0.5"/>
</svg>
