<svg version="1.1" id="Layer_1" xmlns="http://www.w3.org/2000/svg" xmlns:xlink="http://www.w3.org/1999/xlink" x="0px" y="0px"
	 viewBox="0 0 24 24" enable-background="new 0 0 24 24" xml:space="preserve">
	<path class="aw-theme-iconOutline" fill="#464646" d="M6.5,18.8l-3.3-3.3L14.5,4.2l3.3,3.3l-1.1,1.1l0.7,0.7l4.1-4.1c0.7-0.7,0.7-1.8,0-2.5l-2.2-2.2
		c-0.7-0.7-1.8-0.7-2.5,0L2.1,15.1c-0.1,0.1-0.1,0.1-0.1,0.2l-2,6c-0.1,0.2,0,0.4,0.1,0.5C0.2,21.9,0.4,22,0.5,22c0.1,0,0.1,0,0.2,0
		l6-2c0.1,0,0.1-0.1,0.2-0.1l3-3l-0.7-0.7L6.5,18.8z M17.5,1.2c0.3-0.3,0.8-0.3,1.1,0l2.2,2.2c0.3,0.3,0.3,0.8,0,1.1l-2.3,2.3
		l-3.3-3.3L17.5,1.2z M2.7,16.4l2.9,2.9l-4.3,1.4L2.7,16.4z"/>
	<path class="aw-theme-iconOutline" fill="#464646" d="M17.5,11c-3.6,0-6.5,2.9-6.5,6.5c0,3.6,2.9,6.5,6.5,6.5c3.6,0,6.5-2.9,6.5-6.5C24,13.9,21.1,11,17.5,11z
		 M17.5,23c-3,0-5.5-2.5-5.5-5.5c0-3,2.5-5.5,5.5-5.5c3,0,5.5,2.5,5.5,5.5C23,20.5,20.5,23,17.5,23z"/>
	<polygon class="aw-theme-iconOutline" fill="#464646" points="18,14 17,14 17,17 14,17 14,18 17,18 17,21 18,21 18,18 21,18 21,17 18,17 	"/>
</svg>
