<svg version="1.1" id="Layer_1" xmlns="http://www.w3.org/2000/svg" xmlns:xlink="http://www.w3.org/1999/xlink" x="0px" y="0px"
	 viewBox="0 0 24 24" enable-background="new 0 0 24 24" xml:space="preserve">
<path class="aw-theme-iconOutline" fill="#464646" d="M0.5,0.5v23h11v-23H0.5z M10.5,22.5h-9v-10h6.3l-2.1,2.1c-0.2,0.2-0.2,0.5,0,0.7
	c0.1,0.1,0.2,0.1,0.4,0.1s0.3,0,0.4-0.1l3-3c0.2-0.2,0.2-0.5,0-0.7l-3-3c-0.2-0.2-0.5-0.2-0.7,0s-0.2,0.5,0,0.7l2.1,2.1H1.5v-10h9
	V22.5z"/>
<path class="aw-theme-iconOutline" fill="#464646" d="M12.5,0.5v23h11v-23H12.5z M13.5,22.5v-21h9v10h-6.3l2.1-2.1c0.2-0.2,0.2-0.5,0-0.7s-0.5-0.2-0.7,0
	l-3,3c-0.1,0.1-0.1,0.2-0.1,0.4s0.1,0.3,0.1,0.4l3,3c0.1,0.1,0.2,0.1,0.4,0.1s0.3,0,0.4-0.1c0.2-0.2,0.2-0.5,0-0.7l-2.1-2.1h6.3v10
	H13.5z"/>
</svg>
