<svg id="Layer_2" data-name="Layer 2" xmlns="http://www.w3.org/2000/svg" viewBox="0 0 13 13">
  <path d="M12.333,13a.634.634,0,0,1-.437-.189l-.211-.22C9.874,10.7,8.169,9,6.608,7.552A28.155,28.155,0,0,0,3.2,11.539c-.4.6-.884,1.243-1.554,1.313a1.316,1.316,0,0,1-1.085-.443C-.5,11.375.624,9.594.672,9.519a18.483,18.483,0,0,1,3.6-4.054,30.356,30.356,0,0,0-2.7-2.074A2.574,2.574,0,0,1,.427,1.832,1.5,1.5,0,0,1,.783.631,2.079,2.079,0,0,1,3.362.3,16.548,16.548,0,0,1,7.2,3.375,22.024,22.024,0,0,1,12.043,1.2a.6.6,0,0,1,.735.276.618.618,0,0,1-.2.786C12,2.714,10.55,3.886,8.9,5.375a32.859,32.859,0,0,1,3.919,6.711l-.455.207.46-.195a.64.64,0,0,1-.175.8A.555.555,0,0,1,12.333,13Zm-.43-.514h0ZM2.168,1a.754.754,0,0,0-.611.265.509.509,0,0,0-.142.419,1.656,1.656,0,0,0,.707.874,33.921,33.921,0,0,1,3.25,2.537l.455.393-.47.376a17.688,17.688,0,0,0-3.844,4.2c-.147.228-.657,1.241-.254,1.632.067.066.2.171.284.164.172-.017.45-.312.827-.875A30.4,30.4,0,0,1,6.245,6.5l.339-.334.351.322c1.219,1.123,2.532,2.4,3.915,3.8A31.206,31.206,0,0,0,7.83,5.626l-.289-.364.343-.315c.8-.732,1.568-1.4,2.228-1.958a22.661,22.661,0,0,0-2.736,1.45l-.353.219-.28-.306A15.947,15.947,0,0,0,2.872,1.173,1.766,1.766,0,0,0,2.168,1Zm10.185,1.15-.01,0Z" class="aw-theme-iconOutline" fill="#1e1e1e"/>
</svg>
