<?xml version="1.0" encoding="utf-8"?>
<!-- Generator: Adobe Illustrator 27.3.1, SVG Export Plug-In . SVG Version: 6.00 Build 0)  -->
<svg version="1.1" id="Artwork" xmlns="http://www.w3.org/2000/svg" xmlns:xlink="http://www.w3.org/1999/xlink" x="0px" y="0px"
	 viewBox="0 0 24 24" style="enable-background:new 0 0 24 24;" xml:space="preserve">
<style type="text/css">
	.st0{fill:#464646;}
</style>
<path class="st0" d="M11.6,23.6c0.2,0,0.3,0,0.4-0.1l4-4l-0.9-0.8L12,21.9V9.6h-1v12.3l-3.1-3.1l-0.7,0.7l4,4
	C11.3,23.6,11.4,23.6,11.6,23.6z"/>
<path class="st0" d="M18.7,5.8c-0.8-2.2-2.7-4-5.6-3.7c-1.8-1.6-4-2-6.1-1.3C4.6,1.6,2.8,3.9,2.3,6.7c-2.3,1.8-2.6,4.4-2,6.2
	C1,15.1,2.9,16.6,5,16.6h3v-1H5c-1.8,0-3.2-1.2-3.8-3C0.7,11.1,1,8.9,3,7.5l0.3-0.2V7.1c0.3-2.6,1.9-4.7,4-5.4
	c1.8-0.6,3.7-0.1,5.3,1.2l0.2,0.2H13c2.8-0.4,4.3,1.5,4.8,3.3l0.1,0.4h0.4c1.2-0.2,2.3,0.2,3.2,1c1,0.9,1.5,2.1,1.5,3.4
	c0,2.4-1.9,4.4-4.2,4.4H15v1h3.8c2.8,0,5.2-2.5,5.2-5.4c0-1.6-0.6-3.1-1.8-4.1C21.2,6.2,20,5.8,18.7,5.8z"/>
</svg>
