<svg width="24" height="24" viewBox="0 0 24 24" fill="none" xmlns="http://www.w3.org/2000/svg">
<g clip-path="url(#clip0_423_14703)">
<path d="M21 17H14V18H21V17Z" fill="#464646"/>
<path d="M9 5C7.3 5 6 6.3 6 8C6 9.7 7.3 11 9 11C10.7 11 12 9.7 12 8C12 6.3 10.7 5 9 5ZM9 10C7.9 10 7 9.1 7 8C7 6.9 7.9 6 9 6C10.1 6 11 6.9 11 8C11 9.1 10.1 10 9 10Z" fill="#464646"/>
<path d="M17.5 11C17.1 11 16.7 11 16.3 11.1C16.8 9.8 17 8.8 17 8C17 3.6 13.4 0 9 0C4.6 0 1 3.6 1 8C1 12.2 8.3 23.3 8.6 23.8C8.7 23.9 8.8 24 9 24C9.2 24 9.3 23.9 9.4 23.8C9.4 23.8 10.4 22.3 11.6 20.3C12.6 22.5 14.9 24.1 17.5 24.1C21.1 24.1 24 21.2 24 17.6C24 14 21.1 11 17.5 11ZM11.2 19C10.3 20.6 9.5 21.8 9 22.6C7.4 20.1 2 11.4 2 8C2 4.1 5.1 1 9 1C12.9 1 16 4.1 16 8C16 8.8 15.7 9.9 15.1 11.4V11.5C12.7 12.5 11 14.8 11 17.5C11 18 11.1 18.5 11.2 19ZM17.5 23C14.5 23 12 20.5 12 17.5C12 14.5 14.5 12 17.5 12C20.5 12 23 14.5 23 17.5C23 20.5 20.5 23 17.5 23Z" fill="#464646"/>
</g>
<defs>
<clipPath id="clip0_423_14703">
<rect width="24" height="24" fill="white"/>
</clipPath>
</defs>
</svg>
