<?xml version="1.0" encoding="utf-8"?>
<!-- Generator: Adobe Illustrator 27.3.1, SVG Export Plug-In . SVG Version: 6.00 Build 0)  -->
<svg version="1.1" id="Layer_1" xmlns="http://www.w3.org/2000/svg" xmlns:xlink="http://www.w3.org/1999/xlink" x="0px" y="0px"
	 viewBox="0 0 16 16" style="enable-background:new 0 0 16 16;" xml:space="preserve">
<style type="text/css">
	.st0{fill:#464646;}
</style>
<polygon class="st0" points="8.3,0 7.7,0 7.7,7.7 0,7.7 0,8.3 7.7,8.3 7.7,16 8.3,16 8.3,8.3 16,8.3 16,7.7 8.3,7.7 "/>
<path class="st0" d="M9.3,14.3c0,0,0.4-0.5,0.9-1s0.9-1,0.9-1s0.3,0.4,0.7,0.8l0.7,0.8l0.5-0.5c0.3-0.3,0.9-0.9,1.4-1.4s1-1,1.1-1.1
	l0.2-0.2l-0.2-0.2l-0.2-0.3c-0.5,0.4-0.9,0.8-1.4,1.3l-1.3,1.3L11.8,12c-0.4-0.4-0.7-0.8-0.7-0.8l-2.3,2.6c0,0,0.1,0.1,0.2,0.3
	C9.2,14.3,9.2,14.4,9.3,14.3z"/>
<path class="st0" d="M5.4,10H0.7v2h4.7V10z M4.7,11.3H1.4v-0.7h3.3V11.3z"/>
<path class="st0" d="M12.7,6.7h2v-6h-2V6.7z M13.3,1.3H14V6h-0.7V1.3z"/>
<path class="st0" d="M10,6.7h2V2h-2V6.7z M10.7,2.6h0.7v3.3h-0.7V2.6z"/>
<path class="st0" d="M4.3,3.4h3l0-0.2C7.2,2.4,7,1.7,6.4,1.2C6.2,1,6,0.8,5.7,0.7C5.4,0.5,5,0.4,4.6,0.4H4.3v1.5V3.4z M4.9,1L4.9,1
	c0.3,0.1,0.6,0.2,0.9,0.4C6,1.6,6.2,1.7,6.4,2c0.1,0.2,0.2,0.4,0.2,0.7v0.1H4.9V1z"/>
<path class="st0" d="M0.7,14.7h6v-2h-6V14.7z M1.3,13.3H6V14H1.3V13.3z"/>
<path class="st0" d="M1.6,6.8C1.8,7,2.1,7.1,2.3,7.2c0.2,0.1,0.4,0.1,0.6,0.1c1.2,0.1,2.2-0.5,2.8-1.5C5.8,5.5,5.9,5.2,6,4.9
	c0-0.2,0-0.5,0-0.7V4.1H3.6V1.8H3.5c-1-0.1-2,0.3-2.6,1.2C0.8,3.2,0.7,3.4,0.6,3.7C0.5,3.9,0.4,4.2,0.4,4.5V5
	c0.2,0.4,0.3,0.8,0.5,1.1S1.4,6.6,1.6,6.8z M1.6,3c0.2-0.2,0.5-0.4,0.8-0.5c0.2-0.1,0.3-0.1,0.5-0.2H3v2.4h1.2c1.1,0,1.2,0,1.2,0
	c0,0.2-0.1,0.3-0.1,0.5C5,6,4.4,6.5,3.6,6.7c-0.3,0-0.5,0-0.8,0C1.8,6.5,1,5.5,1,4.4C1,3.9,1.2,3.4,1.6,3z"/>
</svg>
