<svg id="Layer_1" data-name="Layer 1" xmlns="http://www.w3.org/2000/svg" viewBox="0 0 24 24">
  
  <path d="M22.4,22.251a.76.76,0,0,1-.5-.209c-.032-.028-.137-.128-.311-.3-3.338-3.188-6.5-6.048-9.412-8.5a50.481,50.481,0,0,0-6.4,6.8c-.808,1.107-1.539,1.872-2.445,1.969A2.1,2.1,0,0,1,1.708,21.4c-1.372-1.219-.436-3.371.25-4.339a31.2,31.2,0,0,1,6.625-6.742A58.573,58.573,0,0,0,3.442,6.7,3.937,3.937,0,0,1,1.56,4.336a2.051,2.051,0,0,1,.569-1.691C3.406,1.219,5.5,1.833,6.2,2.19a29.44,29.44,0,0,1,6.978,5.147,40.98,40.98,0,0,1,8.851-3.663.689.689,0,0,1,.826.331.692.692,0,0,1-.284.877c-1.31.945-3.888,2.852-6.795,5.256A52.152,52.152,0,0,1,22.9,21.2v0a.731.731,0,0,1-.143.931A.6.6,0,0,1,22.4,22.251Zm-.4-.623,0,.017.445-.231ZM4.269,2.746a1.8,1.8,0,0,0-1.395.566,1.065,1.065,0,0,0-.325.88c.122.834,1.287,1.572,1.42,1.653a59.7,59.7,0,0,1,5.752,4.1l.512.413-.535.383a30.205,30.205,0,0,0-6.927,6.9c-.012.016-1.417,2.1-.4,3.01a1.113,1.113,0,0,0,.853.37c.574-.061,1.209-.831,1.753-1.576a51.454,51.454,0,0,1,6.865-7.236l.323-.279.326.274c2.692,2.259,5.6,4.866,8.672,7.763A51.147,51.147,0,0,0,14.688,10.4l-.33-.384.389-.325c2.175-1.815,4.192-3.369,5.678-4.477a39.974,39.974,0,0,0-7.086,3.178L13,8.586l-.271-.276A28.456,28.456,0,0,0,5.738,3.076,3.892,3.892,0,0,0,4.269,2.746Z" class="aw-theme-iconOutline" fill="#464646"/>
</svg>
