<?xml version="1.0" encoding="utf-8"?>
<!-- Generator: Adobe Illustrator 27.2.0, SVG Export Plug-In . SVG Version: 6.00 Build 0)  -->
<svg version="1.1" id="Layer_1" xmlns="http://www.w3.org/2000/svg" xmlns:xlink="http://www.w3.org/1999/xlink" x="0px" y="0px"
	 viewBox="0 0 16 16" style="enable-background:new 0 0 16 16;" xml:space="preserve">
<style type="text/css">
	.st0{fill:#464646;}
</style>
<g id="Page-1">
	<g id="cmdDesign16" transform="translate(0.003820, -0.001590)">
		<path id="Shape" class="st0" d="M12.9,0c0.4,0,0.7,0.2,1,0.4L15.5,2C15.8,2.3,16,2.7,16,3.1c0,0.4-0.1,0.7-0.4,1L11.7,8l3.8,3.8
			c0.3,0.3,0.4,0.7,0.4,1.1c0,0.4-0.2,0.8-0.4,1.1l-1.6,1.6c-0.3,0.3-0.7,0.4-1.1,0.4c-0.4,0-0.8-0.2-1.1-0.4L8,11.7l-2.6,2.6
			c-0.1,0.1-0.1,0.1-0.2,0.1L0.6,16c0,0-0.1,0-0.1,0c-0.2,0-0.3-0.1-0.4-0.2S0,15.5,0,15.3l1.5-4.5c0-0.1,0.1-0.1,0.1-0.2L4.3,8
			L0.4,4.2c-0.6-0.6-0.6-1.5,0-2.1L2,0.5c0.6-0.6,1.5-0.6,2.1,0L8,4.3l3.9-3.9C12.2,0.1,12.6,0,12.9,0z M11,8.7L8.7,11l3.8,3.8
			c0.2,0.2,0.5,0.2,0.7,0l1.6-1.6c0.1-0.1,0.1-0.2,0.1-0.4s-0.1-0.3-0.1-0.4l-0.4-0.4l-1.1,1.1l-0.7-0.7l1.1-1.1L13,10.8l-1.1,1.1
			l-0.7-0.7l1.1-1.1L11,8.7z M2.2,11.9l-0.9,2.8L4,13.8L2.2,11.9z M11,2.7L2.7,11L5,13.3L13.3,5L11,2.7z M2.7,1.2L1.1,2.8
			C0.9,3,0.9,3.3,1.1,3.5L5,7.3L7.3,5L6.4,4.2L5.3,5.3L4.6,4.6l1.1-1.1L5,2.8L3.9,3.9L3.2,3.2l1.1-1.1L3.4,1.2C3.2,1,2.9,1,2.7,1.2z
			 M12.6,1.1L11.7,2L14,4.3l0.9-0.9C14.9,3.3,15,3.2,15,3.1c0-0.1-0.1-0.3-0.2-0.4l-1.6-1.6C13.1,1.1,13,1,12.9,1
			C12.8,1,12.7,1,12.6,1.1z"/>
	</g>
</g>
</svg>
