<?xml version="1.0" encoding="UTF-8"?>
<svg id="Layer_1" data-name="Layer 1" xmlns="http://www.w3.org/2000/svg" viewBox="0 0 24 24">
  <path d="M23.928,23.099l-.005-.013c-1.036-2.383-2.351-4.635-3.918-6.708,1.649-1.489,3.099-2.66,3.677-3.112,.253-.176,.339-.511,.2-.786-.142-.262-.455-.379-.735-.275-1.696,.526-3.321,1.257-4.841,2.174-1.119-1.21-2.412-2.246-3.837-3.073-.149-.092-.308-.154-.469-.204v-1.101h4V0H8V4H4v4H0v10H10v-4h2.199c.145,.147,.301,.284,.48,.395,.938,.64,1.839,1.332,2.699,2.073-1.392,1.166-2.605,2.532-3.599,4.053-.048,.074-1.172,1.854-.111,2.889,.272,.31,.674,.473,1.085,.442,.67-.069,1.154-.712,1.553-1.312,1.009-1.432,2.149-2.766,3.407-3.985,1.56,1.447,3.265,3.147,5.075,5.037l.211,.22c.116,.117,.272,.186,.437,.189,.113,0,.223-.037,.316-.102,.244-.189,.317-.526,.175-.8ZM9,1h8V9H9V1Zm0,16H1V9h3v5h5v3Zm-4-4V5h3v5h5v1.043c-.411,.078-.802,.273-1.109,.592-.288,.329-.418,.768-.356,1.201,.014,.057,.041,.108,.059,.164H5Zm13.041,4.49l-.351-.322-.339,.334c-1.435,1.366-2.732,2.869-3.874,4.488-.377,.563-.655,.858-.827,.875-.084,.007-.217-.098-.284-.164-.403-.391,.107-1.403,.254-1.631,1.046-1.599,2.343-3.017,3.843-4.199l.47-.376-.455-.393c-1.03-.912-2.115-1.761-3.249-2.541-.33-.2-.58-.509-.707-.874-.019-.153,.033-.308,.142-.419,.152-.178,.377-.275,.611-.265,.244,.008,.484,.067,.704,.173,1.449,.849,2.755,1.922,3.87,3.178l.28,.307,.353-.22c.878-.545,1.791-1.029,2.735-1.449-.66,.558-1.428,1.226-2.227,1.957l-.343,.315,.289,.364c1.143,1.46,2.153,3.02,3.019,4.66-1.383-1.399-2.695-2.676-3.914-3.799Z" fill="#464646"/>
</svg>