<svg version="1.1" id="Layer_1" xmlns="http://www.w3.org/2000/svg" xmlns:xlink="http://www.w3.org/1999/xlink" x="0px" y="0px"
	 viewBox="0 0 24 24" enable-background="new 0 0 24 24" xml:space="preserve">
	<path class="aw-theme-iconOutline" fill="#464646" d="M1,1h10v5h5v8h1V5.3L11.7,0H0v24h12v-1H1V1z M12,1.7L15.3,5H12V1.7z"/>
	<path class="aw-theme-iconOutline" fill="#464646" d="M23.1,19.1L20,22.3V14h-1v8.3l-3.1-3.2l-0.7,0.7l4,4c0.1,0.1,0.2,0.1,0.4,0.1c0,0,0,0,0,0
		c0.1,0,0.3-0.1,0.4-0.1l4-4L23.1,19.1z"/>
	<path class="aw-theme-iconOutline" fill="#464646" d="M13.5,10H11V9.5C11,8.1,9.9,7,8.5,7S6,8.1,6,9.5V10H3.5C3.2,10,3,10.2,3,10.5v3C3,13.8,3.2,14,3.5,14h1
		C5.3,14,6,14.7,6,15.5S5.3,17,4.5,17h-1C3.2,17,3,17.2,3,17.5v3C3,20.8,3.2,21,3.5,21h10c0.3,0,0.5-0.2,0.5-0.5v-10
		C14,10.2,13.8,10,13.5,10z M13,20H4v-2h0.5C5.9,18,7,16.9,7,15.5S5.9,13,4.5,13H4v-2h2.5C6.8,11,7,10.8,7,10.5v-1
		C7,8.7,7.7,8,8.5,8S10,8.7,10,9.5v1c0,0.3,0.2,0.5,0.5,0.5H13V20z"/>
</svg>
