<svg id="Layer_1" data-name="Layer 1" xmlns="http://www.w3.org/2000/svg" viewBox="0 0 16 16">
    <path d="M14.7261,4.3965A3.4431,3.4431,0,0,0,12.44,3.499a3.5481,3.5481,0,0,0-3.6928-2.42A4.0855,4.0855,0,0,0,4.687.22,5.0492,5.0492,0,0,0,1.5127,4.2383,3.837,3.837,0,0,0,.1865,8.4771,3.4212,3.4212,0,0,0,3.42,11H5V10H3.42A2.4393,2.4393,0,0,1,1.14,8.1748,2.8291,2.8291,0,0,1,2.2622,4.9272l.1758-.124L2.4692,4.59A4.1,4.1,0,0,1,5.0117,1.1655a3.0909,3.0909,0,0,1,3.2188.7959l.1757.169.2413-.0342a2.6038,2.6038,0,0,1,2.9516,2.0513l.1118.4145.4263-.0474a2.445,2.445,0,0,1,1.9219.627A2.8686,2.8686,0,0,1,15,7.249,2.7,2.7,0,0,1,12.4321,10H10v1h2.4321A3.712,3.712,0,0,0,16,7.249,3.832,3.832,0,0,0,14.7261,4.3965Z" class="aw-theme-iconOutline" fill="#464646"/>
    <path d="M8,14.2945V6H7v8.2914L5.3535,12.6465l-.707.707,2.5024,2.5A.5.5,0,0,0,7.5024,16h.0005a.4993.4993,0,0,0,.3531-.1465l2.4975-2.5-.707-.707Z" class="aw-theme-iconOutline" fill="#464646"/>
</svg>
