<svg id="Layer_2" data-name="Layer 2" xmlns="http://www.w3.org/2000/svg" viewBox="0 0 16 16">
  <path d="M15.426,15.5a.673.673,0,0,1-.448-.184c-.024-.02-.114-.106-.262-.248-2.349-2.254-4.561-4.264-6.582-5.984a34.213,34.213,0,0,0-4.458,4.765c-.49.672-1.079,1.4-1.858,1.478a1.626,1.626,0,0,1-1.265-.476C-.5,13.909.2,12.279.71,11.549A22.243,22.243,0,0,1,5.327,6.792,38.412,38.412,0,0,0,1.816,4.314,2.945,2.945,0,0,1,.4,2.523,1.6,1.6,0,0,1,.843,1.189,2.659,2.659,0,0,1,3.924.833,20.951,20.951,0,0,1,8.863,4.479,29.342,29.342,0,0,1,15.1,1.892a.636.636,0,0,1,.78.3A.639.639,0,0,1,15.633,3c-.917.666-2.709,2-4.735,3.68a37.548,37.548,0,0,1,5.012,7.854l-.447.224.453-.212a.661.661,0,0,1-.148.84A.572.572,0,0,1,15.426,15.5Zm-.416-.53h0l.453-.212ZM2.479,1.5a1.146,1.146,0,0,0-.89.356.606.606,0,0,0-.2.521c.065.442.646.9.944,1.083a42.24,42.24,0,0,1,4.122,2.95l.514.408-.53.387a21.575,21.575,0,0,0-4.915,4.921c-.2.292-.861,1.485-.308,1.979.283.253.446.234.494.229.357-.038.806-.594,1.156-1.074A36.289,36.289,0,0,1,7.787,8.048l.324-.292.333.281c1.727,1.456,3.6,3.129,5.573,4.987a36.632,36.632,0,0,0-4.2-6.078L9.48,6.563l.389-.327C11.091,5.212,12.245,4.3,13.2,3.57A29.981,29.981,0,0,0,9.026,5.534L8.7,5.723l-.269-.27A20.233,20.233,0,0,0,3.465,1.721,2.637,2.637,0,0,0,2.479,1.5ZM15.4,2.847l-.007,0Z" class="aw-theme-iconOutline" fill="#1e1e1e"/>
</svg>
