<svg version="1.1" id="Artwork" xmlns="http://www.w3.org/2000/svg" xmlns:xlink="http://www.w3.org/1999/xlink" x="0px" y="0px"
	 width="16px" height="16px" viewBox="0 0 16 16" enable-background="new 0 0 16 16" xml:space="preserve">
<path class="aw-theme-iconOutline" fill="#464646" d="M15.5,1.9l-1.5-1.5c-0.6-0.6-1.6-0.6-2.3,0L1.6,10.6c-0.1,0.1-0.1,0.1-0.1,0.2L0,15.3
	c-0.1,0.2,0,0.4,0.1,0.5C0.2,15.9,0.4,16,0.5,16c0.1,0,0.1,0,0.2,0l4.5-1.5c0.1,0,0.1-0.1,0.2-0.1L15.5,4.2v0
	C15.8,3.9,16,3.5,16,3.1S15.8,2.2,15.5,1.9z M2.7,11L11,2.7L13.3,5L5,13.3L2.7,11z M2.2,11.9l1.9,1.9l-2.8,0.9L2.2,11.9z M14.8,3.5
	L14,4.3L11.7,2l0.8-0.8c0.2-0.2,0.6-0.2,0.8,0l1.5,1.5C14.9,2.7,15,2.9,15,3.1S14.9,3.4,14.8,3.5z"/>
</svg>
