<svg id="Artwork" xmlns="http://www.w3.org/2000/svg" viewBox="0 0 24 24">
  <g id="g846">
    <path id="path4" d="M14.992.5a.5.5,0,0,0-.346.146L1.768,13.525a3.507,3.507,0,0,0,0,4.95l2.755,2.757h0a3.507,3.507,0,0,0,4.95,0L22.354,8.354a.5.5,0,0,0,0-.708l-7-7A.505.505,0,0,0,14.992.5ZM15,1.707,21.293,8,8.768,20.525a2.492,2.492,0,0,1-3.536,0L2.475,17.768a2.492,2.492,0,0,1,0-3.536Z" class="aw-theme-iconOutline" fill="#464646"/>
    <path id="line6" d="M12,21v1H24V21Z" class="aw-theme-iconOutline" fill="#464646"/>
    <path id="line8" d="M5.854,10.146l-.708.708,7,7,.708-.708Z" class="aw-theme-iconOutline" fill="#464646"/>
    <path id="circle10" d="M15,18a1,1,0,1,0,1,1A1.008,1.008,0,0,0,15,18Z" class="aw-theme-iconOutline" fill="#464646"/>
    <path id="circle12" d="M18.5,17A1.5,1.5,0,1,0,20,18.5,1.507,1.507,0,0,0,18.5,17Zm0,1a.5.5,0,1,1-.5.5A.493.493,0,0,1,18.5,18Z" class="aw-theme-iconOutline" fill="#464646"/>
  </g>
</svg>
