<?xml version="1.0" encoding="utf-8"?>
<!-- Generator: Adobe Illustrator 27.3.1, SVG Export Plug-In . SVG Version: 6.00 Build 0)  -->
<svg version="1.1" id="Layer_1" xmlns="http://www.w3.org/2000/svg" xmlns:xlink="http://www.w3.org/1999/xlink" x="0px" y="0px"
	 viewBox="0 0 24 24" style="enable-background:new 0 0 24 24;" xml:space="preserve">
<style type="text/css">
	.st0{fill:#464646;}
</style>
<path class="st0" d="M15,9l-1.5-4.5L12,0v0.2c-0.7,1.4-3,8.7-3,8.7C8.9,9,7.9,9,5.1,9C3,9,1,9,0.6,9H0l0.6,0.6l3.6,2.9
	c1.6,1.2,2.9,2.3,2.9,2.3s-2.4,8.9-2.5,9.1l3.8-2.7l3.6-2.7l0.1,0.1c4,2.9,7.5,5.4,7.5,5.4s-0.6-2.1-1.4-4.5s-1.4-4.4-1.4-4.5
	s1.6-1.4,3.6-3L24,9h-4.5H15z M17.4,12.5c-1.2,1-2.3,1.9-2.3,1.9c-0.1,0-0.1,0.1,0.8,2.9c0.5,1.6,0.9,2.9,0.8,2.9
	c0,0-1.2-0.7-2.5-1.7l-2.4-1.7l-2.3,1.7c-1.2,0.9-2.3,1.7-2.3,1.7s0.3-1.3,0.8-2.9c0.4-1,0.6-2,0.8-3l-2.3-1.9l-2.3-1.9h1.3
	c0.7,0,2,0,2.9,0H10l1-2.9c0.6-1.5,1-2.8,1-2.8s0.5,1.3,1.7,5.2l0.2,0.6h2.9c1.7,0,2.9,0,2.9,0S18.7,11.5,17.4,12.5z"/>
</svg>
