<svg version="1.1" id="Layer_1" xmlns="http://www.w3.org/2000/svg" xmlns:xlink="http://www.w3.org/1999/xlink" x="0px" y="0px"
	 viewBox="0 0 24 24" enable-background="new 0 0 24 24" xml:space="preserve">
<path class="aw-theme-iconOutline" fill="#464646" d="M22.6,8.9l-1.6-1.6c-0.6-0.6-1.5-0.6-2.1,0L8.1,18.1c-0.1,0.1-0.1,0.1-0.1,0.2l-1.5,4.5
	c-0.1,0.2,0,0.4,0.1,0.5c0.1,0.1,0.2,0.1,0.4,0.1c0.1,0,0.1,0,0.2,0l4.5-1.5c0.1,0,0.1-0.1,0.2-0.1l10.8-10.8
	C23.2,10.5,23.2,9.5,22.6,8.9z M9.2,18.5L18,9.7l2.3,2.3l-8.8,8.8L9.2,18.5z M8.7,19.4l1.9,1.9l-2.8,0.9L8.7,19.4z M21.9,10.4
	L21,11.3L18.7,9l0.9-0.9c0.2-0.2,0.5-0.2,0.7,0l1.6,1.6C22.1,9.8,22.1,10.2,21.9,10.4z"/>
<path class="aw-theme-iconOutline" fill="#464646" d="M11,5v3H9V3H7V0H0v7h7V4h1v9H7v-3H0v7h7v-3h2V9h2v3h2v-1h-1V6h5v1h1V5H11z M6,6H1V1h5V6z M6,16H1v-5h5V16z"/>
</svg>
