<svg version="1.1" id="Layer_1" xmlns="http://www.w3.org/2000/svg" xmlns:xlink="http://www.w3.org/1999/xlink" x="0px" y="0px"
	 viewBox="0 0 24 24" enable-background="new 0 0 24 24" xml:space="preserve">
<path class="aw-theme-iconOutline" fill="#464646" d="M22.3,3.6l-1.9-1.9c-0.8-0.8-2.1-0.8-2.8,0L3.1,16.1c-0.1,0.1-0.1,0.1-0.1,0.2l-2,6c-0.1,0.2,0,0.4,0.1,0.5
	C1.2,22.9,1.4,23,1.5,23c0.1,0,0.1,0,0.2,0l6-2c0.1,0,0.1-0.1,0.2-0.1L22.3,6.4C23.1,5.6,23.1,4.4,22.3,3.6z M4.2,16.5L16.5,4.2
	l3.3,3.3L7.5,19.8L4.2,16.5z M3.7,17.4l2.9,2.9l-4.3,1.4L3.7,17.4z M21.6,5.7l-1.1,1.1l-3.3-3.3l1.1-1.1c0.4-0.4,1-0.4,1.4,0
	l1.9,1.9C22,4.7,22,5.3,21.6,5.7z"/>
</svg>
