<?xml version="1.0" encoding="utf-8"?>
<!-- Generator: Adobe Illustrator 27.3.1, SVG Export Plug-In . SVG Version: 6.00 Build 0)  -->
<svg version="1.1" id="Artwork" xmlns="http://www.w3.org/2000/svg" xmlns:xlink="http://www.w3.org/1999/xlink" x="0px" y="0px"
	 viewBox="0 0 16 16" style="enable-background:new 0 0 16 16;" xml:space="preserve">
<style type="text/css">
	.st0{fill:#464646;}
</style>
<polygon class="st0" points="10,10.7 13.2,13.9 13.9,13.2 10.7,10 13,10 13,9 9,9 9,13 10,13 "/>
<polygon class="st0" points="13,6 10.7,6 13.9,2.8 13.2,2.1 10,5.3 10,3 9,3 9,7 13,7 "/>
<polygon class="st0" points="3,6 3,7 7,7 7,3 6,3 6,5.3 2.9,2.2 2.2,2.9 5.3,6 "/>
<path class="st0" d="M0,0v16h16V0H0z M15,15H1V1h14V15z"/>
<polygon class="st0" points="6,10.7 6,13 7,13 7,9 3,9 3,10 5.3,10 2.1,13.1 2.9,13.9 "/>
</svg>
