<?xml version="1.0" encoding="utf-8"?>
<!-- Generator: Adobe Illustrator 27.2.0, SVG Export Plug-In . SVG Version: 6.00 Build 0)  -->
<svg version="1.1" id="Layer_1" xmlns="http://www.w3.org/2000/svg" xmlns:xlink="http://www.w3.org/1999/xlink" x="0px" y="0px"
	 viewBox="0 0 24 24" style="enable-background:new 0 0 24 24;" xml:space="preserve">
<style type="text/css">
	.st0{fill:#464646;}
</style>
<g>
	<path class="st0" d="M12.5,9H16V0h-9v3.5H3.5v3.5H0v9h9v-3.5h3.5V9z M8.1,1h7v7h-7V1z M8,15.1H1v-7h2.5v4.4H8V15.1z M4.5,11.5v-7
		h2.5V9h4.4v2.5H4.5z"/>
	<path class="st0" d="M13,13v11h11V13H13z M23,23h-9v-9h9V23z"/>
	<polygon class="st0" points="18,21.5 19,21.5 19,19 21.5,19 21.5,18 19,18 19,15.5 18,15.5 18,18 15.5,18 15.5,19 18,19 	"/>
</g>
</svg>
