<?xml version="1.0" encoding="utf-8"?>
<!-- Generator: Adobe Illustrator 27.3.1, SVG Export Plug-In . SVG Version: 6.00 Build 0)  -->
<svg version="1.1" id="Layer_1" xmlns="http://www.w3.org/2000/svg" xmlns:xlink="http://www.w3.org/1999/xlink" x="0px" y="0px"
	 viewBox="0 0 32 32" style="enable-background:new 0 0 32 32;" xml:space="preserve">
<style type="text/css">
	.st0{fill:#464646;}
</style>
<path class="st0" d="M31.9,15.6l-7-7l-0.7,0.7l6.1,6.1H12v1h18.3l-6.1,6.1l0.7,0.7l7-7c0.1-0.1,0.1-0.2,0.1-0.3v0
	C32,15.9,32,15.7,31.9,15.6C31.9,15.6,31.9,15.6,31.9,15.6z"/>
<polygon class="st0" points="20,21.5 19,21.5 19,30.5 1,30.5 1,1.5 19,1.5 19,10.5 20,10.5 20,0.5 0,0.5 0,31.5 20,31.5 "/>
</svg>
