<svg width="24" height="24" viewBox="0 0 24 24" fill="none" xmlns="http://www.w3.org/2000/svg">
<path d="M22.9002 21.5H17.7002V22.5H22.9002V21.5Z" fill="#464646"/>
<path d="M17.7002 20.5H22.9002L20.3002 16L17.7002 20.5Z" fill="#464646"/>
<path d="M22.9002 1.5H17.7002V2.5H22.9002V1.5Z" fill="#464646"/>
<path d="M1.09961 22.5H16.0996V1.5H1.09961V22.5ZM2.09961 2.5H15.0996V5.5H2.09961V2.5ZM2.09961 6.5H15.0996V9.5H2.09961V6.5ZM2.09961 10.5H15.0996V13.5H2.09961V10.5ZM2.09961 14.5H15.0996V17.5H2.09961V14.5ZM2.09961 18.5H15.0996V21.5H2.09961V18.5Z" fill="#464646"/>
<path d="M20.3002 8L22.9002 3.5H17.7002L20.3002 8Z" fill="#464646"/>
</svg>
