<?xml version="1.0" encoding="utf-8"?>
<!-- Generator: Adobe Illustrator 27.3.1, SVG Export Plug-In . SVG Version: 6.00 Build 0)  -->
<svg version="1.1" id="Artwork" xmlns="http://www.w3.org/2000/svg" xmlns:xlink="http://www.w3.org/1999/xlink" x="0px" y="0px"
	 viewBox="0 0 24 24" style="enable-background:new 0 0 24 24;" xml:space="preserve">
<style type="text/css">
	.st0{fill:#464646;}
</style>
<g>
	<polygon class="st0" points="15,20 15,21 21,21 21,15 20,15 20,19.3 14.9,14.1 14.1,14.9 19.3,20 	"/>
	<polygon class="st0" points="14.9,9.9 20,4.7 20,9 21,9 21,3 15,3 15,4 19.3,4 14.1,9.1 	"/>
	<polygon class="st0" points="4,4.7 9.1,9.9 9.9,9.1 4.7,4 9,4 9,3 3,3 3,9 4,9 	"/>
	<polygon class="st0" points="9,20 4.7,20 9.9,14.9 9.1,14.1 4,19.3 4,15 3,15 3,21 9,21 	"/>
	<path class="st0" d="M0,0v24h24V0H0z M23,23H1V1h22V23z"/>
</g>
</svg>
