<?xml version="1.0" encoding="utf-8"?>
<!-- Generator: Adobe Illustrator 27.3.1, SVG Export Plug-In . SVG Version: 6.00 Build 0)  -->
<svg version="1.1" id="Artwork" xmlns="http://www.w3.org/2000/svg" xmlns:xlink="http://www.w3.org/1999/xlink" x="0px" y="0px"
	 viewBox="0 0 16 16" style="enable-background:new 0 0 16 16;" xml:space="preserve">
<style type="text/css">
	.st0{fill:#464646;}
</style>
<polygon class="st0" points="10,13.3 10,14 14,14 14,10 13.2,10 13.2,12.9 9.9,9.4 9.4,9.9 12.9,13.3 "/>
<polygon class="st0" points="9.9,6.6 13.2,3.1 13.2,6 14,6 14,2 10,2 10,2.7 12.9,2.7 9.4,6.1 "/>
<polygon class="st0" points="2.7,3.1 6,6.6 6.5,6.1 3,2.7 6,2.7 6,2 2,2 2,6 2.7,6 "/>
<polygon class="st0" points="6,13.3 3,13.3 6.5,9.9 6,9.4 2.7,12.9 2.7,10 2,10 2,14 6,14 "/>
<path class="st0" d="M0,0v16h16V0H0z M15.4,15.3h-0.1H0.7V0.7h14.7V15.3z"/>
</svg>
