<?xml version="1.0" encoding="utf-8"?>
<!-- Generator: Adobe Illustrator 27.3.1, SVG Export Plug-In . SVG Version: 6.00 Build 0)  -->
<svg version="1.1" id="Artwork" xmlns="http://www.w3.org/2000/svg" xmlns:xlink="http://www.w3.org/1999/xlink" x="0px" y="0px"
	 viewBox="0 0 16 16" style="enable-background:new 0 0 16 16;" xml:space="preserve">
<style type="text/css">
	.st0{fill:#464646;}
</style>
<path class="st0" d="M8.5,7.4l-4-2.9v7l4-2.9v2.9L13.4,8L8.5,4.5V7.4z M5.5,9.5v-3L7.6,8L5.5,9.5z M9.5,6.5L11.6,8L9.5,9.5V6.5z"/>
<path class="st0" d="M8,0.5C3.9,0.5,0.5,3.9,0.5,8s3.4,7.5,7.5,7.5s7.5-3.4,7.5-7.5S12.1,0.5,8,0.5z M8,14.5c-3.6,0-6.5-2.9-6.5-6.5
	S4.4,1.5,8,1.5s6.5,2.9,6.5,6.5S11.6,14.5,8,14.5z"/>
</svg>
