<svg id="Layer_1" data-name="Layer 1" xmlns="http://www.w3.org/2000/svg" viewBox="0 0 32 32">
  <g>
    <rect width="32" height="32" fill="none"/>
    <g>
      <path d="M25,20.5a.472.472,0,0,1-.5.5H6.5a.472.472,0,0,1-.5-.5c0-3,2-6,5-7.7V4.4A5.409,5.409,0,0,1,8.8,1.5,1.217,1.217,0,0,1,10,0H21.1a1.389,1.389,0,0,1,1,.5,1.389,1.389,0,0,1,.2,1.1A4.756,4.756,0,0,1,20,4.5v8.4A9.024,9.024,0,0,1,25,20.5ZM7,20H24a8.059,8.059,0,0,0-4.7-6.4.536.536,0,0,1-.3-.4v-9c0-.2.1-.4.3-.4a3.881,3.881,0,0,0,2-2.5V1.1a.349.349,0,0,0-.2-.1H10c-.1,0-.2,0-.2.1,0,0-.1.1,0,.1a4.208,4.208,0,0,0,2,2.5.764.764,0,0,1,.2.5v9c0,.2-.1.4-.3.4A8.059,8.059,0,0,0,7,20Z" fill="#464646"/>
      <rect x="15" y="20.5" width="1" height="11.5" fill="#464646"/>
    </g>
  </g>
</svg>
