<svg id="Layer_1" data-name="Layer 1" xmlns="http://www.w3.org/2000/svg" viewBox="0 0 16 16">

  <polygon points="12 7 12 5 4 5 4 7 5 7 5 6 7 6 7 11 6 11 6 12 10 12 10 11 9 11 9 6 11 6 11 7 12 7" class="aw-theme-iconOutline" fill="#464646"/>
  <path d="M8.423,1.077A6.942,6.942,0,0,1,13.192,3H11V4h4V0H14V2.445A7.872,7.872,0,0,0,.539,8H1.5A6.93,6.93,0,0,1,8.423,1.077Z" class="aw-theme-iconOutline" fill="#464646"/>
  <path d="M7.577,14.923A6.942,6.942,0,0,1,2.808,13H5V12H1v4H2V13.555A7.872,7.872,0,0,0,15.461,8H14.5A6.93,6.93,0,0,1,7.577,14.923Z" class="aw-theme-iconOutline" fill="#464646"/>
</svg>
