<svg version="1.1" id="Layer_1" xmlns="http://www.w3.org/2000/svg" xmlns:xlink="http://www.w3.org/1999/xlink" x="0px" y="0px"
	 viewBox="0 0 24 24" enable-background="new 0 0 24 24" xml:space="preserve">
	<path class="aw-theme-iconOutline" fill="#464646" d="M3,23c-1.1,0-2-0.9-2-2s0.9-2,2-2s2,0.9,2,2S4.1,23,3,23z M3,20c-0.6,0-1,0.4-1,1s0.4,1,1,1s1-0.4,1-1
		S3.6,20,3,20z"/>
<path class="aw-theme-iconOutline" fill="#464646" d="M11,21h-1c0-3.9-3.1-7-7-7v-1C7.4,13,11,16.6,11,21z"/>
<path class="aw-theme-iconOutline" fill="#464646" d="M17,21h-1c0-7.2-5.8-13-13-13V7C10.7,7,17,13.3,17,21z"/>
<path class="aw-theme-iconOutline" fill="#464646" d="M23,21h-1C22,10.5,13.5,2,3,2V1C14,1,23,10,23,21z"/>
</svg>
