<svg width="24" height="24" viewBox="0 0 24 24" fill="none" xmlns="http://www.w3.org/2000/svg">
<g clip-path="url(#clip0_423_14707)">
<path d="M7.39961 10.3L6.59961 9.70001L4.39961 12.7L3.39961 11.7L2.59961 12.3L4.49961 14.3L7.39961 10.3Z" fill="#464646"/>
<path d="M11 17H7V18H11V17Z" fill="#464646"/>
<path d="M6.59961 14.7L4.39961 17.7L3.39961 16.7L2.59961 17.3L4.49961 19.3L7.39961 15.3L6.59961 14.7Z" fill="#464646"/>
<path d="M9 12H7V13H9V12Z" fill="#464646"/>
<path d="M18 9V1H10V0H3V1H0V24H13V23H1V2H3V8.5C3 8.7 3.1 8.9 3.3 9C3.5 9 3.7 9 3.9 8.9L6.5 6.3L9.1 8.9C9.2 8.9 9.4 9 9.5 9C9.6 9 9.6 9 9.7 9C9.9 8.9 10 8.7 10 8.5V2H17V9C16.3 9 10 9.1 10 11C10 11.2 10.1 11.3 10.2 11.5L15 18.7V23.5C15 23.7 15.1 23.9 15.3 23.9C15.4 23.9 15.5 24 15.5 24C15.6 24 15.7 24 15.8 23.9L18.8 21.9C18.9 21.8 19 21.7 19 21.5V18.7L23.8 11.6C23.9 11.4 24 11.2 24 11C24 9.4 20 9.1 18 9ZM9 7.3L6.9 5.1C6.8 5 6.6 5 6.5 5C6.4 5 6.2 5 6.1 5.1L4 7.3V1H9V7.3ZM18.1 18.2C18 18.3 18 18.4 18 18.5V21.2L16 22.5V18.4C16 18.3 16 18.2 15.9 18.1L12 12.5C13.9 13 16.5 13 17 13C17.4 13 20.1 13 22 12.5L18.1 18.2ZM17 12C13.5 12 11.4 11.4 11 11C11.4 10.6 13.5 10 17 10C20.5 10 22.6 10.6 23 11C22.6 11.4 20.5 12 17 12Z" fill="#464646"/>
</g>
<defs>
<clipPath id="clip0_423_14707">
<rect width="24" height="24" fill="white"/>
</clipPath>
</defs>
</svg>
