<?xml version="1.0" encoding="utf-8"?>
<!-- Generator: Adobe Illustrator 27.3.1, SVG Export Plug-In . SVG Version: 6.00 Build 0)  -->
<svg version="1.1" id="Layer_1" xmlns="http://www.w3.org/2000/svg" xmlns:xlink="http://www.w3.org/1999/xlink" x="0px" y="0px"
	 viewBox="0 0 24 24" style="enable-background:new 0 0 24 24;" xml:space="preserve">
<style type="text/css">
	.st0{fill:#464646;}
</style>
<path class="st0" d="M23,3H1C0.7,3,0.5,3.2,0.5,3.5v15C0.5,18.8,0.7,19,1,19h4.5v3.5c0,0.2,0.1,0.4,0.3,0.5c0.1,0,0.1,0,0.2,0
	s0.3-0.1,0.3-0.1l3.9-3.9H23c0.3,0,0.5-0.2,0.5-0.5v-15C23.5,3.2,23.3,3,23,3z M22.5,18H10c-0.1,0-0.3,0.1-0.4,0.2l-3.1,3.1v-2.8
	C6.5,18.2,6.3,18,6,18H1.5V4h21V18z"/>
<path class="st0" d="M9.7,16.7l0.4-0.9C9,15.3,8.3,14.2,8.3,13c0-1.7,1.3-3,3-3h5.3l-2.7,2.7l0.7,0.7l3.9-3.9l-3.8-3.9L14,6.4
	L16.6,9h-5.3c-2.2,0-4,1.8-4,4C7.3,14.6,8.3,16.1,9.7,16.7z"/>
</svg>
