<?xml version="1.0" encoding="utf-8"?>
<!-- Generator: Adobe Illustrator 27.1.1, SVG Export Plug-In . SVG Version: 6.00 Build 0)  -->
<svg version="1.1" id="Layer_1" xmlns="http://www.w3.org/2000/svg" xmlns:xlink="http://www.w3.org/1999/xlink" x="0px" y="0px"
	 viewBox="0 0 32 32" style="enable-background:new 0 0 32 32;" xml:space="preserve">
<style type="text/css">
	.st0{fill:#464646;}
</style>
<path class="st0" d="M0.7,26.1L0.7,26.1c-0.3,0-0.6-0.2-0.6-0.5s0.2-0.5,0.5-0.5c0,0,0,0,0.1,0c3.7,0,5.6-6.7,7.2-12.6
	c1.5-5.4,2.7-10,5.4-10c1.3,0,2.2,0.4,2.7,1.2c1.4,2.2-0.5,6.8-2.6,11.6c-1.6,3.7-3.4,7.9-2.5,9.2C11,24.6,11.2,25,12,25
	c1.7,0,3.4-3.6,4.8-6.8c1.7-3.9,3.4-7.5,5.9-7.5c0.7,0,1.3,0.2,1.7,0.7c0.9,1.1,0.5,3,0.2,5c-0.3,1.6-0.6,3.5,0,4.2
	c0.2,0.2,0.5,0.3,0.9,0.3c1.2,0,2.1-1.1,3.1-2.1c0.9-1,1.8-2,2.9-2c0.3,0,0.5,0.2,0.5,0.5s-0.2,0.5-0.5,0.5c-0.7,0-1.4,0.8-2.2,1.6
	c-1,1.1-2.2,2.4-3.8,2.4c-0.7,0-1.3-0.2-1.6-0.7c-0.9-1-0.5-3-0.2-5c0.3-1.7,0.6-3.5,0-4.2c-0.2-0.2-0.5-0.3-0.9-0.3
	c-1.8,0-3.5,3.7-5,6.9c-1.7,3.8-3.3,7.4-5.7,7.4c-0.9,0-1.6-0.3-2-0.9c-1.2-1.8,0.5-5.6,2.5-10.1c1.8-4.2,3.9-8.9,2.7-10.7
	c-0.3-0.5-0.9-0.7-1.9-0.7c-1.9,0-3.2,4.7-4.4,9.3C7.2,19,5.2,26.1,0.7,26.1z"/>
</svg>
