<svg version="1.1" id="Artwork" xmlns="http://www.w3.org/2000/svg" xmlns:xlink="http://www.w3.org/1999/xlink" x="0px" y="0px"
	 width="24px" height="24px" viewBox="0 0 24 24" enable-background="new 0 0 24 24" xml:space="preserve">
<rect y="11" class="aw-theme-iconOutline" fill="#464646" width="3" height="1"/>
<rect x="5" y="11" class="aw-theme-iconOutline" fill="#464646" width="3" height="1"/>
<rect x="10" y="11" class="aw-theme-iconOutline" fill="#464646" width="3" height="1"/>
<rect x="15" y="11" class="aw-theme-iconOutline" fill="#464646" width="3" height="1"/>
<rect x="20" y="11" class="aw-theme-iconOutline" fill="#464646" width="3" height="1"/>
<path class="aw-theme-iconOutline" fill="#464646" d="M19.5,23c-0.1,0-0.1,0-0.2,0l-16-7C3.1,15.9,3,15.6,3,15.4c0-0.2,0.3-0.4,0.5-0.4H20v7.5
	c0,0.2-0.1,0.3-0.2,0.4C19.7,23,19.6,23,19.5,23z M5.9,16L19,21.7V16H5.9z"/>
<path class="aw-theme-iconOutline" fill="#464646" d="M3.5,8C3.3,8,3.1,7.8,3,7.6C3,7.4,3.1,7.1,3.3,7l16-7c0.2-0.1,0.3-0.1,0.5,0C19.9,0.2,20,0.3,20,0.5V8L3.5,8
	z M5.9,7H19V1.3L5.9,7z"/>
</svg>
