<svg version="1.1" id="Layer_1" xmlns="http://www.w3.org/2000/svg" xmlns:xlink="http://www.w3.org/1999/xlink" x="0px" y="0px"
	 viewBox="0 0 24 24" enable-background="new 0 0 24 24" xml:space="preserve">
<path class="aw-theme-iconOutline" fill="#464646" d="M0.5,20.1C0.5,20.1,0.5,20.1,0.5,20.1C0.2,20,0,19.8,0,19.5c0-0.3,0.2-0.5,0.5-0.5c0,0,0,0,0,0
	c2.7,0,4.1-5,5.3-9.4C6.9,5.6,7.9,2.1,10,2.1c1,0,1.7,0.3,2.1,1c1.1,1.7-0.4,5.2-2,8.8c-1.2,2.7-2.5,5.8-1.9,6.8
	c0,0.1,0.2,0.3,0.8,0.3c1.2,0,2.4-2.7,3.5-5c1.3-2.9,2.6-5.7,4.5-5.7c0.6,0,1,0.2,1.3,0.6c0.7,0.8,0.4,2.3,0.2,3.9
	c-0.2,1.2-0.5,2.6-0.1,3c0.1,0.1,0.2,0.2,0.6,0.2c0.8,0,1.5-0.8,2.2-1.5c0.7-0.8,1.4-1.5,2.3-1.5c0.3,0,0.5,0.2,0.5,0.5
	s-0.2,0.5-0.5,0.5c-0.4,0-1,0.6-1.5,1.2c-0.8,0.9-1.7,1.9-3,1.9c-0.6,0-1-0.2-1.3-0.5c-0.7-0.8-0.4-2.3-0.2-3.8
	c0.2-1.2,0.5-2.6,0.1-3.1c0,0-0.2-0.2-0.6-0.2c-1.3,0-2.5,2.7-3.6,5.1c-1.3,2.9-2.5,5.6-4.4,5.6c-0.7,0-1.3-0.2-1.6-0.7
	c-0.9-1.4,0.4-4.3,1.8-7.7c1.3-3.1,2.9-6.6,2-7.9c-0.2-0.3-0.7-0.5-1.3-0.5c-1.3,0-2.3,3.7-3.2,6.9C5.5,14.7,4,20.1,0.5,20.1z"/>
</svg>
