<?xml version="1.0" encoding="utf-8"?>
<!-- Generator: Adobe Illustrator 27.2.0, SVG Export Plug-In . SVG Version: 6.00 Build 0)  -->
<svg version="1.1" id="Layer_1" xmlns="http://www.w3.org/2000/svg" xmlns:xlink="http://www.w3.org/1999/xlink" x="0px" y="0px"
	 viewBox="0 0 24 24" style="enable-background:new 0 0 24 24;" xml:space="preserve">
<style type="text/css">
	.st0{fill:#464646;}
</style>
<g id="g821">
	<path id="path818" class="st0" d="M4.6,23.9c0-0.1,0.5-2.1,1.2-4.4S7,15.1,7,15c0-0.2-1-1-4.7-4.1L0,9L4.5,9c2.5,0,4.5-0.1,4.5-0.1
		c0,0,0.7-2,1.5-4.4C11.3,2,12,0,12.1,0s0.7,2,1.5,4.5L15,9l4.5,0l4.5,0L20.4,12c-1.3,0.9-2.5,2-3.5,3.1l1,3.5
		c0.5,1.8,1.1,3.8,1.3,4.3c0.1,0.3,0.2,0.7,0.3,1c0,0-1.6-1.1-3.5-2.5c-1.9-1.4-3.6-2.6-3.8-2.7l-0.3-0.2L11,19.3
		c-0.5,0.4-2.1,1.5-3.5,2.6C4.5,24.1,4.6,24.1,4.6,23.9z"/>
</g>
</svg>
