<svg id="Layer_2" data-name="Layer 2" xmlns="http://www.w3.org/2000/svg" viewBox="0 0 16 16">
  <rect x="7.5" y="3" width="1" height="3" fill="#464646"/>
  <rect x="7.5" y="10" width="1" height="3" fill="#464646"/>
  <rect x="3" y="7.5" width="3" height="1" fill="#464646"/>
  <rect x="10" y="7.5" width="3" height="1" fill="#464646"/>
  <rect x="4.5" y="3.586" width="1" height="2.828" transform="translate(-2.071 5) rotate(-45)" fill="#464646"/>
  <rect x="3.586" y="10.5" width="2.828" height="1" transform="translate(-6.314 6.757) rotate(-45)" fill="#464646"/>
  <rect x="4.5" y="3.586" width="1" height="2.828" transform="translate(-2.071 5) rotate(-45)" fill="#464646"/>
  <rect x="9.586" y="4.5" width="2.828" height="1" transform="translate(-0.314 9.243) rotate(-45)" fill="#464646"/>
  <rect x="10.5" y="9.586" width="1" height="2.828" transform="translate(-4.556 11) rotate(-45)" fill="#464646"/>
  <rect x="9.586" y="4.5" width="2.828" height="1" transform="translate(-0.314 9.243) rotate(-45)" fill="#464646"/>
  <path d="M16,16H0V0H16ZM1,15H15V1H1Z" class="aw-theme-iconOutline" fill="#464646"/>
</svg>
