<svg width="24" height="24" viewBox="0 0 24 24" fill="none" xmlns="http://www.w3.org/2000/svg">
<g clip-path="url(#clip0_423_14719)">
<path d="M14 7H13V10.5H14V7Z" fill="#464646"/>
<path d="M14 16.5H13V20H14V16.5Z" fill="#464646"/>
<path d="M18.8996 8.9L18.9996 8.7L18.2996 8L15.5996 10.6L16.3996 11.4L18.8996 8.9Z" fill="#464646"/>
<path d="M10.6692 15.6943L8.19434 18.1692L8.90144 18.8763L11.3763 16.4014L10.6692 15.6943Z" fill="#464646"/>
<path d="M16.4014 15.6238L15.6943 16.3309L18.1692 18.8057L18.8763 18.0986L16.4014 15.6238Z" fill="#464646"/>
<path d="M20 13H16.5V14H20V13Z" fill="#464646"/>
<path d="M8.83015 8.19408L8.12305 8.90118L10.5979 11.376L11.305 10.6689L8.83015 8.19408Z" fill="#464646"/>
<path d="M21 0H0V21H3V24H24V3H21V0ZM3 20H1V1H20V3H3V20ZM23 4V23H4V4H23Z" fill="#464646"/>
<path d="M10.5 13H7V14H10.5V13Z" fill="#464646"/>
</g>
<defs>
<clipPath id="clip0_423_14719">
<rect width="24" height="24" fill="white"/>
</clipPath>
</defs>
</svg>
