<svg id="Layer_1" data-name="Layer 1" xmlns="http://www.w3.org/2000/svg" viewBox="0 0 24 24">
  <path d="M11.4985,23A11.5,11.5,0,1,1,23,11.502,11.5114,11.5114,0,0,1,11.4985,23Zm0-22A10.5,10.5,0,1,0,22,11.502,10.5119,10.5119,0,0,0,11.4985,1Z" class="aw-theme-iconOutline" fill="#464646"/>
  <path d="M11.5,16a.5.5,0,0,1-.5-.5V13.9126a3.1682,3.1682,0,0,1,1.8276-2.8706A3.1669,3.1669,0,1,0,8.3335,8.1665a.5.5,0,0,1-1,0,4.1678,4.1678,0,1,1,5.9141,3.7827A2.1661,2.1661,0,0,0,12,13.9126V15.5A.5.5,0,0,1,11.5,16Z" class="aw-theme-iconOutline" fill="#464646"/>
  <rect x="10.75" y="17.75" width="1.5" height="1.5" rx="0.6495" class="aw-theme-iconOutline" fill="#464646"/>
</svg>
