<?xml version="1.0" encoding="utf-8"?>
<!-- Generator: Adobe Illustrator 27.1.1, SVG Export Plug-In . SVG Version: 6.00 Build 0)  -->
<svg version="1.1" id="Layer_1" xmlns="http://www.w3.org/2000/svg" xmlns:xlink="http://www.w3.org/1999/xlink" x="0px" y="0px"
	 viewBox="0 0 24 24" style="enable-background:new 0 0 24 24;" xml:space="preserve">
<style type="text/css">
	.st0{fill:#464646;}
</style>
<path class="st0" d="M16.1,15.4c0.1,0,0.3,0,0.5,0.1s0.5-0.1,0.6-0.3s0-0.5-0.3-0.6c-0.4-0.1-0.7-0.1-0.9-0.1
	c-1.7,0-3.1,1.4-3.1,3.1c0,0.5,0.1,0.9,0.2,1.2c0.1,0.2,0.3,0.3,0.5,0.3c0.1,0,0.1,0,0.3-0.2c0.2-0.1,0.4-0.3,0.3-0.6
	c-0.1-0.2-0.2-0.5-0.2-0.8C14,16.4,15,15.4,16.1,15.4z"/>
<path class="st0" d="M16,19.8c-0.2,0-0.4-0.1-0.7-0.2c-0.2-0.1-0.5,0-0.6,0.3c-0.1,0.2,0,0.5,0.3,0.6s0.6,0.2,1,0.2
	c1.7,0,3.1-1.4,3-2.9c0-0.4,0-0.7-0.1-1.1c-0.1-0.2-0.3-0.4-0.6-0.3c-0.2,0.1-0.4,0.3-0.3,0.6c0.1,0.2,0.1,0.4,0.1,0.7
	C18.1,18.8,17.1,19.8,16,19.8z"/>
<path class="st0" d="M21.2,14.3c-0.2-0.2-0.5-0.2-0.7,0s-0.2,0.5,0,0.7c0.8,0.8,1.5,1.6,2.1,2.7c-1.6,2.7-4,4.3-6.7,4.3
	c-0.9,0-1.6-0.1-2.3-0.4c-0.2-0.1-0.5,0-0.6,0.3c-0.1,0.2,0,0.5,0.3,0.6c0.8,0.3,1.6,0.4,2.7,0.4c3,0,5.8-1.8,7.5-4.7
	c0.2-0.2,0.2-0.6,0-1C22.9,16.1,22.1,15.1,21.2,14.3z"/>
<path class="st0" d="M10.8,21.1c0.1,0.1,0.2,0.1,0.3,0.1s0.3-0.1,0.5-0.3c0.2-0.2,0.1-0.5-0.1-0.7c-0.8-0.6-1.4-1.4-2.1-2.7
	c1.6-2.7,4-4.3,6.7-4.3c0.8,0,1.5,0.1,2.2,0.4c0.2,0.1,0.5,0,0.6-0.3c0.1-0.2,0-0.5-0.3-0.6c-0.8-0.3-1.6-0.4-2.6-0.4
	c-3,0-5.8,1.8-7.5,4.8c-0.2,0.2-0.2,0.6,0,1C9.2,19.5,9.9,20.4,10.8,21.1z"/>
<path class="st0" d="M8,11H2.9c-0.2-0.6-0.8-1-1.4-1C0.7,10,0,10.7,0,11.5S0.7,13,1.5,13c0.6,0,1.2-0.4,1.4-1H8v3h2v-1H9V9h14v5h-1
	v1h2V8H8V11z M1.5,12C1.2,12,1,11.8,1,11.5S1.2,11,1.5,11S2,11.2,2,11.5S1.8,12,1.5,12z"/>
<path class="st0" d="M8,0v3H2.9C2.7,2.4,2.1,2,1.5,2C0.7,2,0,2.7,0,3.5S0.7,5,1.5,5c0.6,0,1.2-0.4,1.4-1H8v3h16V0H8z M1.5,4
	C1.2,4,1,3.8,1,3.5S1.2,3,1.5,3S2,3.2,2,3.5S1.8,4,1.5,4z M23,6H9V1h14V6z"/>
<path class="st0" d="M21.9,11.7c-0.2-0.2-0.5-0.2-0.7,0L10,22.9c-0.2,0.2-0.2,0.5,0,0.7c0.1,0.1,0.3,0.1,0.4,0.1
	c0.1,0,0.3,0,0.4-0.1l11.1-11.2C22.1,12.2,22.1,11.9,21.9,11.7z"/>
</svg>
