<?xml version="1.0" encoding="utf-8"?>
<!-- Generator: Adobe Illustrator 27.1.1, SVG Export Plug-In . SVG Version: 6.00 Build 0)  -->
<svg version="1.1" id="Layer_1" xmlns="http://www.w3.org/2000/svg" xmlns:xlink="http://www.w3.org/1999/xlink" x="0px" y="0px"
	 viewBox="0 0 32 32" style="enable-background:new 0 0 32 32;" xml:space="preserve">
<style type="text/css">
	.st0{fill:#464646;}
</style>
<path class="st0" d="M21.1,19.6c0.2,0,0.5,0,0.8,0.1c0.3,0,0.5-0.1,0.6-0.4c0-0.3-0.1-0.5-0.4-0.6c-0.4-0.1-0.7-0.1-1.1-0.1
	c-2.4,0-4.4,2-4.4,4.4c0,0.6,0.1,1.2,0.3,1.7c0.1,0.2,0.3,0.3,0.5,0.3c0.1,0,0.1,0,0.3,0c0.3-0.2,0.4-0.4,0.3-0.7
	c-0.2-0.4-0.3-0.9-0.3-1.3C17.7,21.1,19.2,19.6,21.1,19.6z"/>
<path class="st0" d="M20.9,26.4c-0.4,0-0.7-0.1-1.1-0.2c-0.2-0.1-0.5,0.1-0.6,0.3c-0.1,0.2,0,0.5,0.3,0.6c0.5,0.2,1,0.3,1.5,0.3
	c2.4,0,4.4-2,4.2-4.3c0-0.5,0-1-0.2-1.5c-0.1-0.3-0.3-0.4-0.6-0.3c-0.3,0.1-0.4,0.3-0.3,0.6c0.1,0.3,0.2,0.7,0.2,1.1
	C24.3,24.9,22.8,26.4,20.9,26.4z"/>
<path class="st0" d="M28.4,18.1c-0.2-0.1-0.5-0.1-0.7,0.1c-0.1,0.2-0.1,0.5,0.1,0.7c1.3,1.1,2.4,2.4,3.2,4c0,0,0,0.1,0,0.2
	c-2.2,4.1-5.9,6.6-10,6.6c-1.2,0-2.4-0.2-3.5-0.6c-0.2-0.1-0.5,0-0.6,0.3c-0.1,0.2,0,0.5,0.3,0.6c1.2,0.5,2.5,0.7,3.8,0.7
	c4.5,0,8.5-2.7,10.8-7.1c0.2-0.4,0.2-0.8,0-1.2C30.9,20.7,29.8,19.3,28.4,18.1z"/>
<path class="st0" d="M13.6,27.9c0.1,0.1,0.2,0.1,0.3,0.1s0.3-0.1,0.5-0.2c0.1-0.2,0.1-0.5-0.1-0.7c-1.3-1.1-2.4-2.4-3.2-4
	c0,0,0-0.1,0-0.2c2.2-4.1,5.9-6.6,10-6.6c1.2,0,2.3,0.2,3.4,0.6c0.2,0.1,0.5-0.1,0.6-0.3c0.1-0.2,0-0.5-0.3-0.6
	c-1.2-0.5-2.4-0.7-3.7-0.7c-4.5,0-8.6,2.6-10.9,7.1c-0.2,0.4-0.2,0.8,0,1.2C11.1,25.3,12.2,26.7,13.6,27.9z"/>
<path class="st0" d="M29.6,14.4c-0.2-0.2-0.5-0.2-0.7,0L12.3,31c-0.2,0.2-0.2,0.5,0,0.7c0.1,0.1,0.3,0.1,0.4,0.1
	c0.1,0,0.3-0.1,0.4-0.2l16.5-16.5C29.8,14.9,29.8,14.6,29.6,14.4z"/>
<path class="st0" d="M10,2v5H2.9C2.7,6.4,2.1,6,1.5,6C0.7,6,0,6.7,0,7.5S0.7,9,1.5,9c0.6,0,1.2-0.4,1.4-1H10v5h22V2H10z M1.5,8
	C1.2,8,1,7.8,1,7.5S1.2,7,1.5,7S2,7.2,2,7.5S1.8,8,1.5,8z M31,12H11V3h20V12z"/>
</svg>
