<?xml version="1.0" encoding="utf-8"?>
<!-- Generator: Adobe Illustrator 27.1.1, SVG Export Plug-In . SVG Version: 6.00 Build 0)  -->
<svg version="1.1" id="Layer_1" xmlns="http://www.w3.org/2000/svg" xmlns:xlink="http://www.w3.org/1999/xlink" x="0px" y="0px"
	 viewBox="0 0 24 24" style="enable-background:new 0 0 24 24;" xml:space="preserve">
<style type="text/css">
	.st0{fill:#464646;}
</style>
<path class="st0" d="M15.4,15c0.3,0,0.4,0,0.5,0c0.3,0.1,0.6,0,0.7-0.2c0.1-0.3,0-0.6-0.2-0.7c-0.3-0.2-0.6-0.2-0.9-0.2
	c-1.9,0-3.4,1.5-3.4,3.4c0,0.4,0.1,0.8,0.2,1.3c0.1,0.2,0.3,0.3,0.5,0.3c0.1,0,0.1,0,0.1,0c0.2-0.1,0.4-0.3,0.3-0.6
	C13.1,18,13,17.7,13,17.4C13,16.1,14.1,15,15.4,15z"/>
<path class="st0" d="M15.4,19.8c-0.2,0-0.5-0.1-0.8-0.2c-0.2-0.1-0.5,0-0.6,0.3c-0.1,0.2,0,0.5,0.3,0.6s0.8,0.2,1.2,0.2
	c1.9,0,3.4-1.5,3.2-3.2c0-0.5-0.1-0.9-0.2-1.2l-0.9,0.3c0.1,0.2,0.2,0.5,0.2,0.8C17.8,18.7,16.7,19.8,15.4,19.8z"/>
<path class="st0" d="M21,13.8c-0.2-0.1-0.5-0.1-0.7,0.1c-0.2,0.2-0.1,0.5,0.1,0.7c1,0.7,1.8,1.8,2.4,2.9c-1.6,2.9-4.5,4.8-7.4,4.8
	c-0.7,0-1.5-0.2-2.5-0.5c-0.2-0.1-0.5,0-0.6,0.3c-0.1,0.2,0,0.5,0.3,0.6c1.1,0.3,2,0.5,2.9,0.5c3.3,0,6.5-2.1,8.1-5.2
	c0.2-0.4,0.2-0.7,0-1C23,15.8,22.1,14.6,21,13.8z"/>
<path class="st0" d="M9.9,20.9C10,21,10.1,21,10.2,21c0.1,0,0.3-0.1,0.5-0.4c0.2-0.2,0.1-0.5-0.1-0.7c-1-0.7-1.8-1.8-2.4-2.9
	c1.6-2.9,4.5-4.8,7.4-4.8c0.8,0,1.7,0.2,2.5,0.5c0.2,0.1,0.5,0,0.6-0.3c0.1-0.2,0-0.5-0.3-0.6c-0.9-0.3-2-0.5-2.9-0.5
	c-3.3,0-6.4,2.1-8.2,5.4c-0.2,0.4-0.2,0.7,0,1C7.9,18.9,8.8,20.1,9.9,20.9z"/>
<path class="st0" d="M22,10.7c-0.2-0.2-0.5-0.2-0.7,0L8.9,23.2c-0.2,0.2-0.2,0.5,0,0.7C9,24,9.2,24,9.3,24s0.3,0,0.4-0.1L22,11.4
	C22.2,11.2,22.2,10.9,22,10.7z"/>
<path class="st0" d="M7,1v4H2.9C2.7,4.4,2.1,4,1.5,4C0.7,4,0,4.7,0,5.5S0.7,7,1.5,7c0.6,0,1.2-0.4,1.4-1H7v4h17V1H7z M1.5,6
	C1.2,6,1,5.8,1,5.5S1.2,5,1.5,5S2,5.2,2,5.5S1.8,6,1.5,6z M23,9H8V6V5V2h15V9z"/>
</svg>
