<?xml version="1.0" encoding="utf-8"?>
<!-- Generator: Adobe Illustrator 27.3.1, SVG Export Plug-In . SVG Version: 6.00 Build 0)  -->
<svg version="1.1" id="Artwork" xmlns="http://www.w3.org/2000/svg" xmlns:xlink="http://www.w3.org/1999/xlink" x="0px" y="0px"
	 viewBox="0 0 16 16" style="enable-background:new 0 0 16 16;" xml:space="preserve">
<style type="text/css">
	.st0{fill:#464646;}
</style>
<path class="st0" d="M8,0C3.6,0,0,3.6,0,8s3.6,8,8,8c2.3,0,4.5-1,6-2.7V15h1v-4h-4v1h2.7l-0.1,0.1C12.4,13.9,10.2,15,8,15
	c-3.9,0-7-3.1-7-7s3.1-7,7-7s7,3.1,7,7h1C16,3.6,12.4,0,8,0z"/>
<polygon class="st0" points="8,8 4,8 4,9 9,9 9,3 8,3 "/>
</svg>
