<?xml version="1.0" encoding="utf-8"?>
<!-- Generator: Adobe Illustrator 27.3.1, SVG Export Plug-In . SVG Version: 6.00 Build 0)  -->
<svg version="1.1" id="Artwork" xmlns="http://www.w3.org/2000/svg" xmlns:xlink="http://www.w3.org/1999/xlink" x="0px" y="0px"
	 viewBox="0 0 24 24" style="enable-background:new 0 0 24 24;" xml:space="preserve">
<style type="text/css">
	.st0{fill:#464646;}
</style>
<path class="st0" d="M12,0C5.4,0,0,5.4,0,12s5.4,12,12,12c3.5,0,6.7-1.5,9-4.1V23h1v-5h-5v1h3.5c-2.1,2.5-5.2,4-8.5,4
	C5.9,23,1,18.1,1,12S5.9,1,12,1s11,4.9,11,11c0,1.4-0.2,2.7-0.7,4l0.9,0.4C23.7,15,24,13.5,24,12C24,5.4,18.6,0,12,0z"/>
<polygon class="st0" points="12,12 6,12 6,13 13,13 13,4 12,4 "/>
</svg>
