<svg version="1.1" id="Artwork" xmlns="http://www.w3.org/2000/svg" xmlns:xlink="http://www.w3.org/1999/xlink" x="0px" y="0px"
	 width="16px" height="16px" viewBox="0 0 16 16" enable-background="new 0 0 16 16" xml:space="preserve">
<rect x="-2.6" y="7.5" transform="matrix(0.7071 -0.7071 0.7071 0.7071 -3.3137 8)" class="aw-theme-iconOutline" fill="#464646" width="21.2" height="1"/>
<path class="aw-theme-iconOutline" fill="#464646" d="M2.9,11.6c-0.1,0-0.2,0-0.3-0.1c-1-0.8-1.7-1.9-2.3-3.1C0.1,8.2,0.1,8,0.2,7.9c1.6-3.2,4.6-5.2,7.7-5.2
	c0.9,0,1.7,0.2,2.6,0.4c0.3,0.1,0.4,0.4,0.3,0.6c-0.1,0.3-0.4,0.4-0.6,0.3C9.4,3.8,8.7,3.7,7.9,3.7c-2.7,0-5.3,1.7-6.7,4.4
	c0.5,1,1.2,1.9,2,2.6c0.2,0.2,0.2,0.5,0,0.7C3.1,11.5,3,11.6,2.9,11.6z"/>
<path class="aw-theme-iconOutline" fill="#464646" d="M7.9,13.6c-0.9,0-1.9-0.2-2.7-0.5c-0.3-0.1-0.4-0.4-0.3-0.6C5,12.2,5.3,12,5.5,12.1c0.8,0.3,1.6,0.4,2.4,0.4
	c2.7,0,5.3-1.7,6.7-4.4c-0.5-1-1.3-2-2.1-2.7c-0.2-0.2-0.2-0.5-0.1-0.7c0.2-0.2,0.5-0.2,0.7-0.1c1,0.9,1.8,1.9,2.5,3.2
	c0.1,0.1,0.1,0.3,0,0.4C14.1,11.6,11.1,13.6,7.9,13.6z"/>
<path class="aw-theme-iconOutline" fill="#464646" d="M5.1,9.3C4.9,9.3,4.7,9.2,4.6,9C4.5,8.7,4.5,8.4,4.5,8.1c0-1.9,1.5-3.5,3.4-3.5c0.3,0,0.6,0,0.9,0.1
	c0.3,0.1,0.4,0.4,0.3,0.6C9.1,5.6,8.8,5.8,8.6,5.7C8.4,5.7,8.1,5.6,7.9,5.6c-1.3,0-2.4,1.1-2.4,2.5c0,0.2,0,0.4,0.1,0.6
	C5.7,9,5.5,9.3,5.2,9.3C5.2,9.3,5.1,9.3,5.1,9.3z"/>
<path class="aw-theme-iconOutline" fill="#464646" d="M7.9,11.6c-0.4,0-0.7-0.1-1.1-0.2c-0.3-0.1-0.4-0.4-0.3-0.6c0.1-0.3,0.4-0.4,0.6-0.3
	c0.2,0.1,0.5,0.1,0.8,0.1c1.3,0,2.4-1.1,2.4-2.5c0-0.2,0-0.5-0.1-0.7c-0.1-0.3,0.1-0.5,0.3-0.6c0.3-0.1,0.5,0.1,0.6,0.3
	c0.1,0.3,0.1,0.7,0.1,1C11.3,10,9.8,11.6,7.9,11.6z"/>
</svg>
