<?xml version="1.0" encoding="utf-8"?>
<!-- Generator: Adobe Illustrator 27.1.1, SVG Export Plug-In . SVG Version: 6.00 Build 0)  -->
<svg version="1.1" id="Layer_1" xmlns="http://www.w3.org/2000/svg" xmlns:xlink="http://www.w3.org/1999/xlink" x="0px" y="0px"
	 viewBox="0 0 32 32" style="enable-background:new 0 0 32 32;" xml:space="preserve">
<style type="text/css">
	.st0{fill:#464646;}
</style>
<path class="st0" d="M22,21c0.3,0,0.5,0,0.8,0.1c0.3,0,0.5-0.1,0.6-0.4c0-0.3-0.1-0.5-0.4-0.6S22.3,20,22,20c-2.2,0-4,1.8-4,4
	c0,0.5,0.1,1,0.3,1.5c0.1,0.2,0.3,0.3,0.5,0.3h0.1c0.3-0.2,0.4-0.4,0.3-0.7C19.1,24.8,19,24.4,19,24C19,22.3,20.3,21,22,21z"/>
<path class="st0" d="M22,27.1c-0.3,0-0.7-0.1-1-0.2c-0.2-0.1-0.5,0-0.6,0.3c-0.1,0.2,0,0.5,0.3,0.6c0.4,0.1,0.8,0.2,1.3,0.2
	c2.2,0,4-1.8,3.9-3.9c0-0.4,0-0.9-0.2-1.3c-0.1-0.3-0.3-0.4-0.6-0.3c-0.3,0.1-0.4,0.3-0.3,0.6c0.1,0.3,0.2,0.7,0.2,1
	C25,25.8,23.7,27.1,22,27.1z"/>
<path class="st0" d="M28.7,19.6c-0.2-0.1-0.5-0.1-0.7,0.1c-0.1,0.2-0.1,0.5,0.1,0.7c1.1,1,2.1,2.2,2.8,3.6c0,0.1,0,0.2,0,0.2
	c-2,3.7-5.3,5.9-9,5.9c-1,0-2.1-0.2-3.1-0.6c-0.2-0.1-0.5,0-0.6,0.3c-0.1,0.2,0,0.5,0.3,0.6c1.1,0.4,2.3,0.6,3.5,0.6
	c4,0,7.7-2.4,9.8-6.4c0.2-0.4,0.2-0.8,0-1.1C31,22,29.9,20.7,28.7,19.6z"/>
<path class="st0" d="M15.2,28.5c0.1,0.1,0.2,0.1,0.3,0.1c0.2,0,0.3-0.1,0.5-0.2c0.1-0.2,0.1-0.5-0.1-0.7c-1.2-1-2.2-2.2-2.9-3.6
	c0-0.1,0-0.2,0-0.2c2-3.7,5.3-5.9,9-5.9c1.1,0,2.1,0.1,3.1,0.5c0.2,0.1,0.5,0,0.6-0.3c0.1-0.2,0-0.5-0.3-0.6
	C24.3,17.2,23.2,17,22,17c-4.1,0-7.8,2.5-9.9,6.5c-0.2,0.4-0.2,0.8,0,1.1C12.9,26.1,14,27.4,15.2,28.5z"/>
<path class="st0" d="M11,15H2.9c-0.2-0.6-0.8-1-1.4-1C0.7,14,0,14.7,0,15.5C0,16.3,0.7,17,1.5,17c0.6,0,1.2-0.4,1.4-1H11v4h3v-1h-2
	v-7h19v7h-1v1h2v-9H11V15z M1.5,16C1.2,16,1,15.8,1,15.5S1.2,15,1.5,15S2,15.2,2,15.5S1.8,16,1.5,16z"/>
<path class="st0" d="M11,0v4H2.9C2.7,3.4,2.1,3,1.5,3C0.7,3,0,3.7,0,4.5S0.7,6,1.5,6c0.6,0,1.2-0.4,1.4-1H11v4h21V0H11z M1.5,5
	C1.2,5,1,4.8,1,4.5S1.2,4,1.5,4S2,4.2,2,4.5S1.8,5,1.5,5z M31,8H12V1h19V8z"/>
<path class="st0" d="M29.8,16.2c-0.2-0.2-0.5-0.2-0.7,0l-15,15c-0.2,0.2-0.2,0.5,0,0.7c0.1,0.1,0.3,0.1,0.4,0.1s0.3,0,0.3-0.1l15-15
	C30,16.7,30,16.4,29.8,16.2z"/>
</svg>
