<svg id="Layer_1" data-name="Layer 1" xmlns="http://www.w3.org/2000/svg" viewBox="0 0 16 16">
  <path d="M7.499,15A7.5,7.5,0,1,1,15,7.501,7.5078,7.5078,0,0,1,7.499,15Zm0-14A6.5,6.5,0,1,0,14,7.501,6.5075,6.5075,0,0,0,7.499,1Z" class="aw-theme-iconOutline" fill="#464646"/>
  <path d="M7.5,10A.5.5,0,0,1,7,9.5V8.6343a1.9561,1.9561,0,0,1,1.1284-1.772A1.5,1.5,0,1,0,6,5.5a.5.5,0,0,1-1,0A2.5007,2.5007,0,1,1,8.5483,7.77.9529.9529,0,0,0,8,8.6343V9.5A.5.5,0,0,1,7.5,10Z" class="aw-theme-iconOutline" fill="#464646"/>
  <rect x="6.875" y="10.875" width="1.25" height="1.25" rx="0.625" class="aw-theme-iconOutline" fill="#464646"/>
</svg>
