<svg version="1.1" id="Layer_1" xmlns="http://www.w3.org/2000/svg" xmlns:xlink="http://www.w3.org/1999/xlink" x="0px" y="0px"
	 viewBox="0 0 24 24" enable-background="new 0 0 24 24" xml:space="preserve">
		<path class="aw-theme-iconOutline" fill="#464646" d="M0,3v18h24V3H0z M1,4h22v8.2l-4.7-6.4l-3.7,5.8l-2.8-3.8l-8.2,12c-0.1,0.1-0.1,0.2-0.1,0.3H1V4z M4.6,20
			l7.2-10.6l2.9,3.9l3.7-5.8l4.2,5.8c0.1,0.1,0.2,0.2,0.4,0.2V20H4.6z"/>
		<path class="aw-theme-iconOutline" fill="#464646" d="M5.5,11C6.9,11,8,9.9,8,8.5S6.9,6,5.5,6S3,7.1,3,8.5S4.1,11,5.5,11z M5.5,7C6.3,7,7,7.7,7,8.5
			S6.3,10,5.5,10S4,9.3,4,8.5S4.7,7,5.5,7z"/>
</svg>
