<?xml version="1.0" encoding="utf-8"?>
<!-- Generator: Adobe Illustrator 27.3.1, SVG Export Plug-In . SVG Version: 6.00 Build 0)  -->
<svg version="1.1" id="Layer_1" xmlns="http://www.w3.org/2000/svg" xmlns:xlink="http://www.w3.org/1999/xlink" x="0px" y="0px"
	 viewBox="0 0 24 24" style="enable-background:new 0 0 24 24;" xml:space="preserve">
<style type="text/css">
	.st0{fill:#464646;}
</style>
<polygon class="st0" points="15,19 15,23 2,23 2,1 15,1 15,5 16,5 16,0 1,0 1,24 16,24 16,19 "/>
<path class="st0" d="M12,12.3L8.8,9H22V8H8.7L12,4.7L11.3,4L7.2,8.1C7,8.3,7,8.6,7.2,8.8l4.1,4.2L12,12.3z"/>
<path class="st0" d="M18.8,12L18,12.7l3.2,3.3H8v1h13.3L18,20.3l0.7,0.7l4-4c0.4-0.4,0.4-0.7,0.1-1L18.8,12z"/>
</svg>
