<?xml version="1.0" encoding="utf-8"?>
<!-- Generator: Adobe Illustrator 27.3.1, SVG Export Plug-In . SVG Version: 6.00 Build 0)  -->
<svg version="1.1" id="Layer_1" xmlns="http://www.w3.org/2000/svg" xmlns:xlink="http://www.w3.org/1999/xlink" x="0px" y="0px"
	 viewBox="0 0 24 24" style="enable-background:new 0 0 24 24;" xml:space="preserve">
<style type="text/css">
	.st0{fill:#464646;}
</style>
<path class="st0" d="M13,0.5H0v5h13V0.5z M12,4.5H1v-3h11V4.5z"/>
<path class="st0" d="M15,14.5h9v-5h-9V14.5z M16,10.5h7v3h-7V10.5z"/>
<path class="st0" d="M13,18.5H0v5h13V18.5z M12,22.5H1v-3h11V22.5z"/>
<path class="st0" d="M6.9,8.4L6.1,7.6l-4,4c-0.2,0.2-0.2,0.5,0,0.7l4,4l0.7-0.7l-3.1-3.1H13v-1H3.7L6.9,8.4z"/>
</svg>
