<svg version="1.1" id="Artwork" xmlns="http://www.w3.org/2000/svg" xmlns:xlink="http://www.w3.org/1999/xlink" x="0px" y="0px"
	 width="24px" height="24px" viewBox="0 0 24 24" enable-background="new 0 0 24 24" xml:space="preserve">
<polygon class="aw-theme-iconOutline" fill="#464646" points="1,5 1,9 2,9 2,6 8,6 8,19 6,19 6,20 11,20 11,19 9,19 9,6 15,6 15,9 16,9 16,5 "/>
<polygon class="aw-theme-iconOutline" fill="#464646" points="21,1.4 23.1,1 22.9,0 20.5,0.5 18.1,0 17.9,1 20,1.4 20,22.6 17.9,23 18.1,24 20.5,23.5 22.9,24 
	23.1,23 21,22.6 "/>
</svg>
