<svg width="24" height="24" viewBox="0 0 24 24" fill="none" xmlns="http://www.w3.org/2000/svg">
<g clip-path="url(#clip0_423_14731)">
<path d="M10 16H2V17H10V16Z" fill="#464646"/>
<path d="M7.79981 3.19997C6.79981 2.79997 5.5998 3.19997 5.1998 4.19997C4.9998 4.69997 4.9998 5.19997 5.1998 5.69997C5.3998 6.19997 5.79981 6.59997 6.29981 6.79997C6.49981 6.89997 6.6998 6.99997 6.9998 6.99997C7.7998 6.99997 8.49981 6.59997 8.79981 5.79997C8.99981 5.29997 8.99981 4.79997 8.79981 4.29997C8.69981 3.79997 8.29981 3.39997 7.79981 3.19997ZM7.89981 5.39997C7.69981 5.89997 7.0998 6.09997 6.5998 5.89997C6.3998 5.79997 6.1998 5.59997 6.0998 5.39997C5.9998 5.09997 5.9998 4.79997 6.0998 4.59997C6.2998 4.09997 6.89981 3.89997 7.39981 4.09997C7.59981 4.19997 7.79981 4.39997 7.89981 4.69997C7.99981 4.89997 7.99981 5.19997 7.89981 5.39997Z" fill="#464646"/>
<path d="M17.3998 15.4L16.5998 14.6L13.7998 17.5L16.5998 20.4L17.3998 19.6L15.6998 18H20.9998V17H15.6998L17.3998 15.4Z" fill="#464646"/>
<path d="M10 20H2V21H10V20Z" fill="#464646"/>
<path d="M10 18H2V19H10V18Z" fill="#464646"/>
<path d="M18 11V2H10.8C10.6 1.9 10.5 1.9 10.3 1.8C10.2 1.1 9.8 0.5 9.1 0.2C8.4 -0.1 7.7 0 7.1 0.4C6.5 0 5.8 -0.1 5.1 0.1C4.4 0.4 4 1 3.8 1.7C3.5 1.7 3.3 1.9 3 2H0V24H11V23H1V3H2.2C2 3.6 2 4.3 2.4 4.9C2 5.5 1.9 6.2 2.1 6.9C2.4 7.6 3 8 3.7 8.2C3.8 8.9 4.2 9.5 4.9 9.8H5V14.7L7 12.7L9 14.7V9.8C9.6 9.5 10 9 10.2 8.3C10.9 8.2 11.5 7.8 11.8 7.1C12.1 6.4 12 5.7 11.6 5.1C12 4.5 12.2 3.8 11.9 3.1C11.9 3.1 11.9 3 11.8 3H17V11C13.6 11.3 11 14.1 11 17.5C11 21.1 13.9 24 17.5 24C21.1 24 24 21.1 24 17.5C24 14.1 21.4 11.3 18 11ZM8 12.3L7 11.3L6 12.3V9.9C6.3 9.9 6.6 9.7 6.9 9.6C7.2 9.8 7.6 9.9 8 10V12.3ZM10.9 6.7C10.7 7.1 10.3 7.4 9.8 7.3C9.7 7.3 9.5 7.3 9.4 7.4C9.2 7.6 9.2 7.7 9.2 7.8C9.2 8.3 9 8.7 8.5 8.9C8.1 9.1 7.6 9 7.3 8.6C7.2 8.5 7.1 8.4 6.9 8.4C6.8 8.4 6.6 8.5 6.5 8.6C6.2 8.9 5.7 9 5.3 8.8C4.9 8.7 4.6 8.2 4.7 7.7C4.7 7.6 4.7 7.4 4.6 7.3C4.4 7.2 4.3 7.2 4.1 7.2C3.7 7.2 3.2 7 3.1 6.5C2.9 6.1 3 5.6 3.4 5.3C3.5 5.2 3.6 5.1 3.6 4.9C3.6 4.8 3.5 4.6 3.4 4.5C3.1 4.2 3 3.7 3.2 3.3C3.4 2.9 3.8 2.6 4.3 2.7C4.4 2.7 4.6 2.7 4.7 2.6C4.8 2.5 4.9 2.4 4.9 2.2C4.9 1.7 5.1 1.3 5.6 1.1C6 0.9 6.5 1.1 6.8 1.4C6.9 1.5 7 1.6 7.2 1.6C7.3 1.6 7.5 1.5 7.6 1.4C7.8 1.1 8.3 1 8.7 1.2C9.1 1.4 9.4 1.8 9.3 2.3C9.3 2.4 9.3 2.6 9.4 2.7C9.5 2.8 9.7 2.9 9.8 2.9C10.3 2.9 10.7 3.1 10.9 3.6C11.1 4 10.9 4.5 10.6 4.8C10.5 4.9 10.4 5 10.4 5.2C10.4 5.2 10.4 5.4 10.6 5.5C11 5.8 11.1 6.3 10.9 6.7ZM17.5 23C14.5 23 12 20.5 12 17.5C12 14.5 14.5 12 17.5 12C20.5 12 23 14.5 23 17.5C23 20.5 20.5 23 17.5 23Z" fill="#464646"/>
</g>
<defs>
<clipPath id="clip0_423_14731">
<rect width="24" height="24" fill="white"/>
</clipPath>
</defs>
</svg>
