<?xml version="1.0" encoding="utf-8"?>
<!-- Generator: Adobe Illustrator 27.3.1, SVG Export Plug-In . SVG Version: 6.00 Build 0)  -->
<svg version="1.1" id="Layer_1" xmlns="http://www.w3.org/2000/svg" xmlns:xlink="http://www.w3.org/1999/xlink" x="0px" y="0px"
	 viewBox="0 0 16 16" style="enable-background:new 0 0 16 16;" xml:space="preserve">
<style type="text/css">
	.st0{fill:#464646;}
</style>
<path class="st0" d="M6,13H1V1h5l0,4h4v1h1V4.3L6.7,0H0v14h6V13z M9.3,4H7l0-2.3L9.3,4z"/>
<polygon class="st0" points="12,9 11,9 11,11 9,11 9,12 11,12 11,14 12,14 12,12 14,12 14,11 12,11 "/>
<path class="st0" d="M11.5,7C9,7,7,9,7,11.5S9,16,11.5,16s4.5-2,4.5-4.5S14,7,11.5,7z M11.5,15C9.6,15,8,13.4,8,11.5S9.6,8,11.5,8
	S15,9.6,15,11.5S13.4,15,11.5,15z"/>
</svg>
