<svg version="1.1" id="Layer_1" xmlns="http://www.w3.org/2000/svg" xmlns:xlink="http://www.w3.org/1999/xlink" x="0px" y="0px"
	 viewBox="0 0 16 16" style="enable-background:new 0 0 16 16;"  xml:space="preserve">

	<path class="aw-theme-iconOutline" fill="#464646" d="M10,9.5"/>
	<path class="aw-theme-iconOutline" fill="#464646" d="M0,2v12h16V2H0z M1,3h14v4.8l-2.8-4.1L9.9,7.7L8.2,5.1l0,0l0,0L3,13H1V3z M4.2,13l4-6.1L10,9.5v0l2.3-4l2.7,4
		V13H4.2z"/>
	<path class="aw-theme-iconOutline" fill="#464646" d="M3.5,4C2.7,4,2,4.7,2,5.5S2.7,7,3.5,7S5,6.3,5,5.5S4.3,4,3.5,4z M3.5,6C3.2,6,3,5.8,3,5.5S3.2,5,3.5,5
		S4,5.2,4,5.5S3.8,6,3.5,6z"/>

</svg>
