<?xml version="1.0" encoding="utf-8"?>
<!-- Generator: Adobe Illustrator 27.3.1, SVG Export Plug-In . SVG Version: 6.00 Build 0)  -->
<svg version="1.1" id="Artwork" xmlns="http://www.w3.org/2000/svg" xmlns:xlink="http://www.w3.org/1999/xlink" x="0px" y="0px"
	 viewBox="0 0 16 16" style="enable-background:new 0 0 16 16;" xml:space="preserve">
<style type="text/css">
	.st0{fill:none;}
	.st1{fill:#464646;}
</style>
<circle class="st0" cx="4" cy="6" r="1"/>
<path class="st0" d="M8.5,5.2l1.7,2.4l2.3-3.5L15,7.9V3H1v10h1.3L8.5,5.2z M4,4c1.1,0,2,0.9,2,2S5.1,8,4,8S2,7.1,2,6S2.9,4,4,4z"/>
<polygon class="st0" points="10.1,9.4 8.4,6.8 3.5,13 15,13 15,9.7 12.4,5.9 "/>
<path class="st1" d="M4,8c1.1,0,2-0.9,2-2S5.1,4,4,4S2,4.9,2,6S2.9,8,4,8z M4,5c0.6,0,1,0.4,1,1S4.6,7,4,7S3,6.6,3,6S3.4,5,4,5z"/>
<path class="st1" d="M0,14h16V2H0V14z M15,13H3.5l4.9-6.2l1.7,2.6l2.3-3.5L15,9.7V13z M1,3h14v4.9l-2.5-3.8l-2.3,3.5L8.5,5.2L2.3,13
	H1V3z"/>
</svg>
