<svg id="Layer_1" data-name="Layer 1" xmlns="http://www.w3.org/2000/svg" viewBox="0 0 24 24">
  <path d="M19,11.181V0H0V17H11.025c-.013.166-.025.332-.025.5a6.5,6.5,0,1,0,8-6.32ZM10,3h8V9H10ZM9,9H1V3H9Zm9-8V2H1V1ZM1,10H9v6H1Zm9,6V10h8v1.024c-.166-.013-.332-.025-.5-.025a6.506,6.506,0,0,0-6.317,5Zm7.5,7A5.5,5.5,0,1,1,23,17.5,5.506,5.506,0,0,1,17.5,23Z" class="aw-theme-iconOutline" fill="#464646"/>
  <polygon points="15.076 3.235 12.962 6.617 11.9 5.2 11.1 5.8 13.038 8.383 15.924 3.765 15.076 3.235" class="aw-theme-iconOutline" fill="#464646"/>
  <polygon points="6.076 10.235 3.962 13.617 2.9 12.2 2.1 12.8 4.038 15.383 6.924 10.765 6.076 10.235" class="aw-theme-iconOutline" fill="#464646"/>
  <polygon points="21 17 18 17.002 18 13.999 17 13.999 17 17.002 14 17.004 14 18.004 17 18.002 17 20.999 18 20.999 18 18.002 21 18 21 17" class="aw-theme-iconOutline" fill="#464646"/>
</svg>
