<?xml version="1.0" encoding="utf-8"?>
<!-- Generator: Adobe Illustrator 27.3.1, SVG Export Plug-In . SVG Version: 6.00 Build 0)  -->
<svg version="1.1" id="Artwork" xmlns="http://www.w3.org/2000/svg" xmlns:xlink="http://www.w3.org/1999/xlink" x="0px" y="0px"
	 viewBox="0 0 24 24" style="enable-background:new 0 0 24 24;" xml:space="preserve">
<style type="text/css">
	.st0{fill:#464646;}
</style>
<path class="st0" d="M9,9c0-1.7-1.3-3-3-3S3,7.3,3,9s1.3,3,3,3S9,10.7,9,9z M4,9c0-1.1,0.9-2,2-2s2,0.9,2,2s-0.9,2-2,2S4,10.1,4,9z"
	/>
<path class="st0" d="M0,21h24V3H0V21z M23,20H5.6l7.1-10.4l2.7,4L19,7.7l4,6.7V20z M1,4h22v8.5l-4-6.7l-3.7,6l-2.6-4L4.4,20H1V4z"/>
</svg>
