<svg version="1.1" id="Artwork" xmlns="http://www.w3.org/2000/svg" xmlns:xlink="http://www.w3.org/1999/xlink" x="0px" y="0px"
	 width="16px" height="16px" viewBox="0 0 16 16" enable-background="new 0 0 16 16" xml:space="preserve">
<polygon class="aw-theme-iconOutline" fill="#464646" points="1,4 1,7 2,7 2,5 5,5 5,12 4,12 4,13 7,13 7,12 6,12 6,5 9,5 9,7 10,7 10,4 "/>
<polygon class="aw-theme-iconOutline" fill="#464646" points="14,1.9 15.6,1.7 15.4,0.7 13.5,1 11.6,0.7 11.4,1.7 13,1.9 13,14.1 11.4,14.3 11.6,15.3 13.5,15 
	15.4,15.3 15.6,14.3 14,14.1 "/>
</svg>
