<svg version="1.1" id="Layer_1" xmlns="http://www.w3.org/2000/svg" xmlns:xlink="http://www.w3.org/1999/xlink" x="0px" y="0px"
	 viewBox="0 0 24 24" enable-background="new 0 0 24 24" xml:space="preserve">
	<path class="aw-theme-iconOutline" fill="#464646" d="M3,7.5C3,8.9,4.1,10,5.5,10S8,8.9,8,7.5S6.9,5,5.5,5S3,6.1,3,7.5z M7,7.5C7,8.3,6.3,9,5.5,9S4,8.3,4,7.5
		S4.7,6,5.5,6S7,6.7,7,7.5z"/>
	<path class="aw-theme-iconOutline" fill="#464646" d="M13.4,11.5l3.3-5.3l2.1,3c0.2,0.2,0.5,0.3,0.7,0.1c0.2-0.2,0.3-0.5,0.1-0.7l-2.9-4.2l-3.4,5.3l-2.6-3.5
		L3.6,16.7c-0.1,0.1-0.1,0.2-0.1,0.3H1V3h20v7h1V2H0v16h9v-1H4.6l6.2-9L13.4,11.5z"/>
	<path class="aw-theme-iconOutline" fill="#464646" d="M17.5,11c-3.6,0-6.5,2.9-6.5,6.5c0,3.6,2.9,6.5,6.5,6.5c3.6,0,6.5-2.9,6.5-6.5C24,13.9,21.1,11,17.5,11z
		 M17.5,23c-3,0-5.5-2.5-5.5-5.5c0-3,2.5-5.5,5.5-5.5c3,0,5.5,2.5,5.5,5.5C23,20.5,20.5,23,17.5,23z"/>
	<polygon class="aw-theme-iconOutline" fill="#464646" points="21,17 18,17 18,14 17,14 17,17 14,17 14,18 17,18 17,21 18,21 18,18 21,18 	"/>
</svg>
