<?xml version="1.0" encoding="utf-8"?>
<!-- Generator: Adobe Illustrator 27.3.1, SVG Export Plug-In . SVG Version: 6.00 Build 0)  -->
<svg version="1.1" id="Layer_1" xmlns="http://www.w3.org/2000/svg" xmlns:xlink="http://www.w3.org/1999/xlink" x="0px" y="0px"
	 viewBox="0 0 24 24" style="enable-background:new 0 0 24 24;" xml:space="preserve">
<style type="text/css">
	.st0{fill:#464646;}
</style>
<path class="st0" d="M17.5,10.5c-3.6,0-6.5,2.9-6.5,6.5c0,0.9,0.2,1.7,0.5,2.5H3v-12h17v2h1v-3H2v14h10c0.2,0.4,0.5,0.7,0.8,1H1v-20
	h21v9h1v-10H0v22h14.1c1,0.6,2.2,1,3.4,1c3.6,0,6.5-2.9,6.5-6.5S21.1,10.5,17.5,10.5z M17.5,22.5c-3,0-5.5-2.5-5.5-5.5
	s2.5-5.5,5.5-5.5S23,14,23,17S20.5,22.5,17.5,22.5z"/>
<path class="st0" d="M17.7,12.8l1.6,1.6h-2c-1.8,0-3.3,1.5-3.3,3.3c0,1.3,0.8,2.5,2,3l0.4-0.9c-0.9-0.3-1.4-1.1-1.4-2
	c0-1.3,1-2.3,2.3-2.3h2l-1.6,1.6l0.7,0.7l2.9-2.9l-2.9-2.8L17.7,12.8z"/>
<path class="st0" d="M10,5.5h3v-3h-3V5.5z M11,3.5h1v1h-1V3.5z"/>
<path class="st0" d="M14,5.5h3v-3h-3V5.5z M15,3.5h1v1h-1V3.5z"/>
<polygon class="st0" points="20.6,2.1 19.5,3.3 18.4,2.1 17.6,2.9 18.8,4 17.6,5.1 18.4,5.9 19.5,4.7 20.6,5.9 21.4,5.1 20.2,4 
	21.4,2.9 "/>
</svg>
