<?xml version="1.0" encoding="utf-8"?>
<!-- Generator: Adobe Illustrator 27.2.0, SVG Export Plug-In . SVG Version: 6.00 Build 0)  -->
<svg version="1.1" id="Layer_1" xmlns="http://www.w3.org/2000/svg" xmlns:xlink="http://www.w3.org/1999/xlink" x="0px" y="0px"
	 viewBox="0 0 24 24" style="enable-background:new 0 0 24 24;" xml:space="preserve">
<style type="text/css">
	.st0{fill:#464646;}
</style>
<path id="Shape" class="st0" d="M18.3,15c0.8,0.6,1.3,1.4,1.4,2.4l-1,0.1c-0.1-0.7-0.5-1.3-1-1.7c-0.6-0.4-1.3-0.6-1.9-0.5l-0.2,0
	c-0.4,0.1-0.7,0.2-1.1,0.6l-0.2,0.2l0,0l-0.3,0.2l0,0l-0.3,0.3l0,0L12,18.3c-0.1,0.1-0.2,0.2-0.3,0.3c-1,1-1,2.7,0,3.7
	c1,1,2.7,1,3.7,0l2.2-2.2l0.7,0.7l-2.2,2.2c-0.7,0.7-1.6,1.1-2.6,1.1c-1.5,0-2.8-0.9-3.3-2.2c-0.6-1.3-0.3-2.9,0.8-3.9l0.7-0.7l0,0
	l0.8-0.8l0,0l0.5-0.5l0,0l0.3-0.3c0.8-0.7,1.3-1,2.2-1.1C16.5,14.2,17.5,14.5,18.3,15z M22.9,11.1c1.4,1.4,1.4,3.7,0,5.1l-2.5,2.5
	c-0.7,0.7-1.6,1.1-2.5,1.1c-1.8,0-3.3-1.3-3.6-3.1l1-0.1c0.2,1.3,1.3,2.3,2.6,2.3c0.7,0,1.3-0.3,1.8-0.8l2.5-2.5c1-1,1-2.7,0-3.7
	c-1-1-2.7-1-3.7,0L16.3,14l-0.7-0.7l2.2-2.2C19.3,9.7,21.5,9.7,22.9,11.1z M18,0v9h-1V1H1v16h8v1H0V0H18z M10.2,2l2.2,3.1L14.6,2
	h1.2L13,6l2.8,4h-1.2l-2.2-3.1L10.2,10H9l2.8-4L9,2H10.2z M3.1,2L7,8.3V2h1v8H6.9L3,3.7V10H2V2H3.1z"/>
</svg>
