<svg version="1.1" id="Artwork" xmlns="http://www.w3.org/2000/svg" xmlns:xlink="http://www.w3.org/1999/xlink" x="0px" y="0px"
	 width="16px" height="16px" viewBox="0 0 16 16" enable-background="new 0 0 16 16" xml:space="preserve">
<path class="aw-theme-iconOutline" fill="#464646" d="M12,6V4.5C12,2,10,0,7.5,0S3,2,3,4.5V6H1v8.5C1,15.3,1.7,16,2.5,16h10c0.8,0,1.5-0.7,1.5-1.5V6H12z M4,4.5
	C4,2.6,5.6,1,7.5,1S11,2.6,11,4.5V6H4V4.5z M13,14.5c0,0.3-0.2,0.5-0.5,0.5h-10C2.2,15,2,14.8,2,14.5V7h11V14.5z"/>
<path class="aw-theme-iconOutline" fill="#464646" d="M9,10.5C9,9.7,8.3,9,7.5,9S6,9.7,6,10.5c0,0.7,0.4,1.2,1,1.4V13h1v-1.1C8.6,11.7,9,11.2,9,10.5z M7.5,11
	C7.2,11,7,10.8,7,10.5S7.2,10,7.5,10S8,10.2,8,10.5S7.8,11,7.5,11z"/>
</svg>
