<?xml version="1.0" encoding="utf-8"?>
<!-- Generator: Adobe Illustrator 27.3.1, SVG Export Plug-In . SVG Version: 6.00 Build 0)  -->
<svg version="1.1" id="Layer_1" xmlns="http://www.w3.org/2000/svg" xmlns:xlink="http://www.w3.org/1999/xlink" x="0px" y="0px"
	 viewBox="0 0 24 24" style="enable-background:new 0 0 24 24;" xml:space="preserve">
<style type="text/css">
	.st0{fill:#464646;}
	.st1{fill:#007F7A;}
</style>
<path class="st0" d="M19,9c-1.1,0-2,0.9-2,2s0.9,2,2,2c1.1,0,2-0.9,2-2C21,9.9,20.1,9,19,9z M19,12c-0.6,0-1-0.5-1-1s0.5-1,1-1
	c0.6,0,1,0.5,1,1C20,11.6,19.6,12,19,12z"/>
<path class="st0" d="M18.5,6c-3,0-5.5,2.5-5.5,5.5c0,0.8,0.2,1.6,0.5,2.3L12,15.3V17h-2v2H8.3l-1.8,1.8c-0.4,0.4-0.4,1,0,1.4
	l1.3,1.3c0.2,0.2,0.4,0.3,0.7,0.3c0.3,0,0.5-0.1,0.7-0.3l7-7c0.7,0.3,1.5,0.5,2.3,0.5c3,0,5.5-2.5,5.5-5.5S21.5,6,18.5,6z M18.5,16
	c-0.7,0-1.5-0.2-2.1-0.6L16,15.3l-7.5,7.5l-1.3-1.3L8.7,20H11v-2h2v-2.3l1.7-1.7l-0.2-0.3C14.2,13,14,12.2,14,11.5C14,9,16,7,18.5,7
	S23,9,23,11.5S21,16,18.5,16z"/>
<path class="st0" d="M6.2,6.8C6.5,6.9,6.7,7,7,7c0.8,0,1.5-0.5,1.8-1.2c0.4-1,0-2.2-1-2.6c-1-0.4-2.2,0-2.6,1S5.2,6.4,6.2,6.8z
	 M6.1,4.6c0.2-0.5,0.8-0.7,1.3-0.5s0.7,0.8,0.5,1.3S7.1,6.1,6.6,5.9C6.4,5.8,6.2,5.6,6.1,5.4C6,5.1,6,4.8,6.1,4.6z"/>
<polygon class="st0" points="0,0 0,0 5.6,0 6.1,0 24,0 24,0 "/>
<path class="st0" d="M5,21H1V3h1.2C2,3.6,2,4.3,2.4,4.9C1.7,5.8,1.9,7.1,2.8,7.8C3.1,8,3.4,8.1,3.7,8.2c0.1,0.7,0.5,1.3,1.2,1.6
	c0,0,0.1,0,0.1,0v4.9l2-2l2,2V9.8c0.6-0.3,1-0.8,1.2-1.5c1.1-0.1,1.9-1.2,1.8-2.3c0-0.3-0.2-0.6-0.3-0.9c0.4-0.6,0.6-1.3,0.3-2
	c0,0,0-0.1-0.1-0.1H22v3h1V2H10.8c-0.2-0.1-0.3-0.1-0.5-0.2C10.2,0.7,9.1-0.1,8,0.1c-0.3,0-0.6,0.2-0.9,0.3C6.8,0.2,6.4,0.1,6.1,0
	H5.6c-0.5,0.1-1,0.3-1.4,0.8C4,1.1,3.9,1.4,3.8,1.7C3.5,1.7,3.3,1.9,3,2v0H0v20h5V21z M8,12.3l-1-1l-1,1V9.9c0.3,0,0.6-0.2,0.9-0.3
	C7.2,9.8,7.6,10,8,10V12.3z M3.5,4.6C3.5,4.6,3.5,4.6,3.5,4.6C3,4.2,2.9,3.5,3.3,3.1c0.2-0.3,0.6-0.4,0.9-0.4c0.1,0,0.3,0,0.4-0.1
	c0.1-0.1,0.2-0.3,0.2-0.4C4.7,1.6,5.2,1.1,5.7,1c0.4,0,0.7,0.1,1,0.4c0.1,0.1,0.2,0.2,0.4,0.2c0.1,0,0.3-0.1,0.4-0.2
	C7.8,1,8.5,0.9,9,1.3c0.3,0.2,0.4,0.6,0.4,0.9c0,0.1,0,0.3,0.1,0.4c0.1,0.1,0.3,0.2,0.4,0.2c0.6-0.1,1.1,0.4,1.1,1
	c0,0.4-0.1,0.7-0.4,0.9c-0.2,0.2-0.3,0.5-0.1,0.7c0,0,0,0.1,0.1,0.1c0.4,0.3,0.5,0.8,0.3,1.2c-0.2,0.4-0.6,0.7-1.1,0.6
	c-0.1,0-0.3,0-0.4,0.1C9.2,7.6,9.2,7.7,9.2,7.9c0,0.5-0.2,0.9-0.7,1.1C8,9,7.6,8.8,7.3,8.4C7.2,8.2,7.1,8.1,6.9,8h0
	C6.7,8.1,6.6,8.2,6.5,8.4C6.2,8.7,5.8,8.9,5.3,8.8c-0.4-0.2-0.7-0.6-0.6-1c0-0.1,0-0.3-0.1-0.4C4.4,7.2,4.3,7.2,4.1,7.2
	C3.6,7.2,3.1,6.8,3,6.2c0-0.4,0.1-0.7,0.4-0.9C3.6,5.1,3.7,4.8,3.5,4.6z"/>
<polygon class="st0" points="23,17 22,17 22,21 13,21 13,22 23,22 "/>
<rect y="24" class="st1" width="24" height="0"/>
</svg>
