<svg version="1.1" id="Layer_1" xmlns="http://www.w3.org/2000/svg" xmlns:xlink="http://www.w3.org/1999/xlink" x="0px" y="0px"
	viewBox="0 0 24 24" enable-background="new 0 0 24 24" xml:space="preserve">
		<path class="aw-theme-iconOutline" fill="#464646" d="M5.5,11.001c1.378,0,2.5-1.121,2.5-2.5s-1.122-2.5-2.5-2.5S3,7.122,3,8.501S4.122,11.001,5.5,11.001z
			 M5.5,7.001c0.827,0,1.5,0.673,1.5,1.5s-0.673,1.5-1.5,1.5S4,9.328,4,8.501S4.673,7.001,5.5,7.001z"/>
<path class="aw-theme-iconOutline" fill="#464646" d="M24,0H0v24.001h24V0z M1,23.001V1h22v11.801l-4.541-6.159l-3.984,5.992l-2.996-3.995L1.75,23.001H1z
	 M2.958,23.001l8.563-12.64l3.004,4.005l3.977-5.982L23,14.486v8.515H2.958z"/>
</svg>
