<svg version="1.1" id="Artwork" xmlns="http://www.w3.org/2000/svg" xmlns:xlink="http://www.w3.org/1999/xlink" x="0px" y="0px"
	 width="16px" height="16px" viewBox="0 0 16 16" enable-background="new 0 0 16 16" xml:space="preserve">
<path class="aw-theme-iconOutline" fill="#464646" d="M4.1,16C3,16,2,15.6,1.2,14.8C0.4,14,0,13,0,11.9C0,10.8,0.4,9.8,1.2,9c0.5-0.5,0.9-0.9,1.3-1.3
	C4.4,5.8,4.9,5.2,6.3,5c2.3-0.3,4.3,1.2,4.6,3.5l-1,0.1C9.8,6.9,8.2,5.8,6.5,6C5.4,6.2,5.1,6.5,3.2,8.4C2.8,8.8,2.4,9.2,1.9,9.7
	C1.3,10.3,1,11.1,1,11.9c0,0.8,0.3,1.6,0.9,2.2c1.2,1.2,3.2,1.2,4.4,0l2.6-2.6l0.7,0.7L7,14.8C6.2,15.6,5.2,16,4.1,16z"/>
<path class="aw-theme-iconOutline" fill="#464646" d="M9.1,11C7.3,11,5.3,9.8,5,7.5l1-0.1C6.2,9.1,7.8,10,9.1,10c0.6,0,1.4-0.2,2.2-0.9l2.8-2.8
	C14.7,5.7,15,4.9,15,4.1s-0.3-1.6-0.9-2.2c-1.2-1.2-3.2-1.2-4.4,0L7.2,4.5L6.5,3.8L9,1.2C9.8,0.4,10.8,0,11.9,0s2.1,0.4,2.9,1.2
	C15.6,2,16,3,16,4.1S15.6,6.2,14.8,7L12,9.8C11,10.8,9.8,11,9.1,11z"/>
</svg>
