<?xml version="1.0" encoding="utf-8"?>
<!-- Generator: Adobe Illustrator 27.2.0, SVG Export Plug-In . SVG Version: 6.00 Build 0)  -->
<svg version="1.1" id="Livello_1" xmlns="http://www.w3.org/2000/svg" xmlns:xlink="http://www.w3.org/1999/xlink" x="0px" y="0px"
	 viewBox="0 0 16 16" style="enable-background:new 0 0 16 16;" xml:space="preserve">
<style type="text/css">
	.st0{fill:#464646;}
</style>
<g>
	<polygon class="st0" points="1,4 1.7,4 1.7,0.7 5,0.7 5,0 1,0 	"/>
	<path class="st0" d="M7.7,2.5v4.8h0.7V2.5l1.9,1.9L10.7,4L8.2,1.5C8.2,1.4,8.1,1.4,8,1.4c-0.1,0-0.2,0-0.2,0.1L5.3,4l0.5,0.5
		L7.7,2.5z"/>
	<path class="st0" d="M8.3,13.5V8.7H7.7v4.8l-1.9-1.9L5.3,12l2.5,2.5c0.1,0.1,0.1,0.1,0.2,0.1c0.1,0,0.2,0,0.2-0.1l2.5-2.5l-0.5-0.5
		L8.3,13.5z"/>
	<polygon class="st0" points="1.7,12 1,12 1,16 5,16 5,15.3 1.7,15.3 	"/>
	<polygon class="st0" points="14.3,15.3 11,15.3 11,16 15,16 15,12 14.3,12 	"/>
	<polygon class="st0" points="11,0 11,0.7 14.3,0.7 14.3,4 15,4 15,0 	"/>
</g>
</svg>
