<?xml version="1.0" encoding="utf-8"?>
<!-- Generator: Adobe Illustrator 27.3.1, SVG Export Plug-In . SVG Version: 6.00 Build 0)  -->
<svg version="1.1" id="Layer_1" xmlns="http://www.w3.org/2000/svg" xmlns:xlink="http://www.w3.org/1999/xlink" x="0px" y="0px"
	 viewBox="0 0 24 24" style="enable-background:new 0 0 24 24;" xml:space="preserve">
<style type="text/css">
	.st0{fill:#464646;}
</style>
<path class="st0" d="M6,18h16v-7H6V18z M7,12h14v5H7V12z"/>
<path class="st0" d="M6,19v5h1v-4h14v4h1v-5H6z"/>
<path class="st0" d="M6,8h16V1H6V8z M7,2h14v5H7V2z"/>
<path class="st0" d="M4.3,15l-1.1,1.1c-0.2,0.2-0.2,0.5,0,0.7c0.2,0.2,0.5,0.2,0.7,0l2-2c0.2-0.2,0.2-0.5,0-0.7l-2-2
	c-0.2-0.2-0.5-0.2-0.7,0c-0.2,0.2-0.2,0.5,0,0.7L4.3,14H0v10h1v-9H4.3z"/>
<path class="st0" d="M4,9v1h0.2H6V9H4.2H4z"/>
<path class="st0" d="M7,9v1h0.2H9V9H7.2H7z"/>
<path class="st0" d="M10,9v1h0.2H12V9h-1.8H10z"/>
<path class="st0" d="M13,9v1h0.2H15V9h-1.8H13z"/>
<path class="st0" d="M16,9v1h0.2H18V9h-1.8H16z"/>
<path class="st0" d="M19,9v1h0.2H21V9h-1.8H19z"/>
<path class="st0" d="M22,9v1h0.2H24V9h-1.8H22z"/>
</svg>
