<svg id="Layer_2" data-name="Layer 2" xmlns="http://www.w3.org/2000/svg" viewBox="0 0 24 24">
  <polygon points="24 24 0 24 0 6 12 6 12 7 1 7 1 23 23 23 23 8 24 8 24 24" fill="#464646"/>
  <polygon points="23.071 19.757 18.994 12.951 15.533 18.378 14.37 16.827 15.171 16.228 15.467 16.622 19.021 11.049 23.929 19.243 23.071 19.757" fill="#464646"/>
  <rect x="3.038" y="20.268" width="6.567" height="1" transform="translate(-14.465 14.508) rotate(-56.31)" fill="#464646"/>
  <path d="M6,15A3,3,0,1,1,7.771,9.578a.5.5,0,1,1-.591.807A1.979,1.979,0,0,0,6,10a2,2,0,1,0,0,4,.5.5,0,0,1,0,1Z" fill="#464646"/>
  <g>
    <g>
      <path d="M9.428,16.762a.5.5,0,0,1-.121-.015L6.735,16.1a.5.5,0,0,1-.232-.839l1.929-1.928a.5.5,0,0,1,.707,0l1.606,1.606a.5.5,0,0,1,0,.707l-.964.965A.5.5,0,0,1,9.428,16.762ZM7.835,15.348l1.439.36.411-.411-.9-.9Z" fill="#464646"/>
      <path d="M10.745,15.65l-.707-.707a2.566,2.566,0,0,1,3.164-.728l-.478.878C12.5,14.97,11.807,14.589,10.745,15.65Z" fill="#464646"/>
      <path d="M9.139,14.044l-.707-.707c1.058-1.06.68-1.751.557-1.979l.878-.478A2.564,2.564,0,0,1,9.139,14.044Z" fill="#464646"/>
    </g>
    <path d="M12.645,15.058a1.5,1.5,0,0,1-1.06-.439L9.463,12.5a1.5,1.5,0,0,1,0-2.122l9.9-9.9a1.5,1.5,0,0,1,2.122,0L23.605,2.6a1.5,1.5,0,0,1,0,2.121l-9.9,9.9A1.5,1.5,0,0,1,12.645,15.058Zm7.779-14.02a.5.5,0,0,0-.355.147l-9.9,9.9a.5.5,0,0,0,0,.708l2.122,2.121h0a.5.5,0,0,0,.707,0l9.9-9.9a.5.5,0,0,0,0-.707L20.777,1.184A.5.5,0,0,0,20.424,1.038Z" class="aw-theme-iconOutline" fill="#464646"/>
  </g>
</svg>
