<?xml version="1.0" encoding="utf-8"?>
<!-- Generator: Adobe Illustrator 27.1.1, SVG Export Plug-In . SVG Version: 6.00 Build 0)  -->
<svg version="1.1" id="Layer_1" xmlns="http://www.w3.org/2000/svg" xmlns:xlink="http://www.w3.org/1999/xlink" x="0px" y="0px"
	 viewBox="0 0 32 32" style="enable-background:new 0 0 32 32;" xml:space="preserve">
<style type="text/css">
	.st0{fill:#464646;}
</style>
<polygon class="st0" points="2,8 3,8 3,1 10,1 10,0 2,0 "/>
<polygon class="st0" points="21,0 21,1 28,1 28,8 29,8 29,0 "/>
<polygon class="st0" points="28,31 21,31 21,32 29,32 29,24 28,24 "/>
<polygon class="st0" points="3,24 2,24 2,32 10,32 10,31 3,31 "/>
<path class="st0" d="M15.5,2c-0.1,0-0.3,0.1-0.4,0.2l-5,5l0.7,0.7L15,3.7v9.4h1V3.9l4.1,4l0.8-0.8l-5-5C15.8,2.1,15.6,2,15.5,2z"/>
<path class="st0" d="M16,28.3V19h-1v9.3l-4.2-4.1l-0.7,0.7l5,5c0.1,0,0.3,0.1,0.4,0.1s0.3-0.1,0.3-0.1l5-5l-0.7-0.7L16,28.3z"/>
</svg>
