<svg id="Layer_2" data-name="Layer 2" xmlns="http://www.w3.org/2000/svg" viewBox="0 0 13 13">
  <polygon points="13 13 0 13 0 2 6 2 6 3 1 3 1 12 12 12 12 5 13 5 13 13" fill="#464646"/>
  <polygon points="12.071 10.646 10.116 7.385 8.313 10.213 7.495 9.122 8.123 8.651 10.144 5.483 12.929 10.133 12.071 10.646" fill="#464646"/>
  <rect x="1.866" y="11" width="2.246" height="1" transform="translate(-8.612 8.929) rotate(-62.935)" fill="#464646"/>
  <path d="M3.318,7.137A1.819,1.819,0,1,1,4.393,3.85a.5.5,0,0,1-.59.808.819.819,0,1,0-.485,1.479.5.5,0,1,1,0,1Z" fill="#464646"/>
  <path d="M6.774,8.467A.582.582,0,0,1,6.365,8.3l0,0L4.614,6.549a.584.584,0,0,1,0-.824L10.032.175a.586.586,0,0,1,.825-.008L12.72,2.005a.585.585,0,0,1,0,.827L7.185,8.3A.587.587,0,0,1,6.774,8.467ZM5.613,6.133,6.776,7.3l4.94-4.877L10.454,1.174Zm-.281.288-.007.007Z" fill="#464646"/>
  <path d="M5,9.5a.53.53,0,0,1-.156-.025l-1.5-.5a.5.5,0,0,1-.189-.834A5.792,5.792,0,0,0,4.578,6.269a.5.5,0,0,1,.8-.6c.551.634-.113,1.682-.96,2.606L4.8,8.4A2.173,2.173,0,0,1,6.5,7.5a.5.5,0,0,1,0,1,1.364,1.364,0,0,0-1.055.727A.505.505,0,0,1,5,9.5ZM4.623,6.328h0Z" class="aw-theme-iconOutline" fill="#464646"/>
</svg>
