<svg id="Layer_2" data-name="Layer 2" xmlns="http://www.w3.org/2000/svg" viewBox="0 0 16 16">
  <polygon points="16 16 0 16 0 3 7 3 7 4 1 4 1 15 15 15 15 5 16 5 16 16" fill="#464646"/>
  <polygon points="15.238 13.257 12.658 8.951 10.366 12.545 9.446 11.317 10.247 10.718 10.3 10.789 12.686 7.049 16.096 12.743 15.238 13.257" fill="#464646"/>
  <rect x="2.025" y="13.345" width="4.379" height="1" transform="translate(-9.643 9.672) rotate(-56.31)" fill="#464646"/>
  <path d="M4,9A2.167,2.167,0,1,1,5.279,5.084a.5.5,0,1,1-.59.808A1.167,1.167,0,1,0,4,8,.5.5,0,0,1,4,9Z" fill="#464646"/>
  <g>
    <g>
      <path d="M6.285,11.341a.5.5,0,0,1-.121-.015L4.45,10.9a.5.5,0,0,1-.232-.838L5.5,8.773a.5.5,0,0,1,.707,0L7.281,9.845a.5.5,0,0,1,0,.707l-.642.642A.5.5,0,0,1,6.285,11.341Zm-.736-1.2.583.145.089-.089-.365-.364Z" fill="#464646"/>
      <path d="M7.281,10.552l-.707-.707A1.837,1.837,0,0,1,8.882,9.33l-.479.879C8.265,10.132,7.9,9.935,7.281,10.552Z" fill="#464646"/>
      <path d="M6.21,9.48,5.5,8.773c.618-.617.418-.983.343-1.121l.879-.479A1.835,1.835,0,0,1,6.21,9.48Z" fill="#464646"/>
    </g>
    <path d="M8.429,10.438A.6.6,0,0,1,8,10.262l-2.21-2.21a.61.61,0,0,1,0-.853L12.643.181A.714.714,0,0,1,13.5.175L15.852,2.5a.609.609,0,0,1,0,.855l-7,6.912A.608.608,0,0,1,8.429,10.438ZM6.776,7.621,8.432,9.276l6.431-6.35L13.079,1.165ZM6.508,7.9l0,0Z" class="aw-theme-iconOutline" fill="#464646"/>
  </g>
</svg>
