<?xml version="1.0" encoding="utf-8"?>
<!-- Generator: Adobe Illustrator 27.2.0, SVG Export Plug-In . SVG Version: 6.00 Build 0)  -->
<svg version="1.1" id="Layer_1" xmlns="http://www.w3.org/2000/svg" xmlns:xlink="http://www.w3.org/1999/xlink" x="0px" y="0px"
	 viewBox="0 0 16 16" style="enable-background:new 0 0 16 16;" xml:space="preserve">
<style type="text/css">
	.st0{fill:#464646;}
</style>
<path id="Shape" class="st0" d="M13.5,2c0.7,0,1.3,0.3,1.8,0.7S16,3.8,16,4.5v7c0,1.4-1.1,2.5-2.5,2.5h-11C1.1,14,0,12.9,0,11.5v-7
	c0-0.7,0.3-1.3,0.7-1.8S1.8,2,2.5,2H13.5z M11,8.6l-1.7,1.6c-0.3,0.3-0.8,0.5-1.3,0.5c-0.5,0-0.9-0.2-1.3-0.5L5,8.6l-3.8,3.8
	C1.5,12.7,2,13,2.5,13h11c0.5,0,1-0.3,1.2-0.7L11,8.6z M15,4.7l-3.3,3.2l3.3,3.3V4.7z M1,4.7v6.5l3.3-3.3L1,4.7z M13.5,3h-11
	C2,3,1.6,3.2,1.3,3.6l6.1,5.9c0.3,0.3,0.9,0.3,1.2,0l6.1-5.9C14.4,3.2,14,3,13.5,3z"/>
</svg>
