<?xml version="1.0" encoding="utf-8"?>
<!-- Generator: Adobe Illustrator 27.3.1, SVG Export Plug-In . SVG Version: 6.00 Build 0)  -->
<svg version="1.1" id="Layer_1" xmlns="http://www.w3.org/2000/svg" xmlns:xlink="http://www.w3.org/1999/xlink" x="0px" y="0px"
	 viewBox="0 0 24 24" style="enable-background:new 0 0 24 24;" xml:space="preserve">
<style type="text/css">
	.st0{fill:#464646;}
</style>
<path class="st0" d="M7.4,13.3c-0.1-0.1-0.3-0.2-0.5-0.1c-0.2,0.1-0.3,0.3-0.3,0.5v3.7c0,0.3,0.2,0.5,0.5,0.5h3.8
	c0.2,0,0.3-0.3,0.4-0.4c0.1-0.1,0-0.4-0.1-0.5L7.4,13.3z M7.6,16.9v-2l2.1,2H7.6z"/>
<path class="st0" d="M5.2,16.3c-0.2-0.2-0.5-0.2-0.7,0L0.6,20c0,0.1-0.1,0.2-0.1,0.4c0,0.2,0,0.3,0.1,0.4l3,3
	c0.1,0.1,0.3,0.1,0.4,0.1c0.2,0,0.3,0,0.4-0.2L8.1,20c0.1-0.1,0.2-0.1,0.2-0.3c0-0.2,0-0.3-0.1-0.4L5.2,16.3z M4.1,22.7l-2.3-2.3
	l3-3l2.3,2.3L4.1,22.7z"/>
<path class="st0" d="M10.5,11.3l6.5,3.8l6.5-3.8V3.7L17,0l-6.5,3.8V11.3z M22.5,10.7l-5,2.9V7.8l5-2.9V10.7z M17,1.2L22,4l-5,2.9
	l-4.9-2.8L17,1.2z M11.5,4.9l5,2.9v5.8l-5-2.9V4.9z"/>
<path class="st0" d="M12.5,16v1h1h9v-1h-9H12.5z"/>
<path class="st0" d="M8.5,2h-1v1v9h1V3V2z"/>
</svg>
