<svg version="1.1" id="Artwork" xmlns="http://www.w3.org/2000/svg" xmlns:xlink="http://www.w3.org/1999/xlink" x="0px" y="0px"
	 width="16px" height="16px" viewBox="0 0 16 16" enable-background="new 0 0 16 16" xml:space="preserve">
<path class="aw-theme-iconOutline" fill="#464646" d="M14.9,7.1l-2.5-2.5l-0.7,0.7L13.3,7H8V1.7l1.6,1.6l0.7-0.7L7.9,0.1C7.7,0,7.3,0,7.1,0.1L4.6,2.6l0.7,0.7
	L7,1.7V7H1.7l1.6-1.6L2.6,4.6L0.1,7.1C0,7.3,0,7.7,0.1,7.9l2.5,2.5l0.7-0.7L1.7,8H7v5.3l-1.6-1.6l-0.7,0.7l2.5,2.5
	C7.2,15,7.4,15,7.5,15s0.3,0,0.4-0.1l2.5-2.5l-0.7-0.7L8,13.3V8h5.3l-1.6,1.6l0.7,0.7l2.5-2.5C15,7.7,15,7.3,14.9,7.1z"/>
</svg>
