<?xml version="1.0" encoding="utf-8"?>
<!-- Generator: Adobe Illustrator 27.3.1, SVG Export Plug-In . SVG Version: 6.00 Build 0)  -->
<svg version="1.1" id="Layer_1" xmlns="http://www.w3.org/2000/svg" xmlns:xlink="http://www.w3.org/1999/xlink" x="0px" y="0px"
	 viewBox="0 0 24 24" style="enable-background:new 0 0 24 24;" xml:space="preserve">
<style type="text/css">
	.st0{fill:#464646;}
</style>
<path class="st0" d="M17,21h4v-4h-4V21z M18,18h2v2h-2V18z"/>
<path class="st0" d="M10,14h4v-4h-4V14z M11,11h2v2h-2V11z"/>
<path class="st0" d="M3,7h4V3H3V7z M4,4h2v2H4V4z"/>
<path class="st0" d="M1,23h22V1H1V23z M16,2h6v6h-6V2z M16,9h6v6h-6V9z M16,16h6v6h-6V16z M9,2h6v6H9V2z M9,9h6v6H9V9z M9,16h6v6H9
	V16z M2,2h6v6H2V2z M2,9h6v6H2V9z M2,16h6v6H2V16z"/>
</svg>
