<?xml version="1.0" encoding="utf-8"?>
<!-- Generator: Adobe Illustrator 27.3.1, SVG Export Plug-In . SVG Version: 6.00 Build 0)  -->
<svg version="1.1" id="Layer_1" xmlns="http://www.w3.org/2000/svg" xmlns:xlink="http://www.w3.org/1999/xlink" x="0px" y="0px"
	 viewBox="0 0 24 24" style="enable-background:new 0 0 24 24;" xml:space="preserve">
<style type="text/css">
	.st0{fill:#464646;}
</style>
<path class="st0" d="M8,8c-2.2,0-4,1.8-4,4s1.8,4,4,4s4-1.8,4-4S10.2,8,8,8z M8,15c-1.7,0-3-1.3-3-3s1.3-3,3-3s3,1.3,3,3
	S9.7,15,8,15z"/>
<path class="st0" d="M16,13h2V9h-2V8.5C16,6,14,4,11.5,4h-7C2,4,0,6,0,8.5v7C0,18,2,20,4.5,20H16v-1h7v1h1v-4h-8V13z M16,10h1v2h-1
	V10z M15,19H4.5C2.6,19,1,17.4,1,15.5v-7C1,6.6,2.6,5,4.5,5h7C13.4,5,15,6.6,15,8.5V19z M23,17v1h-7v-1H23z"/>
</svg>
