<?xml version="1.0" encoding="utf-8"?>
<!-- Generator: Adobe Illustrator 27.3.1, SVG Export Plug-In . SVG Version: 6.00 Build 0)  -->
<svg version="1.1" id="Layer_1" xmlns="http://www.w3.org/2000/svg" xmlns:xlink="http://www.w3.org/1999/xlink" x="0px" y="0px"
	 viewBox="0 0 24 24" style="enable-background:new 0 0 24 24;" xml:space="preserve">
<style type="text/css">
	.st0{fill:#464646;}
</style>
<polygon class="st0" points="18,14 17,14 17,17 14,17 14,18 17,18 17,21 18,21 18,18 21,18 21,17 18,17 "/>
<path class="st0" d="M0.5,18c0.1,0,0.1,0,0.2,0l2.8-1L2,21.3c-0.1,0.2,0,0.4,0.1,0.5C2.2,21.9,2.4,22,2.5,22s0.1,0,0.2,0l4.5-1.5
	c0.1,0,0.1-0.1,0.2-0.1l2.5-2.5l-0.7-0.7L7,19.3L4.7,17l0.6-0.6L14,7.7l2.1,2.1l0.7-0.7L14.7,7l1.4-1.4c0.2-0.2,0.5-0.2,0.7,0
	l1.6,1.6c0.2,0.2,0.2,0.5,0,0.7l-1.3,1.3l0.7,0.7l1.3-1.3c0.6-0.6,0.6-1.5,0-2.1l-1.6-1.6c-0.1-0.1-0.3-0.2-0.4-0.3
	c0.6-0.6,0.6-1.5,0-2.1l-1.6-1.6c-0.6-0.6-1.5-0.6-2.1,0L1.6,12.6c-0.1,0.1-0.1,0.1-0.1,0.2L0,17.3v0.3c0,0.1,0.1,0.1,0.1,0.2
	C0.2,17.9,0.4,18,0.5,18z M6.1,19.8l-2.8,0.9l0.9-2.8L6.1,19.8z M14.1,1.6c0.2-0.2,0.5-0.2,0.7,0l1.6,1.6c0.2,0.2,0.2,0.5,0,0.7
	l-1,1L15,5.3L12.7,3L14.1,1.6z M12,3.7L14.3,6L5,15.3L2.7,13L12,3.7z M2.2,13.9l1.9,1.9l-2.8,0.9L2.2,13.9z"/>
<path class="st0" d="M17.5,11c-3.6,0-6.5,2.9-6.5,6.5s2.9,6.5,6.5,6.5s6.5-2.9,6.5-6.5S21.1,11,17.5,11z M17.5,23
	c-3,0-5.5-2.5-5.5-5.5s2.5-5.5,5.5-5.5s5.5,2.5,5.5,5.5S20.5,23,17.5,23z"/>
<path class="st0" d="M0,17.6v-0.3C-0.1,17.4,0,17.5,0,17.6z"/>
</svg>
