<?xml version="1.0" encoding="utf-8"?>
<!-- Generator: Adobe Illustrator 27.2.0, SVG Export Plug-In . SVG Version: 6.00 Build 0)  -->
<svg version="1.1" id="Layer_1" xmlns="http://www.w3.org/2000/svg" xmlns:xlink="http://www.w3.org/1999/xlink" x="0px" y="0px"
	 viewBox="0 0 24 24" style="enable-background:new 0 0 24 24;" xml:space="preserve">
<style type="text/css">
	.st0{fill:#464646;}
</style>
<path id="Shape" class="st0" d="M7.3,12.8c0.2-0.1,0.3,0,0.5,0.1l0.1,0.1l4,4c0.1,0.1,0.2,0.4,0.1,0.5c-0.1,0.2-0.2,0.3-0.4,0.3
	l-0.1,0H7.7l1.1,1.1C9,19.1,9,19.4,8.9,19.6l-0.1,0.1l-4,4c-0.2,0.2-0.4,0.2-0.6,0.1l-0.1-0.1l-3-3C1,20.5,1,20.2,1.1,20l0.1-0.1
	l4-4c0.2-0.2,0.4-0.2,0.6-0.1l0.1,0.1L7,17.1v-3.8C7,13.1,7.1,12.9,7.3,12.8z M5.5,17l-3.3,3.3l2.3,2.3l3.3-3.3L5.5,17z M23,16.8v1
	H13v-1H23z M8,14.5v2.3h2.3L8,14.5z M16.5,0.2L23,4v7.4l-6.5,3.7L10,11.4V4L16.5,0.2z M11,5.1v5.7l5,2.9V8L11,5.1z M22,5.1L17,8v5.7
	l5-2.9V5.1z M8,1.8v10H7v-10H8z M16.5,1.4l-5,2.9l5,2.9l5-2.9L16.5,1.4z"/>
</svg>
