<svg id="Layer_2" data-name="Layer 2" xmlns="http://www.w3.org/2000/svg" viewBox="0 0 10 10">
  <polygon points="10 10 0 10 0 0 6 0 6 1 1 1 1 9 9 9 9 4 10 4 10 10" fill="#464646"/>
  <polygon points="9.024 8.757 7.663 6.484 6.322 8.587 5.6 7.624 5.888 7.408 7.689 4.583 9.882 8.243 9.024 8.757" fill="#464646"/>
  <rect x="1.524" y="8.25" width="1.685" height="1" transform="translate(-6.502 6.876) rotate(-62.935)" fill="#464646"/>
  <path d="M2.07,4a.5.5,0,0,1-.428-.241A1.489,1.489,0,0,1,3.8,1.787a.5.5,0,1,1-.59.807.506.506,0,0,0-.778.4.481.481,0,0,0,.07.252A.5.5,0,0,1,2.07,4Z" fill="#464646"/>
  <path d="M5.206,6.583a.566.566,0,0,1-.4-.146L3.5,5.125a.612.612,0,0,1,0-.794L7.56.169a.606.606,0,0,1,.4-.151.569.569,0,0,1,.4.147L9.753,1.54a.614.614,0,0,1,.006.793L5.6,6.439A.567.567,0,0,1,5.206,6.583Zm-.7-1.859.7.7L8.734,1.94l-.767-.757Z" fill="#464646"/>
  <path d="M3.872,7.375a.489.489,0,0,1-.155-.026L2.592,6.974A.5.5,0,0,1,2.4,6.14a4.91,4.91,0,0,0,1.022-1.3A.5.5,0,0,1,4.252,4.3c.377.433.177,1.1-.594,1.979l.018.006A1.747,1.747,0,0,1,5,5.625a.5.5,0,0,1,0,1c-.425,0-.677.473-.68.478A.509.509,0,0,1,3.872,7.375ZM3.5,4.953h0Z" class="aw-theme-iconOutline" fill="#464646"/>
</svg>
