<svg version="1.1" id="Layer_1" xmlns="http://www.w3.org/2000/svg" xmlns:xlink="http://www.w3.org/1999/xlink" x="0px" y="0px"
	 viewBox="0 0 24 24" enable-background="new 0 0 24 24" xml:space="preserve">
<path class="aw-theme-iconOutline" fill="#464646" d="M23.6,3H0.4C0.2,3,0,3.2,0,3.4v17.2C0,20.8,0.2,21,0.4,21h23.2c0.2,0,0.4-0.2,0.4-0.4V3.4C24,3.2,23.8,3,23.6,3
	z M17,13.3l-0.6,0.6l6,6.1H1.6l6-6.1L7,13.3l-6,6.1V4.6l9.3,9.5c0.5,0.5,1.1,0.7,1.7,0.7s1.2-0.2,1.7-0.7L23,4.6v14.9L17,13.3z
	 M1.4,4h21.3l-9.5,9.5c-0.6,0.6-1.6,0.6-2.3,0L1.4,4z"/>
</svg>
