<?xml version="1.0" encoding="utf-8"?>
<!-- Generator: Adobe Illustrator 27.3.1, SVG Export Plug-In . SVG Version: 6.00 Build 0)  -->
<svg version="1.1" id="Layer_1" xmlns="http://www.w3.org/2000/svg" xmlns:xlink="http://www.w3.org/1999/xlink" x="0px" y="0px"
	 viewBox="0 0 24 24" style="enable-background:new 0 0 24 24;" xml:space="preserve">
<style type="text/css">
	.st0{fill:#464646;}
</style>
<polygon class="st0" points="9.3,15.1 5.9,19 4.3,17.3 3.6,18 5.9,20.5 10,15.9 "/>
<polygon class="st0" points="20,7.9 19.3,7.1 15.9,11 14.3,9.3 13.6,10 15.9,12.5 "/>
<path class="st0" d="M1,22.5h5.4h7.3h1.2H23v-21H1V22.5z M22,21.5H12v-7h10V21.5z M22,13.5H12v-7h10V13.5z M2,2.5h20v3H2V2.5z
	 M2,6.5h9v7H2V6.5z M2,14.5h9v7H6H2V14.5z"/>
</svg>
