<?xml version="1.0" encoding="utf-8"?>
<!-- Generator: Adobe Illustrator 27.3.1, SVG Export Plug-In . SVG Version: 6.00 Build 0)  -->
<svg version="1.1" id="Artwork" xmlns="http://www.w3.org/2000/svg" xmlns:xlink="http://www.w3.org/1999/xlink" x="0px" y="0px"
	 viewBox="0 0 16 16" style="enable-background:new 0 0 16 16;" xml:space="preserve">
<style type="text/css">
	.st0{fill:#464646;}
</style>
<polygon class="st0" points="11,10 11,15 1,15 1,5 4,5 4,4 0,4 0,16 12,16 12,10 "/>
<path class="st0" d="M11.9,0.1l-0.7,0.7L14.3,4H9.8C7.2,4,5,6.2,5,8.8c0,2,1.2,3.7,3,4.5l0.4-0.9C6.9,11.8,6,10.4,6,8.8
	C6,6.7,7.7,5,9.8,5h4.5l-3.1,3.1l0.7,0.7l4-4c0.1-0.1,0.1-0.5,0-0.7L11.9,0.1z"/>
</svg>
