<?xml version="1.0" encoding="utf-8"?>
<!-- Generator: Adobe Illustrator 27.3.1, SVG Export Plug-In . SVG Version: 6.00 Build 0)  -->
<svg version="1.1" id="Layer_1" xmlns="http://www.w3.org/2000/svg" xmlns:xlink="http://www.w3.org/1999/xlink" x="0px" y="0px"
	 viewBox="0 0 24 24" style="enable-background:new 0 0 24 24;" xml:space="preserve">
<style type="text/css">
	.st0{fill:#464646;}
</style>
<path class="st0" d="M16.7,1.3L21.3,6H14c-3.9,0-7,3.1-7,7c0,2.8,1.7,5.4,4.3,6.5l0.4-0.9C9.4,17.6,8,15.4,8,13c0-3.3,2.7-6,6-6h7.3
	l-4.6,4.6l0.7,0.7l5.9-5.9l-5.9-5.8L16.7,1.3z"/>
<polygon class="st0" points="17,15 17,23 1,23 1,7 6,7 6,6 0,6 0,24 18,24 18,15 "/>
</svg>
