<?xml version="1.0" encoding="utf-8"?>
<!-- Generator: Adobe Illustrator 27.3.1, SVG Export Plug-In . SVG Version: 6.00 Build 0)  -->
<svg version="1.1" id="Layer_1" xmlns="http://www.w3.org/2000/svg" xmlns:xlink="http://www.w3.org/1999/xlink" x="0px" y="0px"
	 viewBox="0 0 24 24" style="enable-background:new 0 0 24 24;" xml:space="preserve">
<style type="text/css">
	.st0{fill:#464646;}
	.st1{fill:#97D300;}
</style>
<path class="st0" d="M14,11c0-1.7-1.3-3-3-3s-3,1.3-3,3s1.3,3,3,3S14,12.7,14,11z M9,11c0-1.1,0.9-2,2-2s2,0.9,2,2s-0.9,2-2,2
	S9,12.1,9,11z"/>
<path class="st0" d="M7.1,4C6,3.8,4.8,3.8,3.7,4C3.1,3,1.9,2.7,1,3.3S-0.3,5.1,0.3,6C0.5,6.3,0.7,6.6,1,6.7C1.1,8.3,1.7,9.8,2.8,11
	c-1.7,2.1-2.3,4.1-1.5,5.6c0.6,1.1,2,1.7,3.9,1.7c0.6,0,1.3-0.1,1.9-0.2c0,0.1,0.1,0.2,0.1,0.4c0.1,0.3,0.2,0.6,0.4,0.8
	c0.1,0.2,0.4,0.3,0.7,0.2c0.2-0.1,0.3-0.4,0.2-0.7c-0.1-0.2-0.2-0.5-0.3-0.8c0-0.1,0-0.1-0.1-0.2c0.3-0.1,0.6-0.1,0.9-0.2
	c0.3-0.1,0.4-0.4,0.3-0.7c-0.1-0.3-0.4-0.4-0.6-0.3c-0.3,0.1-0.6,0.2-0.9,0.2c-0.2-0.6-0.3-1.3-0.5-1.9c0.3,0.2,0.7,0.4,1,0.6
	c0.5,0.3,1,0.5,1.5,0.8c0.1,0,0.1,0.1,0.2,0.1c0.3,0,0.5-0.2,0.5-0.5c0-0.2-0.1-0.4-0.3-0.4c-0.5-0.2-0.9-0.5-1.4-0.7
	c-0.6-0.3-1.2-0.7-1.7-1.1C7.1,12.7,7,11.9,7,11c0-0.9,0-1.7,0.1-2.6c0.5-0.4,1.1-0.7,1.7-1.1c0.7-0.4,1.4-0.8,2.1-1.1
	c0.7,0.3,1.4,0.7,2.1,1.1c0.6,0.3,1.2,0.7,1.7,1.1c0.1,0.7,0.1,1.3,0.1,2c0,0.3,0.2,0.5,0.5,0.5c0,0,0,0,0,0c0.3,0,0.5-0.2,0.5-0.5
	c0,0,0,0,0,0c0-0.4,0-0.8-0.1-1.2c0.1,0.1,0.3,0.2,0.5,0.3c0.2,0.2,0.5,0.1,0.7-0.1C17.3,9.3,17.2,9,17,8.8c-0.4-0.3-0.8-0.6-1.2-1
	c-0.1-1-0.3-2-0.6-2.9c0.9-0.2,1.9-0.2,2.8,0c0,0,0,0,0,0.1c0,1.1,0.9,2,2,2c0,0,0,0,0,0c0.1,0.2,0.3,0.3,0.5,0.3h0
	c0.3,0,0.5-0.2,0.5-0.5c0,0,0,0,0,0c0,0,0,0,0,0c0.6-0.4,1-1,1-1.7c0-1.1-0.9-2-2-2c-0.7,0-1.3,0.4-1.7,0.9c-1.1-0.2-2.3-0.2-3.4,0
	C14,1.5,12.6,0,11,0S8,1.5,7.1,4z M1,5c0-0.6,0.4-1,1-1s1,0.4,1,1S2.6,6,2,6S1,5.6,1,5z M2.3,16c-0.6-1-0.1-2.5,1.2-4.3
	c0.8,0.9,1.7,1.7,2.7,2.4c0.1,1,0.3,2,0.6,2.9C4.6,17.4,2.8,17.1,2.3,16z M6.1,12.8L6.1,12.8c-0.7-0.5-1.3-1.1-1.9-1.8
	c0.6-0.6,1.2-1.2,1.9-1.8C6,9.8,6,10.4,6,11S6,12.2,6.1,12.8z M6.2,7.8c-1,0.7-1.9,1.5-2.7,2.4C2.7,9.3,2.2,8.2,2,7c1.1,0,2-0.9,2-2
	c0,0,0-0.1,0-0.1c0.9-0.2,1.9-0.2,2.8,0C6.5,5.9,6.3,6.9,6.2,7.8z M20,4c0.6,0,1,0.4,1,1s-0.4,1-1,1s-1-0.4-1-1S19.4,4,20,4z
	 M8.4,6.4C8,6.6,7.7,6.8,7.3,7.1c0.1-0.7,0.3-1.3,0.5-1.9c0.6,0.2,1.3,0.4,1.9,0.6C9.3,5.9,8.8,6.2,8.4,6.4z M14.7,7.1
	c-0.3-0.2-0.7-0.5-1-0.7c-0.4-0.3-0.9-0.5-1.3-0.7c0.6-0.2,1.3-0.4,1.9-0.6C14.4,5.8,14.6,6.4,14.7,7.1z M11,1
	c1.1,0,2.2,1.2,2.9,3.2c-1,0.2-2,0.6-2.9,1c-0.9-0.4-1.9-0.7-2.9-1C8.9,2.2,10,1,11,1z"/>
<polygon class="st0" points="24,0 24,11.1 24,11.1 24,24 24,24 24,0 "/>
<path class="st0" d="M13.2,22.5c0.1,0,0.1-0.1,0.2-0.1l10.2-10.2c0.3-0.3,0.4-0.7,0.4-1.1v0c0-0.4-0.1-0.8-0.4-1.1L22,8.4
	c-0.6-0.6-1.5-0.6-2.1,0L9.6,18.6c-0.1,0.1-0.1,0.1-0.1,0.2L8,23.3c-0.1,0.3,0.1,0.5,0.3,0.6c0,0,0.1,0,0.2,0c0.1,0,0.1,0,0.2,0
	L13.2,22.5z M20.6,9.1c0.2-0.2,0.5-0.2,0.7,0l1.6,1.6c0.1,0.1,0.1,0.2,0.1,0.4c0,0.1-0.1,0.3-0.1,0.4l0,0l-0.9,0.9l-2.3-2.3
	L20.6,9.1z M18.9,10.8l2.3,2.3L13,21.3L10.7,19L18.9,10.8z M10.2,19.9l1.9,1.9l-2.8,0.9L10.2,19.9z"/>
<rect x="0" class="st1" width="0" height="24"/>
</svg>
