<?xml version="1.0" encoding="utf-8"?>
<!-- Generator: Adobe Illustrator 27.3.1, SVG Export Plug-In . SVG Version: 6.00 Build 0)  -->
<svg version="1.1" id="Layer_1" xmlns="http://www.w3.org/2000/svg" xmlns:xlink="http://www.w3.org/1999/xlink" x="0px" y="0px"
	 viewBox="0 0 24 24" style="enable-background:new 0 0 24 24;" xml:space="preserve">
<style type="text/css">
	.st0{fill:#464646;}
</style>
<path class="st0" d="M12.1,19.5c0.4,0.2,0.9,0.3,1.4,0.3s1-0.1,1.3-0.3c0.4-0.3,0.7-0.7,0.7-1.1c0-0.4-0.2-0.8-0.7-1.1
	c-0.7-0.4-1.9-0.4-2.7,0c-0.4,0.3-0.7,0.7-0.7,1.1C11.4,18.8,11.6,19.2,12.1,19.5z M12.6,18.2c0.3-0.1,0.6-0.2,0.9-0.2
	s0.7,0.1,0.9,0.2c0.1,0.1,0.2,0.2,0.2,0.2s0,0.1-0.2,0.2c-0.5,0.3-1.3,0.3-1.8,0c-0.1-0.1-0.2-0.2-0.2-0.2S12.4,18.3,12.6,18.2z"/>
<path class="st0" d="M22.8,19.5c0.2-0.1,0.2-0.3,0.2-0.4v-2.5c0-0.2-0.1-0.3-0.2-0.4L14,11.1V2c0-0.2-0.1-0.3-0.3-0.4l-2-1.1
	c-0.2-0.1-0.3-0.1-0.5,0L6.5,3.2c-0.1,0-0.1,0.1-0.2,0.2l-4.2,7.4C2,10.8,2,10.9,2,11v7c0,0.2,0.1,0.3,0.3,0.4l8.6,4.9
	c0.8,0.4,1.7,0.7,2.7,0.7s1.9-0.2,2.7-0.7L22.8,19.5z M21.5,16.6L15.7,20c-1.2,0.7-3.2,0.7-4.4,0l-5.8-3.3l8-4.6L21.5,16.6z
	 M13,11.1l-8,4.6v-3.6l4.1-7L13,2.8V11.1z M11.5,1.4l1,0.6L8.7,4.2l-1-0.6L11.5,1.4z M6.9,4.3L8,4.9l-3.8,6.5l-1.1-0.6L6.9,4.3z
	 M11.3,22.5L3,17.7v-5.9l1,0.6v4.2c0,0.2,0.1,0.4,0.2,0.5l6.6,3.8c0.8,0.4,1.7,0.7,2.7,0.7s1.9-0.2,2.7-0.7l5.8-3.4v1.4l-6.3,3.6
	C14.5,23.2,12.5,23.2,11.3,22.5z"/>
</svg>
