<?xml version="1.0" encoding="utf-8"?>
<!-- Generator: Adobe Illustrator 27.2.0, SVG Export Plug-In . SVG Version: 6.00 Build 0)  -->
<svg version="1.1" id="Layer_1" xmlns="http://www.w3.org/2000/svg" xmlns:xlink="http://www.w3.org/1999/xlink" x="0px" y="0px"
	 viewBox="0 0 24 24" style="enable-background:new 0 0 24 24;" xml:space="preserve">
<style type="text/css">
	.st0{fill:#464646;}
</style>
<g>
	<polygon class="st0" points="16.5,22.2 1.5,22.2 1.5,7.2 6,7.2 6,5.7 0,5.7 0,23.7 18,23.7 18,14.5 16.5,14.5 	"/>
	<polygon class="st0" points="3.6,13.2 2.5,13.2 2.5,20.7 3.6,20.7 3.6,15.3 7,20.6 7.1,20.7 8.2,20.7 8.2,13.2 7.1,13.2 7.1,18.6 
		3.6,13.3 	"/>
	<path class="st0" d="M10.1,20.7l1.8-2.6c0.1-0.1,0.1-0.2,0.2-0.4c0.1,0.1,0.1,0.2,0.2,0.3l1.7,2.6l0,0h1.4l-2.7-3.9l2.5-3.5H14
		l-1.4,2c-0.2,0.2-0.3,0.4-0.4,0.7c-0.1-0.2-0.3-0.4-0.5-0.7l-1.3-1.9H9l2.4,3.6l-2.8,3.9H10.1z"/>
	<path class="st0" d="M18.1,0.5l-1.1,1l4.1,4.1h-5.5c-3.7-0.2-6.9,2.4-7.5,6L9.6,12c0.4-2.9,3-5,6-4.8h5.5l-4,4.1l1.1,1.1l5.8-5.9
		L18.1,0.5z"/>
</g>
</svg>
