<?xml version="1.0" encoding="utf-8"?>
<!-- Generator: Adobe Illustrator 27.3.1, SVG Export Plug-In . SVG Version: 6.00 Build 0)  -->
<svg version="1.1" id="Layer_1" xmlns="http://www.w3.org/2000/svg" xmlns:xlink="http://www.w3.org/1999/xlink" x="0px" y="0px"
	 viewBox="0 0 24 24" style="enable-background:new 0 0 24 24;" xml:space="preserve">
<style type="text/css">
	.st0{fill:#464646;}
</style>
<path class="st0" d="M2.5,18H9v-1H7v-3h2v-1H7v-3h7V9h-1V6h5v2h1V2.5C19,1.1,17.9,0,16.5,0h-14C1.1,0,0,1.1,0,2.5v13
	C0,16.9,1.1,18,2.5,18z M12,9H7V6h5V9z M1,2.5C1,1.7,1.7,1,2.5,1h14C17.3,1,18,1.7,18,2.5V5H1V2.5z M1,6h5v3H1V6z M1,10h5v3H1V10z
	 M1,14h5v3H2.5C1.7,17,1,16.3,1,15.5V14z"/>
<path class="st0" d="M23.7,12.7l-6-3.3c-0.2-0.1-0.3-0.1-0.5,0l-6,3.4C11.1,12.9,11,13,11,13.2v6.9c0,0.2,0.1,0.3,0.3,0.4l6,3.4
	c0.2,0.1,0.3,0.1,0.5,0l6-3.4c0.2-0.1,0.2-0.3,0.2-0.4v-6.9C24,12.9,23.9,12.8,23.7,12.7z M17,22.6l-5-2.9v-5.7l5,2.8V22.6z
	 M17.5,16l-5-2.8l5-2.8l5,2.8L17.5,16z M23,19.8l-5,2.9v-5.8l5-2.9V19.8z"/>
<path class="st0" d="M4.3,2.3c-0.4,0.4-0.4,1,0,1.4c0.4,0.4,1,0.4,1.4,0c0.4-0.4,0.4-1,0-1.4C5.3,1.9,4.7,1.9,4.3,2.3z"/>
<path class="st0" d="M13.3,2.3c-0.4,0.4-0.4,1,0,1.4c0.4,0.4,1,0.4,1.4,0c0.4-0.4,0.4-1,0-1.4C14.3,1.9,13.7,1.9,13.3,2.3z"/>
</svg>
