<?xml version="1.0" encoding="utf-8"?>
<!-- Generator: Adobe Illustrator 27.3.1, SVG Export Plug-In . SVG Version: 6.00 Build 0)  -->
<svg version="1.1" id="Layer_1" xmlns="http://www.w3.org/2000/svg" xmlns:xlink="http://www.w3.org/1999/xlink" x="0px" y="0px"
	 viewBox="0 0 24 24" style="enable-background:new 0 0 24 24;" xml:space="preserve">
<style type="text/css">
	.st0{fill:#464646;}
</style>
<polygon class="st0" points="8,9.8 7.1,9.2 4.4,13.2 2.9,11.1 2.1,11.7 4.4,14.9 "/>
<path class="st0" d="M18.5,6c-3,0-5.5,2.5-5.5,5.5s2.5,5.5,5.5,5.5s5.5-2.5,5.5-5.5S21.5,6,18.5,6z M18.5,16C16,16,14,14,14,11.5
	S16,7,18.5,7S23,9,23,11.5S21,16,18.5,16z"/>
<path class="st0" d="M5.5,17c3,0,5.5-2.5,5.5-5.5S8.5,6,5.5,6S0,8.5,0,11.5S2.5,17,5.5,17z M5.5,7C8,7,10,9,10,11.5S8,16,5.5,16
	S1,14,1,11.5S3,7,5.5,7z"/>
<path class="st0" d="M8.7,18H11v-1H7v4h1v-2.2c1,1.1,2.5,1.7,4,1.7c1.7,0,3.3-0.8,4.4-2.2l-0.8-0.6c-0.9,1.1-2.2,1.8-3.6,1.8
	C10.7,19.5,9.5,18.9,8.7,18z"/>
<path class="st0" d="M16,4.2c-1-1.1-2.5-1.7-4-1.7c-1.7,0-3.4,0.8-4.4,2.2l0.8,0.6c0.9-1.2,2.2-1.8,3.6-1.8c1.3,0,2.5,0.6,3.3,1.5
	H13v1h4V2h-1V4.2z"/>
</svg>
