<svg version="1.1" id="Layer_1" xmlns="http://www.w3.org/2000/svg" xmlns:xlink="http://www.w3.org/1999/xlink" x="0px" y="0px"
	 viewBox="0 0 24 24" enable-background="new 0 0 24 24" xml:space="preserve">
<path class="aw-theme-iconOutline" fill="#464646" d="M23,23H1V1h15.5C20.1,1,23,3.9,23,7.5V23z M2,22h20V7.5c0-3-2.5-5.5-5.5-5.5H2V22z"/>
<path class="aw-theme-iconOutline" fill="#464646" d="M16.5,11C14.6,11,13,9.4,13,7.5S14.6,4,16.5,4S20,5.6,20,7.5S18.4,11,16.5,11z M16.5,5C15.1,5,14,6.1,14,7.5
	s1.1,2.5,2.5,2.5S19,8.9,19,7.5S17.9,5,16.5,5z"/>
</svg>
