<svg version="1.1" id="Artwork" xmlns="http://www.w3.org/2000/svg" xmlns:xlink="http://www.w3.org/1999/xlink" x="0px" y="0px"
	 width="24px" height="24px" viewBox="0 0 24 24" enable-background="new 0 0 24 24" xml:space="preserve">
<path class="aw-theme-iconOutline" fill="#464646" d="M16,8v1h4v2H1V6.4C1,6.2,1.2,6,1.4,6h4.9c0.1,0,0.3,0.1,0.3,0.1L8.2,9H11V8H8.8L7.4,5.6C7.1,5.2,6.7,5,6.2,5
	H1.4C0.6,5,0,5.6,0,6.4V24h21V8H16z M20,23H1V12h19V23z"/>
<path class="aw-theme-iconOutline" fill="#464646" d="M19.9,0.1l-0.7,0.7L21.3,3h-2.8c-3,0-5.5,2.5-5.5,5.5V10h1V8.5C14,6,16,4,18.5,4h2.8l-2.1,2.1l0.7,0.7
	l3.4-3.4L19.9,0.1z"/>
</svg>
