<?xml version="1.0" encoding="utf-8"?>
<!-- Generator: Adobe Illustrator 27.1.1, SVG Export Plug-In . SVG Version: 6.00 Build 0)  -->
<svg version="1.1" id="Layer_1" xmlns="http://www.w3.org/2000/svg" xmlns:xlink="http://www.w3.org/1999/xlink" x="0px" y="0px"
	 viewBox="0 0 24 24" style="enable-background:new 0 0 24 24;" xml:space="preserve">
<style type="text/css">
	.st0{fill:#464646;}
</style>
<path class="st0" d="M0,23h10V13H0V23z M1,14h8v8H1V14z"/>
<path class="st0" d="M12,23h10V13H12V23z M13,14h8v8h-8V14z"/>
<path class="st0" d="M23.4,1.9c-0.7,0-1.7,0.5-2.3,1.2h-3.6c-0.7-1.4-2.2-2.9-4-2.9c-0.3,0-0.5,0.2-0.5,0.5V5h-3V1H0v10h10V6h3v4.7
	c0,0.3,0.2,0.5,0.5,0.5c1.8,0,3.3-1.5,4-2.9h3.6c0.5,0.7,1.5,1.2,2.3,1.2c0.3,0,0.5-0.2,0.5-0.5V2.4C23.9,2.1,23.7,1.9,23.4,1.9z
	 M9,10H1V2h8v3H5.1v1H9V10z M23,8.4c-0.5-0.2-1-0.5-1.2-0.9c-0.1-0.1-0.2-0.2-0.4-0.2h-4.2c-0.2,0-0.4,0.1-0.5,0.3
	c-0.5,1.2-1.5,2.3-2.7,2.6V1.3c1.2,0.2,2.2,1.4,2.7,2.5C16.8,4,17,4.1,17.2,4.1h4.2c0.2,0,0.3-0.1,0.4-0.2C22,3.5,22.5,3.2,23,3V8.4
	z"/>
</svg>
