<?xml version="1.0" encoding="utf-8"?>
<!-- Generator: Adobe Illustrator 27.3.1, SVG Export Plug-In . SVG Version: 6.00 Build 0)  -->
<svg version="1.1" id="Layer_1" xmlns="http://www.w3.org/2000/svg" xmlns:xlink="http://www.w3.org/1999/xlink" x="0px" y="0px"
	 viewBox="0 0 24 24" style="enable-background:new 0 0 24 24;" xml:space="preserve">
<style type="text/css">
	.st0{fill:#464646;}
</style>
<path class="st0" d="M15.7,23.9l7-4c0.2-0.1,0.3-0.3,0.3-0.4v-8c0-0.2-0.1-0.3-0.3-0.4l-7-4c-0.2-0.1-0.3-0.1-0.5,0L14,7.8V0.5
	c0-0.2-0.1-0.3-0.3-0.4c-0.2-0.1-0.3-0.1-0.5,0l-12,7C1.1,7.2,1,7.3,1,7.5v14c0,0.2,0.1,0.3,0.2,0.4C1.3,22,1.4,22,1.5,22
	s0.2,0,0.2-0.1L8,18.3v1.2c0,0.2,0.1,0.3,0.3,0.4l7,4c0.1,0,0.2,0.1,0.2,0.1S15.7,24,15.7,23.9z M22,19.2l-6,3.4v-6.8l6-3.4V19.2z
	 M8,11.5v5.7l-6,3.5V7.8l11-6.4v7L8.3,11C8.1,11.2,8,11.3,8,11.5z M15,22.6l-6-3.4v-6.8l6,3.4V22.6z M9.5,11.5l6-3.4l6,3.4l-6,3.4
	L9.5,11.5z"/>
<path class="st0" d="M7.9,17.7"/>
<path class="st0" d="M4.1,7.2c-0.2,0.2-0.2,0.5,0,0.7c0.2,0.2,0.5,0.2,0.7,0s0.2-0.5,0-0.7C4.6,7,4.2,7,4.1,7.2z"/>
<path class="st0" d="M3.1,8.2c-0.2,0.2-0.2,0.5,0,0.7s0.5,0.2,0.7,0C4,8.7,4,8.4,3.8,8.2C3.6,8,3.2,8,3.1,8.2z"/>
<path class="st0" d="M4.1,9.3c-0.2,0.2-0.2,0.5,0,0.7c0.2,0.2,0.5,0.2,0.7,0s0.2-0.5,0-0.7C4.6,9,4.2,9,4.1,9.3z"/>
<path class="st0" d="M3.1,10.2c-0.2,0.2-0.2,0.5,0,0.7s0.5,0.2,0.7,0c0.2-0.2,0.2-0.5,0-0.7C3.6,10.1,3.3,10.1,3.1,10.2z"/>
<path class="st0" d="M4.1,11.2c-0.2,0.2-0.2,0.5,0,0.7c0.2,0.2,0.5,0.2,0.7,0s0.2-0.5,0-0.7C4.6,11.1,4.2,11.1,4.1,11.2z"/>
<path class="st0" d="M3.1,12.2c-0.2,0.2-0.2,0.5,0,0.7s0.5,0.2,0.7,0c0.2-0.2,0.2-0.5,0-0.7C3.6,12.1,3.3,12.1,3.1,12.2z"/>
<path class="st0" d="M4.1,13.3c-0.2,0.2-0.2,0.5,0,0.7c0.2,0.2,0.5,0.2,0.7,0c0.2-0.2,0.2-0.5,0-0.7C4.6,13,4.2,13,4.1,13.3z"/>
<path class="st0" d="M7.1,8.3C6.9,8.5,6.9,8.8,7.1,9s0.5,0.2,0.7,0C8,8.8,8,8.5,7.8,8.3C7.7,8,7.3,8,7.1,8.3z"/>
<path class="st0" d="M5.1,8.2c-0.2,0.2-0.2,0.5,0,0.7s0.5,0.2,0.7,0s0.2-0.5,0-0.7C5.6,8,5.2,8,5.1,8.2z"/>
<path class="st0" d="M6.1,9.3c-0.2,0.2-0.2,0.5,0,0.7s0.5,0.2,0.7,0s0.2-0.5,0-0.7C6.6,9,6.3,9,6.1,9.3z"/>
<path class="st0" d="M5.1,10.2c-0.2,0.2-0.2,0.5,0,0.7s0.5,0.2,0.7,0s0.2-0.5,0-0.7C5.6,10.1,5.2,10.1,5.1,10.2z"/>
<path class="st0" d="M6.2,11.2c-0.2,0.2-0.2,0.5,0,0.7s0.5,0.2,0.7,0s0.2-0.5,0-0.7C6.6,11,6.4,11,6.2,11.2z"/>
<path class="st0" d="M5.2,12.2c-0.2,0.2-0.2,0.5,0,0.7s0.5,0.2,0.7,0s0.2-0.5,0-0.7C5.6,12.1,5.2,12.1,5.2,12.2z"/>
<path class="st0" d="M6.2,13.3C6,13.5,6,13.8,6.2,14c0.2,0.2,0.5,0.2,0.7,0c0.2-0.2,0.2-0.5,0-0.7C6.6,13,6.4,13,6.2,13.3z"/>
<path class="st0" d="M8.1,9.2c-0.2,0.2-0.2,0.5,0,0.7c0.2,0.2,0.5,0.2,0.7,0s0.2-0.5,0-0.7C8.6,9,8.3,9,8.1,9.2z"/>
<path class="st0" d="M7.1,10.2c-0.2,0.2-0.2,0.5,0,0.7c0.3,0.2,0.6,0.2,0.8,0s0.2-0.5,0-0.7C7.7,10,7.4,10,7.1,10.2z"/>
<path class="st0" d="M8.1,11.2c-0.2,0.2-0.2,0.5,0,0.7c0.2,0.2,0.5,0.2,0.7,0s0.2-0.5,0-0.7C8.5,11.1,8.3,11.1,8.1,11.2z"/>
<path class="st0" d="M7,12.2c-0.2,0.2-0.3,0.5,0,0.7s0.6,0.2,0.8,0c0.2-0.2,0.2-0.5,0-0.7C7.6,12,7.3,12,7,12.2z"/>
<path class="st0" d="M9.1,10.2c-0.2,0.2-0.2,0.5,0,0.7s0.5,0.2,0.7,0s0.2-0.5,0-0.7C9.6,10,9.3,10,9.1,10.2z"/>
<path class="st0" d="M5.1,14.2c-0.2,0.2-0.2,0.5,0,0.7s0.5,0.2,0.7,0s0.2-0.5,0-0.7S5.3,14.1,5.1,14.2z"/>
<path class="st0" d="M7.1,14.3c-0.2,0.2-0.2,0.5,0,0.7s0.5,0.2,0.7,0c0.2-0.3,0.2-0.6,0-0.8C7.6,14,7.3,14,7.1,14.3z"/>
<path class="st0" d="M8.1,13.2c-0.2,0.2-0.2,0.5,0,0.7c0.2,0.2,0.5,0.2,0.7,0s0.2-0.5,0-0.7C8.6,13,8.3,13,8.1,13.2z"/>
<path class="st0" d="M6.2,15.2c-0.2,0.2-0.2,0.5,0,0.7c0.2,0.2,0.5,0.2,0.7,0c0.2-0.2,0.2-0.5,0-0.7C6.6,15.1,6.4,15.1,6.2,15.2z"/>
<path class="st0" d="M8.1,15.2c-0.2,0.2-0.2,0.5,0,0.7c0.2,0.2,0.5,0.2,0.7,0c0.2-0.2,0.2-0.5,0-0.7S8.3,15,8.1,15.2z"/>
<path class="st0" d="M7.1,16.2c-0.2,0.2-0.2,0.5,0,0.7s0.5,0.2,0.7,0c0.2-0.2,0.2-0.5,0-0.7C7.7,16,7.3,16,7.1,16.2z"/>
<path class="st0" d="M6.1,17.2c-0.2,0.2-0.2,0.5,0,0.7s0.5,0.2,0.7,0s0.2-0.5,0-0.7C6.6,17.1,6.3,17.1,6.1,17.2z"/>
<path class="st0" d="M5.1,18.2c-0.2,0.2-0.2,0.5,0,0.7s0.5,0.2,0.7,0s0.2-0.5,0-0.7C5.6,18.1,5.3,18.1,5.1,18.2z"/>
<path class="st0" d="M7.2,6.2C7,6.5,7,6.7,7.2,7c0.1,0.1,0.5,0.1,0.6,0C8,6.7,8,6.5,7.8,6.2C7.6,6.1,7.3,6.1,7.2,6.2z"/>
<path class="st0" d="M8.1,7.2c-0.2,0.2-0.2,0.5,0,0.7c0.2,0.2,0.5,0.2,0.7,0s0.2-0.5,0-0.7C8.6,7,8.3,7,8.1,7.2z"/>
<path class="st0" d="M8.2,5.3C8,5.5,8,5.8,8.2,6s0.5,0.2,0.7,0s0.2-0.5,0-0.7C8.7,5.1,8.4,5.1,8.2,5.3z"/>
<path class="st0" d="M10.2,7.3C10,7.5,10,7.8,10.2,8c0.2,0.2,0.5,0.2,0.7,0s0.2-0.5,0-0.7C10.7,7.1,10.4,7.1,10.2,7.3z"/>
<path class="st0" d="M7.1,4.3C6.9,4.5,6.9,4.8,7.1,5s0.5,0.2,0.7,0C8,4.8,8,4.4,7.8,4.2C7.6,4,7.3,4,7.1,4.3z"/>
<path class="st0" d="M2.1,15.3c-0.2,0.2-0.2,0.5,0,0.7c0.2,0.2,0.5,0.2,0.7,0c0.2-0.3,0.2-0.6,0-0.8S2.3,15,2.1,15.3z"/>
<path class="st0" d="M9.2,6.3C9,6.5,9,6.8,9.2,7s0.5,0.2,0.7,0s0.2-0.5,0-0.7C9.7,6.1,9.4,6.1,9.2,6.3z"/>
<path class="st0" d="M2.2,13.2c-0.2,0.2-0.2,0.5,0,0.7s0.5,0.2,0.7,0s0.2-0.5,0-0.7C2.6,13.1,2.4,13.1,2.2,13.2z"/>
<path class="st0" d="M9.2,8.3C9,8.5,9,8.8,9.2,9s0.5,0.2,0.7,0s0.2-0.5,0-0.7C9.7,8.1,9.3,8.1,9.2,8.3z"/>
<path class="st0" d="M2.1,17.2c-0.2,0.2-0.2,0.5,0,0.7s0.5,0.2,0.7,0s0.2-0.5,0-0.7S2.3,17,2.1,17.2z"/>
<path class="st0" d="M11.1,8.3c-0.2,0.2-0.2,0.5,0,0.7s0.5,0.2,0.7,0s0.2-0.5,0-0.7S11.3,8.1,11.1,8.3z"/>
<path class="st0" d="M3.1,16.2c-0.2,0.2-0.2,0.5,0,0.7s0.5,0.2,0.7,0c0.2-0.2,0.2-0.5,0-0.7C3.6,16,3.3,16,3.1,16.2z"/>
<path class="st0" d="M2.2,11.2c-0.2,0.2-0.2,0.5,0,0.7s0.5,0.2,0.7,0s0.2-0.5,0-0.7C2.6,11.1,2.4,11.1,2.2,11.2z"/>
<path class="st0" d="M3.1,14.2c-0.2,0.2-0.2,0.5,0,0.7s0.5,0.2,0.7,0c0.2-0.2,0.2-0.5,0-0.7C3.5,14,3.3,14,3.1,14.2z"/>
<path class="st0" d="M10.1,9.3c-0.2,0.2-0.2,0.5,0,0.7s0.5,0.2,0.7,0c0.2-0.2,0.2-0.5,0-0.7C10.6,9.1,10.2,9.1,10.1,9.3z"/>
<path class="st0" d="M3.1,18.2c-0.2,0.2-0.2,0.5,0,0.7s0.5,0.2,0.7,0c0.2-0.2,0.2-0.5,0-0.7C3.6,18,3.3,18,3.1,18.2z"/>
<path class="st0" d="M4.1,19.2c-0.2,0.2-0.2,0.5,0,0.7c0.2,0.2,0.5,0.2,0.7,0s0.2-0.5,0-0.7C4.6,19.1,4.3,19.1,4.1,19.2z"/>
<path class="st0" d="M4.1,17.2c-0.2,0.2-0.2,0.5,0,0.7c0.2,0.2,0.5,0.2,0.7,0s0.2-0.5,0-0.7S4.3,17,4.1,17.2z"/>
<path class="st0" d="M2.2,9.2C2,9.4,2,9.7,2.2,9.9s0.5,0.2,0.7,0s0.2-0.5,0-0.7C2.6,8.9,2.4,9,2.2,9.2z"/>
<path class="st0" d="M4.2,15.2c-0.2,0.2-0.2,0.5,0,0.7c0.2,0.2,0.5,0.2,0.7,0c0.2-0.2,0.2-0.5,0-0.7C4.6,15.1,4.4,15.1,4.2,15.2z"/>
<path class="st0" d="M2.2,19.3C2,19.5,2,19.8,2.2,20s0.5,0.2,0.7,0s0.2-0.5,0-0.7C2.6,19.1,2.4,19.1,2.2,19.3z"/>
<path class="st0" d="M5.1,6.3C4.9,6.5,4.9,6.8,5.1,7s0.5,0.3,0.7,0s0.2-0.5,0-0.8C5.6,6.1,5.3,6,5.1,6.3z"/>
<path class="st0" d="M5.1,16.2c-0.2,0.2-0.2,0.5,0,0.7s0.5,0.2,0.7,0s0.2-0.5,0-0.7C5.6,16,5.2,16,5.1,16.2z"/>
<path class="st0" d="M2.1,7.3C1.9,7.5,1.9,7.8,2.1,8s0.5,0.2,0.7,0s0.2-0.5,0-0.7C2.6,7,2.3,7.1,2.1,7.3z"/>
<path class="st0" d="M6.1,7.3C5.9,7.5,5.9,7.8,6.1,8s0.5,0.3,0.7,0s0.2-0.5,0-0.8C6.6,7.1,6.3,7.1,6.1,7.3z"/>
<path class="st0" d="M6.1,5.3C5.9,5.5,5.9,5.8,6.1,6s0.5,0.2,0.7,0C7,5.7,7,5.5,6.8,5.2C6.6,5,6.3,5.1,6.1,5.3z"/>
<path class="st0" d="M9.1,4.2c-0.2,0.2-0.2,0.5,0,0.7s0.5,0.1,0.7,0s0.2-0.5,0-0.6C9.6,4.1,9.3,4,9.1,4.2z"/>
<path class="st0" d="M11.2,6.3C11,6.5,11,6.8,11.2,7c0.2,0.2,0.5,0.2,0.7,0s0.2-0.5,0-0.7S11.4,6.1,11.2,6.3z"/>
<path class="st0" d="M10.1,5.2c-0.2,0.2-0.2,0.5,0,0.7s0.5,0.2,0.7,0c0.2-0.1,0.2-0.5,0-0.6C10.6,5.1,10.3,5,10.1,5.2z"/>
<path class="st0" d="M12.1,7.3c-0.2,0.2-0.2,0.5,0,0.7s0.5,0.2,0.7,0s0.2-0.5,0-0.7S12.3,7.1,12.1,7.3z"/>
<path class="st0" d="M11.2,4.2c-0.2,0.2-0.2,0.5,0,0.7c0.2,0.2,0.5,0.2,0.7,0s0.2-0.5,0-0.7C11.7,4,11.4,4,11.2,4.2z"/>
<path class="st0" d="M10.2,3.2c-0.2,0.2-0.2,0.5,0,0.7c0.2,0.2,0.5,0.2,0.7,0c0.2-0.2,0.2-0.5,0-0.7C10.7,3,10.4,3,10.2,3.2z"/>
<path class="st0" d="M12.1,5.2c-0.2,0.2-0.2,0.5,0,0.7s0.5,0.2,0.7,0c0.2-0.2,0.2-0.5,0-0.7C12.6,5,12.3,5,12.1,5.2z"/>
<path class="st0" d="M12.2,3.2c-0.2,0.2-0.2,0.5,0,0.7c0.2,0.2,0.5,0.2,0.7,0c0.2-0.2,0.2-0.5,0-0.7S12.4,3,12.2,3.2z"/>
<path class="st0" d="M11.1,2.2c-0.2,0.2-0.2,0.5,0,0.7s0.5,0.2,0.7,0c0.2-0.2,0.2-0.5,0-0.7C11.6,2,11.3,2,11.1,2.2z"/>
</svg>
