<svg version="1.1" id="Layer_1" xmlns="http://www.w3.org/2000/svg" xmlns:xlink="http://www.w3.org/1999/xlink" x="0px" y="0px"
	 viewBox="0 0 24 24" enable-background="new 0 0 24 24" xml:space="preserve">
<polygon class="aw-theme-iconOutline" fill="#464646" points="9.3,16 7,14.6 7,12 6,12 6,14.1 4.2,13.1 3.7,13.9 6,15.2 6,18 7,18 7,15.8 8.8,16.8 "/>
<path class="aw-theme-iconOutline" fill="#464646" d="M21.8,6.1l-10-6c-0.2-0.1-0.4-0.1-0.5,0l-10,6C1.1,6.2,1,6.3,1,6.5v11c0,0.2,0.1,0.3,0.2,0.4l10,6
	c0.1,0,0.2,0.1,0.3,0.1s0.2,0,0.3-0.1l10-6c0.2-0.1,0.2-0.3,0.2-0.4v-11C22,6.3,21.9,6.2,21.8,6.1z M11.5,1.1l9,5.4l-9,5.4l-9-5.4
	L11.5,1.1z M2,7.4l9,5.4v9.8l-9-5.4V7.4z M12,22.6v-9.8l9-5.4v9.8L12,22.6z"/>
</svg>
