<?xml version="1.0" encoding="utf-8"?>
<!-- Generator: Adobe Illustrator 27.2.0, SVG Export Plug-In . SVG Version: 6.00 Build 0)  -->
<svg version="1.1" id="Artwork" xmlns="http://www.w3.org/2000/svg" xmlns:xlink="http://www.w3.org/1999/xlink" x="0px" y="0px"
	 viewBox="0 0 24 24" style="enable-background:new 0 0 24 24;" xml:space="preserve">
<style type="text/css">
	.st0{fill:#464646;}
</style>
<path class="st0" d="M22.5,6L12.4,0.1c-0.2-0.1-0.5-0.1-0.7,0L1.5,6v12.1l10.1,5.8c0.3,0.2,0.6,0.2,0.9,0l5-2.9h0.1V21l5-2.9L22.5,6
	z M12,1.1l9,5.2l-3.9,2.3l-9-5.2L12,1.1z M11.5,22.7l-9-5.2V7.1l9,5.2V22.7z M12,11.5L3,6.3l4.1-2.4l9,5.2L12,11.5z M21.5,17.5
	l-4,2.3V17h-1v3.4l-4,2.3V12.3l4-2.3v3h1V9.5l4-2.3V17.5z"/>
</svg>
