<svg version="1.1" id="Artwork" xmlns="http://www.w3.org/2000/svg" xmlns:xlink="http://www.w3.org/1999/xlink" x="0px" y="0px"
	 width="16px" height="16px" viewBox="0 0 16 16" enable-background="new 0 0 16 16" xml:space="preserve">
<path class="aw-theme-iconOutline" fill="#464646" d="M11.7,5H7v11h9V9.3L11.7,5z M12,6.7L14.3,9H12V6.7z M8,15V6h3v4h4v5H8z"/>
<path class="aw-theme-iconOutline" fill="#464646" d="M8.9,2C8.7,1.4,8.2,1,7.5,1H7c0-0.6-0.4-1-1-1H5C4.4,0,4,0.4,4,1H3.5C2.8,1,2.3,1.4,2.1,2H0v14h6v-1H1V3h1v1
	h7V3h1v1h1V2H8.9z M8,3H3V2.5C3,2.2,3.2,2,3.5,2H5V1h1v1h1.5C7.8,2,8,2.2,8,2.5V3z"/>
</svg>
