<?xml version="1.0" encoding="utf-8"?>
<!-- Generator: Adobe Illustrator 27.1.1, SVG Export Plug-In . SVG Version: 6.00 Build 0)  -->
<svg version="1.1" id="Layer_1" xmlns="http://www.w3.org/2000/svg" xmlns:xlink="http://www.w3.org/1999/xlink" x="0px" y="0px"
	 viewBox="0 0 32 32" style="enable-background:new 0 0 32 32;" xml:space="preserve">
<style type="text/css">
	.st0{fill:#464646;}
</style>
<path class="st0" d="M22.5,10.9c-4.6,0-9.5,0.9-9.5,2.8l0,0c0,0.1,0,0.2,0,0.3c0.1,0.2,0.2,0.4,0.4,0.6l6.6,9.9v7
	c0,0.1,0.1,0.3,0.3,0.4c0,0.1,0.1,0.1,0.2,0.1s0.2,0,0.3-0.2l4-2.6c0.1-0.1,0.2-0.2,0.2-0.4v-4.3l6.6-9.9c0.2-0.2,0.3-0.4,0.4-0.6
	c0-0.1,0.1-0.2,0.1-0.3l0,0l0,0C32,11.8,27.1,10.9,22.5,10.9z M22.5,12c5.3,0,8.2,1.1,8.5,1.7l-0.4,0.6c-1,0.6-3.7,1.4-8.1,1.4
	s-7.1-0.7-8.1-1.4L14,13.7C14.3,13.1,17.2,12,22.5,12z M24.1,24C24,24.1,24,24.2,24,24.3v4.2l-3,2v-6.2c0-0.1,0-0.2-0.1-0.3
	l-5.6-8.4c1.9,0.6,4.6,0.9,7.2,0.9s5.3-0.3,7.2-0.9L24.1,24z"/>
<path class="st0" d="M10,0v4H2.9C2.7,3.4,2.1,3,1.5,3C0.7,3,0,3.7,0,4.5S0.7,6,1.5,6c0.6,0,1.2-0.4,1.4-1H10v4h22V0H10z M1.5,5
	C1.2,5,1,4.8,1,4.5S1.2,4,1.5,4S2,4.2,2,4.5S1.8,5,1.5,5z M31,8H11V1h20V8z"/>
</svg>
