<?xml version="1.0" encoding="utf-8"?>
<!-- Generator: Adobe Illustrator 27.1.1, SVG Export Plug-In . SVG Version: 6.00 Build 0)  -->
<svg version="1.1" id="Layer_1" xmlns="http://www.w3.org/2000/svg" xmlns:xlink="http://www.w3.org/1999/xlink" x="0px" y="0px"
	 viewBox="0 0 32 32" style="enable-background:new 0 0 32 32;" xml:space="preserve">
<style type="text/css">
	.st0{fill:#464646;}
</style>
<path class="st0" d="M0,30h13V17H0V30z M1,18h11v11H1V18z"/>
<path class="st0" d="M15,30h13V17H15V30z M16,18h11v11H16V18z"/>
<path class="st0" d="M31.5,2.4c-1.1,0-2.5,0.7-3.2,1.6H23c-1.4-2.5-3.4-4-5.5-4C17.2,0,17,0.2,17,0.5V7h-4V2H0v13h13V8h4v6.5
	c0,0.3,0.2,0.5,0.5,0.5c2.5,0,4.5-2.1,5.5-3.9h5.3c0.7,0.8,2,1.6,3.2,1.6c0.2,0,0.3,0,0.4-0.1c0-0.1,0.1-0.3,0.1-0.4V2.9
	C32,2.6,31.8,2.4,31.5,2.4z M12,14H1V3h11v4H7v1h5V14z M31.1,11.6c-0.8-0.2-1.6-0.8-2.1-1.4c-0.1-0.1-0.2-0.2-0.4-0.2h-5.9
	c-0.2,0-0.4,0.1-0.5,0.3C21.4,12,19.8,13.7,18,14V1c1.9,0.3,3.4,2.1,4.2,3.7c0,0.2,0.2,0.3,0.4,0.3h5.9c0.2,0,0.4-0.1,0.6-0.3
	c0.3-0.5,1.2-1.1,2-1.3V11.6z"/>
</svg>
