<?xml version="1.0" encoding="utf-8"?>
<!-- Generator: Adobe Illustrator 27.3.1, SVG Export Plug-In . SVG Version: 6.00 Build 0)  -->
<svg version="1.1" id="Layer_1" xmlns="http://www.w3.org/2000/svg" xmlns:xlink="http://www.w3.org/1999/xlink" x="0px" y="0px"
	 viewBox="0 0 24 24" style="enable-background:new 0 0 24 24;" xml:space="preserve">
<style type="text/css">
	.st0{fill:#464646;}
</style>
<path class="st0" d="M4.9,3.6L4.3,2.8c-0.5,0.5-1,0.9-1.5,1.5L3.6,5C4,4.5,4.4,4,4.9,3.6z"/>
<path class="st0" d="M2.5,6.5L1.6,6C1.2,6.6,0.9,7.3,0.7,7.9l0.9,0.3C1.9,7.7,2.1,7.1,2.5,6.5z"/>
<path class="st0" d="M10.5,23.3l0.9,0.5c0.2-0.3,0.3-0.6,0.5-0.9L11,22.4C10.8,22.7,10.7,23,10.5,23.3z"/>
<path class="st0" d="M2.5,12.5l-0.4,0.9c0.6,0.2,1.3,0.4,1.9,0.6l0.3-1C3.7,12.9,3.1,12.7,2.5,12.5z"/>
<path class="st0" d="M7.9,23.3c0.7,0.2,1.3,0.4,2,0.5l0.2-1c-0.6-0.1-1.3-0.3-1.9-0.5L7.9,23.3z"/>
<path class="st0" d="M4.3,21.2c0.5,0.4,1.1,0.9,1.7,1.2l0.5-0.9c-0.6-0.3-1.1-0.7-1.6-1.1L4.3,21.2z"/>
<path class="st0" d="M1.6,18c0.3,0.6,0.8,1.2,1.2,1.7l0.8-0.6c-0.4-0.5-0.8-1-1.1-1.6L1.6,18z"/>
<path class="st0" d="M1.2,10.1l-1-0.2C0.1,10.6,0,11.3,0,12v0l1,0C1,11.4,1.1,10.7,1.2,10.1z"/>
<path class="st0" d="M8.2,1.7L7.9,0.7C7.2,1,6.6,1.3,6,1.6l0.5,0.9C7,2.2,7.6,1.9,8.2,1.7z"/>
<path class="st0" d="M10.1,1.2c0.2,0,0.4-0.1,0.6-0.1c0.1,0.2,0.2,0.3,0.3,0.5l0.9-0.4c0-0.1-0.1-0.1-0.1-0.2c0.1,0,0.1,0,0.2,0V0
	c-0.7,0-1.4,0.1-2.1,0.2L10.1,1.2z"/>
<path class="st0" d="M13.9,22.8C13.3,22.9,12.7,23,12,23v1c0.7,0,1.4-0.1,2.1-0.2L13.9,22.8z"/>
<path class="st0" d="M16.1,0.7c-0.7-0.2-1.3-0.4-2-0.5l-0.2,1c0.6,0.1,1.3,0.3,1.9,0.5L16.1,0.7z"/>
<path class="st0" d="M22.8,13.9l1,0.2c0.1-0.7,0.2-1.4,0.2-2.1v0l-1,0C23,12.6,22.9,13.3,22.8,13.9z"/>
<path class="st0" d="M19.7,2.8c-0.5-0.4-1.1-0.8-1.7-1.2l-0.5,0.9C18,2.8,18.5,3.1,19,3.5L19.7,2.8z"/>
<path class="st0" d="M1.2,13.9l-1,0.2c0.1,0.7,0.3,1.4,0.5,2l0.9-0.3C1.4,15.2,1.3,14.6,1.2,13.9z"/>
<path class="st0" d="M21.2,4.3l-0.8,0.6c0.4,0.5,0.8,1,1.1,1.6L22.4,6C22,5.4,21.6,4.8,21.2,4.3z"/>
<path class="st0" d="M19.1,20.4l0.6,0.8c0.5-0.4,1-0.9,1.5-1.5l-0.8-0.6C20,19.6,19.6,20,19.1,20.4z"/>
<path class="st0" d="M21.5,17.5l0.9,0.5c0.3-0.6,0.6-1.2,0.9-1.9l-0.9-0.3C22.1,16.4,21.9,16.9,21.5,17.5z"/>
<path class="st0" d="M19.7,12.5c-0.2,0.1-0.5,0.2-0.8,0.3c0.4-3.8-2.3-7.2-6-7.7L13.2,5c-0.2-0.7-0.4-1.3-0.6-1.9l-0.9,0.3
	C11.8,3.9,12,4.5,12.1,5c0,0-0.1,0-0.1,0c-3.9,0-7,3.1-7,7s3.1,7,7,7c0.1,0,0.1,0,0.2,0c-0.1,0.5-0.3,1.1-0.5,1.6l0.9,0.3
	c0.2-0.6,0.4-1.3,0.6-1.9l-0.2,0c2.7-0.4,5-2.4,5.7-5.1c0.5-0.1,0.9-0.3,1.4-0.5L19.7,12.5z M17.9,13.1L17.9,13.1
	c-0.5,2.8-3,4.9-5.9,4.9c-2.3,0-4.4-1.3-5.4-3.4c0.5,0.1,1,0.2,1.5,0.2l0.1-1c-0.7-0.1-1.3-0.2-1.9-0.3l0,0c-0.9-3.2,1-6.5,4.2-7.4
	c3.2-0.9,6.5,1,7.4,4.2C18,11.3,18.1,12.2,17.9,13.1z"/>
<path class="st0" d="M21.5,11.7l0.5,0.9c0.6-0.3,1.2-0.7,1.8-1.1l-0.6-0.8C22.6,11,22.1,11.4,21.5,11.7z"/>
<path class="st0" d="M22.3,8.2c0.2,0.6,0.4,1.2,0.5,1.8l1-0.2c-0.1-0.7-0.3-1.4-0.5-2L22.3,8.2z"/>
<path class="st0" d="M11.1,14c-0.3,0-0.6,0-1,0l0,1c0.3,0,0.7,0,1,0c0.3,0,0.7,0,1,0l0-1C11.8,14,11.4,14,11.1,14z"/>
<path class="st0" d="M13.9,9c-0.1-0.7-0.2-1.3-0.3-2l-1,0.2c0.1,0.6,0.2,1.3,0.3,1.9L13.9,9z"/>
<path class="st0" d="M12.6,16.8l1,0.2c0.1-0.6,0.2-1.3,0.3-2l-1-0.1C12.8,15.6,12.7,16.2,12.6,16.8z"/>
<path class="st0" d="M14,13.8l0.1,1c0.7-0.1,1.4-0.2,2-0.3l-0.2-1C15.4,13.7,14.7,13.8,14,13.8z"/>
<path class="st0" d="M13,11c0,0.3,0,0.7,0,1c0,0.3,0,0.6,0,0.9l1,0c0-0.3,0-0.6,0-1c0-0.3,0-0.7,0-1L13,11z"/>
<path class="st0" d="M15.8,22.3l0.3,0.9c0.7-0.2,1.3-0.5,1.9-0.9l-0.5-0.9C17,21.8,16.4,22.1,15.8,22.3z"/>
</svg>
