<?xml version="1.0" encoding="utf-8"?>
<!-- Generator: Adobe Illustrator 27.1.1, SVG Export Plug-In . SVG Version: 6.00 Build 0)  -->
<svg version="1.1" id="Layer_1" xmlns="http://www.w3.org/2000/svg" xmlns:xlink="http://www.w3.org/1999/xlink" x="0px" y="0px"
	 viewBox="0 0 32 32" style="enable-background:new 0 0 32 32;" xml:space="preserve">
<style type="text/css">
	.st0{fill:#464646;}
</style>
<path class="st0" d="M11,15H2.9c-0.2-0.6-0.8-1-1.4-1C0.7,14,0,14.7,0,15.5C0,16.3,0.7,17,1.5,17c0.6,0,1.2-0.4,1.4-1H11v4h21v-9H11
	V15z M1.5,16C1.2,16,1,15.8,1,15.5S1.2,15,1.5,15S2,15.2,2,15.5S1.8,16,1.5,16z M12,12h19v7H12V12z"/>
<path class="st0" d="M11,26H2.9c-0.2-0.6-0.8-1-1.4-1C0.7,25,0,25.7,0,26.5S0.7,28,1.5,28c0.6,0,1.2-0.4,1.4-1H11v4h21v-9H11V26z
	 M1.5,27C1.2,27,1,26.8,1,26.5S1.2,26,1.5,26S2,26.2,2,26.5S1.8,27,1.5,27z M12,23h19v7H12V23z"/>
<path class="st0" d="M11,0v4H2.9C2.7,3.4,2.1,3,1.5,3C0.7,3,0,3.7,0,4.5S0.7,6,1.5,6c0.6,0,1.2-0.4,1.4-1H11v4h21V0H11z M1.5,5
	C1.2,5,1,4.8,1,4.5S1.2,4,1.5,4S2,4.2,2,4.5S1.8,5,1.5,5z M31,8H12V1h19V8z"/>
</svg>
