<?xml version="1.0" encoding="utf-8"?>
<!-- Generator: Adobe Illustrator 27.3.1, SVG Export Plug-In . SVG Version: 6.00 Build 0)  -->
<svg version="1.1" id="Layer_1" xmlns="http://www.w3.org/2000/svg" xmlns:xlink="http://www.w3.org/1999/xlink" x="0px" y="0px"
	 viewBox="0 0 24 24" style="enable-background:new 0 0 24 24;" xml:space="preserve">
<style type="text/css">
	.st0{fill:#464646;}
</style>
<polygon class="st0" points="16.5,19.2 14.7,17.2 14,17.8 16.5,20.8 20.9,14.8 20.1,14.2 "/>
<path class="st0" d="M19,11.2c1.4-1.6,2-3.2,2-4.5c0.6-0.3,1-1,1-1.7c0-1.1-0.9-2-2-2c-0.7,0-1.3,0.4-1.7,1c-1-0.2-2.1-0.2-3.4,0
	C14,1.5,12.6,0,11,0S8,1.5,7.1,4C5.8,3.8,4.7,3.8,3.7,4C3.3,3.4,2.7,3,2,3C0.9,3,0,3.9,0,5c0,0.7,0.4,1.4,1,1.7
	C0.9,8,1.6,9.5,2.8,11c-0.8,1-1.4,2.1-1.7,3c-0.3,1-0.2,1.8,0.2,2.5c0.6,1.1,2,1.7,3.8,1.7c0.6,0,1.2-0.1,1.9-0.2
	c0.2,0.5,0.4,1,0.6,1.4C7.3,19.8,7,20.4,7,21c0,1.1,0.9,2,2,2c0.7,0,1.4-0.4,1.7-1c0.1,0,0.2,0,0.3,0c0.5,0,1-0.2,1.4-0.4
	c1.2,1.5,3,2.4,5.1,2.4c3.6,0,6.5-2.9,6.5-6.5C24,14.4,21.9,11.9,19,11.2z M1,5c0-0.6,0.4-1,1-1s1,0.4,1,1S2.6,6,2,6S1,5.6,1,5z
	 M2.2,16c-0.2-0.4-0.3-1-0.1-1.7c0.2-0.8,0.7-1.6,1.4-2.5c0.8,0.8,1.7,1.6,2.7,2.4c0.1,1,0.3,2,0.6,2.9C4.6,17.4,2.8,17.1,2.2,16z
	 M6.1,12.8c-0.7-0.6-1.4-1.2-1.9-1.8c0.6-0.6,1.2-1.2,1.9-1.8C6,9.8,6,10.4,6,11S6,12.2,6.1,12.8z M6.2,7.9c-1,0.7-1.9,1.5-2.7,2.4
	C2.6,9.1,2,7.9,2,7c1.1,0,2-0.9,2-2V4.9c0.8-0.2,1.8-0.2,2.8,0C6.5,5.8,6.3,6.8,6.2,7.9z M20,4c0.6,0,1,0.4,1,1s-0.4,1-1,1
	s-1-0.4-1-1S19.4,4,20,4z M18,4.9C18,6.1,18.9,7,20,7c0,0.9-0.6,2.1-1.5,3.2c-0.8-0.8-1.7-1.6-2.7-2.4c-0.1-1.1-0.3-2.1-0.6-2.9
	C16.3,4.8,17.2,4.8,18,4.9z M15.9,9.2c0.7,0.6,1.3,1.2,1.9,1.8c-0.1,0-0.2,0-0.3,0c-0.5,0-1,0.1-1.5,0.2c0-0.1,0-0.1,0-0.2
	C16,10.4,16,9.8,15.9,9.2z M14.7,7.1c-0.3-0.2-1.9-1.1-2.4-1.4c0.7-0.2,1.3-0.5,1.9-0.6C14.4,5.7,14.5,6.4,14.7,7.1z M11,1
	c1,0,2.1,1.2,2.9,3.2C13,4.4,12,4.7,11,5.2c-1-0.4-2-0.7-2.9-1C8.9,2.2,10,1,11,1z M7.8,5.1c0.6,0.1,1.3,0.4,1.9,0.6
	C9.3,6,8.8,6.2,8.4,6.5C8,6.7,7.7,6.9,7.3,7.1C7.4,6.4,7.6,5.7,7.8,5.1z M7,11c0-0.9,0.1-1.8,0.1-2.6C7.7,8,8.3,7.7,8.9,7.3
	c0.7-0.4,1.4-0.8,2.1-1.1c0.7,0.3,1.4,0.7,2.1,1.1c0.6,0.3,1.2,0.7,1.7,1.1C14.9,9.2,15,10.1,15,11c0,0.2,0,0.3,0,0.5
	c-0.4,0.2-0.9,0.4-1.2,0.7c0.2-0.4,0.3-0.8,0.3-1.2C14,9.3,12.7,8,11,8s-3,1.3-3,3s1.3,3,3,3c0.4,0,0.8-0.1,1.2-0.3
	c-0.4,0.6-0.9,2.1-0.9,2.1c-0.7-0.3-1.7-0.8-2.4-1.2c-0.6-0.3-1.2-0.7-1.7-1.1C7.1,12.7,7,11.9,7,11z M13,11c0,1.1-0.9,2-2,2
	s-2-0.9-2-2s0.9-2,2-2S13,9.9,13,11z M7.3,15c0.3,0.2,2,1,2.4,1.3c-0.7,0.2-1.3,0.4-1.9,0.6C7.6,16.3,7.5,15.6,7.3,15z M9,22
	c-0.6,0-1-0.4-1-1s0.4-1,1-1s1,0.4,1,1S9.6,22,9,22z M11,21c0-1.1-0.9-2-2-2c-0.1,0-0.2,0-0.3,0c-0.2-0.4-0.4-0.8-0.6-1.2
	c0.9-0.2,1.9-0.6,2.9-1c0,0.2,0,0.4,0,0.6c0,1.2,0.3,2.3,0.9,3.2C11.6,20.9,11.3,21,11,21z M17.5,23c-3,0-5.5-2.5-5.5-5.5
	s2.5-5.5,5.5-5.5s5.5,2.5,5.5,5.5S20.5,23,17.5,23z"/>
</svg>
