<?xml version="1.0" encoding="utf-8"?>
<!-- Generator: Adobe Illustrator 27.1.1, SVG Export Plug-In . SVG Version: 6.00 Build 0)  -->
<svg version="1.1" id="Layer_1" xmlns="http://www.w3.org/2000/svg" xmlns:xlink="http://www.w3.org/1999/xlink" x="0px" y="0px"
	 viewBox="0 0 24 24" style="enable-background:new 0 0 24 24;" xml:space="preserve">
<style type="text/css">
	.st0{fill:#464646;}
</style>
<path class="st0" d="M24,9.8C23.3,8.4,19.3,8,16.8,8c-2.7,0-7.3,0.5-7.3,2.2c0,0.3,0.2,0.6,0.5,0.9l4.8,7.2v5.2
	c0,0.1,0.1,0.3,0.3,0.4c0,0.1,0.1,0.1,0.2,0.1c0.1,0,0.2,0,0.3,0l3-2c0.1-0.1,0.2-0.2,0.2-0.4v-3.2l4.9-7.4c0.1-0.1,0.2-0.2,0.3-0.4
	c0.1-0.1,0.1-0.3,0.1-0.4S24.1,9.9,24,9.8z M16.8,9c3.8,0,6,0.7,6.3,1.2l-0.2,0.2c-0.6,0.4-2.8,1-6.1,1c-3.2,0-5.3-0.5-6-0.9
	l-0.2-0.3C10.9,9.7,13.2,9,16.8,9z M17.9,17.9c-0.1,0.1-0.1,0.2-0.1,0.3v3.1l-2,1.3v-4.5c0-0.1,0-0.2-0.1-0.3l-4-6
	c1.6,0.4,3.6,0.6,5.1,0.6s3.6-0.2,5.2-0.6L17.9,17.9z"/>
<path class="st0" d="M24,7V0H7v3H2.9C2.7,2.4,2.1,2,1.5,2C0.7,2,0,2.7,0,3.5S0.7,5,1.5,5c0.6,0,1.2-0.4,1.4-1H7v3H24z M1.5,4
	C1.2,4,1,3.8,1,3.5S1.2,3,1.5,3S2,3.2,2,3.5S1.8,4,1.5,4z M8,3V1h15v5H8V4V3z"/>
</svg>
