<?xml version="1.0" encoding="utf-8"?>
<!-- Generator: Adobe Illustrator 27.3.1, SVG Export Plug-In . SVG Version: 6.00 Build 0)  -->
<svg version="1.1" id="Layer_1" xmlns="http://www.w3.org/2000/svg" xmlns:xlink="http://www.w3.org/1999/xlink" x="0px" y="0px"
	 viewBox="0 0 24 24" style="enable-background:new 0 0 24 24;" xml:space="preserve">
<style type="text/css">
	.st0{fill:#464646;}
</style>
<path class="st0" d="M22.7,4.1l-7-4c-0.2-0.1-0.3-0.1-0.5,0l-7,4C8.1,4.2,8,4.3,8,4.5V6L1.7,2.4c-0.2-0.1-0.3-0.1-0.5,0
	C1.1,2.5,1,2.7,1,2.9v13.7c0,0.2,0.1,0.3,0.3,0.4l12,6.9c0.1,0,0.2,0.1,0.2,0.1c0.1,0,0.2,0,0.3-0.1c0.2-0.1,0.2-0.3,0.2-0.4v-7.4
	l1.2,0.8c0.1,0.1,0.2,0.1,0.3,0.1s0.2,0,0.2-0.1l7-4c0.2-0.1,0.3-0.3,0.3-0.4v-8C23,4.3,22.9,4.2,22.7,4.1z M15.5,1.1l6,3.4l-6,3.4
	l-6-3.4L15.5,1.1z M13,11.5v2v2v2v2v2v1.1l-2-1.2c0-0.3-0.2-0.5-0.5-0.5c-0.1,0-0.2,0-0.2,0.1l-0.4-0.2c0.1-0.1,0.1-0.2,0.1-0.3
	c0-0.3-0.2-0.5-0.5-0.5c-0.2,0-0.4,0.1-0.5,0.4L8.4,20h0.1C8.8,20,9,19.8,9,19.5S8.8,19,8.5,19S8,19.2,8,19.5c0,0.1,0.1,0.2,0.1,0.3
	L6,18.6v-0.1C6,18.2,5.8,18,5.5,18c-0.1,0-0.2,0.1-0.3,0.1l-0.4-0.2C4.9,17.8,5,17.7,5,17.5C5,17.2,4.8,17,4.5,17S4,17.2,4,17.5
	l-2-1.2v-0.8v-2v-2v-2v-2v-2V3.7l1,0.6c0,0.1,0,0.1,0,0.2C3,4.8,3.2,5,3.5,5c0.2,0,0.3-0.1,0.4-0.2L4.3,5C4.1,5.1,4,5.3,4,5.5
	C4,5.8,4.2,6,4.5,6S5,5.8,5,5.5c0,0,0,0,0-0.1l2,1.2C7.1,6.8,7.3,7,7.5,7c0.1,0,0.1,0,0.2,0l0.4,0.3C8,7.3,8,7.4,8,7.5
	C8,7.8,8.2,8,8.5,8c0.2,0,0.4-0.1,0.4-0.3L9.5,8C9.2,8,9,8.2,9,8.5S9.2,9,9.5,9S10,8.8,10,8.5c0-0.1,0-0.1,0-0.2l2,1.2l0,0
	c0,0.3,0.2,0.5,0.5,0.5c0.1,0,0.2,0,0.3-0.1L13,10V11.5z M13.7,9.3L9,6.6V5.4l6,3.4v6.8l-1-0.7V9.8C14,9.6,13.9,9.4,13.7,9.3z
	 M16,15.6V8.8l6-3.4v6.8L16,15.6z"/>
<path class="st0" d="M7.1,19.6"/>
<path class="st0" d="M10.2,9.1c-0.2,0.2-0.2,0.5,0,0.7c0.2,0.2,0.5,0.2,0.7,0c0.2-0.2,0.2-0.5,0-0.7C10.8,8.9,10.4,8.9,10.2,9.1z"/>
<path class="st0" d="M11.2,10.1c-0.2,0.2-0.2,0.5,0,0.7c0.2,0.2,0.5,0.2,0.7,0c0.2-0.2,0.2-0.5,0-0.7C11.8,9.9,11.4,9.9,11.2,10.1z"
	/>
<path class="st0" d="M10.2,11.2c-0.2,0.2-0.2,0.5,0,0.7s0.5,0.2,0.7,0s0.2-0.5,0-0.7C10.8,10.9,10.4,10.9,10.2,11.2z"/>
<path class="st0" d="M11.2,12.1c-0.2,0.2-0.2,0.5,0,0.7c0.2,0.2,0.5,0.2,0.7,0c0.2-0.2,0.2-0.5,0-0.7C11.7,12,11.4,12,11.2,12.1z"/>
<path class="st0" d="M10.2,13.1c-0.2,0.2-0.2,0.5,0,0.7c0.2,0.2,0.5,0.2,0.7,0c0.2-0.2,0.2-0.5,0-0.7C10.8,13,10.4,13,10.2,13.1z"/>
<path class="st0" d="M11.2,14.1c-0.2,0.2-0.2,0.5,0,0.7c0.2,0.2,0.5,0.2,0.7,0c0.2-0.2,0.2-0.5,0-0.7C11.7,14,11.4,14,11.2,14.1z"/>
<path class="st0" d="M10.2,15.2c-0.2,0.2-0.2,0.5,0,0.7c0.2,0.2,0.5,0.2,0.7,0c0.2-0.2,0.2-0.5,0-0.7C10.8,14.9,10.4,14.9,10.2,15.2
	z"/>
<path class="st0" d="M7.2,10.2c-0.2,0.2-0.2,0.5,0,0.7s0.5,0.2,0.7,0c0.2-0.2,0.2-0.5,0-0.7C7.7,9.9,7.3,9.9,7.2,10.2z"/>
<path class="st0" d="M9.2,10.1c-0.2,0.2-0.2,0.5,0,0.7c0.2,0.2,0.5,0.2,0.7,0c0.2-0.2,0.2-0.5,0-0.7C9.8,9.9,9.4,9.9,9.2,10.1z"/>
<path class="st0" d="M8.2,11.2c-0.2,0.2-0.2,0.5,0,0.7s0.5,0.2,0.7,0s0.2-0.5,0-0.7C8.7,10.9,8.4,10.9,8.2,11.2z"/>
<path class="st0" d="M9.2,12.1c-0.2,0.2-0.2,0.5,0,0.7c0.2,0.2,0.5,0.2,0.7,0c0.2-0.2,0.2-0.5,0-0.7C9.8,12,9.4,12,9.2,12.1z"/>
<path class="st0" d="M8.1,13.1c-0.2,0.2-0.2,0.5,0,0.7c0.2,0.2,0.5,0.2,0.7,0c0.2-0.2,0.2-0.5,0-0.7C8.6,12.9,8.4,12.9,8.1,13.1z"/>
<path class="st0" d="M9.1,14.1c-0.2,0.2-0.2,0.5,0,0.7c0.2,0.2,0.5,0.2,0.7,0c0.2-0.2,0.2-0.5,0-0.7C9.8,14,9.4,14,9.1,14.1z"/>
<path class="st0" d="M8.1,15.2c-0.2,0.2-0.2,0.5,0,0.7c0.2,0.2,0.5,0.2,0.7,0c0.2-0.2,0.2-0.5,0-0.7C8.6,14.9,8.4,14.9,8.1,15.2z"/>
<path class="st0" d="M6.2,11.1c-0.2,0.2-0.2,0.5,0,0.7c0.2,0.2,0.5,0.2,0.7,0c0.2-0.2,0.2-0.5,0-0.7C6.7,10.9,6.4,10.9,6.2,11.1z"/>
<path class="st0" d="M7.1,12.1c-0.2,0.2-0.2,0.5,0,0.7c0.2,0.2,0.5,0.2,0.8,0c0.2-0.2,0.2-0.5,0-0.7C7.6,11.9,7.3,11.9,7.1,12.1z"/>
<path class="st0" d="M6.2,13.1c-0.2,0.2-0.2,0.5,0,0.7c0.2,0.2,0.5,0.2,0.7,0c0.2-0.2,0.2-0.5,0-0.7C6.7,13,6.5,13,6.2,13.1z"/>
<path class="st0" d="M7.2,14.1c-0.2,0.2-0.2,0.5,0,0.7c0.2,0.2,0.5,0.2,0.8,0s0.2-0.5,0-0.7C7.7,13.9,7.4,13.9,7.2,14.1z"/>
<path class="st0" d="M5.2,12.1c-0.2,0.2-0.2,0.5,0,0.7c0.2,0.2,0.5,0.2,0.7,0c0.2-0.2,0.2-0.5,0-0.7S5.4,11.9,5.2,12.1z"/>
<path class="st0" d="M9.2,16.1c-0.2,0.2-0.2,0.5,0,0.7c0.2,0.2,0.5,0.2,0.7,0c0.2-0.2,0.2-0.5,0-0.7C9.7,16,9.4,15.9,9.2,16.1z"/>
<path class="st0" d="M7.2,16.1c-0.2,0.2-0.2,0.5,0,0.8c0.2,0.2,0.5,0.2,0.7,0c0.2-0.2,0.2-0.5,0-0.7C7.7,15.9,7.4,15.9,7.2,16.1z"/>
<path class="st0" d="M5.2,14.1c-0.2,0.2-0.2,0.5,0,0.7s0.5,0.2,0.7,0s0.2-0.5,0-0.7S5.4,13.9,5.2,14.1z"/>
<path class="st0" d="M6.2,15.1c-0.2,0.2-0.2,0.5,0,0.7c0.2,0.2,0.5,0.2,0.7,0c0.2-0.2,0.2-0.5,0-0.7S6.4,14.9,6.2,15.1z"/>
<path class="st0" d="M4.2,13.1c-0.2,0.2-0.2,0.5,0,0.7c0.2,0.2,0.5,0.2,0.7,0c0.2-0.2,0.2-0.5,0-0.7C4.7,13,4.4,13,4.2,13.1z"/>
<path class="st0" d="M8.1,17.1c-0.2,0.2-0.2,0.5,0,0.7c0.2,0.2,0.5,0.2,0.7,0c0.2-0.2,0.2-0.5,0-0.7C8.6,17,8.4,17,8.1,17.1z"/>
<path class="st0" d="M6.2,17.1c-0.2,0.2-0.2,0.5,0,0.7c0.2,0.2,0.5,0.2,0.7,0c0.2-0.2,0.2-0.5,0-0.7S6.4,16.9,6.2,17.1z"/>
<path class="st0" d="M4.2,15.2c-0.2,0.2-0.2,0.5,0,0.7c0.2,0.2,0.5,0.2,0.7,0c0.2-0.2,0.2-0.5,0-0.7C4.7,14.9,4.4,14.9,4.2,15.2z"/>
<path class="st0" d="M5.2,16.1c-0.2,0.2-0.2,0.5,0,0.7c0.2,0.2,0.5,0.2,0.7,0c0.2-0.2,0.2-0.5,0-0.7C5.8,15.9,5.4,15.9,5.2,16.1z"/>
<path class="st0" d="M3.1,14.2c-0.2,0.2-0.2,0.5,0,0.7s0.5,0.2,0.7,0s0.2-0.5,0-0.7C3.6,13.9,3.3,14,3.1,14.2z"/>
<path class="st0" d="M7.2,18.1c-0.2,0.2-0.2,0.5,0,0.7c0.2,0.2,0.5,0.2,0.7,0c0.2-0.2,0.2-0.5,0-0.7C7.7,17.9,7.3,17.9,7.2,18.1z"/>
<path class="st0" d="M2.2,13.1c-0.2,0.2-0.2,0.5,0,0.7c0.2,0.2,0.5,0.2,0.7,0c0.2-0.2,0.2-0.5,0-0.7C2.7,12.9,2.4,12.9,2.2,13.1z"/>
<path class="st0" d="M8.2,19.1c-0.2,0.2-0.2,0.5,0,0.7c0.2,0.2,0.5,0.2,0.7,0c0.2-0.2,0.2-0.5,0-0.7C8.7,19,8.4,19,8.2,19.1z"/>
<path class="st0" d="M3.1,16.1c-0.2,0.2-0.2,0.6,0,0.8c0.2,0.2,0.5,0.2,0.7,0c0.2-0.2,0.2-0.5,0-0.7C3.6,15.9,3.4,15.9,3.1,16.1z"/>
<path class="st0" d="M4.2,17.1c-0.2,0.2-0.2,0.5,0,0.7c0.2,0.2,0.5,0.2,0.7,0c0.2-0.2,0.2-0.5,0-0.7S4.4,16.9,4.2,17.1z"/>
<path class="st0" d="M2.2,15.2c-0.2,0.2-0.2,0.5,0,0.7c0.2,0.2,0.5,0.2,0.7,0c0.2-0.2,0.2-0.5,0-0.7C2.7,14.9,2.4,14.9,2.2,15.2z"/>
<path class="st0" d="M9.2,20.1c-0.2,0.2-0.2,0.5,0,0.7c0.2,0.2,0.5,0.2,0.7,0c0.2-0.2,0.2-0.5,0-0.7C9.7,20,9.4,20,9.2,20.1z"/>
<path class="st0" d="M2.2,11.1c-0.2,0.2-0.2,0.5,0,0.7c0.2,0.2,0.5,0.2,0.7,0c0.2-0.2,0.2-0.5,0-0.7C2.7,11,2.3,10.9,2.2,11.1z"/>
<path class="st0" d="M7.2,8.1C7,8.4,7,8.6,7.2,8.9C7.3,9,7.7,9,7.8,8.9C8,8.6,8,8.4,7.8,8.1C7.7,8,7.4,8,7.2,8.1z"/>
<path class="st0" d="M6.2,9.1C6,9.3,6,9.6,6.2,9.8c0.2,0.2,0.5,0.2,0.7,0s0.2-0.5,0-0.7S6.4,8.9,6.2,9.1z"/>
<path class="st0" d="M6.1,7.2c-0.2,0.2-0.2,0.5,0,0.7s0.5,0.2,0.7,0s0.2-0.5,0-0.7S6.3,7,6.1,7.2z"/>
<path class="st0" d="M4.1,9.2c-0.2,0.2-0.2,0.5,0,0.7c0.2,0.2,0.5,0.2,0.7,0C5,9.7,5,9.4,4.8,9.2C4.6,9,4.3,9,4.1,9.2z"/>
<path class="st0" d="M7.2,6.1C7,6.3,7,6.7,7.2,6.9s0.5,0.2,0.7,0c0.2-0.2,0.2-0.5,0-0.7C7.7,5.9,7.4,5.9,7.2,6.1z"/>
<path class="st0" d="M3.2,12.2c-0.2,0.2-0.2,0.5,0,0.7c0.2,0.2,0.5,0.2,0.7,0c0.2-0.2,0.2-0.5,0-0.7C3.7,11.9,3.3,11.9,3.2,12.2z"/>
<path class="st0" d="M12.2,17.1c-0.2,0.2-0.2,0.5,0,0.8c0.2,0.2,0.5,0.2,0.7,0c0.2-0.2,0.2-0.5,0-0.7C12.7,16.9,12.4,16.9,12.2,17.1
	z"/>
<path class="st0" d="M5.1,8.2c-0.2,0.2-0.2,0.5,0,0.7c0.2,0.2,0.5,0.2,0.7,0s0.2-0.5,0-0.7S5.3,8,5.1,8.2z"/>
<path class="st0" d="M12.1,15.1c-0.2,0.2-0.2,0.5,0,0.7c0.2,0.2,0.5,0.2,0.7,0c0.2-0.2,0.2-0.5,0-0.7C12.6,15,12.4,15,12.1,15.1z"/>
<path class="st0" d="M5.1,10.2c-0.2,0.2-0.2,0.5,0,0.7c0.2,0.2,0.5,0.2,0.7,0c0.2-0.2,0.2-0.5,0-0.7C5.7,10,5.3,10,5.1,10.2z"/>
<path class="st0" d="M12.2,19.1c-0.2,0.2-0.2,0.5,0,0.7s0.5,0.2,0.7,0s0.2-0.5,0-0.7S12.4,18.9,12.2,19.1z"/>
<path class="st0" d="M3.2,10.2c-0.2,0.2-0.2,0.5,0,0.7s0.5,0.2,0.7,0c0.2-0.2,0.2-0.5,0-0.7C3.7,10,3.4,10,3.2,10.2z"/>
<path class="st0" d="M11.2,18.1c-0.2,0.2-0.2,0.5,0,0.7s0.5,0.2,0.7,0s0.2-0.5,0-0.7S11.4,17.9,11.2,18.1z"/>
<path class="st0" d="M12.1,13.1c-0.2,0.2-0.2,0.5,0,0.7c0.2,0.2,0.5,0.2,0.7,0c0.2-0.2,0.2-0.5,0-0.7C12.6,13,12.4,13,12.1,13.1z"/>
<path class="st0" d="M11.2,16.1c-0.2,0.2-0.2,0.5,0,0.7c0.2,0.2,0.5,0.2,0.7,0s0.2-0.5,0-0.7C11.7,15.9,11.5,15.9,11.2,16.1z"/>
<path class="st0" d="M4.2,11.2c-0.2,0.2-0.2,0.5,0,0.7c0.2,0.2,0.5,0.2,0.7,0c0.2-0.2,0.2-0.5,0-0.7C4.8,11,4.4,11,4.2,11.2z"/>
<path class="st0" d="M11.2,20.1c-0.2,0.2-0.2,0.5,0,0.7s0.5,0.2,0.7,0s0.2-0.5,0-0.7S11.4,19.9,11.2,20.1z"/>
<path class="st0" d="M10.2,21.1c-0.2,0.2-0.2,0.5,0,0.7c0.2,0.2,0.5,0.2,0.7,0c0.2-0.2,0.2-0.5,0-0.7C10.7,21,10.4,21,10.2,21.1z"/>
<path class="st0" d="M10.2,19.1c-0.2,0.2-0.2,0.5,0,0.7s0.5,0.2,0.7,0s0.2-0.5,0-0.7C10.7,18.9,10.4,18.9,10.2,19.1z"/>
<path class="st0" d="M12.1,11.1c-0.2,0.2-0.2,0.5,0,0.7c0.2,0.2,0.5,0.2,0.7,0c0.2-0.2,0.2-0.5,0-0.7C12.6,10.9,12.4,10.8,12.1,11.1
	z"/>
<path class="st0" d="M10.1,17.1c-0.2,0.2-0.2,0.5,0,0.7c0.2,0.2,0.5,0.2,0.7,0c0.2-0.2,0.2-0.5,0-0.7C10.6,17,10.4,17,10.1,17.1z"/>
<path class="st0" d="M12.1,21.2c-0.2,0.2-0.2,0.5,0,0.7c0.2,0.2,0.5,0.2,0.7,0c0.2-0.2,0.2-0.5,0-0.7C12.6,21,12.4,21,12.1,21.2z"/>
<path class="st0" d="M9.2,8.1C9,8.4,9,8.6,9.2,8.9s0.5,0.2,0.7,0c0.2-0.2,0.2-0.5,0-0.7C9.7,7.9,9.4,8,9.2,8.1z"/>
<path class="st0" d="M9.2,18.1c-0.2,0.2-0.2,0.5,0,0.7s0.5,0.2,0.7,0s0.2-0.5,0-0.7C9.8,17.9,9.4,17.9,9.2,18.1z"/>
<path class="st0" d="M12.2,9.2c-0.2,0.2-0.2,0.5,0,0.7c0.2,0.2,0.5,0.2,0.7,0s0.2-0.5,0-0.7S12.4,8.9,12.2,9.2z"/>
<path class="st0" d="M8.2,9.1C8,9.4,8,9.6,8.2,9.9s0.5,0.2,0.7,0c0.2-0.2,0.2-0.5,0-0.7C8.7,9,8.4,9,8.2,9.1z"/>
<path class="st0" d="M8.2,7.1C8,7.4,8,7.6,8.2,7.9c0.2,0.2,0.5,0.2,0.7,0s0.2-0.5,0-0.7S8.4,6.9,8.2,7.1z"/>
<path class="st0" d="M5.2,6.2C5,6.3,5,6.7,5.2,6.8s0.5,0.2,0.7,0s0.2-0.5,0-0.7S5.4,6,5.2,6.2z"/>
<path class="st0" d="M3.1,8.2c-0.2,0.2-0.2,0.5,0,0.7s0.5,0.2,0.7,0C4,8.7,4,8.4,3.8,8.2C3.6,8,3.3,8,3.1,8.2z"/>
<path class="st0" d="M4.2,7.2C4,7.3,4,7.7,4.2,7.8C4.4,8,4.7,8,4.9,7.8c0.2-0.2,0.2-0.5,0-0.7S4.4,7,4.2,7.2z"/>
<path class="st0" d="M2.2,9.2C2,9.4,2,9.7,2.2,9.9s0.5,0.2,0.7,0s0.2-0.5,0-0.7S2.4,9,2.2,9.2z"/>
<path class="st0" d="M3.1,6.1c-0.2,0.2-0.2,0.5,0,0.7s0.5,0.2,0.7,0s0.2-0.5,0-0.7S3.3,5.9,3.1,6.1z"/>
<path class="st0" d="M4.1,5.1c-0.2,0.2-0.2,0.5,0,0.7C4.3,6,4.6,6,4.8,5.8s0.2-0.5,0-0.7S4.3,4.9,4.1,5.1z"/>
<path class="st0" d="M2.2,7.1C2,7.3,2,7.6,2.2,7.8s0.5,0.2,0.7,0s0.2-0.5,0-0.7S2.4,6.9,2.2,7.1z"/>
<path class="st0" d="M2.1,5.1c-0.2,0.2-0.2,0.5,0,0.7s0.5,0.2,0.7,0s0.2-0.5,0-0.7S2.3,4.9,2.1,5.1z"/>
<path class="st0" d="M3.2,4.1C3,4.3,3,4.6,3.2,4.8C3.4,5,3.7,5,3.9,4.8c0.2-0.2,0.2-0.5,0-0.7C3.7,3.9,3.4,3.9,3.2,4.1z"/>
</svg>
