<?xml version="1.0" encoding="utf-8"?>
<!-- Generator: Adobe Illustrator 27.3.1, SVG Export Plug-In . SVG Version: 6.00 Build 0)  -->
<svg version="1.1" id="Layer_1" xmlns="http://www.w3.org/2000/svg" xmlns:xlink="http://www.w3.org/1999/xlink" x="0px" y="0px"
	 viewBox="0 0 24 24" style="enable-background:new 0 0 24 24;" xml:space="preserve">
<style type="text/css">
	.st0{fill:#464646;}
</style>
<path class="st0" d="M18.4,12.4"/>
<path class="st0" d="M10.5,4.8c0.1,0.3,0.4,0.4,0.6,0.3c0.3-0.1,0.4-0.4,0.3-0.6c-0.1-0.3-0.4-0.4-0.6-0.3
	C10.6,4.2,10.5,4.4,10.5,4.8z"/>
<path class="st0" d="M11.9,4.4c0.1,0.3,0.4,0.4,0.6,0.3c0.3-0.1,0.4-0.4,0.3-0.6c-0.1-0.3-0.4-0.4-0.6-0.3C12,3.7,11.8,4.1,11.9,4.4
	z"/>
<path class="st0" d="M12.3,5.7C12.4,6,12.7,6.1,13,6c0.3-0.1,0.4-0.4,0.3-0.6c-0.1-0.3-0.4-0.4-0.6-0.3C12.4,5.1,12.2,5.3,12.3,5.7z
	"/>
<path class="st0" d="M13.7,5.3c0.1,0.3,0.4,0.4,0.6,0.3s0.4-0.4,0.3-0.6c-0.1-0.3-0.4-0.4-0.6-0.3S13.6,5,13.7,5.3z"/>
<path class="st0" d="M14.1,6.6C14.2,6.9,14.4,7,14.7,7C15,6.9,15.1,6.6,15,6.3S14.7,5.9,14.4,6C14.2,6,14,6.3,14.1,6.6z"/>
<path class="st0" d="M15.4,6.2c0.1,0.3,0.4,0.4,0.6,0.3c0.3-0.1,0.4-0.4,0.3-0.6S16,5.5,15.8,5.6S15.3,5.9,15.4,6.2z"/>
<path class="st0" d="M15.9,7.6c0.1,0.3,0.4,0.4,0.6,0.3s0.4-0.4,0.3-0.6c-0.1-0.3-0.4-0.4-0.6-0.3C16,6.9,15.8,7.2,15.9,7.6z"/>
<path class="st0" d="M10.1,7.9c0.1,0.3,0.4,0.4,0.6,0.3s0.4-0.4,0.3-0.6c-0.1-0.3-0.4-0.4-0.6-0.3C10,7.3,9.9,7.6,10.1,7.9z"/>
<path class="st0" d="M11,6.1c0.1,0.3,0.4,0.4,0.6,0.3c0.3-0.1,0.4-0.4,0.3-0.6c-0.1-0.3-0.4-0.4-0.6-0.3C11.1,5.5,10.9,5.8,11,6.1z"
	/>
<path class="st0" d="M11.4,7.5c0.1,0.3,0.4,0.4,0.6,0.3c0.3-0.1,0.4-0.4,0.3-0.6S12,6.8,11.7,6.9C11.4,6.9,11.2,7.2,11.4,7.5z"/>
<path class="st0" d="M12.7,7.1c0.1,0.3,0.4,0.4,0.6,0.3s0.4-0.4,0.3-0.6c-0.1-0.3-0.4-0.4-0.6-0.3C12.8,6.4,12.7,6.7,12.7,7.1z"/>
<path class="st0" d="M13.2,8.4c0.1,0.3,0.4,0.4,0.6,0.3c0.3-0.1,0.4-0.4,0.3-0.6c-0.1-0.3-0.4-0.4-0.6-0.3S13.1,8.1,13.2,8.4z"/>
<path class="st0" d="M14.5,8c0.1,0.3,0.4,0.4,0.6,0.3c0.3-0.1,0.4-0.4,0.3-0.6s-0.4-0.4-0.6-0.3C14.6,7.4,14.5,7.6,14.5,8z"/>
<path class="st0" d="M14.9,9.3c0.1,0.3,0.4,0.4,0.6,0.3C15.8,9.6,16,9.3,15.9,9s-0.4-0.4-0.6-0.3C15,8.8,14.8,9.1,14.9,9.3z"/>
<path class="st0" d="M10.5,9.3c0.1,0.3,0.4,0.4,0.6,0.3c0.3-0.1,0.4-0.4,0.3-0.6c-0.1-0.3-0.4-0.4-0.6-0.3C10.5,8.7,10.4,9,10.5,9.3
	z"/>
<path class="st0" d="M11.8,8.9c0.1,0.3,0.4,0.4,0.6,0.3s0.4-0.4,0.4-0.7c-0.1-0.3-0.4-0.4-0.6-0.3C11.8,8.3,11.7,8.6,11.8,8.9z"/>
<path class="st0" d="M12.2,10.2c0.1,0.3,0.4,0.4,0.6,0.3s0.4-0.4,0.3-0.6c-0.1-0.3-0.4-0.4-0.6-0.3S12.2,9.8,12.2,10.2z"/>
<path class="st0" d="M13.6,9.8c0.1,0.3,0.4,0.4,0.6,0.3c0.3-0.1,0.4-0.4,0.4-0.7C14.5,9,14.2,9,14,9C13.6,9.2,13.5,9.5,13.6,9.8z"/>
<path class="st0" d="M10.9,10.6c0.1,0.3,0.4,0.4,0.6,0.3c0.3-0.1,0.4-0.4,0.3-0.6c-0.1-0.3-0.4-0.4-0.6-0.3S10.8,10.3,10.9,10.6z"/>
<path class="st0" d="M16.3,8.9c0.1,0.3,0.4,0.4,0.6,0.3s0.4-0.4,0.3-0.6c-0.1-0.3-0.4-0.4-0.6-0.3S16.2,8.5,16.3,8.9z"/>
<path class="st0" d="M15.4,10.6c0.1,0.3,0.4,0.4,0.7,0.4c0.3-0.1,0.4-0.4,0.3-0.6c-0.1-0.3-0.4-0.4-0.6-0.3
	C15.4,10.1,15.3,10.4,15.4,10.6z"/>
<path class="st0" d="M12.7,11.5c0.1,0.3,0.4,0.4,0.6,0.3c0.3-0.1,0.4-0.4,0.3-0.6s-0.4-0.4-0.6-0.3S12.6,11.3,12.7,11.5z"/>
<path class="st0" d="M14,11.1c0.1,0.3,0.4,0.4,0.6,0.3s0.4-0.4,0.3-0.6c-0.1-0.3-0.4-0.4-0.6-0.3C14,10.5,13.9,10.8,14,11.1z"/>
<path class="st0" d="M11.3,12c0.1,0.3,0.4,0.4,0.6,0.3c0.3-0.1,0.4-0.4,0.3-0.6c-0.1-0.3-0.4-0.4-0.6-0.3
	C11.4,11.4,11.2,11.7,11.3,12z"/>
<path class="st0" d="M16.7,10.3c0.1,0.3,0.4,0.4,0.6,0.3c0.3-0.1,0.4-0.4,0.3-0.6c-0.1-0.3-0.4-0.4-0.6-0.3
	C16.8,9.7,16.6,10,16.7,10.3z"/>
<path class="st0" d="M15.8,12c0.1,0.3,0.4,0.4,0.6,0.3s0.4-0.4,0.3-0.6c-0.1-0.3-0.4-0.4-0.6-0.3C15.8,11.5,15.7,11.8,15.8,12z"/>
<path class="st0" d="M13.1,12.9c0.1,0.3,0.4,0.4,0.6,0.3c0.3-0.1,0.4-0.4,0.3-0.6c-0.1-0.3-0.4-0.4-0.6-0.3
	C13.1,12.3,13,12.6,13.1,12.9z"/>
<path class="st0" d="M14.4,12.5c0.1,0.3,0.4,0.4,0.6,0.3c0.3-0.1,0.4-0.4,0.3-0.6c-0.1-0.3-0.4-0.4-0.6-0.3
	C14.5,11.8,14.4,12.2,14.4,12.5z"/>
<path class="st0" d="M11.7,13.3c0.1,0.3,0.4,0.4,0.6,0.3c0.3-0.1,0.4-0.4,0.3-0.6c-0.1-0.3-0.4-0.4-0.6-0.3
	C11.8,12.8,11.7,13,11.7,13.3z"/>
<path class="st0" d="M17.1,11.6c0.1,0.3,0.4,0.4,0.6,0.3c0.3-0.1,0.4-0.4,0.3-0.6c-0.1-0.3-0.4-0.4-0.6-0.3
	C17.1,11,17,11.3,17.1,11.6z"/>
<path class="st0" d="M10.4,13.7c0.1,0.3,0.4,0.4,0.6,0.3c0.3-0.1,0.4-0.4,0.3-0.6c-0.1-0.3-0.4-0.4-0.6-0.3
	C10.4,13.2,10.3,13.5,10.4,13.7z"/>
<path class="st0" d="M18.5,11.2c0.1,0.3,0.4,0.4,0.6,0.3s0.4-0.4,0.3-0.6c-0.1-0.3-0.4-0.4-0.6-0.3S18.4,10.9,18.5,11.2z"/>
<path class="st0" d="M13.5,14.2c0.1,0.3,0.4,0.5,0.7,0.4c0.3-0.1,0.4-0.4,0.3-0.6c-0.1-0.3-0.4-0.4-0.6-0.3
	C13.5,13.7,13.4,13.9,13.5,14.2z"/>
<path class="st0" d="M14.9,13.8c0.1,0.3,0.4,0.4,0.6,0.3c0.3-0.1,0.4-0.4,0.3-0.6c-0.1-0.3-0.4-0.4-0.6-0.3
	C14.9,13.3,14.8,13.5,14.9,13.8z"/>
<path class="st0" d="M12.2,14.6c0.1,0.3,0.4,0.4,0.6,0.3c0.3-0.1,0.4-0.4,0.3-0.6c-0.1-0.3-0.4-0.4-0.6-0.3
	C12.1,14.1,12,14.3,12.2,14.6z"/>
<path class="st0" d="M8.6,12.8c0.1,0.3,0.4,0.4,0.6,0.3c0.3-0.1,0.4-0.4,0.3-0.6c-0.1-0.3-0.4-0.4-0.6-0.3
	C8.7,12.3,8.5,12.5,8.6,12.8z"/>
<path class="st0" d="M8.3,7c0.1,0.3,0.4,0.4,0.6,0.3S9.3,7,9.2,6.7C9.1,6.4,8.9,6.3,8.6,6.4S8.2,6.7,8.3,7z"/>
<path class="st0" d="M8.7,8.3C8.7,8.6,9,8.7,9.3,8.6C9.6,8.5,9.7,8.3,9.6,8C9.5,7.7,9.3,7.6,9,7.7C8.7,7.8,8.6,8,8.7,8.3z"/>
<path class="st0" d="M6.9,7.4C7,7.7,7.3,7.8,7.5,7.7c0.3-0.1,0.4-0.4,0.3-0.6S7.5,6.7,7.2,6.8C7,6.9,6.8,7.1,6.9,7.4z"/>
<path class="st0" d="M7.7,10.1c0.1,0.3,0.4,0.4,0.6,0.3c0.3-0.1,0.4-0.4,0.3-0.6C8.6,9.6,8.3,9.4,8.1,9.5C7.8,9.6,7.7,9.9,7.7,10.1z
	"/>
<path class="st0" d="M5,6.4c0.1,0.3,0.4,0.5,0.7,0.4C6,6.7,6.2,6.5,6.1,6.2C6,5.9,5.7,5.8,5.4,5.9C5.1,5.9,5,6.2,5,6.4z"/>
<path class="st0" d="M10,12.4c0.1,0.3,0.4,0.4,0.6,0.3c0.3-0.1,0.4-0.4,0.3-0.6c-0.1-0.3-0.4-0.4-0.6-0.3C10,11.8,9.8,12.1,10,12.4z
	"/>
<path class="st0" d="M18.5,6.7c0.1,0.3,0.4,0.4,0.7,0.4c0.3-0.1,0.4-0.4,0.3-0.6c-0.1-0.3-0.4-0.4-0.6-0.3
	C18.6,6.1,18.4,6.4,18.5,6.7z"/>
<path class="st0" d="M7.3,8.8C7.4,9,7.7,9.2,8,9.1s0.4-0.4,0.3-0.6C8.2,8.2,7.9,8.1,7.7,8.1C7.4,8.2,7.3,8.5,7.3,8.8z"/>
<path class="st0" d="M16.8,5.8c0.1,0.3,0.4,0.4,0.6,0.3c0.3-0.1,0.4-0.4,0.3-0.6c-0.1-0.3-0.4-0.4-0.6-0.3
	C16.8,5.2,16.7,5.5,16.8,5.8z"/>
<path class="st0" d="M9.1,9.7C9.2,10,9.5,10.1,9.7,10c0.3-0.1,0.4-0.4,0.3-0.6C10,9.1,9.7,9,9.4,9.1C9.2,9.1,9,9.4,9.1,9.7z"/>
<path class="st0" d="M10,3.4c0.1,0.3,0.4,0.4,0.6,0.3c0.3-0.1,0.4-0.4,0.3-0.6s-0.4-0.4-0.6-0.3C10,2.9,9.9,3.2,10,3.4z"/>
<path class="st0" d="M8.2,11.4c0.1,0.3,0.4,0.4,0.6,0.3c0.3-0.1,0.4-0.4,0.3-0.6c-0.1-0.3-0.4-0.4-0.6-0.3
	C8.3,10.9,8.1,11.1,8.2,11.4z"/>
<path class="st0" d="M19,8c0.1,0.3,0.4,0.4,0.6,0.3C19.9,8.3,20,8,19.9,7.7c-0.1-0.3-0.4-0.4-0.6-0.3S18.9,7.8,19,8z"/>
<path class="st0" d="M15,4.9c0.1,0.3,0.4,0.4,0.6,0.3C15.9,5.1,16,4.8,16,4.6s-0.4-0.4-0.6-0.3C15.1,4.3,14.9,4.6,15,4.9z"/>
<path class="st0" d="M17.2,7.1c0.1,0.3,0.4,0.4,0.6,0.3c0.3-0.1,0.4-0.4,0.3-0.6c-0.1-0.3-0.4-0.4-0.6-0.3S17.2,6.8,17.2,7.1z"/>
<path class="st0" d="M9.5,11c0.1,0.3,0.4,0.4,0.6,0.3c0.3-0.1,0.4-0.4,0.3-0.6c-0.1-0.3-0.4-0.4-0.6-0.3C9.6,10.4,9.5,10.7,9.5,11z"
	/>
<path class="st0" d="M8.8,3.9c0.1,0.3,0.4,0.4,0.6,0.3s0.4-0.4,0.3-0.6C9.6,3.3,9.4,3.2,9.1,3.2S8.7,3.6,8.8,3.9z"/>
<path class="st0" d="M19.4,9.4c0.1,0.3,0.4,0.4,0.6,0.3c0.3-0.1,0.4-0.4,0.3-0.6c-0.1-0.3-0.4-0.4-0.6-0.3
	C19.4,8.9,19.3,9.1,19.4,9.4z"/>
<path class="st0" d="M13.2,3.9c0.1,0.3,0.4,0.4,0.6,0.3c0.3-0.1,0.4-0.4,0.3-0.6s-0.4-0.4-0.6-0.3C13.3,3.4,13.1,3.6,13.2,3.9z"/>
<path class="st0" d="M17.6,8.5c0.1,0.3,0.4,0.4,0.6,0.3s0.4-0.4,0.3-0.6c-0.1-0.3-0.4-0.4-0.6-0.3C17.7,7.9,17.5,8.2,17.6,8.5z"/>
<path class="st0" d="M9.2,5.2c0.1,0.3,0.4,0.4,0.6,0.3c0.3-0.1,0.4-0.4,0.3-0.6S9.8,4.5,9.5,4.6C9.2,4.7,9.1,4.9,9.2,5.2z"/>
<path class="st0" d="M18.1,9.8c0.1,0.3,0.4,0.4,0.6,0.3c0.3-0.1,0.4-0.4,0.3-0.6c-0.1-0.3-0.4-0.4-0.6-0.3C18.2,9.2,18,9.6,18.1,9.8
	z"/>
<path class="st0" d="M11.5,3c0.1,0.3,0.4,0.4,0.6,0.3s0.4-0.4,0.3-0.6c-0.1-0.3-0.4-0.4-0.6-0.3S11.4,2.7,11.5,3z"/>
<path class="st0" d="M9.6,6.6C9.7,6.8,10,7,10.2,6.9c0.3-0.1,0.4-0.4,0.3-0.6s-0.4-0.4-0.6-0.3C9.7,6,9.5,6.3,9.6,6.6z"/>
<path class="st0" d="M7.8,5.6C7.9,5.9,8.2,6,8.5,6c0.3-0.1,0.4-0.4,0.3-0.6C8.7,5.1,8.4,4.9,8.2,5C7.9,5.1,7.8,5.4,7.8,5.6z"/>
<path class="st0" d="M5.6,7.8c0.1,0.3,0.4,0.4,0.6,0.3C6.5,8,6.6,7.8,6.5,7.5C6.4,7.2,6.2,7.1,5.9,7.2C5.6,7.3,5.5,7.5,5.6,7.8z"/>
<path class="st0" d="M6.4,10.6C6.5,10.8,6.8,11,7,10.9c0.3-0.1,0.4-0.4,0.3-0.6C7.3,10,7,9.8,6.7,9.9S6.3,10.3,6.4,10.6z"/>
<path class="st0" d="M6,9.2c0.1,0.3,0.4,0.4,0.6,0.3S7,9.1,6.9,8.9C6.9,8.6,6.6,8.5,6.3,8.5S5.9,8.9,6,9.2z"/>
<path class="st0" d="M6.9,11.8c0.1,0.3,0.4,0.4,0.6,0.3s0.4-0.4,0.3-0.6c-0.1-0.3-0.4-0.4-0.6-0.3C6.9,11.3,6.8,11.5,6.9,11.8z"/>
<path class="st0" d="M4.6,9.7C4.7,9.9,5,10.1,5.2,10s0.4-0.4,0.3-0.6C5.5,9.1,5.2,9,4.9,9C4.7,9.1,4.5,9.4,4.6,9.7z"/>
<path class="st0" d="M4.2,8.3c0.1,0.3,0.4,0.4,0.6,0.3C5.1,8.5,5.2,8.2,5.2,8C5.1,7.7,4.8,7.6,4.5,7.6C4.3,7.7,4.1,8,4.2,8.3z"/>
<path class="st0" d="M5.1,10.9c0.1,0.3,0.4,0.4,0.6,0.3s0.4-0.4,0.3-0.6c-0.1-0.3-0.4-0.4-0.6-0.3S5,10.7,5.1,10.9z"/>
<path class="st0" d="M3.3,10.1c0.1,0.3,0.4,0.4,0.6,0.3c0.3-0.1,0.4-0.4,0.3-0.6C4.1,9.5,3.9,9.4,3.6,9.4S3.2,9.8,3.3,10.1z"/>
<path class="st0" d="M2.9,8.7C3,8.9,3.2,9.1,3.5,9s0.4-0.4,0.3-0.6C3.7,8.1,3.5,8,3.2,8.1S2.8,8.4,2.9,8.7z"/>
<path class="st0" d="M20.7,8.9c0.1,0.3,0.4,0.4,0.6,0.3c0.3-0.1,0.4-0.4,0.3-0.6c-0.1-0.3-0.4-0.4-0.6-0.3
	C20.8,8.4,20.6,8.6,20.7,8.9z"/>
<path class="st0" d="M23.2,8.4l-11-7c-0.2-0.1-0.4-0.1-0.5,0l-11,7C0.5,8.5,0.4,8.6,0.4,8.8s0.1,0.3,0.2,0.4l3.8,2.4v7.1l7.5,4.7
	l7.5-4.7v-7.1l3.8-2.4c0.1-0.1,0.2-0.2,0.2-0.4S23.3,8.5,23.2,8.4z M11.4,21.9l-6-3.8v-5.8l6,3.8V21.9z M18.4,18.1l-6,3.8v-5.8
	l6-3.8V18.1z M11.9,15.3L2.3,9.1C2.4,9,2.4,8.9,2.4,8.8s0-0.2-0.1-0.3l4.1-2.6c0.1,0.2,0.3,0.4,0.5,0.4c0.3,0,0.5-0.2,0.5-0.5
	c0-0.2-0.1-0.3-0.2-0.4l4.7-3.2l10,6.6C22.2,9,11.9,15.3,11.9,15.3z"/>
</svg>
