<?xml version="1.0" encoding="utf-8"?>
<!-- Generator: Adobe Illustrator 27.3.1, SVG Export Plug-In . SVG Version: 6.00 Build 0)  -->
<svg version="1.1" id="Layer_1" xmlns="http://www.w3.org/2000/svg" xmlns:xlink="http://www.w3.org/1999/xlink" x="0px" y="0px"
	 viewBox="0 0 24 24" style="enable-background:new 0 0 24 24;" xml:space="preserve">
<style type="text/css">
	.st0{fill:#464646;}
</style>
<path class="st0" d="M22.8,7.1l-12-7c-0.2-0.1-0.3-0.1-0.5,0C10.1,0.2,10,0.3,10,0.5v7.3L8.7,7.1C8.6,7,8.4,7,8.3,7.1l-7,4
	C1.1,11.2,1,11.3,1,11.5v8c0,0.2,0.1,0.3,0.3,0.4l7,4C8.3,24,8.4,24,8.5,24s0.2,0,0.2-0.1l7-4c0.2-0.1,0.3-0.3,0.3-0.4v-1.3l6.2,3.7
	c0.1,0,0.2,0.1,0.3,0.1c0.1,0,0.2,0,0.2-0.1c0.2-0.1,0.3-0.3,0.3-0.4v-14C23,7.3,22.9,7.2,22.8,7.1z M8,22.6l-6-3.4v-6.8l6,3.4V22.6
	z M8.5,14.9l-6-3.4l6-3.4l6,3.4L8.5,14.9z M15,19.2l-6,3.4v-6.8l6-3.4V19.2z M22,9.5v2v2v2v2v2v1.1l-3.1-1.8
	c0.1-0.1,0.1-0.2,0.1-0.3c0-0.3-0.2-0.5-0.5-0.5c-0.2,0-0.4,0.1-0.4,0.3L17.5,18c0.3,0,0.5-0.2,0.5-0.5S17.8,17,17.5,17
	S17,17.2,17,17.5c0,0.1,0,0.1,0,0.2l-1-0.6v-0.6v-2v-2v-1c0-0.2-0.1-0.3-0.3-0.4L15,10.6v-0.1c0-0.3-0.2-0.5-0.5-0.5
	c-0.1,0-0.3,0.1-0.4,0.1l-0.4-0.2C13.9,9.8,14,9.7,14,9.5C14,9.2,13.8,9,13.5,9S13,9.2,13,9.5l-2-1.1V7.5v-2v-2V1.4l1.2,0.7
	C12.1,2.2,12,2.3,12,2.5C12,2.8,12.2,3,12.5,3S13,2.8,13,2.5l3,1.8c0,0.1,0,0.1,0,0.2C16,4.8,16.2,5,16.5,5c0.2,0,0.3-0.1,0.4-0.2
	L17.3,5C17.1,5.1,17,5.3,17,5.5C17,5.8,17.2,6,17.5,6S18,5.8,18,5.5c0,0,0,0,0-0.1l2,1.2C20.1,6.8,20.3,7,20.5,7h0.1l0.5,0.3
	C21,7.3,21,7.4,21,7.5C21,7.8,21.2,8,21.5,8c0.2,0,0.3-0.1,0.4-0.3H22V9.5z"/>
<path class="st0" d="M16.1,17.6"/>
<path class="st0" d="M19.2,7.1c-0.2,0.2-0.2,0.5,0,0.7c0.2,0.2,0.5,0.2,0.7,0c0.2-0.2,0.2-0.5,0-0.7C19.8,6.9,19.5,6.9,19.2,7.1z"/>
<path class="st0" d="M20.2,8.1c-0.2,0.2-0.2,0.5,0,0.7c0.2,0.2,0.5,0.2,0.7,0c0.2-0.2,0.2-0.5,0-0.7C20.8,7.9,20.4,7.9,20.2,8.1z"/>
<path class="st0" d="M19.2,9.2c-0.2,0.2-0.2,0.5,0,0.7c0.2,0.2,0.5,0.2,0.7,0c0.2-0.2,0.2-0.5,0-0.7C19.8,8.9,19.5,8.9,19.2,9.2z"/>
<path class="st0" d="M20.2,10.1c-0.2,0.2-0.2,0.5,0,0.7c0.2,0.2,0.5,0.2,0.7,0c0.2-0.2,0.2-0.5,0-0.7C20.7,9.9,20.4,9.9,20.2,10.1z"
	/>
<path class="st0" d="M19.2,11.1c-0.2,0.2-0.2,0.5,0,0.7c0.2,0.2,0.5,0.2,0.7,0c0.2-0.2,0.2-0.5,0-0.7C19.8,10.9,19.5,10.9,19.2,11.1
	z"/>
<path class="st0" d="M20.2,12.1c-0.2,0.2-0.2,0.5,0,0.7c0.2,0.2,0.5,0.2,0.7,0c0.2-0.2,0.2-0.5,0-0.7C20.7,11.9,20.4,11.9,20.2,12.1
	z"/>
<path class="st0" d="M19.2,13.1c-0.2,0.2-0.2,0.5,0,0.7c0.2,0.2,0.5,0.2,0.7,0c0.2-0.2,0.2-0.5,0-0.7C19.8,12.9,19.5,12.9,19.2,13.1
	z"/>
<path class="st0" d="M16.2,8.2c-0.2,0.2-0.2,0.5,0,0.7c0.2,0.2,0.5,0.2,0.7,0c0.2-0.2,0.2-0.5,0-0.7C16.7,7.9,16.4,7.9,16.2,8.2z"/>
<path class="st0" d="M18.2,8.1c-0.2,0.2-0.2,0.5,0,0.7c0.2,0.2,0.5,0.2,0.7,0c0.2-0.2,0.2-0.5,0-0.7C18.8,7.9,18.5,7.9,18.2,8.1z"/>
<path class="st0" d="M17.2,9.2c-0.2,0.2-0.2,0.5,0,0.7c0.2,0.2,0.5,0.2,0.7,0c0.2-0.2,0.2-0.5,0-0.7C17.7,8.9,17.4,8.9,17.2,9.2z"/>
<path class="st0" d="M18.2,10.1c-0.2,0.2-0.2,0.5,0,0.7c0.2,0.2,0.5,0.2,0.7,0c0.2-0.2,0.2-0.5,0-0.7C18.8,9.9,18.5,9.9,18.2,10.1z"
	/>
<path class="st0" d="M17.2,11.1c-0.2,0.2-0.2,0.5,0,0.7c0.2,0.2,0.5,0.2,0.7,0c0.2-0.2,0.2-0.5,0-0.7C17.7,10.9,17.4,10.9,17.2,11.1
	z"/>
<path class="st0" d="M18.2,12.1c-0.2,0.2-0.2,0.5,0,0.7c0.2,0.2,0.5,0.2,0.7,0c0.2-0.2,0.2-0.5,0-0.7C18.8,11.9,18.5,11.9,18.2,12.1
	z"/>
<path class="st0" d="M17.2,13.1c-0.2,0.2-0.2,0.5,0,0.7c0.2,0.2,0.5,0.2,0.7,0c0.2-0.2,0.2-0.5,0-0.7C17.7,12.9,17.4,12.9,17.2,13.1
	z"/>
<path class="st0" d="M15.2,9.1c-0.2,0.2-0.2,0.5,0,0.7s0.5,0.2,0.7,0c0.2-0.2,0.2-0.5,0-0.7C15.7,8.9,15.4,8.9,15.2,9.1z"/>
<path class="st0" d="M16.1,10.1c-0.2,0.2-0.2,0.5,0,0.7c0.2,0.2,0.5,0.2,0.8,0c0.2-0.2,0.2-0.5,0-0.7C16.6,9.9,16.3,9.9,16.1,10.1z"
	/>
<path class="st0" d="M15.2,11.1c-0.2,0.2-0.2,0.5,0,0.7s0.5,0.2,0.7,0c0.2-0.2,0.2-0.5,0-0.7C15.7,10.9,15.5,10.9,15.2,11.1z"/>
<path class="st0" d="M16.2,12.1c-0.2,0.2-0.2,0.5,0,0.7c0.2,0.2,0.5,0.2,0.8,0s0.2-0.5,0-0.7C16.7,11.9,16.4,11.9,16.2,12.1z"/>
<path class="st0" d="M14.2,10.1c-0.2,0.2-0.2,0.5,0,0.7s0.5,0.2,0.7,0s0.2-0.5,0-0.7S14.4,9.9,14.2,10.1z"/>
<path class="st0" d="M18.2,14.1c-0.2,0.2-0.2,0.5,0,0.7c0.2,0.2,0.5,0.2,0.7,0c0.2-0.2,0.2-0.5,0-0.7C18.7,13.9,18.5,13.9,18.2,14.1
	z"/>
<path class="st0" d="M16.2,14.1c-0.2,0.2-0.2,0.5,0,0.8c0.2,0.2,0.5,0.2,0.7,0c0.2-0.2,0.2-0.5,0-0.7C16.7,13.9,16.4,13.9,16.2,14.1
	z"/>
<path class="st0" d="M15.2,13.1c-0.2,0.2-0.2,0.5,0,0.7s0.5,0.2,0.7,0c0.2-0.2,0.2-0.5,0-0.7C15.7,12.9,15.4,12.9,15.2,13.1z"/>
<path class="st0" d="M17.2,15.1c-0.2,0.2-0.2,0.5,0,0.7c0.2,0.2,0.5,0.2,0.7,0c0.2-0.2,0.2-0.5,0-0.7C17.7,14.9,17.4,14.9,17.2,15.1
	z"/>
<path class="st0" d="M15.2,15.1c-0.2,0.2-0.2,0.5,0,0.7c0.2,0.2,0.5,0.2,0.7,0c0.2-0.2,0.2-0.5,0-0.7C15.7,14.9,15.4,14.9,15.2,15.1
	z"/>
<path class="st0" d="M16.2,16.1c-0.2,0.2-0.2,0.5,0,0.7c0.2,0.2,0.5,0.2,0.7,0c0.2-0.2,0.2-0.5,0-0.7C16.7,15.9,16.4,15.9,16.2,16.1
	z"/>
<path class="st0" d="M17.2,17.1c-0.2,0.2-0.2,0.5,0,0.7c0.2,0.2,0.5,0.2,0.7,0c0.2-0.2,0.2-0.5,0-0.7C17.7,16.9,17.4,16.9,17.2,17.1
	z"/>
<path class="st0" d="M18.2,18.1c-0.2,0.2-0.2,0.5,0,0.7c0.2,0.2,0.5,0.2,0.7,0c0.2-0.2,0.2-0.5,0-0.7C18.7,17.9,18.4,17.9,18.2,18.1
	z"/>
<path class="st0" d="M16.2,6.1c-0.2,0.2-0.2,0.5,0,0.7c0.2,0.2,0.5,0.2,0.7,0c0.2-0.2,0.2-0.5,0-0.7C16.7,5.9,16.4,5.9,16.2,6.1z"/>
<path class="st0" d="M15.2,7.1c-0.2,0.2-0.2,0.5,0,0.7s0.5,0.2,0.7,0c0.2-0.2,0.2-0.5,0-0.7C15.7,6.9,15.4,6.9,15.2,7.1z"/>
<path class="st0" d="M15.2,5.1c-0.2,0.2-0.2,0.5,0,0.7s0.5,0.2,0.7,0s0.2-0.5,0-0.7S15.4,4.9,15.2,5.1z"/>
<path class="st0" d="M13.1,7.1c-0.2,0.2-0.2,0.5,0,0.7c0.2,0.2,0.5,0.2,0.7,0c0.2-0.2,0.2-0.5,0-0.7C13.6,6.9,13.3,6.9,13.1,7.1z"/>
<path class="st0" d="M16.2,4.1c-0.2,0.2-0.2,0.6,0,0.8c0.2,0.2,0.5,0.2,0.7,0c0.2-0.2,0.2-0.5,0-0.7C16.7,3.9,16.4,3.9,16.2,4.1z"/>
<path class="st0" d="M21.2,15.1c-0.2,0.2-0.2,0.5,0,0.8c0.2,0.2,0.5,0.2,0.7,0c0.2-0.2,0.2-0.5,0-0.7C21.7,14.9,21.4,14.9,21.2,15.1
	z"/>
<path class="st0" d="M14.2,6.1c-0.2,0.2-0.2,0.5,0,0.7s0.5,0.2,0.7,0s0.2-0.5,0-0.7S14.4,5.9,14.2,6.1z"/>
<path class="st0" d="M21.2,13.1c-0.2,0.2-0.2,0.5,0,0.7c0.2,0.2,0.5,0.2,0.7,0c0.2-0.2,0.2-0.5,0-0.7C21.7,12.9,21.4,12.9,21.2,13.1
	z"/>
<path class="st0" d="M14.2,8.1c-0.2,0.2-0.2,0.5,0,0.7s0.5,0.2,0.7,0c0.2-0.2,0.2-0.5,0-0.7C14.8,7.9,14.4,7.9,14.2,8.1z"/>
<path class="st0" d="M21.2,17.1c-0.2,0.2-0.2,0.5,0,0.7c0.2,0.2,0.5,0.2,0.7,0c0.2-0.2,0.2-0.5,0-0.7C21.7,16.9,21.4,16.9,21.2,17.1
	z"/>
<path class="st0" d="M12.2,8.1c-0.2,0.2-0.2,0.5,0,0.7s0.5,0.2,0.7,0c0.2-0.2,0.2-0.5,0-0.7C12.7,7.9,12.4,7.9,12.2,8.1z"/>
<path class="st0" d="M20.2,16.1c-0.2,0.2-0.2,0.5,0,0.7c0.2,0.2,0.5,0.2,0.7,0c0.2-0.2,0.2-0.5,0-0.7C20.7,15.9,20.4,15.9,20.2,16.1
	z"/>
<path class="st0" d="M21.2,11.1c-0.2,0.2-0.2,0.5,0,0.7c0.2,0.2,0.5,0.2,0.7,0s0.2-0.5,0-0.7S21.4,10.9,21.2,11.1z"/>
<path class="st0" d="M20.2,14.1c-0.2,0.2-0.2,0.5,0,0.7c0.2,0.2,0.5,0.2,0.7,0c0.2-0.2,0.2-0.5,0-0.7C20.7,13.9,20.5,13.9,20.2,14.1
	z"/>
<path class="st0" d="M13.2,9.1c-0.2,0.2-0.2,0.5,0,0.7c0.2,0.2,0.5,0.2,0.7,0s0.2-0.5,0-0.7C13.8,8.9,13.4,8.9,13.2,9.1z"/>
<path class="st0" d="M20.2,18.1c-0.2,0.2-0.2,0.5,0,0.7c0.2,0.2,0.5,0.2,0.7,0c0.2-0.2,0.2-0.5,0-0.7C20.7,17.9,20.4,17.9,20.2,18.1
	z"/>
<path class="st0" d="M19.2,19.1c-0.2,0.2-0.2,0.5,0,0.7c0.2,0.2,0.5,0.2,0.7,0c0.2-0.2,0.2-0.5,0-0.7C19.7,18.9,19.4,18.9,19.2,19.1
	z"/>
<path class="st0" d="M19.2,17.1c-0.2,0.2-0.2,0.5,0,0.7c0.2,0.2,0.5,0.2,0.7,0c0.2-0.2,0.2-0.5,0-0.7C19.7,16.9,19.4,16.9,19.2,17.1
	z"/>
<path class="st0" d="M21.2,9.1c-0.2,0.2-0.2,0.5,0,0.7c0.2,0.2,0.5,0.2,0.7,0s0.2-0.5,0-0.7S21.4,8.8,21.2,9.1z"/>
<path class="st0" d="M19.2,15.1c-0.2,0.2-0.2,0.5,0,0.7c0.2,0.2,0.5,0.2,0.7,0s0.2-0.5,0-0.7C19.7,14.9,19.4,14.9,19.2,15.1z"/>
<path class="st0" d="M21.2,19.2c-0.2,0.2-0.2,0.5,0,0.7c0.2,0.2,0.5,0.2,0.7,0c0.2-0.2,0.2-0.5,0-0.7C21.7,19,21.4,19,21.2,19.2z"/>
<path class="st0" d="M18.2,6.1c-0.2,0.2-0.2,0.5,0,0.7c0.2,0.2,0.5,0.2,0.7,0c0.2-0.2,0.2-0.5,0-0.7C18.7,5.9,18.4,5.9,18.2,6.1z"/>
<path class="st0" d="M18.2,16.1c-0.2,0.2-0.2,0.5,0,0.7c0.2,0.2,0.5,0.2,0.7,0c0.2-0.2,0.2-0.5,0-0.7C18.8,15.9,18.4,15.9,18.2,16.1
	z"/>
<path class="st0" d="M21.2,7.1c-0.2,0.2-0.2,0.5,0,0.7c0.2,0.2,0.5,0.2,0.7,0c0.2-0.2,0.2-0.5,0-0.7C21.7,6.9,21.4,6.9,21.2,7.1z"/>
<path class="st0" d="M17.2,7.1c-0.2,0.2-0.2,0.5,0,0.7c0.2,0.2,0.5,0.2,0.7,0c0.2-0.2,0.2-0.5,0-0.7C17.7,6.9,17.4,6.9,17.2,7.1z"/>
<path class="st0" d="M17.2,5.1c-0.2,0.2-0.2,0.5,0,0.7c0.2,0.2,0.5,0.2,0.7,0c0.2-0.2,0.2-0.5,0-0.7C17.7,4.9,17.4,4.9,17.2,5.1z"/>
<path class="st0" d="M14.2,4.1c-0.2,0.2-0.2,0.5,0,0.7s0.5,0.2,0.7,0s0.2-0.5,0-0.7S14.4,3.9,14.2,4.1z"/>
<path class="st0" d="M12.1,6.1c-0.2,0.2-0.2,0.5,0,0.7s0.5,0.2,0.7,0c0.2-0.2,0.2-0.5,0-0.7C12.6,5.9,12.3,5.9,12.1,6.1z"/>
<path class="st0" d="M13.2,5.1c-0.2,0.2-0.2,0.5,0,0.7s0.5,0.2,0.7,0s0.2-0.5,0-0.7S13.4,4.9,13.2,5.1z"/>
<path class="st0" d="M11.2,7.1c-0.2,0.2-0.2,0.5,0,0.7s0.5,0.2,0.7,0s0.2-0.5,0-0.7S11.4,6.9,11.2,7.1z"/>
<path class="st0" d="M12.1,4.1c-0.2,0.2-0.2,0.5,0,0.7s0.5,0.2,0.7,0s0.2-0.5,0-0.7S12.3,3.9,12.1,4.1z"/>
<path class="st0" d="M13.2,3.1c-0.2,0.2-0.2,0.5,0,0.7c0.2,0.2,0.5,0.2,0.7,0c0.2-0.2,0.2-0.5,0-0.7S13.4,2.9,13.2,3.1z"/>
<path class="st0" d="M11.2,5.1c-0.2,0.2-0.2,0.5,0,0.7c0.2,0.2,0.5,0.2,0.7,0s0.2-0.5,0-0.7S11.4,4.9,11.2,5.1z"/>
<path class="st0" d="M11.1,3.1c-0.2,0.2-0.2,0.5,0,0.7c0.2,0.2,0.5,0.2,0.7,0c0.2-0.2,0.2-0.5,0-0.7S11.3,2.9,11.1,3.1z"/>
</svg>
