<?xml version="1.0" encoding="UTF-8"?>
<svg width="17px" height="24px" viewBox="0 0 17 24" version="1.1" xmlns="http://www.w3.org/2000/svg" xmlns:xlink="http://www.w3.org/1999/xlink">
    <title>cmdPerformTask24</title>
    <g id="Page-1" stroke="none" stroke-width="1" fill="none" fill-rule="evenodd">
        <g id="cmdPerformTask24" fill="#464646" fill-rule="nonzero">
            <path d="M8.9,0 C9.85454545,0 10.9002066,0.72892562 10.9932945,1.66493238 L11,1.8 L11,2 C11.6416667,2 12.1993056,2.33611111 12.5958912,2.85428241 L12.7,3 L17,3 L17,24 L0,24 L0,3 L4.3,3 C4.57857143,2.44285714 5.20204082,2.05816327 5.85014577,2.00604956 L6,2 L6,1.8 C6,0.845454545 7.09338843,0.0731404959 8.06252817,0.00490232908 L8.2,0 L8.9,0 Z M4,4 L1,4 L1,23 L16,23 L16,4 L13,4 L13,6 L4,6 L4,4 Z M13.1,9.2 L13.9,9.8 L7,19.3 L3.1,14.8 L3.9,14.2 L7,17.7 L13.1,9.2 Z M8.9,1 L8.2,1 C7.73333333,1 7.09244444,1.34844444 7.00906667,1.72011852 L7,1.8 L7,3 L6,3 C5.64,3 5.28,3.243 5.1387,3.5103 L5.1,3.6 L5,3.8 L5,5 L12,5 L12,3.8 L11.9,3.7 C11.8090909,3.33636364 11.4702479,3.0553719 11.1088655,3.00728775 L11,3 L10,3 L10,1.8 C10,1.42857143 9.48265306,1.05714286 9.00841837,1.00597668 L8.9,1 Z M8.5,2 C8.77614237,2 9,2.22385763 9,2.5 C9,2.77614237 8.77614237,3 8.5,3 C8.22385763,3 8,2.77614237 8,2.5 C8,2.22385763 8.22385763,2 8.5,2 Z" id="Shape"></path>
        </g>
    </g>
</svg>