<?xml version="1.0" encoding="utf-8"?>
<!-- Generator: Adobe Illustrator 27.1.1, SVG Export Plug-In . SVG Version: 6.00 Build 0)  -->
<svg version="1.1" id="Layer_1" xmlns="http://www.w3.org/2000/svg" xmlns:xlink="http://www.w3.org/1999/xlink" x="0px" y="0px"
	 viewBox="0 0 32 32" style="enable-background:new 0 0 32 32;" xml:space="preserve">
<style type="text/css">
	.st0{fill:#464646;}
</style>
<path class="st0" d="M31.5,9c-0.3-0.2-0.7-0.3-1-0.2c-1.2,0.4-2.3,1.2-2.9,2.2h-8.4c-1.7-3-4.7-5-7.7-5C11.2,6,11,6.2,11,6.5V15H0v1
	h11v8.5c0,0.3,0.2,0.5,0.5,0.5c3,0,6-2,7.6-5h8.4c0.6,1.1,1.7,2,2.9,2.3c0.4,0.1,0.8,0,1.1-0.2c0.3-0.3,0.5-0.6,0.5-1V10
	C32,9.6,31.8,9.2,31.5,9z M31,21.1c0,0.1-0.1,0.2-0.1,0.2s-0.1,0-0.2,0c-1.1-0.3-2-1-2.5-2c0-0.2-0.2-0.3-0.4-0.3h-9
	c-0.1,0-0.3,0.1-0.4,0.3C17.1,22,14.6,23.8,12,24V7c2.6,0.2,5.1,2,6.4,4.7c0,0.2,0.2,0.3,0.4,0.3h9c0.2,0,0.4-0.1,0.5-0.2
	c0.5-0.9,1.4-1.7,2.5-2c0-0.1,0.1,0,0.1,0C31,9.8,31,9.9,31,10V21.1z"/>
</svg>
