<?xml version="1.0" encoding="utf-8"?>
<!-- Generator: Adobe Illustrator 27.3.1, SVG Export Plug-In . SVG Version: 6.00 Build 0)  -->
<svg version="1.1" id="Artwork" xmlns="http://www.w3.org/2000/svg" xmlns:xlink="http://www.w3.org/1999/xlink" x="0px" y="0px"
	 viewBox="0 0 16 16" style="enable-background:new 0 0 16 16;" xml:space="preserve">
<style type="text/css">
	.st0{fill:#464646;}
</style>
<path class="st0" d="M3,8v8h10V8H3z M12,15H4V9h8V15z"/>
<path class="st0" d="M14.5,3H13V0H3v3H1.5C0.7,3,0,3.7,0,4.5V12h2v-1H1V4.5C1,4.2,1.2,4,1.5,4h13C14.8,4,15,4.2,15,4.5V11h-1v1h2
	V4.5C16,3.7,15.3,3,14.5,3z M12,3H4V1h8V3z"/>
<polygon class="st0" points="11,7 12,7 13,7 13,6 11,6 "/>
</svg>
