<svg id="Artwork" xmlns="http://www.w3.org/2000/svg" viewBox="0 0 24 24">
  <g>
    <path d="M8,11H2.908a1.5,1.5,0,1,0,0,1H8v3H24V8H8ZM1.5,12a.5.5,0,1,1,.5-.5A.5.5,0,0,1,1.5,12ZM9,9H23v5H9V9Z" fill="#464646"/>
    <path d="M8,19H2.908a1.5,1.5,0,1,0,0,1H8v3H24V16H8ZM1.5,20a.5.5,0,1,1,.5-.5A.5.5,0,0,1,1.5,20ZM9,17H23v5H9V17Z" fill="#464646"/>
    <path d="M8,0V3H2.908a1.5,1.5,0,1,0,0,1H8V7H24V0ZM1.5,4A.5.5,0,1,1,2,3.5.5.5,0,0,1,1.5,4ZM23,6H9V1H23Z" class="aw-theme-iconOutline" fill="#464646"/>
  </g>
</svg>
