<?xml version="1.0" encoding="utf-8"?>
<!-- Generator: Adobe Illustrator 27.3.1, SVG Export Plug-In . SVG Version: 6.00 Build 0)  -->
<svg version="1.1" id="Layer_1" xmlns="http://www.w3.org/2000/svg" xmlns:xlink="http://www.w3.org/1999/xlink" x="0px" y="0px"
	 viewBox="0 0 24 24" style="enable-background:new 0 0 24 24;" xml:space="preserve">
<style type="text/css">
	.st0{fill:#464646;}
</style>
<path class="st0" d="M22.8,16.4l-5-2.9l1-0.6c0.2-0.1,0.3-0.3,0.3-0.4v-8c0-0.2-0.1-0.3-0.3-0.4l-7-4c-0.2-0.1-0.3-0.1-0.5,0l-7,4
	C4.1,4.2,4,4.3,4,4.5v8c0,0.2,0.1,0.3,0.3,0.4l1,0.6l-5,2.9C0.1,16.5,0,16.6,0,16.8c0,0.2,0.1,0.3,0.3,0.4l11,6.3
	c0.1,0,0.2,0.1,0.2,0.1s0.2,0,0.2-0.1l11-6.3c0.2-0.1,0.3-0.3,0.3-0.4C23,16.6,22.9,16.5,22.8,16.4z M12,15.6V8.8l6-3.4v6.8L12,15.6
	z M11.5,1.1l6,3.4l-6,3.4l-6-3.4L11.5,1.1z M5,5.4l6,3.4v6.8l-6-3.4V5.4z M4,15.4v0.1C4,15.8,4.2,16,4.5,16S5,15.8,5,15.5
	c0-0.2-0.2-0.4-0.4-0.5l0.5-0.3C5.2,14.9,5.3,15,5.5,15C5.8,15,6,14.8,6,14.5c0-0.1,0-0.2-0.1-0.2l0.3-0.2L7,14.5
	C7,14.8,7.2,15,7.5,15c0.1,0,0.2,0,0.2-0.1l0.4,0.2c0,0.1-0.1,0.3-0.1,0.4C8,15.8,8.2,16,8.5,16c0.2,0,0.4-0.2,0.5-0.4l2.3,1.3
	c0.1,0,0.2,0.1,0.2,0.1s0.2,0,0.2-0.1l2.3-1.3c0.1,0.2,0.2,0.4,0.5,0.4s0.5-0.2,0.5-0.5c0-0.1-0.1-0.3-0.1-0.3l0.4-0.2
	c0.1,0,0.2,0.1,0.2,0.1c0.3,0,0.5-0.2,0.5-0.5l0.7-0.4l0.3,0.2c0,0.1-0.1,0.1-0.1,0.2c0,0.3,0.2,0.5,0.5,0.5c0.2,0,0.3-0.1,0.4-0.2
	l0.5,0.3c-0.2,0.1-0.4,0.2-0.4,0.5s0.2,0.5,0.5,0.5s0.5-0.2,0.5-0.5v-0.1l2,1.2c0,0.2,0.1,0.3,0.3,0.4l-0.4,0.2
	c-0.1-0.1-0.2-0.2-0.4-0.2c-0.3,0-0.5,0.2-0.5,0.5c0,0.1,0,0.1,0,0.2l-3,1.8c0-0.2-0.2-0.4-0.5-0.4s-0.5,0.2-0.5,0.5
	c0,0.2,0.1,0.3,0.2,0.4l-0.4,0.2c0-0.4-0.1-0.4-0.2-0.4c-0.3,0-0.5,0.2-0.5,0.5c0,0,0,0,0,0.1l-2.1,1.2c0-0.1,0.1-0.2,0.1-0.3
	c0-0.3-0.2-0.5-0.5-0.5S12,21.2,12,21.5s0.2,0.5,0.5,0.5l0,0L12,22.3c-0.1-0.2-0.3-0.3-0.5-0.3s-0.4,0.1-0.5,0.3L10.5,22l0,0
	c0.3,0,0.5-0.2,0.5-0.5S10.8,21,10.5,21S10,21.2,10,21.5c0,0.1,0,0.2,0.1,0.3L8,20.6c0,0,0,0,0-0.1C8,20.2,7.8,20,7.5,20
	c-0.1,0-0.2,0-0.3,0.1l-0.4-0.2C6.9,19.8,7,19.7,7,19.5C7,19.2,6.8,19,6.5,19c-0.2,0-0.4,0.2-0.5,0.4l-3-1.8c0-0.1,0-0.1,0-0.2
	C3,17.2,2.8,17,2.5,17c-0.2,0-0.3,0.1-0.4,0.2l-0.6-0.4L4,15.4z"/>
<path class="st0" d="M5.4,19"/>
<path class="st0" d="M5.8,16.2c-0.2-0.2-0.5-0.2-0.7,0c-0.2,0.2-0.2,0.5,0,0.7c0.2,0.2,0.5,0.2,0.7,0C6,16.8,6,16.5,5.8,16.2z"/>
<path class="st0" d="M4.8,17.2c-0.2-0.2-0.5-0.2-0.7,0c-0.2,0.2-0.2,0.5,0,0.7c0.2,0.2,0.5,0.2,0.7,0C5,17.8,5,17.4,4.8,17.2z"/>
<path class="st0" d="M11.9,22.1c-0.2-0.2-0.5-0.2-0.7,0c-0.2,0.2-0.2,0.5,0,0.7c0.2,0.2,0.5,0.2,0.7,0
	C12.1,22.7,12.1,22.4,11.9,22.1z"/>
<path class="st0" d="M14.8,19.1c-0.2-0.2-0.5-0.2-0.7,0c-0.2,0.2-0.2,0.5,0,0.7c0.2,0.2,0.5,0.2,0.7,0
	C15.1,19.6,15.1,19.3,14.8,19.1z"/>
<path class="st0" d="M13.8,20.1c-0.2-0.2-0.5-0.2-0.7,0c-0.2,0.2-0.2,0.5,0,0.7c0.2,0.2,0.5,0.2,0.7,0
	C14.1,20.6,14.1,20.3,13.8,20.1z"/>
<path class="st0" d="M12.9,21.1c-0.2-0.2-0.5-0.2-0.7,0c-0.2,0.2-0.2,0.5,0,0.7c0.2,0.2,0.5,0.2,0.7,0
	C13.1,21.7,13.1,21.4,12.9,21.1z"/>
<path class="st0" d="M11.9,20.1c-0.2-0.2-0.5-0.2-0.7,0c-0.2,0.2-0.2,0.5,0,0.7c0.2,0.2,0.5,0.2,0.7,0
	C12.1,20.6,12.1,20.3,11.9,20.1z"/>
<path class="st0" d="M10.9,21.1c-0.2-0.2-0.5-0.2-0.7,0c-0.2,0.2-0.2,0.5,0,0.7c0.2,0.2,0.5,0.2,0.7,0
	C11.1,21.7,11.1,21.4,10.9,21.1z"/>
<path class="st0" d="M9.9,20.1c-0.2-0.2-0.5-0.2-0.7,0c-0.2,0.2-0.2,0.5,0,0.7c0.2,0.2,0.5,0.2,0.7,0C10.1,20.6,10.1,20.3,9.9,20.1z
	"/>
<path class="st0" d="M13.9,18.1c-0.2-0.2-0.5-0.2-0.7,0c-0.2,0.2-0.2,0.5,0,0.7c0.2,0.2,0.5,0.2,0.7,0
	C14.1,18.6,14.1,18.3,13.9,18.1z"/>
<path class="st0" d="M12.9,19.1c-0.2-0.2-0.5-0.2-0.7,0c-0.2,0.2-0.2,0.5,0,0.8c0.2,0.2,0.5,0.2,0.7,0
	C13.1,19.6,13.1,19.3,12.9,19.1z"/>
<path class="st0" d="M11.9,18.1c-0.2-0.2-0.5-0.2-0.7,0c-0.2,0.2-0.2,0.5,0,0.7c0.2,0.2,0.5,0.2,0.7,0
	C12.1,18.6,12.1,18.4,11.9,18.1z"/>
<path class="st0" d="M10.9,19.1c-0.2-0.2-0.5-0.2-0.7,0c-0.2,0.2-0.2,0.5,0,0.8s0.5,0.2,0.7,0C11.1,19.6,11.1,19.3,10.9,19.1z"/>
<path class="st0" d="M12.9,17.1c-0.2-0.2-0.5-0.2-0.7,0c-0.2,0.2-0.2,0.5,0,0.7c0.2,0.2,0.5,0.2,0.7,0
	C13.1,17.6,13.1,17.3,12.9,17.1z"/>
<path class="st0" d="M8.9,19.2c-0.2-0.2-0.5-0.2-0.8,0c-0.2,0.2-0.2,0.5,0,0.7c0.2,0.2,0.5,0.2,0.7,0C9.1,19.7,9.1,19.4,8.9,19.2z"
	/>
<path class="st0" d="M10.9,17.1c-0.2-0.2-0.5-0.2-0.7,0c-0.2,0.2-0.2,0.5,0,0.7c0.2,0.2,0.5,0.2,0.7,0
	C11.1,17.6,11.1,17.3,10.9,17.1z"/>
<path class="st0" d="M9.9,18.1c-0.2-0.2-0.5-0.2-0.7,0c-0.2,0.2-0.2,0.5,0,0.7c0.2,0.2,0.5,0.2,0.7,0C10.1,18.6,10.1,18.3,9.9,18.1z
	"/>
<path class="st0" d="M11.9,16.1c-0.2-0.2-0.5-0.2-0.7,0c-0.2,0.2-0.2,0.5,0,0.7c0.2,0.2,0.5,0.2,0.7,0
	C12.1,16.6,12.1,16.3,11.9,16.1z"/>
<path class="st0" d="M7.9,20.1c-0.2-0.2-0.5-0.2-0.7,0c-0.2,0.2-0.2,0.5,0,0.7c0.2,0.2,0.5,0.2,0.7,0C8.1,20.6,8.1,20.3,7.9,20.1z"
	/>
<path class="st0" d="M7.9,18.1c-0.2-0.2-0.5-0.2-0.7,0c-0.2,0.2-0.2,0.5,0,0.7c0.2,0.2,0.5,0.2,0.7,0C8.1,18.6,8.1,18.3,7.9,18.1z"
	/>
<path class="st0" d="M9.9,16.1c-0.2-0.2-0.5-0.2-0.7,0c-0.2,0.2-0.2,0.5,0,0.7c0.2,0.2,0.5,0.2,0.7,0C10.1,16.6,10.1,16.3,9.9,16.1z
	"/>
<path class="st0" d="M8.9,17.1c-0.2-0.2-0.5-0.2-0.7,0c-0.2,0.2-0.2,0.5,0,0.7c0.2,0.2,0.5,0.2,0.7,0C9.1,17.7,9.1,17.3,8.9,17.1z"
	/>
<path class="st0" d="M7,19.1c-0.2-0.2-0.5-0.2-0.7,0c-0.2,0.2-0.2,0.5,0,0.7C6.5,20,6.8,20,7,19.8C7.2,19.6,7.2,19.3,7,19.1z"/>
<path class="st0" d="M8.9,15.1c-0.2-0.2-0.6-0.2-0.8,0s-0.2,0.5,0,0.7s0.5,0.2,0.7,0C9.1,15.6,9.1,15.3,8.9,15.1z"/>
<path class="st0" d="M7.9,16.1c-0.2-0.2-0.5-0.2-0.7,0c-0.2,0.2-0.2,0.5,0,0.7c0.2,0.2,0.5,0.2,0.7,0C8.1,16.6,8.1,16.3,7.9,16.1z"
	/>
<path class="st0" d="M3.8,16.1c-0.2-0.2-0.5-0.2-0.7,0c-0.2,0.2-0.2,0.5,0,0.7c0.2,0.2,0.5,0.2,0.7,0C4,16.6,4,16.3,3.8,16.1z"/>
<path class="st0" d="M15.9,18.1c-0.2-0.2-0.5-0.2-0.7,0c-0.2,0.2-0.2,0.5,0,0.7c0.2,0.2,0.5,0.2,0.7,0
	C16.1,18.6,16.1,18.3,15.9,18.1z"/>
<path class="st0" d="M17.9,18.1c-0.2-0.2-0.5-0.2-0.7,0c-0.2,0.2-0.2,0.5,0,0.7c0.2,0.2,0.5,0.2,0.7,0
	C18.1,18.6,18.1,18.3,17.9,18.1z"/>
<path class="st0" d="M15.9,16.1c-0.2-0.2-0.5-0.2-0.7,0c-0.2,0.2-0.2,0.5,0,0.7s0.5,0.2,0.7,0S16.1,16.3,15.9,16.1z"/>
<path class="st0" d="M6.9,17.2c-0.2-0.2-0.6-0.2-0.8,0c-0.2,0.2-0.2,0.5,0,0.7c0.2,0.2,0.5,0.2,0.7,0C7.1,17.7,7.1,17.4,6.9,17.2z"
	/>
<path class="st0" d="M16.9,17.1c-0.2-0.2-0.5-0.2-0.7,0c-0.2,0.2-0.2,0.5,0,0.7c0.2,0.2,0.5,0.2,0.7,0
	C17.1,17.6,17.1,17.3,16.9,17.1z"/>
<path class="st0" d="M14.9,17.1c-0.2-0.2-0.5-0.2-0.7,0c-0.2,0.2-0.2,0.5,0,0.7c0.2,0.2,0.5,0.2,0.7,0
	C15.1,17.7,15.1,17.3,14.9,17.1z"/>
<path class="st0" d="M14.9,15.2c-0.2-0.2-0.5-0.2-0.7,0c-0.2,0.2-0.2,0.5,0,0.7c0.2,0.2,0.5,0.2,0.7,0
	C15.1,15.7,15.1,15.4,14.9,15.2z"/>
<path class="st0" d="M13.9,16.1c-0.2-0.2-0.5-0.2-0.7,0c-0.2,0.2-0.2,0.5,0,0.7c0.2,0.2,0.5,0.2,0.7,0
	C14.1,16.7,14.1,16.3,13.9,16.1z"/>
<path class="st0" d="M3.8,18.1c-0.2-0.2-0.5-0.2-0.7,0c-0.2,0.2-0.2,0.5,0,0.7s0.5,0.2,0.7,0S4.1,18.3,3.8,18.1z"/>
<path class="st0" d="M6.8,15.2c-0.2-0.2-0.5-0.2-0.7,0c-0.2,0.2-0.2,0.5,0,0.7c0.2,0.2,0.5,0.2,0.7,0S7,15.4,6.8,15.2z"/>
<path class="st0" d="M5.8,18.1c-0.2-0.2-0.5-0.2-0.7,0s-0.2,0.5,0,0.7c0.2,0.2,0.5,0.2,0.7,0C6,18.6,6,18.3,5.8,18.1z"/>
<path class="st0" d="M18.9,17.1c-0.2-0.2-0.5-0.2-0.7,0c-0.2,0.2-0.2,0.5,0,0.7c0.2,0.2,0.5,0.2,0.7,0
	C19.1,17.6,19.1,17.3,18.9,17.1z"/>
<path class="st0" d="M16.9,15.1c-0.2-0.2-0.5-0.2-0.7,0c-0.2,0.2-0.2,0.5,0,0.7c0.2,0.2,0.5,0.2,0.7,0
	C17.1,15.6,17.1,15.3,16.9,15.1z"/>
<path class="st0" d="M17.9,16.1c-0.2-0.2-0.5-0.2-0.7,0c-0.2,0.2-0.2,0.5,0,0.7c0.2,0.2,0.5,0.2,0.7,0
	C18.1,16.6,18.1,16.3,17.9,16.1z"/>
<path class="st0" d="M15.9,14.2c-0.2-0.2-0.5-0.2-0.7,0c-0.2,0.2-0.2,0.5,0,0.7c0.2,0.2,0.5,0.2,0.7,0
	C16.1,14.7,16.1,14.4,15.9,14.2z"/>
<path class="st0" d="M19.9,16.1c-0.2-0.2-0.5-0.2-0.7,0c-0.2,0.2-0.2,0.5,0,0.7c0.2,0.2,0.5,0.2,0.7,0
	C20.1,16.6,20.1,16.3,19.9,16.1z"/>
</svg>
