<svg version="1.1" id="Artwork" xmlns="http://www.w3.org/2000/svg" xmlns:xlink="http://www.w3.org/1999/xlink" x="0px" y="0px"
	 width="16px" height="16px" viewBox="0 0 16 16" enable-background="new 0 0 16 16" xml:space="preserve">
<path class="aw-theme-iconOutline" fill="#464646" d="M13.7,3l-0.5-2.3L5.6,2.4L5.1,1.5C4.9,1.2,4.6,1,4.2,1H1.1C0.5,1,0,1.5,0,2.1V15h16V3H13.7z M15,4v1h-0.8
	l-0.2-1H15z M13.1,5H2.8L2.6,4.1l9.8-2.2L13.1,5z M1,2.1C1,2,1,2,1,2.1L4.3,2l0.3,0.6L1.4,3.3L1.8,5H1V2.1z M15,14H1V6h14V14z"/>
</svg>
