<?xml version="1.0" encoding="utf-8"?>
<!-- Generator: Adobe Illustrator 27.3.1, SVG Export Plug-In . SVG Version: 6.00 Build 0)  -->
<svg version="1.1" id="Artwork" xmlns="http://www.w3.org/2000/svg" xmlns:xlink="http://www.w3.org/1999/xlink" x="0px" y="0px"
	 viewBox="0 0 24 24" style="enable-background:new 0 0 24 24;" xml:space="preserve">
<style type="text/css">
	.st0{fill:#464646;}
</style>
<path class="st0" d="M4,12v12h16V12H4z M19,23H5V13h14V23z"/>
<path class="st0" d="M21.5,5H20V0H4v5H2.5C1.1,5,0,6.1,0,7.5V18h3v-1H1V7.5C1,6.7,1.7,6,2.5,6h19C22.3,6,23,6.7,23,7.5V17h-2v1h3
	V7.5C24,6.1,22.9,5,21.5,5z M19,5H5V1h14V5z"/>
<polygon class="st0" points="17,10 18.5,10 20,10 20,9 17,9 "/>
</svg>
