<svg width="24" height="24" viewBox="0 0 24 24" fill="none" xmlns="http://www.w3.org/2000/svg">
<g clip-path="url(#clip0_423_14758)">
<path d="M14 4C14.5523 4 15 3.55228 15 3C15 2.44772 14.5523 2 14 2C13.4477 2 13 2.44772 13 3C13 3.55228 13.4477 4 14 4Z" fill="#464646"/>
<path d="M5 4C5.55228 4 6 3.55228 6 3C6 2.44772 5.55228 2 5 2C4.44772 2 4 2.44772 4 3C4 3.55228 4.44772 4 5 4Z" fill="#464646"/>
<path d="M15 15H18.2C15.7 16.9 14.6 19.6 15.8 21.2C16 21.5 16.3 21.7 16.7 21.9L17.1 21C16.9 20.9 16.7 20.8 16.6 20.6C15.8 19.5 16.9 17.3 19 15.7V19H20V14H15V15Z" fill="#464646"/>
<path d="M21 12C20.4 11.6 19.6 11.3 18.9 11.1H19V2.5C19 1.1 17.9 0 16.5 0H2.5C1.1 0 0 1.1 0 2.5V15.5C0 16.9 1.1 18 2.5 18H11V17H7V14H12C10.1 17 10.9 21 14 23C15.1 23.7 16.3 24 17.5 24H17.7C19.8 23.9 21.8 22.9 23 21C23.7 19.9 24 18.7 24 17.6V17.3C23.9 15.2 22.9 13.2 21 12ZM6 17H2.5C1.7 17 1 16.3 1 15.5V14H6V17ZM6 13H1V10H6V13ZM6 9H1V6H6V9ZM12 13H7V10H12V13ZM12 9H7V6H12V9ZM1 5V2.5C1 1.7 1.7 1 2.5 1H16.5C17.3 1 18 1.7 18 2.5V5H1ZM13 9V6H18V9H13ZM18 10V11C17.8 11 17.7 11 17.5 11C15.8 11 14.2 11.7 13 12.8V10H18ZM17.5 23C14.5 23 12 20.5 12 17.5C12 14.5 14.5 12 17.5 12C20.5 12 23 14.5 23 17.5C23 20.5 20.5 23 17.5 23Z" fill="#464646"/>
</g>
<defs>
<clipPath id="clip0_423_14758">
<rect width="24" height="24" fill="white"/>
</clipPath>
</defs>
</svg>
