<?xml version="1.0" encoding="utf-8"?>
<!-- Generator: Adobe Illustrator 27.3.1, SVG Export Plug-In . SVG Version: 6.00 Build 0)  -->
<svg version="1.1" id="Layer_1" xmlns="http://www.w3.org/2000/svg" xmlns:xlink="http://www.w3.org/1999/xlink" x="0px" y="0px"
	 viewBox="0 0 24 24" style="enable-background:new 0 0 24 24;" xml:space="preserve">
<style type="text/css">
	.st0{fill:#464646;}
</style>
<polygon class="st0" points="16,15 19.3,15 14.6,19.6 15.4,20.4 20,15.7 20,19 21,19 21,14 16,14 "/>
<path class="st0" d="M2.5,18H9v-1H7v-3h3v-1H7v-3h5v1h1v-1h2V9h-2V6h5v3h1V2.5C19,1.1,17.9,0,16.5,0h-14C1.1,0,0,1.1,0,2.5v13
	C0,16.9,1.1,18,2.5,18z M12,9H7V6h5V9z M1,2.5C1,1.7,1.7,1,2.5,1h14C17.3,1,18,1.7,18,2.5V5H1V2.5z M1,6h5v3H1V6z M1,10h5v3H1V10z
	 M1,14h5v3H2.5C1.7,17,1,16.3,1,15.5V14z"/>
<path class="st0" d="M17.5,11c-3.6,0-6.5,2.9-6.5,6.5s2.9,6.5,6.5,6.5s6.5-2.9,6.5-6.5S21.1,11,17.5,11z M17.5,23
	c-3,0-5.5-2.5-5.5-5.5s2.5-5.5,5.5-5.5s5.5,2.5,5.5,5.5S20.5,23,17.5,23z"/>
<path class="st0" d="M5,4c0.6,0,1-0.4,1-1S5.6,2,5,2S4,2.4,4,3S4.4,4,5,4z"/>
<path class="st0" d="M14,4c0.6,0,1-0.4,1-1s-0.4-1-1-1s-1,0.4-1,1S13.4,4,14,4z"/>
</svg>
