<svg id="Layer_1" data-name="Layer 1" xmlns="http://www.w3.org/2000/svg" viewBox="0 0 24 24">
    <path d="M17.9619,16.6914a.4992.4992,0,0,0-.1084-.5449l-6-6a.5.5,0,0,0-.707,0l-6,6A.5.5,0,0,0,5.5,17H8v6.5a.5.5,0,0,0,.5.5h6a.5.5,0,0,0,.5-.5V17h2.5A.5.5,0,0,0,17.9619,16.6914ZM14.5,16a.5.5,0,0,0-.5.5V23H9V16.5a.5.5,0,0,0-.5-.5H6.707L11.5,11.207,16.293,16Z" class="aw-theme-iconOutline" fill="#464646"/>
    <path d="M11.5,0A11.4984,11.4984,0,0,0,5.6792,21.4155l.5078-.8613A10.5247,10.5247,0,0,1,2.5869,17H4V16H2.0462a10.4423,10.4423,0,0,1-1.0129-4H5.0172c.0076.3129.0111.628.0321.9336l.9981-.0693c-.02-.2831-.0227-.5749-.03-.8643H7V11H6.0137a18.0618,18.0618,0,0,1,.544-4H11V9h1V7h4.4423a18.0618,18.0618,0,0,1,.544,4H15.1831v1H16.98c-.0089.3515-.0138.7052-.0409,1.0469l.997.0791c.0291-.3679.0349-.7478.044-1.126h3.9859a10.4409,10.4409,0,0,1-1.01,4H19v1h1.4173a10.5258,10.5258,0,0,1-3.6922,3.6055l.499.8662A11.4984,11.4984,0,0,0,11.5,0Zm8.9272,6H17.2064a10.9858,10.9858,0,0,0-2.5059-4.4973A10.5394,10.5394,0,0,1,20.4272,6ZM8.3,1.5027A10.9858,10.9858,0,0,0,5.7936,6H2.5728A10.5394,10.5394,0,0,1,8.3,1.5027ZM5.0143,11H1.0253A10.4092,10.4092,0,0,1,2.0276,7H5.5193A19.141,19.141,0,0,0,5.0143,11ZM6.85,6C7.7479,3.2864,9.27,1.3643,11,1.05V6ZM12,6V1.05c1.73.3142,3.2521,2.2363,4.15,4.95Zm5.4808,1h3.4916a10.4092,10.4092,0,0,1,1.0023,4h-3.989A19.1411,19.1411,0,0,0,17.4808,7Z" class="aw-theme-iconOutline" fill="#464646"/>
</svg>
