<svg id="Layer_1" data-name="Layer 1" xmlns="http://www.w3.org/2000/svg" viewBox="0 0 24 24">
  <g>
    <polygon points="15 14.5 15 20 16 20 16 9 15 9 15 14.5" fill="#464646"/>
    <path d="M7.7905,9.0928A.5.5,0,0,0,7,9.5v10a.5.5,0,0,0,.79.4072l7-5a.5.5,0,0,0,0-.8144ZM8,18.5283V10.4717L13.64,14.5Z" fill="#464646"/>
    <path d="M11.5,3a.4035.4035,0,0,0,.19-.04.3575.3575,0,0,0,.16-.11A.4681.4681,0,0,0,12,2.5a.4117.4117,0,0,0-.04-.19.3579.3579,0,0,0-.11-.16.3485.3485,0,0,0-.16-.1094.4915.4915,0,0,0-.54.1094A.4713.4713,0,0,0,11,2.5a.4529.4529,0,0,0,.15.35A.4666.4666,0,0,0,11.5,3Z" fill="#464646"/>
    <path d="M15.7256,3A1.9975,1.9975,0,0,0,14,2V1.8408A2.0467,2.0467,0,0,0,11.8945,0h-.6938A2.1355,2.1355,0,0,0,9,1.8408V2A1.9975,1.9975,0,0,0,7.2744,3H2V24H21V3ZM9,3h1V1.8408C10,1.4082,10.6763,1,11.2007,1h.6938C12.395,1,13,1.375,13,1.8408V3h1a1,1,0,0,1,.937.667L15,3.8445V5H8V3.8445l.063-.1775A1,1,0,0,1,9,3ZM20,23H3V4H7V5.5a.5.5,0,0,0,.5.5h8a.5.5,0,0,0,.5-.5V4h4Z" fill="#464646"/>
  </g>
</svg>
