<?xml version="1.0" encoding="utf-8"?>
<!-- Generator: Adobe Illustrator 27.2.0, SVG Export Plug-In . SVG Version: 6.00 Build 0)  -->
<svg version="1.1" id="Layer_1" xmlns="http://www.w3.org/2000/svg" xmlns:xlink="http://www.w3.org/1999/xlink" x="0px" y="0px"
	 viewBox="0 0 16 16" style="enable-background:new 0 0 16 16;" xml:space="preserve">
<style type="text/css">
	.st0{fill:#464646;}
</style>
<g>
	<path class="st0" d="M1.8,11.9l-0.3,0.3l0.3,0.3C1.8,12.7,2,12.8,2,12.8c0,0,0.3-0.3,0.7-0.7s0.7-0.7,0.7-0.7c0,0,0.4,0.2,0.9,0.5
		l0.8,0.5l0.1-0.1c0.5-0.5,2.4-2.4,2.4-2.4c0,0-0.5-0.5-0.5-0.5c0,0-0.5,0.5-1,1c-0.6,0.6-1,1-1,1c0,0-0.4-0.2-0.8-0.5
		c-0.5-0.3-0.8-0.5-0.8-0.5C3.3,10.5,2.6,11.1,1.8,11.9z"/>
	<path class="st0" d="M16,4.5l-4.5-4h-0.8L7,0.5v4.2L4.5,2.5H3.8L0,2.5v13l9,0l0-2l7,0L16,4.5z M11.5,1.5L15,4.6h-3.5V1.5z M4.5,3.5
		l3.5,3.1H4.5L4.5,3.5z M8.3,14.8H0.7l0-11.6h3.1v4.1h4.6V14.8z M15.3,12.8H9l0-6.2L7.6,5.3l0-4.1h3.1v4.1h4.6V12.8z"/>
	<path class="st0" d="M9.7,7.3V8v3.4v0.7h0.7h0.7h0.7v-0.7V8V7.3h-0.7h-0.7H9.7z M11.1,8v3.4h-0.7V8H11.1z"/>
	<path class="st0" d="M13.9,12.1h0.7v-0.7V6.6V6.2V6h-2.1v0.1v0.6v4.8v0.7h0.7H13.9z M13.2,6.6h0.7v4.8h-0.7V6.6z"/>
</g>
</svg>
