<svg version="1.1" id="Layer_1" xmlns="http://www.w3.org/2000/svg" xmlns:xlink="http://www.w3.org/1999/xlink" x="0px" y="0px"
	 viewBox="0 0 24 24" enable-background="new 0 0 24 24" xml:space="preserve">
<path class="aw-theme-iconOutline" fill="#464646" d="M22.5,24h-22c-0.2,0-0.3-0.1-0.4-0.2C0,23.7,0,23.5,0,23.3l4-11C4.1,12.1,4.3,12,4.5,12h14
	c0.2,0,0.4,0.1,0.5,0.3l4,11c0.1,0.2,0,0.3-0.1,0.5C22.8,23.9,22.7,24,22.5,24z M1.2,23h20.6l-3.6-10H4.9L1.2,23z"/>
<path class="aw-theme-iconOutline" fill="#464646" d="M11.5,10C9,10,7,8,7,5.5S9,1,11.5,1S16,3,16,5.5S14,10,11.5,10z M11.5,2C9.6,2,8,3.6,8,5.5S9.6,9,11.5,9
	S15,7.4,15,5.5S13.4,2,11.5,2z"/>
<path class="aw-theme-iconOutline" fill="#464646" d="M11.5,23C9,23,7,21,7,18.5S9,14,11.5,14s4.5,2,4.5,4.5S14,23,11.5,23z M11.5,15C9.6,15,8,16.6,8,18.5
	S9.6,22,11.5,22s3.5-1.6,3.5-3.5S13.4,15,11.5,15z"/>
</svg>
