<svg width="24" height="24" viewBox="0 0 24 24" fill="none" xmlns="http://www.w3.org/2000/svg">
<g clip-path="url(#clip0_423_14763)">
<path d="M21.3 16C21.1 15.9 20.9 15.9 20.8 16C18.8 17.4 16.2 17.4 14.2 16C14.1 15.9 13.9 15.9 13.7 16C12 16.9 11 18.4 11 20V24H12V20C12 18.8 12.7 17.7 13.8 17.1C16.1 18.5 18.9 18.5 21.1 17.1C22.3 17.7 23 18.8 23 20V24H24V20C24 18.3 23 16.8 21.3 16Z" fill="#464646"/>
<path d="M15 22H14V24H15V22Z" fill="#464646"/>
<path d="M5 10H1V5H5V5.5C5 6.3 5.7 7 6.5 7H8.5C8.9 7 9.3 6.8 9.6 6.6C9.8 6.3 10 5.9 10 5.5V5H14V8H15V3.9L12.4 0H2.8L0 3.9V11H5V10ZM3.4 1H11.9L13.9 4H9V5.5C9 5.6 9 5.8 8.9 5.9C8.8 5.9 8.6 6 8.5 6H6.5C6.2 6 6 5.8 6 5.5V4H1.2L3.4 1Z" fill="#464646"/>
<path d="M21 22H20V24H21V22Z" fill="#464646"/>
<path d="M17.5 8C15.6 8 14 9.6 14 11.6C14 13.6 15.6 16 17.5 16C19.4 16 21 13.6 21 11.6C21 9.6 19.4 8 17.5 8ZM17.5 15C16.2 15 15 13.1 15 11.6C15 10.1 16.1 9 17.5 9C18.9 9 20 10.1 20 11.6C20 13.1 18.8 15 17.5 15Z" fill="#464646"/>
<path d="M12 10V9H7V14H8V10.7L12.7 15.4L13.4 14.7L8.7 10H12Z" fill="#464646"/>
</g>
<defs>
<clipPath id="clip0_423_14763">
<rect width="24" height="24" fill="white"/>
</clipPath>
</defs>
</svg>
