<?xml version="1.0" encoding="utf-8"?>
<!-- Generator: Adobe Illustrator 27.3.1, SVG Export Plug-In . SVG Version: 6.00 Build 0)  -->
<svg version="1.1" id="Layer_1" xmlns="http://www.w3.org/2000/svg" xmlns:xlink="http://www.w3.org/1999/xlink" x="0px" y="0px"
	 viewBox="0 0 16 16" style="enable-background:new 0 0 16 16;" xml:space="preserve">
<style type="text/css">
	.st0{fill:#464646;}
</style>
<path class="st0" d="M8,6C6.9,6,6,6.9,6,8s0.9,2,2,2c1.1,0,2-0.9,2-2C10,6.9,9.1,6,8,6z M8,9C7.4,9,7,8.6,7,8s0.4-1,1-1
	c0.6,0,1,0.4,1,1C9,8.6,8.6,9,8,9z"/>
<path class="st0" d="M2.7,2C-0.6,4.9-0.9,10,2,13.3c2.9,3.3,8,3.6,11.3,0.7C15,12.5,16,10.3,16,8h-1c0,3.9-3.1,7-7,7s-7-3.1-7-7
	s3.1-7,7-7c2.2,0,4.4,1.1,5.7,2.9L13.8,4H10v1h5l0-5h-1l0,2.7C11.1-0.6,6-0.9,2.7,2z"/>
</svg>
