<svg id="Layer_1" data-name="Layer 1" xmlns="http://www.w3.org/2000/svg" viewBox="0 0 24 24">
  <path d="M23.231,7.035a1.532,1.532,0,0,0-.55-.229l.232-.271.069-.105a2.013,2.013,0,0,0-.516-2.576,1.807,1.807,0,0,0-2.333.38,1.668,1.668,0,0,0-1-.924,2.043,2.043,0,0,0-2.095.759c-.775.984-2.023,2.388-3.025,3.516-.6.67-1.095,1.232-1.359,1.552l-1.369.491A4.628,4.628,0,0,0,7.492,8.183,9.947,9.947,0,0,0,2.45,9.65L.682,8.7l-.139.652c-.05.237-1.225,5.837.076,8.112a2.266,2.266,0,0,0,1.756.989C3.078,18.7,6.8,20,8.257,20h0a30.991,30.991,0,0,0,9.495-2.356l.12-.051.08-.1c.859-1.109,1.6-2.047,2.229-2.853a31.575,31.575,0,0,0,3.575-5.014A2.046,2.046,0,0,0,23.231,7.035Zm-6.077,5.136-.216.262a1.061,1.061,0,0,1-.821.386h-.164a11.025,11.025,0,0,0,1.125-.605Zm4.742-7.5a1.022,1.022,0,0,1,.213,1.262l-4.048,4.724a2.646,2.646,0,0,0-.2-1.37,2.44,2.44,0,0,0-.186-.339c.338-.429.781-1,1.27-1.634.565-.731,1.191-1.54,1.754-2.258C21.136,4.6,21.583,4.458,21.9,4.675ZM14.758,8.249c1.011-1.138,2.269-2.554,3.034-3.526.364-.386.743-.55,1.037-.46a.768.768,0,0,1,.478.658c.022.163-.219.569-.715,1.208-.1.132-.18.236-.232.317l-.2.26c-.467.6-.891,1.153-1.221,1.572a2.1,2.1,0,0,0-1.706-.065l-.647.231Zm8.1.938A31.749,31.749,0,0,1,19.4,14.018c-.613.782-1.325,1.688-2.152,2.754A29.972,29.972,0,0,1,8.218,19a28.688,28.688,0,0,1-5.579-1.516l-.162-.029a1.261,1.261,0,0,1-1.011-.521c-.8-1.4-.4-4.87-.072-6.717l1.1.592.249-.162A8.949,8.949,0,0,1,7.5,9.183c2.477,0,3.112,1.211,3.135,1.255l.192.415,4.742-1.7a1,1,0,0,1,1.383.544,1.3,1.3,0,0,1-.372,1.649A10.432,10.432,0,0,1,12.2,12.838a2.733,2.733,0,0,0-1.028.212L8.02,14.405a.5.5,0,1,0,.4.918l3.143-1.352a1.824,1.824,0,0,1,.693-.135l.152-.017h3.714a2.059,2.059,0,0,0,1.592-.75c.572-.692,1.7-2.1,3.81-4.819.417-.448.841-.595,1.148-.389A1.046,1.046,0,0,1,22.858,9.187Z" class="aw-theme-iconOutline" fill="#464646"/>
</svg>
