<svg id="Layer_2" data-name="Layer 2" xmlns="http://www.w3.org/2000/svg" viewBox="0 0 10 10">
  <path d="M4.154,5.279l-.829-.558L5.7,1.194A1.893,1.893,0,0,1,8.087.618a1.644,1.644,0,0,1,.862,1.034,1.486,1.486,0,0,1-.2,1.217l-.835-.55a.5.5,0,0,0,.071-.41.644.644,0,0,0-.347-.4.882.882,0,0,0-1.1.239Z" fill="#464646"/>
  <path d="M2.182,4.855,1.3,4.39,3.173.826A1.9,1.9,0,0,1,5.587.2a1.646,1.646,0,0,1,.835.943l-.948.317A.657.657,0,0,0,5.136,1.1a.882.882,0,0,0-1.1.239Z" fill="#464646"/>
  <path d="M2.6,10A7.646,7.646,0,0,1,.571,9.361L-.5,8.8l.007-5.067,1.242.756a3.092,3.092,0,0,1,1.618-.5,1.779,1.779,0,0,1,1.326.5L4.5,4.067A1.968,1.968,0,0,1,5.51,3.88L6.2,2.835a1.9,1.9,0,0,1,2.389-.581,1.644,1.644,0,0,1,.862,1.034,1.485,1.485,0,0,1-.2,1.217L6.628,8.394a5.1,5.1,0,0,1-.393.73l-.071.112L6.045,9.3A8.266,8.266,0,0,1,2.6,10ZM.5,8.2,1,8.46A7.593,7.593,0,0,0,2.6,9a7.664,7.664,0,0,0,2.868-.529,3.625,3.625,0,0,0,.276-.544l.115-.174L6.011,7.6l.7-1.066a1.76,1.76,0,0,1-.52.385l-2.3,1.115L2.982,8l.036-1,.663.024L5.756,6.017a.659.659,0,0,0,.358-.4.5.5,0,0,0-.063-.409.88.88,0,0,0-1.1-.254l-1.09.583-.683-.007-.14-.257c-.037-.066-.193-.283-.675-.283A2.183,2.183,0,0,0,1.1,5.467l-.276.241-.32-.2ZM6.476,4.231a1.627,1.627,0,0,1,.42.447A1.487,1.487,0,0,1,7.075,5.9a1.586,1.586,0,0,1-.071.2L8.412,3.955a.5.5,0,0,0,.071-.41.641.641,0,0,0-.347-.4.884.884,0,0,0-1.1.239Z" class="aw-theme-iconOutline" fill="#464646"/>
</svg>
