<svg version="1.1" id="Layer_1" xmlns="http://www.w3.org/2000/svg" xmlns:xlink="http://www.w3.org/1999/xlink" x="0px" y="0px"
	 viewBox="0 0 24 24" enable-background="new 0 0 24 24" xml:space="preserve">
	<path class="aw-theme-iconOutline" fill="#464646" d="M16,5.8v3.1h1v-4c0-0.2-0.1-0.3-0.3-0.4l-8-4.4C8.6,0,8.4,0,8.2,0.1l-8,4.4C0.1,4.6,0,4.8,0,4.9v9.3
		c0,0.2,0.1,0.3,0.2,0.4l8,4.9c0.1,0,0.2,0.1,0.3,0.1c0.1,0,0.2,0,0.2-0.1C8.9,19.5,9,19.3,9,19.2v-9.1L16,5.8z M8.5,1.1l7,3.9
		l-7,4.3L1.5,5L8.5,1.1z M1,14V5.8l7,4.3v8.2L1,14z"/>
	<path class="aw-theme-iconOutline" fill="#464646" d="M17,11c-3.9,0-7,3-7,6.9c0,2.2,1,4.1,2.9,5.5l0.4,0.3l1.5-1.6h4.6l1.5,1.6l0.4-0.3C23,22,24,20.1,24,17.9
		C24,14.1,20.9,11,17,11z M20.9,22.3L19.7,21h-5.4l-1.2,1.3c-1.4-1.1-2.1-2.7-2.1-4.4c0-3.3,2.6-5.9,6-5.9s6,2.6,6,5.9
		C23,20,21.9,21.4,20.9,22.3z"/>
	<path class="aw-theme-iconOutline" fill="#464646" d="M17,18c0,0-0.1,0-0.1,0l-2.5-3.3l-0.8,0.6l2.5,3.3C16,18.7,16,18.9,16,19c0,0.6,0.4,1,1,1s1-0.4,1-1
		C18,18.4,17.6,18,17,18z"/>
</svg>
