<svg id="Layer_2" data-name="Layer 2" xmlns="http://www.w3.org/2000/svg" viewBox="0 0 32 32">
  <path d="M10.9,26.486c-1.9,0-7.133-1.834-7.844-2.086A2.819,2.819,0,0,1,.783,23.108C-.907,20.144.661,12.66.729,12.343l.139-.652,2.259,1.216a13.256,13.256,0,0,1,6.808-2c3.136,0,4.533,1.3,5.046,1.979l5.439-1.949A2.5,2.5,0,0,1,23.747,12.3a2.9,2.9,0,0,1-.985,3.717c-.766.412-1.467.748-2.105,1.02L21.48,17a1.615,1.615,0,0,0,1.312-.431c.768-.929,2.284-2.813,5.149-6.511,1.2-1.291,2.384-1.217,3.1-.728a2.582,2.582,0,0,1,.653,3.265c-.759,1.58-2.024,3.191-4.8,6.722-.853,1.087-1.846,2.354-3.006,3.851l-.079.1-.12.05A41.141,41.141,0,0,1,10.9,26.486ZM1.58,13.21c-.34,1.874-1.164,7.235.072,9.4a1.89,1.89,0,0,0,1.505.79l.166.03c.057.02,5.751,2.053,7.58,2.053a40.68,40.68,0,0,0,12.276-3.034c1.128-1.454,2.1-2.688,2.93-3.752,2.643-3.367,3.97-5.057,4.683-6.539a1.582,1.582,0,0,0-.316-2.006c-.482-.33-1.147-.124-1.773.55-2.845,3.674-4.368,5.566-5.14,6.5A2.508,2.508,0,0,1,21.5,18l-3.98.154a.49.49,0,0,1-.273-.068,7.165,7.165,0,0,1-1.037.1,2.26,2.26,0,0,0-.864.189L11.1,20.2a.5.5,0,1,1-.4-.918l4.245-1.825a3.229,3.229,0,0,1,1.249-.271c.7-.007,2.688-.222,6.088-2.051a1.923,1.923,0,0,0,.545-2.43,1.513,1.513,0,0,0-2.075-.824l-6.241,2.237-.193-.414c-.034-.068-.925-1.794-4.389-1.794a12.322,12.322,0,0,0-6.49,1.99l-.253.181Z" fill="#464646"/>
  <path d="M17.388,12.815l-.776-.63c.3-.369.923-1.113,1.684-2.021,1.477-1.764,3.5-4.179,4.63-5.61a2.586,2.586,0,0,1,2.631-.965,2.2,2.2,0,0,1,1.454,1.833c.112.762-.5,1.629-1.2,2.524a4.515,4.515,0,0,0-.275.368l-.871-.491a5.455,5.455,0,0,1,.357-.491c.29-.373,1.061-1.363,1-1.764a1.209,1.209,0,0,0-.765-1.026c-.472-.15-1.028.087-1.574.666-1.109,1.408-3.138,3.83-4.619,5.6C18.306,11.709,17.686,12.449,17.388,12.815Z" fill="#464646"/>
  <path d="M23.9,16.8,23.1,16.2l6.7-9.167a1.547,1.547,0,0,0-.355-1.917c-.5-.346-1.186-.145-1.834.542-.851,1.082-1.847,2.4-2.727,3.562-.831,1.1-1.559,2.061-1.989,2.59l-.776-.63c.425-.524,1.145-1.476,1.968-2.563.883-1.168,1.884-2.492,2.768-3.613,1.227-1.3,2.432-1.216,3.159-.71a2.542,2.542,0,0,1,.639,3.253Z" class="aw-theme-iconOutline" fill="#464646"/>
</svg>
