<svg id="Layer_2" data-name="Layer 2" xmlns="http://www.w3.org/2000/svg"  viewBox="0 0 13 13">
  <path d="M8.89,6.063a.5.5,0,0,1-.407-.791L10.321,2.7a.242.242,0,0,0,.041-.18.245.245,0,0,0-.1-.156l-.24-.171a.246.246,0,0,0-.336.056L7.624,5.142a.5.5,0,1,1-.812-.582L8.878,1.67a1.242,1.242,0,0,1,1.73-.288l.24.171a1.243,1.243,0,0,1,.286,1.732L9.3,5.854A.5.5,0,0,1,8.89,6.063Z" fill="#464646"/>
  <path d="M6.827,5.33l-.812-.582,1.928-2.7a.246.246,0,0,0-.056-.337l-.239-.17a.246.246,0,0,0-.336.056L4.779,5.142l-.812-.583L6.5,1.018A1.243,1.243,0,0,1,8.23.731L8.469.9a1.244,1.244,0,0,1,.287,1.732Z" fill="#464646"/>
  <path d="M3.978,11.326a13.209,13.209,0,0,1-3.072-.88,1.356,1.356,0,0,1-1.075-.7C-.848,8.44-.283,5.4-.217,5.053l.136-.7L1,4.993a5.074,5.074,0,0,1,2.611-.782,2.655,2.655,0,0,1,1.98.711l1.587-.531a1.491,1.491,0,0,1,1.8.748l1.034-1.445a1.24,1.24,0,0,1,1.73-.286l.238.17a1.242,1.242,0,0,1,.288,1.731L9.863,8.673A6.8,6.8,0,0,1,9.2,9.8l-.076.107-.118.057A15,15,0,0,1,3.978,11.326ZM.648,5.949a7.441,7.441,0,0,0,.07,3.336.386.386,0,0,0,.3.167l.182.035a13.371,13.371,0,0,0,2.781.839A14,14,0,0,0,8.459,9.119a5.529,5.529,0,0,0,.51-.895l.052-.091,2.435-3.406a.24.24,0,0,0,.041-.179.242.242,0,0,0-.1-.157l-.238-.17a.223.223,0,0,0-.18-.041.238.238,0,0,0-.155.1L8.282,7.832H6.508l-2.362.844-.381-.923.979-.462L7.8,6.264a.487.487,0,0,0,.281-.246.488.488,0,0,0-.59-.679l-2.3.769-.208-.341c-.079-.131-.412-.556-1.38-.556a4.087,4.087,0,0,0-2.284.767l-.268.211Z" class="aw-theme-iconOutline" fill="#464646"/>
</svg>
