<svg version="1.1" id="Layer_1" xmlns="http://www.w3.org/2000/svg" xmlns:xlink="http://www.w3.org/1999/xlink" x="0px" y="0px"
	 viewBox="0 0 24 24" enable-background="new 0 0 24 24" xml:space="preserve">
	<path class="aw-theme-iconOutline" fill="#464646" d="M24,11.4c-0.1-0.4-0.3-0.7-0.7-0.8c-0.1,0-0.2-0.1-0.3-0.1c-0.3,0-0.5,0.1-0.7,0.3l-1.6,1.6l-1.3,0.3l-1-1
		l0.3-1.3l1.6-1.6c0.3-0.3,0.4-0.7,0.2-1C20.3,7.4,20,7.1,19.6,7c-0.2,0-0.5,0-0.7,0c-1.4,0-2.6,0.5-3.6,1.5c-1.3,1.3-1.2,3.4-1,4.6
		l-6.3,5.5c0,0,0,0-0.1,0C7.3,19.3,7,20,7,20.9c0,0.8,0.3,1.6,0.9,2.2c0.6,0.6,1.4,0.9,2.2,0.9c0.8,0,1.6-0.3,2.2-0.9c0,0,0,0,0,0
		l5.5-6.3c0.5,0.1,0.9,0.1,1.3,0.1c1.4,0,2.5-0.4,3.3-1.1C23.6,14.6,24.2,12.9,24,11.4z M21.8,15c-0.6,0.6-1.4,0.9-2.6,0.9
		c-0.5,0-1-0.1-1.5-0.2c0,0,0,0-0.1,0c-0.1,0-0.2,0-0.3,0.1l-5.8,6.6c-0.4,0.4-0.9,0.6-1.5,0.6c-0.6,0-1.1-0.2-1.5-0.6
		C8.2,22,8,21.4,8,20.9c0-0.6,0.2-1.1,0.6-1.5l6.6-5.8c0.1-0.1,0.1-0.2,0.1-0.3c-0.1-0.7-0.5-2.9,0.7-4.1C16.8,8.4,17.8,8,18.9,8
		c0.2,0,0.4,0,0.6,0l-1.7,1.7c0,0-0.1,0.1-0.1,0.2l-0.4,1.8c0,0.1,0,0.2,0.1,0.3l1.5,1.5c0.1,0.1,0.2,0.1,0.2,0.1c0,0,0,0,0.1,0
		l1.8-0.4c0.1,0,0.1,0,0.2-0.1l1.7-1.7C23.1,12.8,22.7,14.1,21.8,15z"/>
	<path class="aw-theme-iconOutline" fill="#464646" d="M10.1,20.1L10.1,20.1c-0.2,0.2-0.2,0.5,0,0.7c0.2,0.2,0.5,0.2,0.7,0l0,0c0.2-0.2,0.2-0.5,0-0.7
		C10.7,20,10.3,20,10.1,20.1z"/>
	<path class="aw-theme-iconOutline" fill="#464646" d="M1,5.8l7,4.3V15h1v-4.9l7-4.3v0.1h1v-1c0-0.2-0.1-0.3-0.3-0.4l-8-4.4C8.6,0,8.4,0,8.2,0.1l-8,4.4
		C0.1,4.6,0,4.8,0,4.9v9.3c0,0.2,0.1,0.3,0.2,0.4l6,3.7l0.5-0.9L1,14V5.8z M8.5,1.1l7,3.9l-7,4.3L1.5,5L8.5,1.1z"/>
</svg>
