<svg id="Layer_1" data-name="Layer 1" xmlns="http://www.w3.org/2000/svg" viewBox="0 0 24 24">
  <path d="M21.028,24H2.97A2.929,2.929,0,0,1,.463,22.568a3.149,3.149,0,0,1-.11-3.1L9.382,1.925a2.917,2.917,0,0,1,5.234,0l9.029,17.541a3.149,3.149,0,0,1-.11,3.1A2.929,2.929,0,0,1,21.028,24ZM12,1.3a1.928,1.928,0,0,0-1.728,1.086h0L1.242,19.924a2.155,2.155,0,0,0,.076,2.124A1.91,1.91,0,0,0,2.97,23H21.028a1.91,1.91,0,0,0,1.653-.952,2.155,2.155,0,0,0,.076-2.124L13.728,2.383A1.929,1.929,0,0,0,12,1.3Zm-2.172.857h0Z" class="aw-theme-iconOutline" fill="#464646"/>
  <path d="M11.849,22a1.7,1.7,0,0,1-1.267-.59c-.395-.443-.895-1.448-.187-3.406H6.467A1.458,1.458,0,0,1,5,16.523a1.514,1.514,0,0,1,.392-1.009,1.465,1.465,0,0,1-.392-1,1.513,1.513,0,0,1,1.105-1.46A1.5,1.5,0,0,1,7.39,11.007,1.5,1.5,0,0,1,8.877,9.7H9.82a12.15,12.15,0,0,1,5.591,1.13,1.566,1.566,0,0,0,.818.175h.9l.116.067c.342.2.75.9.75,3.122,0,2.566-.892,3.052-1.165,3.14l-.153.024h-.3a4.536,4.536,0,0,0-3.444,3.808.923.923,0,0,1-.673.772A1.377,1.377,0,0,1,11.849,22ZM6.512,16a.529.529,0,0,0-.512.52.458.458,0,0,0,.467.48h5.454l-.325.708c-1.007,2.2-.39,2.943-.177,3.12a.581.581,0,0,0,.566.142,5.373,5.373,0,0,1,4.4-4.618h.161c.091-.106.453-.591.453-2.164A6.1,6.1,0,0,0,16.737,12h-.508a2.542,2.542,0,0,1-1.33-.316c-.679-.405-2.113-.905-5.093-.989H8.877a.5.5,0,0,0-.46.306H9.5v1h-2a.5.5,0,0,0,0,1H9v1H6.5a.513.513,0,0,0-.5.513A.5.5,0,0,0,6.512,15H9v1Z" class="aw-theme-iconOutline" fill="#464646"/>
</svg>
