<?xml version="1.0" encoding="utf-8"?>
<!-- Generator: Adobe Illustrator 27.3.1, SVG Export Plug-In . SVG Version: 6.00 Build 0)  -->
<svg version="1.1" id="Layer_1" xmlns="http://www.w3.org/2000/svg" xmlns:xlink="http://www.w3.org/1999/xlink" x="0px" y="0px"
	 viewBox="0 0 24 24" style="enable-background:new 0 0 24 24;" xml:space="preserve">
<style type="text/css">
	.st0{fill:#464646;}
</style>
<path class="st0" d="M12,10c-1.1,0-2,0.9-2,2s0.9,2,2,2s2-0.9,2-2S13.1,10,12,10z M12,13c-0.6,0-1-0.4-1-1s0.4-1,1-1s1,0.4,1,1
	S12.6,13,12,13z"/>
<path class="st0" d="M12,23C5.9,23,1,18.1,1,12S5.9,1,12,1c3.3,0,6.4,1.5,8.5,4H17v1h5V1h-1v3.1C18.7,1.5,15.5,0,12,0
	C5.4,0,0,5.4,0,12s5.4,12,12,12s12-5.4,12-12h-1C23,18.1,18.1,23,12,23z"/>
</svg>
