<?xml version="1.0" encoding="utf-8"?>
<!-- Generator: Adobe Illustrator 27.3.1, SVG Export Plug-In . SVG Version: 6.00 Build 0)  -->
<svg version="1.1" id="Artwork" xmlns="http://www.w3.org/2000/svg" xmlns:xlink="http://www.w3.org/1999/xlink" x="0px" y="0px"
	 viewBox="0 0 24 24" style="enable-background:new 0 0 24 24;" xml:space="preserve">
<style type="text/css">
	.st0{fill:#464646;}
</style>
<path class="st0" d="M12,10c-1.1,0-2,0.9-2,2s0.9,2,2,2s2-0.9,2-2S13.1,10,12,10z M12,13c-0.6,0-1-0.4-1-1s0.4-1,1-1s1,0.4,1,1
	S12.6,13,12,13z"/>
<path class="st0" d="M23,12c0,6.1-4.9,11.1-11,11.1c-6.1,0-11.1-4.9-11.1-11C0.9,6,5.8,1,11.9,1c3.3,0,6.5,1.5,8.6,4H17v1h5V5.4l0,0
	l0,0V1h-1v3c-2.4-2.7-5.7-4.1-9.1-4h-0.4C8.9,0.1,6.2,1.1,4.1,3c-5,4.4-5.4,12-1.1,16.9c4.4,5,12,5.4,16.9,1.1
	c2.6-2.3,4.1-5.6,4.1-9v-0.5h-1V12z"/>
</svg>
