<svg id="Layer_1" data-name="Layer 1" xmlns="http://www.w3.org/2000/svg" viewBox="0 0 24 24">
  <path d="M19,2.643C19,.552,12.786,0,9.5,0S0,.552,0,2.643A1.058,1.058,0,0,0,.18,3.2l-.017,0L7,13.649V20.5a.5.5,0,0,0,.8.4l2-1.5-.6-.8L8,19.5v-6a.5.5,0,0,0-.082-.274L2.136,4.4A27.836,27.836,0,0,0,9.5,5.286,27.844,27.844,0,0,0,16.862,4.4l-4.221,6.446.837.548,5.337-8.155-.015,0A1.068,1.068,0,0,0,19,2.643Zm-18,0C1,2.152,3.892,1,9.5,1S18,2.152,18,2.643,15.108,4.286,9.5,4.286,1,3.134,1,2.643Z" class="aw-theme-iconOutline" fill="#464646"/>
  <path d="M23,17.5A5.5,5.5,0,1,1,17.5,12h2.793l-2.154,2.154.707.707L22.207,11.5,18.854,8.146l-.707.707L20.293,11H17.5A6.5,6.5,0,1,0,24,17.5Z" class="aw-theme-iconOutline" fill="#464646"/>
</svg>
