<svg id="Layer_2" data-name="Layer 2" xmlns="http://www.w3.org/2000/svg" viewBox="0 0 16 16">
  <path d="M11.612,7.215a.5.5,0,0,1-.406-.791l2.3-3.213a.429.429,0,0,0-.1-.594l-.3-.214a.427.427,0,0,0-.593.1L9.929,6.114a.5.5,0,1,1-.813-.582L11.7,1.92a1.427,1.427,0,0,1,1.989-.33l.3.214a1.426,1.426,0,0,1,.331,1.988l-2.3,3.214A.5.5,0,0,1,11.612,7.215Z" fill="#464646"/>
  <path d="M8.086,7.376l-.8-.594L10.535,2.39a.417.417,0,0,0,.068-.311.427.427,0,0,0-.171-.277l-.3-.213a.428.428,0,0,0-.595.1L5.953,6.7l-.814-.581L8.726,1.106A1.426,1.426,0,0,1,10.715.775l.3.214a1.428,1.428,0,0,1,.329,1.99Z" fill="#464646"/>
  <path d="M5.472,14.368a16.973,16.973,0,0,1-3.81-1.1A1.577,1.577,0,0,1,.4,12.46C-.429,10.866.27,7.1.352,6.675l.135-.7,1.26.744a6.221,6.221,0,0,1,3.262-1,3.152,3.152,0,0,1,2.438.907l2.06-.689A1.739,1.739,0,0,1,11.7,7.014l1.422-1.988a1.428,1.428,0,0,1,1.989-.33l.3.213A1.428,1.428,0,0,1,15.735,6.9L12.72,11.114a8.3,8.3,0,0,1-.822,1.4l-.076.107-.118.057A18.6,18.6,0,0,1,5.472,14.368ZM1.215,7.57C1.017,8.9.818,11.1,1.286,12a.6.6,0,0,0,.483.276l.182.036a16.8,16.8,0,0,0,3.521,1.057,17.679,17.679,0,0,0,5.685-1.535,7.093,7.093,0,0,0,.668-1.168l.052-.091,3.045-4.257a.426.426,0,0,0-.1-.594h0l-.3-.213a.429.429,0,0,0-.593.1L10.789,10H8.612L5.64,11.063l-.381-.923,1.225-.578,3.808-1.278a.734.734,0,0,0,.094-1.353.727.727,0,0,0-.562-.041l-2.776.93-.207-.342a1.985,1.985,0,0,0-1.832-.754,5.306,5.306,0,0,0-2.933.986l-.267.208Z" class="aw-theme-iconOutline" fill="#464646"/>
</svg>
