<?xml version="1.0" encoding="utf-8"?>
<!-- Generator: Adobe Illustrator 27.2.0, SVG Export Plug-In . SVG Version: 6.00 Build 0)  -->
<svg version="1.1" id="Livello_1" xmlns="http://www.w3.org/2000/svg" xmlns:xlink="http://www.w3.org/1999/xlink" x="0px" y="0px"
	 viewBox="0 0 16 16" style="enable-background:new 0 0 16 16;" xml:space="preserve">
<style type="text/css">
	.st0{fill:#464646;}
</style>
<g>
	<path class="st0" d="M8,7.3c0.1,0,0.2,0,0.2-0.1l2.5-2.5l-0.5-0.5L8.3,6.2V1.4H7.7v4.8L5.7,4.2L5.3,4.7l2.5,2.5
		C7.8,7.3,7.9,7.3,8,7.3z"/>
	<polygon class="st0" points="1,4 1.7,4 1.7,0.7 5,0.7 5,0 1,0 	"/>
	<polygon class="st0" points="1.7,12 1,12 1,16 5,16 5,15.3 1.7,15.3 	"/>
	<polygon class="st0" points="14.3,15.3 11,15.3 11,16 15,16 15,12 14.3,12 	"/>
	<polygon class="st0" points="11,0 11,0.7 14.3,0.7 14.3,4 15,4 15,0 	"/>
	<path class="st0" d="M8,8.7c-0.1,0-0.2,0-0.2,0.1l-2.5,2.5l0.5,0.5l1.9-1.9v4.8h0.7V9.9l1.9,1.9l0.5-0.5L8.2,8.8
		C8.2,8.8,8.1,8.7,8,8.7z"/>
</g>
</svg>
