<svg version="1.1" id="Artwork" xmlns="http://www.w3.org/2000/svg" xmlns:xlink="http://www.w3.org/1999/xlink" x="0px" y="0px"
	 viewBox="0 0 24 24" enable-background="new 0 0 24 24" xml:space="preserve">
<path class="aw-theme-iconOutline" fill="#464646" d="M19,15c-1.4,0-2.6,0.7-3.3,1.8l-6.9-3.5C8.9,12.9,9,12.5,9,12s-0.1-0.9-0.2-1.3l6.9-3.5
	C16.4,8.3,17.6,9,19,9c2.2,0,4-1.8,4-4s-1.8-4-4-4s-4,1.8-4,4c0,0.5,0.1,0.9,0.2,1.3L8.3,9.8C7.6,8.7,6.4,8,5,8c-2.2,0-4,1.8-4,4
	s1.8,4,4,4c1.4,0,2.6-0.7,3.3-1.8l6.9,3.5C15.1,18.1,15,18.5,15,19c0,2.2,1.8,4,4,4s4-1.8,4-4S21.2,15,19,15z M19,2c1.7,0,3,1.3,3,3
	s-1.3,3-3,3s-3-1.3-3-3S17.3,2,19,2z M5,15c-1.7,0-3-1.3-3-3s1.3-3,3-3s3,1.3,3,3S6.7,15,5,15z M19,22c-1.7,0-3-1.3-3-3s1.3-3,3-3
	s3,1.3,3,3S20.7,22,19,22z"/>
</svg>
