<svg version="1.1" id="Artwork" xmlns="http://www.w3.org/2000/svg" xmlns:xlink="http://www.w3.org/1999/xlink" x="0px" y="0px" width="24px" height="24px" viewBox="0 0 24 24" enable-background="new 0 0 24 24" xml:space="preserve">
    
  <path class="aw-theme-iconOutline" fill="#464646" d="M15.87,14.65a.487.487,0,0,0-.651.215A7.516,7.516,0,1,1,15.2,8.1a.484.484,0,0,0,.863-.44,8.484,8.484,0,1,0,.018,7.638A.485.485,0,0,0,15.87,14.65Z" transform="translate(0)"/>
  <path class="aw-theme-iconOutline" fill="#464646" d="M23.854,11.146l-5-5-.708.708L22.293,11H7v1H22.293l-4.147,4.146.708.708,5-5A.5.5,0,0,0,23.854,11.146Z" transform="translate(0)"/>
</svg>
