<?xml version="1.0" encoding="utf-8"?>
<!-- Generator: Adobe Illustrator 27.1.1, SVG Export Plug-In . SVG Version: 6.00 Build 0)  -->
<svg version="1.1" id="Layer_1" xmlns="http://www.w3.org/2000/svg" xmlns:xlink="http://www.w3.org/1999/xlink" x="0px" y="0px"
	 viewBox="0 0 24 24" style="enable-background:new 0 0 24 24;" xml:space="preserve">
<style type="text/css">
	.st0{fill:#464646;}
</style>
<g>
	<rect x="5" y="2" class="st0" width="17" height="1"/>
</g>
<g>
	<path class="st0" d="M3,4H0V1h3V4z M1,3h1V2H1V3z"/>
</g>
<g>
	<rect x="8" y="7" class="st0" width="14" height="1"/>
</g>
<g>
	<path class="st0" d="M6,9H3V6h3V9z M4,8h1V7H4V8z"/>
</g>
<g>
	<rect x="8" y="12" class="st0" width="14" height="1"/>
</g>
<g>
	<path class="st0" d="M6,14H3v-3h3V14z M4,13h1v-1H4V13z"/>
</g>
<g>
	<rect x="5" y="17" class="st0" width="17" height="1"/>
</g>
<g>
	<path class="st0" d="M3,19H0v-3h3V19z M1,18h1v-1H1V18z"/>
</g>
<g>
	<rect x="8" y="22" class="st0" width="14" height="1"/>
</g>
<g>
	<path class="st0" d="M6,24H3v-3h3V24z M4,23h1v-1H4V23z"/>
</g>
</svg>
