<svg id="Layer_1" data-name="Layer 1" xmlns="http://www.w3.org/2000/svg" viewBox="0 0 16 16">
  <g id="g824">
    <path id="path821" d="M.389,15.6l-.367-.367.214-.224c.118-.123,1.061-1.086,2.1-2.139s1.882-1.932,1.882-1.951-.753-.771-1.674-1.671C.968,7.715.863,7.607.817,7.479a.8.8,0,0,1,.016-.6,3.223,3.223,0,0,1,.751-.66,5.563,5.563,0,0,1,4.393-.532l.264.063.678-.693,1.554-1.59.877-.9-.013-.132c-.007-.073-.012-.338-.01-.59a2.176,2.176,0,0,1,.068-.7A1.69,1.69,0,0,1,9.8.36a1.108,1.108,0,0,1,.615-.329,1.5,1.5,0,0,1,.543.137c.088.046.756.7,2.5,2.448a21.033,21.033,0,0,1,2.45,2.548.829.829,0,0,1-.19.927,2.408,2.408,0,0,1-.91.467,2.081,2.081,0,0,1-.679.067,3.859,3.859,0,0,1-.595-.032l-.163-.032L11.808,8.123,10.245,9.686l.067.276a6.367,6.367,0,0,1,.044,2.912,5.283,5.283,0,0,1-.591,1.444,2.7,2.7,0,0,1-.716.813,1.417,1.417,0,0,1-.543,0c-.04-.015-.835-.79-1.788-1.742L5,11.674,2.892,13.823C1.733,15,.778,15.971.77,15.971S.591,15.806.389,15.6Zm8.447-1.866a4.063,4.063,0,0,0,.343-.717A5.024,5.024,0,0,0,9.2,10.073c-.048-.175-.1-.352-.118-.394a.6.6,0,0,1,0-.358c.036-.1,3.769-3.836,3.895-3.9s.243-.062.526.03a2.147,2.147,0,0,0,1.022.063,1.251,1.251,0,0,0,.221-.063c.023-.014-.587-.651-2.07-2.159-1.156-1.176-2.11-2.134-2.12-2.128a1.077,1.077,0,0,0-.078.209,1.518,1.518,0,0,0-.06.566,1.263,1.263,0,0,0,.07.558c.082.226.085.307.017.449-.037.076-.6.642-1.957,1.971C7.5,5.94,6.606,6.8,6.56,6.823a.644.644,0,0,1-.5-.018A5.179,5.179,0,0,0,3.09,6.638a4.587,4.587,0,0,0-.466.164,1.99,1.99,0,0,0-.6.362c.007.032,6.708,6.67,6.734,6.671A.34.34,0,0,0,8.836,13.738Z" class="aw-theme-iconOutline" fill="#464646"/>
  </g>
</svg>
