<svg id="Layer_1" data-name="Layer 1" xmlns="http://www.w3.org/2000/svg" viewBox="0 0 16 16">
  <path d="M13,10a2.9691,2.9691,0,0,0-2.4257,1.2281L5.8611,8.8715a2.8035,2.8035,0,0,0,0-1.743l4.7132-2.3566A3.0032,3.0032,0,0,0,16,3a3,3,0,0,0-6,0,3.0522,3.0522,0,0,0,.1389.8715L5.4257,6.2281A2.9691,2.9691,0,0,0,3,5a3,3,0,0,0,0,6A2.9691,2.9691,0,0,0,5.4257,9.7719l4.7132,2.3566A3.0522,3.0522,0,0,0,10,13a3,3,0,1,0,3-3Zm0-9a1.9562,1.9562,0,0,1,2,2,2,2,0,0,1-4,0A1.9562,1.9562,0,0,1,13,1ZM3,10A1.9562,1.9562,0,0,1,1,8,1.9562,1.9562,0,0,1,3,6,1.9562,1.9562,0,0,1,5,8,1.9562,1.9562,0,0,1,3,10Zm10,5a2,2,0,1,1,2-2A1.9562,1.9562,0,0,1,13,15Z" class="aw-theme-iconOutline" fill="#464646"/>
</svg>
