<svg version="1.1" id="Artwork" xmlns="http://www.w3.org/2000/svg" xmlns:xlink="http://www.w3.org/1999/xlink" x="0px" y="0px"
	 viewBox="0 0 16 16" enable-background="new 0 0 16 16" xml:space="preserve">
<path class="aw-theme-iconOutline" fill="#464646" d="M9.5,0C5.9,0,3,2.9,3,6.5c0,1.1,0.3,2.1,0.8,3l-3.1,3.1c-0.7,0.7-0.7,2,0,2.7C1,15.7,1.5,15.9,2,15.9
	s1-0.2,1.3-0.6l3.1-3.1c0.9,0.5,1.9,0.8,3,0.8c3.6,0,6.5-2.9,6.5-6.5S13.1,0,9.5,0z M2.7,14.7c-0.3,0.3-1,0.3-1.3,0
	c-0.4-0.4-0.4-0.9,0-1.3l3-3c0.4,0.5,0.8,0.9,1.3,1.3L2.7,14.7z M9.5,12C6.5,12,4,9.5,4,6.5S6.5,1,9.5,1S15,3.5,15,6.5
	S12.5,12,9.5,12z"/>
</svg>
