<svg id="Layer_2" data-name="Layer 2" xmlns="http://www.w3.org/2000/svg" viewBox="0 0 24 24">
  <rect y="16" width="13" height="1" fill="#464646"/>
  <rect x="20" y="16" width="4" height="1" fill="#464646"/>
  <rect y="20" width="4" height="1" fill="#464646"/>
  <rect x="11" y="20" width="13" height="1" fill="#464646"/>
  <polygon points="24 15 23 15 23 11.872 18.746 10.14 20.452 5.801 19.271 4.599 15.006 6.335 13.302 2 10.698 2 8.994 6.335 4.729 4.599 3.548 5.801 5.254 10.14 1 11.872 1 15 0 15 0 11.2 3.961 9.587 2.38 5.563 4.485 3.42 8.434 5.028 10.017 1 13.983 1 15.566 5.028 19.515 3.42 21.62 5.563 20.039 9.587 24 11.2 24 15" fill="#464646"/>
  <path d="M17.787,18H15.213A1.214,1.214,0,0,1,14,16.787V15.213A1.214,1.214,0,0,1,15.213,14h2.574A1.214,1.214,0,0,1,19,15.213v1.574A1.214,1.214,0,0,1,17.787,18Zm-2.574-3a.214.214,0,0,0-.213.213v1.574a.214.214,0,0,0,.213.213h2.574A.214.214,0,0,0,18,16.787V15.213A.214.214,0,0,0,17.787,15Z" fill="#464646"/>
  <path d="M8.787,23H6.213A1.214,1.214,0,0,1,5,21.787V20.213A1.214,1.214,0,0,1,6.213,19H8.787A1.214,1.214,0,0,1,10,20.213v1.574A1.214,1.214,0,0,1,8.787,23ZM6.213,20A.214.214,0,0,0,6,20.213v1.574A.214.214,0,0,0,6.213,22H8.787A.214.214,0,0,0,9,21.787V20.213A.214.214,0,0,0,8.787,20Z" class="aw-theme-iconOutline" fill="#464646"/>
</svg>
