<svg version="1.1" id="Layer_1" xmlns="http://www.w3.org/2000/svg" xmlns:xlink="http://www.w3.org/1999/xlink" x="0px" y="0px"
	 viewBox="0 0 24 24" enable-background="new 0 0 24 24" xml:space="preserve">
	<path class="aw-theme-iconOutline" fill="#464646" d="M21.5,4H8V2H3v2H2.5C1.1,4,0,5.1,0,6.5v13C0,20.9,1.1,22,2.5,22h19c1.4,0,2.5-1.1,2.5-2.5v-13
		C24,5.1,22.9,4,21.5,4z M4,3h3v1H4V3z M23,19.5c0,0.8-0.7,1.5-1.5,1.5h-19C1.7,21,1,20.3,1,19.5v-13C1,5.7,1.7,5,2.5,5h19
		C22.3,5,23,5.7,23,6.5V19.5z"/>
	<path class="aw-theme-iconOutline" fill="#464646" d="M8.5,7C5.5,7,3,9.5,3,12.5S5.5,18,8.5,18s5.5-2.5,5.5-5.5S11.5,7,8.5,7z M8.5,17C6,17,4,15,4,12.5
		S6,8,8.5,8s4.5,2,4.5,4.5S11,17,8.5,17z"/>
	<path class="aw-theme-iconOutline" fill="#464646" d="M20.5,6h-2.1C17.7,6,17,6.7,17,7.5C17,8.3,17.7,9,18.5,9h2.1C21.3,9,22,8.3,22,7.5C22,6.7,21.3,6,20.5,6z
		 M20.5,8h-2.1C18.2,8,18,7.8,18,7.5C18,7.2,18.2,7,18.5,7h2.1C20.8,7,21,7.2,21,7.5C21,7.8,20.8,8,20.5,8z"/>
</svg>
