<svg version="1.1" id="Artwork" xmlns="http://www.w3.org/2000/svg" xmlns:xlink="http://www.w3.org/1999/xlink" x="0px" y="0px"
	 width="16px" height="16px" viewBox="0 0 16 16" enable-background="new 0 0 16 16" xml:space="preserve">
  <path class="aw-theme-iconOutline" fill="#464646" d="M10.188,9.307a.486.486,0,0,0-.65.214,4.517,4.517,0,1,1-.011-4.062.485.485,0,0,0,.864-.439A5.484,5.484,0,1,0,10.4,9.957.484.484,0,0,0,10.188,9.307Z" transform="translate(0 0)"/>
  <path class="aw-theme-iconOutline" fill="#464646" d="M15.854,7.146l-3.5-3.5-.708.708L14.293,7H5V8h9.293l-2.647,2.646.708.708,3.5-3.5A.5.5,0,0,0,15.854,7.146Z" transform="translate(0 0)"/>
</svg>
