<svg id="Layer_2" data-name="Layer 2" xmlns="http://www.w3.org/2000/svg" viewBox="0 0 16 16">
  <rect y="10" width="9" height="1" fill="#464646"/>
  <rect x="15" y="10" width="1" height="1" fill="#464646"/>
  <path d="M12.787,12H11.213A1.214,1.214,0,0,1,10,10.787v-.574A1.214,1.214,0,0,1,11.213,9h1.574A1.214,1.214,0,0,1,14,10.213v.574A1.214,1.214,0,0,1,12.787,12Zm-1.574-2a.214.214,0,0,0-.213.213v.574a.214.214,0,0,0,.213.213h1.574A.214.214,0,0,0,13,10.787v-.574A.214.214,0,0,0,12.787,10Z" fill="#464646"/>
  <rect y="13" width="3" height="1" fill="#464646"/>
  <rect x="9" y="13" width="7" height="1" fill="#464646"/>
  <path d="M6.787,15H5.213A1.214,1.214,0,0,1,4,13.787v-.574A1.214,1.214,0,0,1,5.213,12H6.787A1.214,1.214,0,0,1,8,13.213v.574A1.214,1.214,0,0,1,6.787,15ZM5.213,13A.214.214,0,0,0,5,13.213v.574A.214.214,0,0,0,5.213,14H6.787A.214.214,0,0,0,7,13.787v-.574A.214.214,0,0,0,6.787,13Z" fill="#464646"/>
  <polygon points="16 9 15 9 15 7.299 12.173 6.163 13.307 3.313 12.7 2.703 9.863 3.843 8.732 1 7.268 1 6.137 3.843 3.3 2.703 2.693 3.313 3.827 6.163 1 7.299 1 9 0 9 0 6.624 2.53 5.606 1.521 3.072 3.058 1.528 5.578 2.542 6.59 0 9.41 0 10.422 2.542 12.942 1.528 14.479 3.072 13.47 5.606 16 6.624 16 9" class="aw-theme-iconOutline" fill="#464646"/>
</svg>
