<svg version="1.1" id="Artwork" xmlns="http://www.w3.org/2000/svg" xmlns:xlink="http://www.w3.org/1999/xlink" x="0px" y="0px"
	 width="16px" height="16px" viewBox="0 0 16 16" enable-background="new 0 0 16 16" xml:space="preserve">
<path class="aw-theme-iconOutline" fill="#464646" d="M14,0v4.6l-2.7-2.7C10,0.7,8.4,0,6.7,0S3.3,0.7,2.1,1.9L1.9,2.1C0.1,3.9-0.5,6.5,0.4,8.9l0.9-0.3
	c-0.7-2-0.2-4.2,1.3-5.7l0.2-0.2c1-1,2.4-1.6,3.9-1.6s2.8,0.6,3.9,1.6L13,5H9v1h6V0H14z"/>
<path class="aw-theme-iconOutline" fill="#464646" d="M15.6,7.1l-0.9,0.3c0.7,2,0.2,4.2-1.3,5.7l-0.2,0.2c-1,1-2.4,1.6-3.9,1.6s-2.8-0.6-3.9-1.6L3,11h4v-1H1v6h1
	v-4.6l2.7,2.7C6,15.3,7.6,16,9.3,16s3.4-0.7,4.6-1.9l0.2-0.2C15.9,12.1,16.5,9.5,15.6,7.1z"/>
</svg>
