<?xml version="1.0" encoding="utf-8"?>
<!-- Generator: Adobe Illustrator 27.2.0, SVG Export Plug-In . SVG Version: 6.00 Build 0)  -->
<svg version="1.1" id="Layer_1" xmlns="http://www.w3.org/2000/svg" xmlns:xlink="http://www.w3.org/1999/xlink" x="0px" y="0px"
	 viewBox="0 0 16 16" style="enable-background:new 0 0 16 16;" xml:space="preserve">
<style type="text/css">
	.st0{fill:#464646;}
</style>
<g>
	<path class="st0" d="M4,0.3c-0.2-0.4-0.8-0.4-0.9,0l-3,7C0,7.6,0.1,7.9,0.4,8C0.6,8.1,0.9,8,1,7.7L1.8,6h3.6l0.7,1.7
		C6.2,7.9,6.4,8,6.6,8c0.1,0,0.1,0,0.2,0C7,7.9,7.1,7.6,7,7.3L4,0.3z M2.2,5l1.4-3.2L5,5H2.2z"/>
	<path class="st0" d="M6.6,15H1.8l5.1-5.1C7.1,9.7,7.1,9.5,7,9.3C7,9.1,6.8,9,6.6,9h-6C0.3,9,0.1,9.2,0.1,9.5S0.3,10,0.6,10h4.8
		l-5.1,5.1c-0.1,0.1-0.2,0.4-0.1,0.5C0.2,15.9,0.4,16,0.6,16h6c0.3,0,0.5-0.2,0.5-0.5S6.8,15,6.6,15z"/>
	<path class="st0" d="M15.2,10.1l-2.1,2.1V3h-1v9.3l-2.1-2.1l-0.7,0.7l3,3c0.1,0.1,0.2,0.1,0.4,0.1s0.3,0,0.4-0.1l3-3L15.2,10.1z"/>
</g>
</svg>
