<svg version="1.1" id="Artwork" xmlns="http://www.w3.org/2000/svg" xmlns:xlink="http://www.w3.org/1999/xlink" x="0px" y="0px"
	 width="16px" height="16px" viewBox="0 0 16 16" enable-background="new 0 0 16 16" xml:space="preserve">
<path class="aw-theme-iconOutline" fill="#464646" d="M9.3,16H6.7l-0.9-2.7l-2.5,1.2l-1.8-1.8l1.2-2.5L0,9.3V6.7l2.6-0.9L1.4,3.2l1.8-1.8l2.5,1.2L6.7,0h2.6
	l0.9,2.6l2.5-1.2l1.8,1.8l-1.2,2.5L16,6.7v2.6l-2.6,0.9l1.2,2.5l-1.8,1.8l-2.5-1.2L9.3,16z M7.4,15h1.2l0.8-2.2
	c0.1-0.2,0.2-0.4,0.5-0.5c0.2-0.1,0.4-0.1,0.6,0l2.1,1l0.8-0.8l-1-2.1c-0.1-0.2-0.1-0.4,0-0.7c0.1-0.2,0.3-0.4,0.5-0.4L15,8.6V7.4
	l-2.2-0.8c-0.2-0.1-0.4-0.2-0.5-0.4c-0.1-0.2-0.1-0.4,0-0.6l1-2.1l-0.8-0.8l-2.1,1c-0.2,0.1-0.4,0.1-0.7,0C9.6,3.5,9.4,3.4,9.4,3.2
	L8.6,1H7.4L6.6,3.2C6.6,3.4,6.4,3.5,6.2,3.6C6,3.7,5.8,3.7,5.5,3.6l-2.1-1L2.6,3.4l1,2.1c0.1,0.2,0.1,0.4,0,0.6S3.4,6.5,3.2,6.6
	L1,7.4v1.2l2.2,0.8c0.2,0.1,0.4,0.2,0.5,0.4c0.1,0.2,0.1,0.4,0,0.7l-1,2.1l0.8,0.8l2.1-1c0.2-0.1,0.4-0.1,0.6,0
	c0.2,0.1,0.4,0.3,0.5,0.5L7.4,15z M13,9.8L13,9.8L13,9.8z"/>
<path class="aw-theme-iconOutline" fill="#464646" d="M8,11c-1.7,0-3-1.3-3-3s1.3-3,3-3s3,1.3,3,3S9.7,11,8,11z M8,6C6.9,6,6,6.9,6,8s0.9,2,2,2s2-0.9,2-2
	S9.1,6,8,6z"/>
</svg>
