<svg version="1.1" id="Layer_1" xmlns="http://www.w3.org/2000/svg" xmlns:xlink="http://www.w3.org/1999/xlink" x="0px" y="0px"
	 viewBox="0 0 24 24" enable-background="new 0 0 24 24" xml:space="preserve">
	<path class="aw-theme-iconOutline" fill="#464646" d="M13.8,24h-3.6l-1.5-4.2l-3.9,1.9l-2.5-2.5l1.9-4L0,13.8v-3.6l4.2-1.5L2.3,4.8l2.5-2.5l4,1.9L10.2,0h3.6
		l1.5,4.2l3.9-1.9l2.5,2.5l-1.9,4l4.2,1.4v3.6l-4.2,1.5l1.9,3.9l-2.5,2.5l-4-1.9L13.8,24z M10.9,23h2.2l1.2-3.5
		c0.1-0.3,0.3-0.5,0.5-0.6c0.2-0.1,0.5-0.1,0.8,0l3.4,1.6l1.5-1.5l-1.6-3.4c-0.1-0.2-0.1-0.5,0-0.8c0.1-0.3,0.3-0.4,0.6-0.5v0L23,13
		v-2.2l-3.5-1.2c-0.3-0.1-0.5-0.3-0.6-0.5c-0.1-0.2-0.1-0.5,0-0.8L20.5,5L19,3.4L15.6,5c-0.2,0.1-0.5,0.1-0.8,0
		c-0.2-0.1-0.4-0.3-0.5-0.6L13.1,1h-2.2L9.7,4.5C9.6,4.7,9.4,4.9,9.1,5C8.9,5.1,8.6,5.1,8.4,5L5,3.4L3.5,5l1.6,3.4
		c0.1,0.2,0.1,0.5,0,0.8S4.8,9.5,4.5,9.6L1,10.9V13l3.5,1.2c0.3,0.1,0.5,0.3,0.6,0.5c0.1,0.2,0.1,0.5,0,0.8L3.5,19L5,20.5l3.4-1.6
		c0.2-0.1,0.5-0.1,0.8,0c0.3,0.1,0.5,0.3,0.5,0.6L10.9,23z M19.8,15.2C19.8,15.2,19.8,15.2,19.8,15.2L19.8,15.2z"/>
	<path class="aw-theme-iconOutline" fill="#464646" d="M12,16c-2.2,0-4-1.8-4-4s1.8-4,4-4c2.2,0,4,1.8,4,4S14.2,16,12,16z M12,9c-1.7,0-3,1.3-3,3s1.3,3,3,3
		s3-1.3,3-3S13.7,9,12,9z"/>
</svg>
