<?xml version="1.0" encoding="UTF-8"?><svg id="Artwork" xmlns="http://www.w3.org/2000/svg" viewBox="0 0 15.72705 10.95673"><defs><style>.cls-1{fill:#464646;}</style></defs><path class="cls-1" d="m6.66138,2.18866c-1.37402.50293-2.29785,1.82422-2.29785,3.28809,0,1.46875.92676,2.79102,2.30762,3.2915.05566.02002.11328.02979.16992.02979.2041,0,.39648-.12646.46973-.32959.01324-.03632.01202-.07312.0166-.10992v-.13855c-.0282-.17303-.13977-.32806-.31641-.39215-.98535-.35693-1.64746-1.30176-1.64746-2.35107,0-1.0459.65918-1.98975,1.6416-2.34863.18646-.0686.30432-.23785.32227-.42352v-.05756c-.00116-.05347-.00507-.10748-.02441-.16052-.09473-.25879-.38184-.3916-.6416-.29785Z"/><path class="cls-1" d="m6.77759,10.90302c.18048.02545.36609.0257.5498.03833v-.99933c-.13721-.01074-.27582-.01013-.41113-.02924-2.39453-.33691-4.56738-1.98779-5.85449-4.43408C2.35181,3.02655,4.53052,1.37518,6.92993,1.04266c.13135-.01813.26489-.01709.39746-.0274V.01532c-.17828.01215-.35809.01288-.53418.03711C3.99341.44012,1.4729,2.38593.052,5.25702c-.06934.13965-.06934.30371,0,.44336,1.41699,2.86475,3.93164,4.80957,6.72559,5.20264Z"/><path class="cls-1" d="m8.88989,10.9104c-.14874.01978-.36646.03516-.5625.04633V2.70074c.02527.1817.1452.34399.33105.40643,1.01953.34131,1.70508,1.29443,1.70508,2.37109,0,1.07129-.68066,2.02246-1.69336,2.36719-.26172.08887-.40137.37256-.3125.63428.07129.20801.26562.33887.47363.33887.05371,0,.10742-.0083.16113-.02686,1.41797-.48242,2.37109-1.81396,2.37109-3.31348,0-1.50732-.95898-2.84082-2.38672-3.31934-.26074-.08643-.5459.05322-.63281.31543-.01477.04395-.01422.08813-.0166.13226V0c.19775.01129.41809.02679.56836.04663.64154.08575,1.26544.26294,1.86798.50427,2.0423.81775,3.80798,2.47675,4.91132,4.70569.06934.13965.06934.30371,0,.44336-1.43066,2.88867-3.9668,4.83643-6.78516,5.21045Z"/></svg>