<?xml version="1.0" encoding="utf-8"?>
<!-- Generator: Adobe Illustrator 27.2.0, SVG Export Plug-In . SVG Version: 6.00 Build 0)  -->
<svg version="1.1" id="Layer_1" xmlns="http://www.w3.org/2000/svg" xmlns:xlink="http://www.w3.org/1999/xlink" x="0px" y="0px"
	 viewBox="0 0 16 16" style="enable-background:new 0 0 16 16;" xml:space="preserve">
<style type="text/css">
	.st0{fill:#464646;}
</style>
<g>
	<path class="st0" d="M14.9,2.4c-0.1-0.2-0.1-0.2-0.7-0.2c-1,0-2-0.2-3-0.5c-1.1-0.4-2.1-0.9-3-1.5C8.1,0,8.1,0,8,0
		C7.9,0,7.9,0,7.8,0.1c0,0-0.2,0.2-0.4,0.3C5.7,1.5,3.8,2.1,1.7,2.2c-0.4,0-0.5,0-0.6,0.1C1,2.4,1,2.3,1,4.3c0,1,0,2,0,2.2
		c0.1,2.6,1.2,5,2.9,6.9c1,1.1,2.2,1.9,3.6,2.5C7.7,16,7.8,16,8,16c0.2,0,0.4-0.1,0.6-0.1c1.2-0.5,2.3-1.3,3.2-2.2
		c1.9-1.9,3-4.5,3.2-7.2c0-0.2,0-1.2,0-2.2C15,2.5,15,2.5,14.9,2.4z M14.3,4.4c0,0.9,0,1.8-0.1,2.8c-0.3,3-1.9,5.6-4.4,7.3
		c-0.5,0.3-1,0.6-1.6,0.8c-0.1,0-0.1,0-0.2,0.1c-0.6-0.2-1.1-0.4-1.6-0.8c-2.6-1.6-4.3-4.4-4.6-7.4C1.7,6.2,1.7,5.3,1.7,4.5V2.9h0.2
		c1-0.1,2-0.2,2.9-0.5c1.1-0.4,2.1-0.9,3-1.5L8,0.7L8.3,1c1.6,1.1,3.4,1.7,5.3,1.9c0.2,0,0.4,0,0.5,0h0.1V4.4z"/>
	<path class="st0" d="M13.5,3.4c-0.2,0-0.3,0-0.5-0.1c-1.7-0.1-3.3-0.7-4.7-1.6C8.2,1.6,8.1,1.6,8,1.5c-0.1,0-0.2,0-0.5,0.3
		C7.4,1.9,7.1,2.1,6.9,2.2c-1.2,0.7-2.6,1.1-4,1.2c-0.4,0-0.4,0-0.5,0.1c0,0.1,0,0.2-0.1,1.3c0,1.2,0,2.1,0.1,2.5
		c0.2,2.4,1.4,4.5,3.3,6c0.6,0.5,1.3,0.9,2,1.2c0.1,0,0.2,0.1,0.3,0.1c0.9-0.2,1.7-0.7,2.3-1.3c0.8-0.7,1.6-1.5,2.1-2.4
		c0.7-1.2,1.1-2.5,1.2-3.9c0-0.2,0-1,0-1.8C13.7,3.4,13.7,3.4,13.5,3.4z M13.1,5.4c0,0.8,0,1.6-0.1,2.4c-0.1,0.5-0.2,0.9-0.4,1.3
		l-0.1,0.2H8V14c-0.2-0.1-0.5-0.2-0.7-0.3c-0.7-0.4-1.4-0.9-2-1.5c-0.9-0.9-1.6-1.9-1.9-3.1C3.3,8.9,3.3,8.7,3.3,8.7H8V2.1
		c0.1,0,0.2,0.1,0.3,0.2c1.3,0.8,2.7,1.4,4.2,1.5c0.2,0,0.4,0,0.5,0h0.2L13.1,5.4z"/>
</g>
</svg>
