<svg id="Layer_2" data-name="Layer 2" xmlns="http://www.w3.org/2000/svg" viewBox="0 0 10 10">
  <rect y="7" width="3" height="1" fill="#464646"/>
  <rect x="8" y="7" width="2" height="1" fill="#464646"/>
  <path d="M6,9H5A1,1,0,0,1,4,8V7A1,1,0,0,1,5,6H6A1,1,0,0,1,7,7V8A1,1,0,0,1,6,9ZM6,8V8ZM5,7V8H6V7Z" fill="#464646"/>
  <polygon points="10 6 9 6 9 5.762 7.247 5.048 7.952 3.255 7.771 3.071 6.005 3.79 5.302 2 4.698 2 3.995 3.79 2.229 3.071 2.048 3.255 2.753 5.048 1 5.762 1 6 0 6 0 5.089 1.461 4.495 0.88 3.017 1.985 1.892 3.434 2.482 4.016 1 5.984 1 6.566 2.482 8.015 1.892 9.119 3.017 8.539 4.495 10 5.089 10 6" class="aw-theme-iconOutline" fill="#464646"/>
</svg>
