<?xml version="1.0" encoding="utf-8"?>
<!-- Generator: Adobe Illustrator 27.3.1, SVG Export Plug-In . SVG Version: 6.00 Build 0)  -->
<svg version="1.1" id="Layer_1" xmlns="http://www.w3.org/2000/svg" xmlns:xlink="http://www.w3.org/1999/xlink" x="0px" y="0px"
	 viewBox="0 0 24 24" style="enable-background:new 0 0 24 24;" xml:space="preserve">
<style type="text/css">
	.st0{fill:#464646;}
</style>
<path class="st0" d="M1,1v22h22V5.3L18.7,1H1z M8,2h8v5H8V2z M19,22H5v-9.5C5,11.7,5.7,11,6.5,11h11c0.8,0,1.5,0.7,1.5,1.5V22z
	 M22,22h-2v-9.5c0-1.4-1.1-2.5-2.5-2.5h-11C5.1,10,4,11.1,4,12.5V22H2V2h5v6h10V2h1.3L22,5.7V22z"/>
<path class="st0" d="M7,14v1h1h9v-1H8H7z"/>
<path class="st0" d="M7,17v1h1h9v-1H8H7z"/>
<path class="st0" d="M15,3h-1v0.3V6h1V3.3V3z"/>
</svg>
