<?xml version="1.0" encoding="utf-8"?>
<!-- Generator: Adobe Illustrator 27.1.1, SVG Export Plug-In . SVG Version: 6.00 Build 0)  -->
<svg version="1.1" id="Layer_1" xmlns="http://www.w3.org/2000/svg" xmlns:xlink="http://www.w3.org/1999/xlink" x="0px" y="0px"
	 viewBox="0 0 32 32" style="enable-background:new 0 0 32 32;" xml:space="preserve">
<style type="text/css">
	.st0{fill:#464646;}
</style>
<path class="st0" d="M28.8,10.9L21,3.1c-0.2-0.2-0.6-0.4-1-0.3c-0.4,0.1-0.7,0.3-0.9,0.6c-0.7,1.1-0.8,2.4-0.5,3.6l-5.9,5.8
	c-3.6-1.1-6.9-0.5-9.1,1.7c-0.2,0.2-0.2,0.5,0,0.7l6.1,6.1L2.1,29l0.7,0.7l7.6-7.6l6.2,6.2c0.1,0.1,0.3,0.1,0.4,0.1s0.3,0,0.3-0.1
	c2.2-2.2,2.8-5.5,1.7-9.1l5.9-5.8c1.1,0.3,2.4,0.1,3.6-0.5c0.3-0.2,0.5-0.5,0.6-0.9C29.2,11.6,29.1,11.2,28.8,10.9z M28,11.9
	c-1,0.5-2.1,0.6-3.1,0.3c-0.2-0.1-0.4,0-0.5,0.1l-6.3,6.3c-0.1,0.1-0.2,0.3-0.1,0.5c1,3.1,0.7,6-1,8L4.7,14.8c2-1.6,4.9-2,8-1
	c0.2,0.1,0.4,0,0.5-0.1l6.3-6.3c0.1-0.1,0.2-0.3,0.1-0.5c-0.4-1-0.2-2.1,0.3-3.1c0-0.1,0.1-0.1,0.1-0.1c0.1,0,0.1,0,0.2,0.1l7.8,7.8
	c0.1,0.1,0.1,0.2,0.1,0.2S28.1,11.9,28,11.9z"/>
</svg>
