<?xml version="1.0" encoding="utf-8"?>
<!-- Generator: Adobe Illustrator 27.2.0, SVG Export Plug-In . SVG Version: 6.00 Build 0)  -->
<svg version="1.1" id="Layer_1" xmlns="http://www.w3.org/2000/svg" xmlns:xlink="http://www.w3.org/1999/xlink" x="0px" y="0px"
	 viewBox="0 0 24 24" style="enable-background:new 0 0 24 24;" xml:space="preserve">
<style type="text/css">
	.st0{fill:#464646;}
</style>
<g id="Page-1">
	<g id="cmdShowApps24">
		<path id="Shape" class="st0" d="M6.5,17.5v5h-5v-5H6.5z M14.5,17.5v5h-5v-5H14.5z M22.5,17.5v5h-5v-5H22.5z M5.5,18.5h-3v3h3V18.5
			z M13.5,18.5h-3v3h3V18.5z M21.5,18.5h-3v3h3V18.5z M6.5,9.5v5h-5v-5H6.5z M14.5,9.5v5h-5v-5H14.5z M22.5,9.5v5h-5v-5H22.5z
			 M5.5,10.5h-3v3h3V10.5z M13.5,10.5h-3v3h3V10.5z M21.5,10.5h-3v3h3V10.5z M6.5,1.5v5h-5v-5H6.5z M14.5,1.5v5h-5v-5H14.5z
			 M22.5,1.5v5h-5v-5H22.5z M5.5,2.5h-3v3h3V2.5z M13.5,2.5h-3v3h3V2.5z M21.5,2.5h-3v3h3V2.5z"/>
	</g>
</g>
</svg>
