<?xml version="1.0" encoding="utf-8"?>
<!-- Generator: Adobe Illustrator 27.3.1, SVG Export Plug-In . SVG Version: 6.00 Build 0)  -->
<svg version="1.1" id="Layer_1" xmlns="http://www.w3.org/2000/svg" xmlns:xlink="http://www.w3.org/1999/xlink" x="0px" y="0px"
	 viewBox="0 0 32 32" style="enable-background:new 0 0 32 32;" xml:space="preserve">
<style type="text/css">
	.st0{fill:#464646;}
</style>
<path class="st0" d="M6,30h4v-4H6V30z M7,27h2v2H7V27z"/>
<path class="st0" d="M6,20H2v4h4V20z M5,23H3v-2h2V23z"/>
<path class="st0" d="M6,18h4v-4H6V18z M7,15h2v2H7V15z"/>
<path class="st0" d="M6,2H2v4h4V2z M5,5H3V3h2V5z"/>
<path class="st0" d="M10,8H6v4h4V8z M9,11H7V9h2V11z"/>
<path class="st0" d="M9,4v1h2.1H30V4H11.1H9z"/>
<path class="st0" d="M9,22v1h2.1H30v-1H11.1H9z"/>
<path class="st0" d="M13,10v1h1.7H30v-1H14.7H13z"/>
<path class="st0" d="M13,16v1h1.7H30v-1H14.7H13z"/>
<path class="st0" d="M13,28v1h1.7H30v-1H14.7H13z"/>
</svg>
