<?xml version="1.0" encoding="utf-8"?>
<!-- Generator: Adobe Illustrator 27.2.0, SVG Export Plug-In . SVG Version: 6.00 Build 0)  -->
<svg version="1.1" id="Layer_1" xmlns="http://www.w3.org/2000/svg" xmlns:xlink="http://www.w3.org/1999/xlink" x="0px" y="0px"
	 viewBox="0 0 16 16" style="enable-background:new 0 0 16 16;" xml:space="preserve">
<style type="text/css">
	.st0{fill:#464646;}
</style>
<g>
	<path class="st0" d="M4,8.3c-0.2-0.4-0.8-0.4-0.9,0l-3,7c-0.1,0.3,0,0.5,0.3,0.7c0.3,0.1,0.5,0,0.7-0.3L1.8,14h3.6l0.7,1.7
		C6.2,15.9,6.4,16,6.6,16c0.1,0,0.1,0,0.2,0C7,15.9,7.1,15.6,7,15.3L4,8.3z M2.2,13l1.4-3.2L5,13H2.2z"/>
	<path class="st0" d="M0.6,1h4.8L0.2,6.1C0.1,6.3,0,6.5,0.1,6.7C0.2,6.9,0.4,7,0.6,7h6c0.3,0,0.5-0.2,0.5-0.5S6.8,6,6.6,6H1.8
		l5.1-5.1C7.1,0.7,7.1,0.5,7,0.3C7,0.1,6.8,0,6.6,0h-6C0.3,0,0.1,0.2,0.1,0.5S0.3,1,0.6,1z"/>
	<path class="st0" d="M15.9,6.1l-3-3c-0.2-0.2-0.5-0.2-0.7,0l-3,3l0.7,0.7l2.1-2.1V14h1V4.7l2.1,2.1L15.9,6.1z"/>
</g>
</svg>
