<svg id="Layer_2" data-name="Layer 2" xmlns="http://www.w3.org/2000/svg" viewBox="0 0 13 13">
  <rect y="9" width="5" height="1" fill="#464646"/>
  <rect x="11" y="9" width="2" height="1" fill="#464646"/>
  <path d="M9,11H7a1,1,0,0,1-1-1V9A1,1,0,0,1,7,8H9a1,1,0,0,1,1,1v1A1,1,0,0,1,9,11Zm0-1v0ZM7,9v1H9V9Z" fill="#464646"/>
  <polygon points="13 8 12 8 12 6.943 9.706 6.032 10.626 3.748 10.237 3.361 7.936 4.275 7.02 2 5.98 2 5.064 4.275 2.763 3.361 2.374 3.748 3.294 6.032 1 6.943 1 8 0 8 0 6.264 1.991 5.474 1.198 3.505 2.522 2.19 4.508 2.978 5.305 1 7.695 1 8.492 2.978 10.478 2.19 11.802 3.505 11.009 5.474 13 6.264 13 8" class="aw-theme-iconOutline" fill="#464646"/>
</svg>
