<?xml version="1.0" encoding="utf-8"?>
<!-- Generator: Adobe Illustrator 27.3.1, SVG Export Plug-In . SVG Version: 6.00 Build 0)  -->
<svg version="1.1" id="Layer_1" xmlns="http://www.w3.org/2000/svg" xmlns:xlink="http://www.w3.org/1999/xlink" x="0px" y="0px"
	 viewBox="0 0 16 16" style="enable-background:new 0 0 16 16;" xml:space="preserve">
<style type="text/css">
	.st0{fill:#464646;}
</style>
<path class="st0" d="M0,0v16h16V3.3L12.7,0H0z M5,1h6v4H5V1z M13,15H3V8.5C3,8.2,3.2,8,3.5,8h9C12.8,8,13,8.2,13,8.5V15z M15,15h-1
	V8.5C14,7.7,13.3,7,12.5,7h-9C2.7,7,2,7.7,2,8.5V15H1V1h3v5h8V1h0.3L15,3.7V15z"/>
<path class="st0" d="M5,10v1h0.6H11v-1H5.6H5z"/>
<path class="st0" d="M5,12v1h0.6H11v-1H5.6H5z"/>
<path class="st0" d="M10,2H9v0.2V4h1V2.2V2z"/>
</svg>
