<svg version="1.1" id="Artwork" xmlns="http://www.w3.org/2000/svg" xmlns:xlink="http://www.w3.org/1999/xlink" x="0px" y="0px"
	 width="16px" height="16px" viewBox="0 0 16 16" enable-background="new 0 0 16 16" xml:space="preserve">
<path class="aw-theme-iconOutline" fill="#464646" d="M8,11c-1.7,0-3-1.3-3-3s1.3-3,3-3s3,1.3,3,3S9.7,11,8,11z M8,6C6.9,6,6,6.9,6,8s0.9,2,2,2s2-0.9,2-2
	S9.1,6,8,6z"/>
<path class="aw-theme-iconOutline" fill="#464646" d="M8,13.5c-3.2,0-6.2-2-7.8-5.3c-0.1-0.1-0.1-0.3,0-0.4C1.8,4.5,4.8,2.5,8,2.5s6.2,2,7.8,5.3
	c0.1,0.1,0.1,0.3,0,0.4C14.2,11.5,11.2,13.5,8,13.5z M1.2,8c1.5,2.8,4,4.5,6.8,4.5s5.3-1.7,6.8-4.5c-1.5-2.8-4-4.5-6.8-4.5
	S2.7,5.2,1.2,8z"/>
</svg>
