<svg id="Layer_1" data-name="Layer 1" xmlns="http://www.w3.org/2000/svg" viewBox="0 0 24 24">
  <g id="g828">
    <path id="path831" d="M11.321,23.571a15.328,15.328,0,0,1-5.275-3.706A16.194,16.194,0,0,1,1.794,9.8c-.02-.272-.037-1.679-.037-3.212,0-3.018-.012-2.851.23-2.995.093-.055.229-.07.813-.093A16.046,16.046,0,0,0,11.134.723c.262-.18.528-.363.589-.408a.453.453,0,0,1,.282-.081c.152,0,.2.024.489.236A16.294,16.294,0,0,0,16.843,2.7a15.945,15.945,0,0,0,4.37.8c.775.03.832.046.968.269.068.111.07.2.07,2.7,0,1.424-.016,2.848-.036,3.164a16.158,16.158,0,0,1-4.634,10.619,15.056,15.056,0,0,1-4.767,3.262A1.957,1.957,0,0,1,12,23.73,1.905,1.905,0,0,1,11.321,23.571Zm.994-.921a11.686,11.686,0,0,0,2.332-1.223,14.844,14.844,0,0,0,6.489-10.7,30.987,30.987,0,0,0,.144-4.047v-2.2h-.192c-.106,0-.45-.024-.764-.054A17.2,17.2,0,0,1,12.5,1.649L12,1.318l-.286.2A18.368,18.368,0,0,1,7.279,3.685a17.819,17.819,0,0,1-4.316.792H2.728V6.769a28.862,28.862,0,0,0,.143,3.936A14.837,14.837,0,0,0,9.65,21.62a10.513,10.513,0,0,0,2.341,1.121A2.854,2.854,0,0,0,12.315,22.65Z" class="aw-theme-iconOutline" fill="#464646"/>
    <path id="path833" d="M11.573,21.428a12.027,12.027,0,0,1-2.984-1.752,12.955,12.955,0,0,1-4.782-8.8c-.075-.627-.112-1.976-.1-3.686.01-1.625.016-1.769.076-1.857.093-.137.2-.166.726-.191a13.02,13.02,0,0,0,5.933-1.712c.276-.157.657-.4.844-.537.532-.389.623-.438.765-.412a1.855,1.855,0,0,1,.438.249,13.039,13.039,0,0,0,6.851,2.4,6.175,6.175,0,0,1,.766.077c.209.077.2.034.2,2.479,0,1.232-.017,2.434-.037,2.671A13.807,13.807,0,0,1,18.544,16.1a12.648,12.648,0,0,1-3.088,3.574,8.921,8.921,0,0,1-3.44,1.843A1.806,1.806,0,0,1,11.573,21.428ZM12,14h6.684l.089-.238a13.206,13.206,0,0,0,.527-1.968,15.48,15.48,0,0,0,.209-3.569l.016-2.31H19.3c-.125,0-.446-.025-.713-.055A13.935,13.935,0,0,1,12.4,3.618a1.905,1.905,0,0,0-.4-.233V13H5.029c0,.017.081.3.179.585a11.645,11.645,0,0,0,2.858,4.573,11.365,11.365,0,0,0,2.9,2.132A5.549,5.549,0,0,0,12,20.726Z" class="aw-theme-iconOutline" fill="#464646"/>
  </g>
</svg>
