<?xml version="1.0" encoding="utf-8"?>
<!-- Generator: Adobe Illustrator 27.3.1, SVG Export Plug-In . SVG Version: 6.00 Build 0)  -->
<svg version="1.1" id="Artwork" xmlns="http://www.w3.org/2000/svg" xmlns:xlink="http://www.w3.org/1999/xlink" x="0px" y="0px"
	 viewBox="0 0 16 16" style="enable-background:new 0 0 16 16;" xml:space="preserve">
<style type="text/css">
	.st0{fill:#464646;}
</style>
<polygon class="st0" points="11.5,5 10.5,5 10.3,13 11.3,13 "/>
<polygon class="st0" points="5.8,13 5.5,5 4.5,5 4.8,13 "/>
<path class="st0" d="M14,14.6L14.5,3h1V2h-4V1.5C11.5,0.7,10.8,0,10,0H6C5.2,0,4.5,0.7,4.5,1.5V2h-4v1h1l0.4,11.6
	C2,15.4,2.7,16,3.5,16h9C13.3,16,14,15.4,14,14.6z M5.5,1.5C5.5,1.2,5.7,1,6,1h4c0.3,0,0.5,0.2,0.5,0.5V2h-5V1.5z M13,14.5
	c0,0.3-0.2,0.5-0.5,0.5h-9C3.2,15,3,14.8,3,14.5L2.5,3h11L13,14.5z"/>
<path class="st0" d="M8.5,5h-1v0.8V13h1V5.8V5z"/>
</svg>
