<?xml version="1.0" encoding="utf-8"?>
<!-- Generator: Adobe Illustrator 27.2.0, SVG Export Plug-In . SVG Version: 6.00 Build 0)  -->
<svg version="1.1" id="Layer_1" xmlns="http://www.w3.org/2000/svg" xmlns:xlink="http://www.w3.org/1999/xlink" x="0px" y="0px"
	 viewBox="0 0 16 16" style="enable-background:new 0 0 16 16;" xml:space="preserve">
<style type="text/css">
	.st0{fill:#464646;}
</style>
<g>
	<polygon class="st0" points="8.3,2.5 7.6,2.5 7.6,8 7.7,8.2 11.3,11.7 11.7,11.3 8.3,7.8 	"/>
	<path class="st0" d="M8,0C3.6,0,0,3.6,0,8s3.6,8,8,8s8-3.6,8-8S12.4,0,8,0z M8.3,15.3v-0.7H7.7v0.7c-3.8-0.2-6.8-3.2-7-7h0.6V7.7
		H0.7c0.2-3.8,3.2-6.8,7-7v0.6h0.7V0.7c3.8,0.2,6.8,3.2,7,7h-0.6v0.7h0.6C15.1,12.1,12.1,15.1,8.3,15.3z"/>
</g>
</svg>
