<?xml version="1.0" encoding="utf-8"?>
<!-- Generator: Adobe Illustrator 27.1.1, SVG Export Plug-In . SVG Version: 6.00 Build 0)  -->
<svg version="1.1" id="Layer_1" xmlns="http://www.w3.org/2000/svg" xmlns:xlink="http://www.w3.org/1999/xlink" x="0px" y="0px"
	 viewBox="0 0 24 24" style="enable-background:new 0 0 24 24;" xml:space="preserve">
<style type="text/css">
	.st0{fill:#464646;}
</style>
<path class="st0" d="M13.5,18h-0.6L11,13.1V13h0L7.4,3.8c-0.1-0.4-0.8-0.4-0.9,0L3,13h0v0l-1.9,5H0.5C0.2,18,0,18.2,0,18.5
	S0.2,19,0.5,19H3c0.3,0,0.5-0.2,0.5-0.5S3.3,18,3,18H2.3l1.5-4h6.5l1.5,4H11c-0.3,0-0.5,0.2-0.5,0.5S10.7,19,11,19h2.5
	c0.3,0,0.5-0.2,0.5-0.5S13.8,18,13.5,18z M4.1,13L7,5.4L9.9,13H4.1z"/>
<path class="st0" d="M23.9,18.4v-7c0-1.5-0.4-2.7-1.3-3.5c-0.8-0.8-1.9-1.1-3.2-1C18.2,7,17,7.4,15.7,8.3c-0.3,0.2-0.3,0.5-0.2,0.7
	c0.2,0.3,0.5,0.3,0.7,0.2c1.2-0.7,2.2-1.1,3.3-1.2s1.9,0.1,2.5,0.7c0.7,0.6,1,1.6,1,2.8v0.4c-0.9-0.4-2.3-0.9-4-0.9
	c-2.3,0-4,1.7-4,4c0,2.2,1.8,4,4,4c1.9,0,3.2-0.7,4-1.2v0.7c0,0.3,0.2,0.5,0.5,0.5S24,18.8,23.9,18.4z M19.1,18.1c-1.6,0-3-1.4-3-3
	c0-1.7,1.3-3,3-3c1.8,0,3.3,0.6,3.9,0.9v3.6C22.7,16.9,21.3,18.1,19.1,18.1z"/>
</svg>
