<?xml version="1.0" encoding="utf-8"?>
<!-- Generator: Adobe Illustrator 27.3.1, SVG Export Plug-In . SVG Version: 6.00 Build 0)  -->
<svg version="1.1" id="Artwork" xmlns="http://www.w3.org/2000/svg" xmlns:xlink="http://www.w3.org/1999/xlink" x="0px" y="0px"
	 viewBox="0 0 24 24" style="enable-background:new 0 0 24 24;" xml:space="preserve">
<style type="text/css">
	.st0{fill:#464646;}
</style>
<polygon class="st0" points="15,21 16,21 16.5,6 15.5,6 "/>
<polygon class="st0" points="7.5,6 8,21 9,21 8.5,6 "/>
<path class="st0" d="M19.6,22.2L20.5,4h1V3h-5V1.5C16.5,0.7,15.8,0,15,0H9C8.2,0,7.5,0.7,7.5,1.5V3h-5v1h1l0.9,18.2
	c0.1,1,0.9,1.8,2,1.8h11.3C18.7,24,19.6,23.2,19.6,22.2z M8.5,1.5C8.5,1.2,8.7,1,9,1h6c0.3,0,0.5,0.2,0.5,0.5V3h-7V1.5z M17.7,23
	H6.4c-0.5,0-0.9-0.4-0.9-0.9L4.5,4h15l-0.9,18.1C18.6,22.6,18.2,23,17.7,23z"/>
<path class="st0" d="M12.5,6h-1v1.5V21h1V7.5V6z"/>
</svg>
