<?xml version="1.0" encoding="utf-8"?>
<!-- Generator: Adobe Illustrator 27.3.1, SVG Export Plug-In . SVG Version: 6.00 Build 0)  -->
<svg version="1.1" id="Layer_1" xmlns="http://www.w3.org/2000/svg" xmlns:xlink="http://www.w3.org/1999/xlink" x="0px" y="0px"
	 viewBox="0 0 24 24" style="enable-background:new 0 0 24 24;" xml:space="preserve">
<style type="text/css">
	.st0{fill:#464646;}
</style>
<path class="st0" d="M15.1,13.9l0.7-0.7l-4-4c-0.2-0.2-0.5-0.2-0.7,0l-4,4l0.7,0.7l3.1-3.2V24h1V10.7L15.1,13.9z"/>
<path class="st0" d="M22.2,7.5c-1-0.9-2.2-1.4-3.5-1.3c-0.7-2.4-3.1-3.9-5.6-3.7c-1.6-1.5-4-2-6.1-1.3c-2.5,1-4.3,3.3-4.7,6
	C0.9,8.2,0,9.8,0,11.5v0.2c0,0.5,0.1,1.1,0.3,1.6C0.9,15.5,2.8,16.9,5,17h3v-1H5c-1.8,0-3.3-1.3-3.8-3C0.6,11.1,1.3,9,3,7.9l0.2-0.1
	l0-0.2c0.2-2.4,1.8-4.5,4-5.4c1.8-0.6,3.9-0.1,5.2,1.3l0.2,0.2l0.2,0c2.2-0.4,4.3,1.1,4.8,3.3l0.1,0.4l0.4,0c1.2-0.1,2.3,0.2,3.2,1
	c1,0.9,1.5,2.1,1.5,3.4c0,2.4-1.8,4.3-4.2,4.4H15v1h3.8c2.9-0.1,5.2-2.5,5.2-5.4C24,10,23.3,8.5,22.2,7.5z"/>
</svg>
