<?xml version="1.0" encoding="utf-8"?>
<!-- Generator: Adobe Illustrator 26.1.0, SVG Export Plug-In . SVG Version: 6.00 Build 0)  -->
<svg version="1.1" id="Layer_1" xmlns="http://www.w3.org/2000/svg" xmlns:xlink="http://www.w3.org/1999/xlink" x="0px" y="0px"
	 viewBox="0 0 16 16" style="enable-background:new 0 0 16 16;" xml:space="preserve">
<style type="text/css">
	.st0{fill:#464646;}
</style>
<g id="g818">
	<path class="st0" d="M15.6,4.5c-0.2-0.2-0.5-0.2-0.8-0.1c-0.6,0.2-1.2,0.6-1.5,1.2l-3.9,0C8.6,4.2,7,2.8,5.5,2.8
		C5.2,2.8,5,3.1,5,3.3l0,4.2l-5,0l0,1l5,0l0,4.2c0,0.3,0.2,0.5,0.5,0.5c1.5,0,3.1-1.3,4-2.7l3.9,0c0.3,0.6,0.9,1,1.5,1.2
		c0.4,0.1,0.9-0.1,1.1-0.5c0,0,0,0,0,0c0-0.1,0-0.2,0-0.3l0-5.7C16,4.9,15.9,4.6,15.6,4.5z M15,10.6c-0.4-0.1-0.7-0.4-0.8-0.8
		c-0.1-0.2-0.3-0.3-0.5-0.3l-4.5,0C9,9.5,8.9,9.6,8.8,9.8c-0.6,1.1-1.6,1.9-2.8,2.3l0-8.2c1.2,0.4,2.2,1.3,2.8,2.3
		C8.9,6.4,9,6.5,9.2,6.5l4.5,0c0.2,0,0.4-0.1,0.5-0.3c0.1-0.4,0.4-0.7,0.8-0.8L15,10.6z"/>
</g>
</svg>
