<?xml version="1.0" encoding="utf-8"?>
<!-- Generator: Adobe Illustrator 26.1.0, SVG Export Plug-In . SVG Version: 6.00 Build 0)  -->
<svg version="1.1" id="Layer_1" xmlns="http://www.w3.org/2000/svg" xmlns:xlink="http://www.w3.org/1999/xlink" x="0px" y="0px"
	 viewBox="0 0 32 32" style="enable-background:new 0 0 32 32;" xml:space="preserve">
<style type="text/css">
	.st0{fill:#464646;}
</style>
<g>
	<g>
		<g>
			<path class="st0" d="M11.2,25.5c-0.1-0.1-0.2-0.2-0.2-0.4V6.8c0-0.3,0.2-0.5,0.5-0.5c3.1,0,5.9,1.9,7.6,5.2l8.3,0.1
				c0.6-1.1,1.6-1.9,2.9-2.2c0.4-0.1,0.7,0,1.1,0.2c0.4,0.2,0.5,0.6,0.5,0.9v11c0,0.4-0.2,0.8-0.5,0.9c-0.4,0.2-0.7,0.3-1.1,0.2
				c-1.3-0.4-2.3-1.2-2.9-2.2l-8.3-0.1c-1.8,3.3-4.5,5.2-7.6,5.2C11.4,25.7,11.3,25.6,11.2,25.5z M12,7.3v17.4
				c2.6-0.2,4.9-2.1,6.4-4.9c0.1-0.2,0.3-0.3,0.4-0.3h8.9c0.1,0,0.4,0.1,0.4,0.3c0.5,0.9,1.3,1.6,2.4,2c0.1,0.1,0.1,0,0.1,0
				s0.1-0.1,0.1-0.2v-11c0-0.1,0-0.1-0.1-0.2c0,0-0.1-0.1-0.1,0c-1.1,0.4-2,1-2.4,2c-0.1,0.2-0.3,0.3-0.4,0.3h-8.9
				c-0.1,0-0.4-0.1-0.4-0.3C16.9,9.3,14.6,7.6,12,7.3z"/>
		</g>
		<g>
			<rect x="0.2" y="15.5" class="st0" width="11.3" height="1"/>
		</g>
	</g>
</g>
</svg>
