<?xml version="1.0" encoding="utf-8"?>
<!-- Generator: Adobe Illustrator 26.1.0, SVG Export Plug-In . SVG Version: 6.00 Build 0)  -->
<svg version="1.1" id="Layer_1" xmlns="http://www.w3.org/2000/svg" xmlns:xlink="http://www.w3.org/1999/xlink" x="0px" y="0px"
	 viewBox="0 0 24 24" style="enable-background:new 0 0 24 24;" xml:space="preserve">
<style type="text/css">
	.st0{fill:#464646;}
</style>
<path class="st0" d="M24,16.3V7.8c0-0.3-0.2-0.6-0.4-0.8c-0.3-0.1-0.6-0.2-1-0.1C21.8,7,21,7.7,20.5,8.4l-6.2,0.1
	C13,6,10.8,4.4,8.5,4.5c-0.1,0-0.2,0.1-0.4,0.2S8,5,7.9,5L8,11.5l-8,0.1l0,1l8-0.1V19c0,0.1,0.1,0.2,0.2,0.4
	c0.1,0.1,0.2,0.2,0.4,0.2c2.3,0,4.5-1.6,5.9-4l6.1,0c0.5,0.8,1.2,1.5,2.1,1.7c0.3,0.1,0.6,0.1,0.9-0.1C23.8,17,24,16.6,24,16.3z
	 M21.3,14.7c-0.1-0.2-0.3-0.3-0.4-0.3h-6.8c-0.1,0-0.4,0.1-0.4,0.3c-1.1,2.2-2.8,3.5-4.6,3.7L9,5.4c1.9,0.2,3.5,1.6,4.6,3.7
	c0.1,0.2,0.3,0.3,0.4,0.3l6.9,0.1c0.1,0,0.4-0.1,0.4-0.3c0.3-0.7,1-1.3,1.8-1.5L23,16.3C22.2,16.1,21.7,15.5,21.3,14.7z"/>
</svg>
