<svg version="1.1" id="Artwork" xmlns="http://www.w3.org/2000/svg" xmlns:xlink="http://www.w3.org/1999/xlink" x="0px" y="0px"
	 width="16px" height="16px" viewBox="0 0 16 16" enable-background="new 0 0 16 16" xml:space="preserve">
<path class="aw-theme-iconOutline" fill="#464646" d="M4.5,15.5c-1,0-2.1-0.4-2.9-1.2c-1.6-1.6-1.6-4.1,0-5.7l2-2l0.7,0.7l-2,2c-1.2,1.2-1.2,3.1,0,4.3
	s3.1,1.2,4.3,0l2-2l0.7,0.7l-2,2C6.6,15.1,5.5,15.5,4.5,15.5z"/>
<path class="aw-theme-iconOutline" fill="#464646" d="M12.4,9.4l-0.7-0.7l2-2c1.2-1.2,1.2-3.1,0-4.2c-1.2-1.2-3.2-1.2-4.3,0l-2,2L6.6,3.6l2-2
	c0.8-0.8,1.8-1.2,2.9-1.2s2.1,0.4,2.9,1.2c1.6,1.6,1.6,4.1,0,5.7L12.4,9.4z"/>
<path class="aw-theme-iconOutline" fill="#464646" d="M4.2,4.8c-0.1,0-0.3,0-0.4-0.1l-2-2c-0.2-0.2-0.2-0.5,0-0.7s0.5-0.2,0.7,0l2,2c0.2,0.2,0.2,0.5,0,0.7
	C4.5,4.7,4.4,4.8,4.2,4.8z"/>
<path class="aw-theme-iconOutline" fill="#464646" d="M3.5,6c0,0-0.1,0-0.1,0L0.7,5.3C0.5,5.3,0.3,5,0.4,4.7C0.4,4.4,0.7,4.3,1,4.4L3.6,5C3.9,5.1,4,5.4,4,5.6
	C3.9,5.9,3.7,6,3.5,6z"/>
<path class="aw-theme-iconOutline" fill="#464646" d="M5.5,4C5.3,4,5.1,3.8,5,3.6L4.4,1C4.3,0.7,4.4,0.4,4.7,0.4C5,0.3,5.3,0.5,5.3,0.7L6,3.4C6,3.6,5.9,3.9,5.6,4
	C5.6,4,5.5,4,5.5,4z"/>
<path class="aw-theme-iconOutline" fill="#464646" d="M13.7,14.2c-0.1,0-0.3,0-0.4-0.1l-2-2c-0.2-0.2-0.2-0.5,0-0.7s0.5-0.2,0.7,0l2,2c0.2,0.2,0.2,0.5,0,0.7
	C14,14.2,13.9,14.2,13.7,14.2z"/>
<path class="aw-theme-iconOutline" fill="#464646" d="M11.2,15.6c-0.2,0-0.4-0.1-0.5-0.4L10,12.6c-0.1-0.3,0.1-0.5,0.4-0.6c0.3-0.1,0.5,0.1,0.6,0.4l0.7,2.6
	c0.1,0.3-0.1,0.5-0.4,0.6C11.2,15.6,11.2,15.6,11.2,15.6z"/>
<path class="aw-theme-iconOutline" fill="#464646" d="M15.1,11.7c0,0-0.1,0-0.1,0L12.4,11c-0.3-0.1-0.4-0.3-0.4-0.6c0.1-0.3,0.3-0.4,0.6-0.4l2.6,0.7
	c0.3,0.1,0.4,0.3,0.4,0.6C15.6,11.5,15.4,11.7,15.1,11.7z"/>
</svg>
