<svg version="1.1" id="Artwork" xmlns="http://www.w3.org/2000/svg" xmlns:xlink="http://www.w3.org/1999/xlink" x="0px" y="0px" viewBox="0 0 24 24" enable-background="new 0 0 24 24" xml:space="preserve">

<path class="aw-theme-iconOutline" fill="#464646" d="M12,10.5c2.2,0,4-2.9,4-5.3C16,2.9,14.2,1,12,1S8,2.9,8,5.2C8,7.6,9.8,10.5,12,10.5z M12,2c1.7,0,3,1.4,3,3.2
	c0,1.9-1.5,4.3-3,4.3S9,7.1,9,5.2C9,3.4,10.3,2,12,2z"/>
<path class="aw-theme-iconOutline" fill="#464646" d="M16.7,11.1l-0.3-0.1l-0.2,0.2c-2.6,1.8-5.8,1.8-8.4,0l-0.2-0.2l-0.3,0.1c-2,1-3.3,2.8-3.3,4.8V24h16v-8.1
	C20,13.9,18.7,12,16.7,11.1z M19,23h-2v-6h-1v6H8v-6H7v6H5v-7.1c0-1.5,0.9-3,2.5-3.8c2.8,1.9,6.2,1.9,9.1,0c1.5,0.8,2.5,2.3,2.5,3.8
	V23z"/>

</svg>
