<?xml version="1.0" encoding="UTF-8"?>
<svg width="12px" height="16px" viewBox="0 0 12 16" version="1.1" xmlns="http://www.w3.org/2000/svg" xmlns:xlink="http://www.w3.org/1999/xlink">
    <title>cmdUser16</title>
    <g id="Page-1" stroke="none" stroke-width="1" fill="none" fill-rule="evenodd">
        <g id="cmdUser16" transform="translate(-0.000000, 0.000000)" fill="#464646" fill-rule="nonzero">
            <path d="M9.254,6.934 L9.5,7.043 C10.9311781,7.57190676 11.9128313,8.89870929 12,10.422 L12,16 L0,16 L0,10.422 C0.0871686979,8.89870929 1.06882195,7.57190676 2.5,7.043 L2.746,6.934 L2.973,7.079 C4.81110352,8.28404123 7.18889648,8.28404123 9.027,7.079 L9.254,6.934 Z M9.327,8.068 C7.27713016,9.28933154 4.72286984,9.28933154 2.673,8.068 C1.71909496,8.47817975 1.07371456,9.38626431 1,10.422 L1,15 L2,15 L2,11 L3,11 L3,15 L9,15 L9,11 L10,11 L10,15 L11,15 L11,10.422 C10.9262854,9.38626431 10.280905,8.47817975 9.327,8.068 Z M6,0 C7.681905,0.0458065079 9.01017586,1.44292749 8.971,3.125 C8.971,4.88 7.646,7 6,7 C4.354,7 3.029,4.88 3.029,3.125 C2.98982414,1.44292749 4.318095,0.0458065079 6,0 Z M6,1 C4.87030076,1.04552722 3.98957052,1.99507149 4.029,3.125 C4.029,4.38 4.985,6 6,6 C7.015,6 7.971,4.38 7.971,3.125 C8.01042948,1.99507149 7.12969924,1.04552722 6,1 Z" id="Shape"></path>
        </g>
    </g>
</svg>