<?xml version="1.0" encoding="utf-8"?>
<!-- Generator: Adobe Illustrator 27.3.1, SVG Export Plug-In . SVG Version: 6.00 Build 0)  -->
<svg version="1.1" id="Artwork" xmlns="http://www.w3.org/2000/svg" xmlns:xlink="http://www.w3.org/1999/xlink" x="0px" y="0px"
	 viewBox="0 0 16 16" style="enable-background:new 0 0 16 16;" xml:space="preserve">
<style type="text/css">
	.st0{fill:#464646;}
</style>
<path class="st0" d="M12.5,3.6C12,2.2,10.7,1,8.8,1.2C7.6,0.1,6.1-0.2,4.7,0.3C3,0.8,1.8,2.4,1.5,4.3c-1.3,1-1.8,2.6-1.3,4.2
	C0.7,10,1.9,11,3.4,11H5v-1H3.4c-1,0-1.9-0.7-2.3-1.8C0.8,7.2,1,5.8,2.3,4.9l0.2-0.1V4.6c0.2-1.7,1.2-3,2.5-3.4
	C6.1,0.8,7.3,1.1,8.2,2h0.3h0.2c1.8-0.2,2.7,1,3,2.1l0.1,0.4h0.4c0.7-0.1,1.4,0.1,1.9,0.6S15,6.4,15,7.2c0,1.5-1.2,2.8-2.6,2.8H10v1
	h2.4c2,0,3.6-1.7,3.6-3.8c0-1-0.5-2.1-1.2-2.7S13.3,3.6,12.5,3.6z"/>
<path class="st0" d="M9.6,8.3l0.8-0.7L7.9,5.1C7.7,5,7.3,5,7.1,5.1L4.6,7.6l0.7,0.7L7,6.7V16h1V6.7L9.6,8.3z"/>
</svg>
