<svg id="Layer_1" data-name="Layer 1" xmlns="http://www.w3.org/2000/svg" viewBox="0 0 16 16">
  <g id="g824">
    <path id="path821" d="M5.5,12.965a.54.54,0,0,1-.273-.349c-.018-.077-.032-1.043-.033-2.148V8.459H0V7.45H5.189V5.441c0-1.1.015-2.079.031-2.165a.489.489,0,0,1,.361-.39,2.065,2.065,0,0,1,.458.017A5.147,5.147,0,0,1,9.392,5.17l.2.3h3.837l.211-.24a2.954,2.954,0,0,1,1.341-.86.762.762,0,0,1,.954.5l.009.03A21.32,21.32,0,0,1,16,7.944c0,1.957-.013,2.957-.039,3.05a.95.95,0,0,1-.486.513.97.97,0,0,1-.739-.076,2.688,2.688,0,0,1-1.1-.853l-.127-.173H9.659l-.062.1a5.709,5.709,0,0,1-2.938,2.35A2.415,2.415,0,0,1,5.5,12.965Zm1.181-1.176A4.653,4.653,0,0,0,8.809,9.805c.221-.435-.081-.391,2.706-.391s2.525-.035,2.749.364a2.088,2.088,0,0,0,.252.352,1.425,1.425,0,0,0,.5.347,17.562,17.562,0,0,0,.047-2.523c0-1.8-.011-2.522-.039-2.522-.138,0-.51.357-.687.66-.247.42,0,.387-2.794.376L9.122,6.459l-.114-.108a1.367,1.367,0,0,1-.215-.307A4.522,4.522,0,0,0,7.5,4.569a4.662,4.662,0,0,0-1.144-.6l-.117-.023v8l.081-.021c.04-.009.2-.071.357-.136Z" fill="#464646"/>
  </g>
</svg>
