<svg id="Layer_1" data-name="Layer 1" xmlns="http://www.w3.org/2000/svg" viewBox="0 0 24 24">
  <path d="M23.6,6.4a.972.972,0,0,0-.9-.1A4.145,4.145,0,0,0,20.5,8H14.3C13,5.7,10.6,4,8.4,4a.458.458,0,0,0-.4.5V11H0v1H8v6.5a.472.472,0,0,0,.5.5c2.1,0,4.6-1.7,5.9-4h6.2a3.92,3.92,0,0,0,2.1,1.7.94.94,0,0,0,.9-.1.909.909,0,0,0,.4-.8V7.2A1.234,1.234,0,0,0,23.6,6.4ZM23,15.8a2.8,2.8,0,0,1-1.7-1.5.55.55,0,0,0-.5-.3H14c-.2,0-.4.1-.4.3A6.959,6.959,0,0,1,9,18V5a6.959,6.959,0,0,1,4.6,3.7.55.55,0,0,0,.5.3h6.8a.55.55,0,0,0,.5-.3,2.8,2.8,0,0,1,1.7-1.5v8.6Z" fill="#464646"/>
</svg>
