<svg id="Layer_1" data-name="Layer 1" xmlns="http://www.w3.org/2000/svg" viewBox="0 0 32 32">
  <g>
    <rect width="32" height="32" fill="none"/>
    <g>
      <path d="M11.5,25a.472.472,0,0,1-.5-.5V6.5a.472.472,0,0,1,.5-.5c3,0,6,2,7.7,5h8.4a5.409,5.409,0,0,1,2.9-2.2A1.217,1.217,0,0,1,32,10V21.1a1.25,1.25,0,0,1-1.6,1.2A4.756,4.756,0,0,1,27.5,20H19.1A9.024,9.024,0,0,1,11.5,25ZM12,7V24a8.059,8.059,0,0,0,6.4-4.7.536.536,0,0,1,.4-.3h9c.2,0,.4.1.4.3a3.881,3.881,0,0,0,2.5,2h.2a.349.349,0,0,0,.1-.2V10c0-.1,0-.2-.1-.2,0,0-.1-.1-.1,0a4.208,4.208,0,0,0-2.5,2,.764.764,0,0,1-.5.2h-9c-.2,0-.4-.1-.4-.3A8.059,8.059,0,0,0,12,7Z" fill="#464646"/>
      <rect y="15" width="11.5" height="1" fill="#464646"/>
    </g>
  </g>
</svg>
