<?xml version="1.0" encoding="utf-8"?>
<!-- Generator: Adobe Illustrator 27.3.1, SVG Export Plug-In . SVG Version: 6.00 Build 0)  -->
<svg version="1.1" id="Layer_1" xmlns="http://www.w3.org/2000/svg" xmlns:xlink="http://www.w3.org/1999/xlink" x="0px" y="0px"
	 viewBox="0 0 32 32" style="enable-background:new 0 0 32 32;" xml:space="preserve">
<style type="text/css">
	.st0{fill:#464646;}
</style>
<path class="st0" d="M26.1,24.4c0.1,0,0.3,0.1,0.4,0.1s0.1,0,0.1,0c0.2-0.1,0.3-0.3,0.3-0.5V12c0-0.2-0.1-0.4-0.3-0.5
	c-0.1-0.1-0.4,0-0.5,0.1l-6,6c0,0.1-0.1,0.3-0.1,0.4s0.1,0.3,0.1,0.4L26.1,24.4z M26,13.2v9.6L21.2,18L26,13.2z"/>
<path class="st0" d="M6,12.5v11C6,23.8,6.2,24,6.5,24h13c0.3,0,0.5-0.2,0.5-0.5V18v-5.5c0-0.3-0.2-0.5-0.5-0.5h-13
	C6.2,12,6,12.2,6,12.5z M7,13h12v10H7V13z"/>
<path class="st0" d="M16,0H0v32h32V4H16V0z M31,5v26H1V1h14v4H31z"/>
</svg>
