<?xml version="1.0" encoding="utf-8"?>
<!-- Generator: Adobe Illustrator 27.1.1, SVG Export Plug-In . SVG Version: 6.00 Build 0)  -->
<svg version="1.1" id="Layer_1" xmlns="http://www.w3.org/2000/svg" xmlns:xlink="http://www.w3.org/1999/xlink" x="0px" y="0px"
	 viewBox="0 0 24 24" style="enable-background:new 0 0 24 24;" xml:space="preserve">
<style type="text/css">
	.st0{fill:none;}
	.st1{fill:#464646;}
</style>
<rect x="5" y="10" class="st0" width="9" height="7"/>
<polygon class="st0" points="19,10.2 15.7,13.5 19,16.8 "/>
<path class="st0" d="M11,1H1v22h22V4H11V1z M14.5,9C14.8,9,15,9.2,15,9.5v3.3l4.1-4.1c0.1-0.1,0.4-0.2,0.5-0.1C19.9,8.6,20,8.8,20,9
	v9c0,0.2-0.1,0.4-0.3,0.5c-0.1,0-0.1,0-0.2,0s-0.3-0.1-0.4-0.1L15,14.3v3.2c0,0.3-0.2,0.5-0.5,0.5h-10C4.2,18,4,17.8,4,17.5v-8
	C4,9.2,4.2,9,4.5,9H14.5z"/>
<path class="st1" d="M4,9.5v8C4,17.8,4.2,18,4.5,18h10c0.3,0,0.5-0.2,0.5-0.5v-3.2l4.1,4.1c0.1,0,0.3,0.1,0.4,0.1s0.1,0,0.2,0
	c0.2-0.1,0.3-0.3,0.3-0.5V9c0-0.2-0.1-0.4-0.4-0.4c-0.1-0.1-0.4,0-0.5,0.1L15,12.8V9.5C15,9.2,14.8,9,14.5,9h-10C4.2,9,4,9.2,4,9.5z
	 M19,10.2v6.6l-3.3-3.3L19,10.2z M5,10h9v7H5V10z"/>
<path class="st1" d="M12,3V0H0v24h24V3H12z M23,23H1V1h10v3h12V23z"/>
</svg>
