<?xml version="1.0" encoding="utf-8"?>
<!-- Generator: Adobe Illustrator 27.3.1, SVG Export Plug-In . SVG Version: 6.00 Build 0)  -->
<svg version="1.1" id="Artwork" xmlns="http://www.w3.org/2000/svg" xmlns:xlink="http://www.w3.org/1999/xlink" x="0px" y="0px"
	 viewBox="0 0 16 16" style="enable-background:new 0 0 16 16;" xml:space="preserve">
<style type="text/css">
	.st0{fill:#464646;}
</style>
<polygon class="st0" points="9.1,7.8 10.1,7.8 10.1,5.8 12.1,5.8 12.1,4.8 10.1,4.8 10.1,2.8 9.1,2.8 9.1,4.8 7.1,4.8 7.1,5.8 
	9.1,5.8 "/>
<path class="st0" d="M3,6.5c0,1.1,0.3,2.1,0.8,3l-3.1,3.1c-0.7,0.7-0.7,2,0,2.7C1,15.7,1.5,15.9,2,15.9s1-0.2,1.3-0.6l3.1-3.1
	c0.9,0.5,1.9,0.8,3,0.8c3.6,0,6.5-2.9,6.5-6.5S13.1,0,9.5,0S3,2.9,3,6.5z M2.7,14.7c-0.3,0.3-1,0.3-1.3,0c-0.4-0.4-0.4-0.9,0-1.3
	l3-3c0.4,0.5,0.8,0.9,1.3,1.3L2.7,14.7z M9.5,1c3,0,5.5,2.5,5.5,5.5S12.5,12,9.5,12S4,9.5,4,6.5S6.5,1,9.5,1z"/>
<polygon class="st0" points="10.1,10 12.1,10 12.1,9 10.1,9 9.1,9 7.1,9 7.1,10 9.1,10 "/>
</svg>
