<?xml version="1.0" encoding="utf-8"?>
<!-- Generator: Adobe Illustrator 27.3.1, SVG Export Plug-In . SVG Version: 6.00 Build 0)  -->
<svg version="1.1" id="Artwork" xmlns="http://www.w3.org/2000/svg" xmlns:xlink="http://www.w3.org/1999/xlink" x="0px" y="0px"
	 viewBox="0 0 24 24" style="enable-background:new 0 0 24 24;" xml:space="preserve">
<style type="text/css">
	.st0{fill:#464646;}
</style>
<polygon class="st0" points="14,11.1 15,11.1 15,8.1 18,8.1 18,7.1 15,7.1 15,4.1 14,4.1 14,7.1 11,7.1 11,8.1 14,8.1 "/>
<path class="st0" d="M3.3,23.4l5.9-6c1.5,1,3.3,1.6,5.2,1.6c5.2,0,9.5-4.3,9.5-9.5S19.7,0,14.5,0S5,4.3,5,9.5c0,1.9,0.6,3.7,1.6,5.2
	l-5.9,5.9c-0.7,0.7-0.7,2,0,2.7C1,23.8,1.5,24,2,24S3,23.8,3.3,23.4z M6,9.5C6,4.8,9.8,1,14.5,1S23,4.8,23,9.5S19.2,18,14.5,18
	S6,14.2,6,9.5z M2.1,23c-0.2,0-0.5-0.1-0.7-0.3c-0.4-0.4-0.4-0.9,0-1.3l5.8-5.8C7.6,16,8,16.4,8.5,16.8l-5.8,5.9
	C2.5,22.9,2.3,23,2.1,23z"/>
<polygon class="st0" points="15,14 18,14 18,13 15,13 14,13 11,13 11,14 14,14 "/>
</svg>
