<svg xmlns="http://www.w3.org/2000/svg" viewBox="0 0 12 12">
  <path d="M11.8,3.1,8.9.2A1.075,1.075,0,0,0,8.3,0a.675.675,0,0,0-.6.4,2.2,2.2,0,0,0-.2,1.4L5.6,3.6a3.912,3.912,0,0,0-3.5.8c0,.1-.1.2-.1.3s.1.3.1.4l2,2h0L.5,10.6a.483.483,0,0,0-.017.683L.5,11.3c.1.1.2.1.4.1a.6.6,0,0,0,.4-.1L4.9,7.8h0l2,2a.517.517,0,0,0,.4.2c.2,0,.3-.1.4-.1a4.2,4.2,0,0,0,.7-3.5l1.9-1.9a2.4,2.4,0,0,0,1.4-.2.852.852,0,0,0,.3-.6A1.075,1.075,0,0,0,11.8,3.1Z" transform="translate(-0.35)" class="aw-theme-iconOutline" fill="#464646"/>
</svg>
