<?xml version="1.0" encoding="UTF-8"?>
<svg width="32px" height="32px" viewBox="0 0 32 32" version="1.1" xmlns="http://www.w3.org/2000/svg" xmlns:xlink="http://www.w3.org/1999/xlink" enable-background="new 0 0 32 32" viewBox="0 0 32 32" xmlns="http://www.w3.org/2000/svg">
    <title>AppIcon32_placeholder</title>
    <path d="m0 0h32v32h-32z" fill="#2d373c"/>
    <path d="m10.3 22h-4.1l-.8 2.3h-2.5l4.2-11.3h2.2l4.3 11.4h-2.5zm-3.5-1.9h2.8l-1.4-4.3z" fill="#fff"/>
    <path d="m19.4 24.3c-.1-.2-.2-.5-.2-.8-.5.6-1.3.9-2.1.9s-1.5-.2-2.1-.7c-.5-.4-.8-1.1-.8-1.8 0-.8.3-1.6 1-2.1.9-.5 1.9-.8 2.9-.7h1v-.5c0-.3-.1-.7-.3-.9-.2-.3-.6-.4-.9-.4s-.6.1-.9.3c-.2.2-.3.5-.3.8h-2.3c0-.5.2-1 .5-1.4s.8-.8 1.3-1c.6-.2 1.2-.4 1.9-.4.9 0 1.8.2 2.5.8.6.6 1 1.4.9 2.2v3.7c0 .6.1 1.2.3 1.8v.1zm-1.9-1.5c.3 0 .6-.1.9-.2s.5-.3.6-.6v-1.5h-.8c-1.1 0-1.7.4-1.8 1.2v.1c0 .3.1.5.3.7s.5.3.8.3z" fill="#fff"/>
    <g fill="#abbdca">
        <path d="m8 8.3h-2v2h-1v-5h3.2v.8h-2.2v1.3h2z"/>
        <path d="m11 9.3h-1.8l-.3 1h-1.1l1.9-5h.9l1.9 5h-1.1zm-1.5-.8h1.2l-.6-1.9z"/>
        <path d="m14.2 5.4 1.3 3.6 1.3-3.6h1.3v5h-1v-1.4l.1-2.3-1.3 3.7h-.7l-1.3-3.7v2.3 1.4h-1v-5z"/>
    </g>
    <path d="m31 1v30h-30v-30zm1-1h-32v32h32z" fill="#fff"/>
</svg>