<?xml version="1.0" encoding="UTF-8"?>
<svg width="22px" height="18px" viewBox="0 0 22 18" version="1.1" xmlns="http://www.w3.org/2000/svg" xmlns:xlink="http://www.w3.org/1999/xlink">
    <title>cmdMissingImage24</title>
    <g id="Page-1" stroke="none" stroke-width="1" fill="none" fill-rule="evenodd">
        <g id="cmdMissingImage24" fill="#DC3C00" fill-rule="nonzero">
            <path d="M1,17 L1,18 L0,18 L0,17 L1,17 Z M4,17 L4,18 L2,18 L2,17 L4,17 Z M7,17 L7,18 L5,18 L5,17 L7,17 Z M10,17 L10,18 L8,18 L8,17 L10,17 Z M13,17 L13,18 L11,18 L11,17 L13,17 Z M16,17 L16,18 L14,18 L14,17 L16,17 Z M19,17 L19,18 L17,18 L17,17 L19,17 Z M22,17 L22,18 L20,18 L20,17 L22,17 Z M1,14 L1,16 L0,16 L0,14 L1,14 Z M22,14 L22,16 L21,16 L21,14 L22,14 Z M19.4,3 L20,3.8 L11.921,9 L20,14.2 L19.4,15 L11,9.593 L2.6,15 L2,14.2 L10.079,9 L2,3.8 L2.6,3 L11,8.407 L19.4,3 Z M1,11 L1,13 L0,13 L0,11 L1,11 Z M22,11 L22,13 L21,13 L21,11 L22,11 Z M1,8 L1,10 L0,10 L0,8 L1,8 Z M22,8 L22,10 L21,10 L21,8 L22,8 Z M1,5 L1,7 L0,7 L0,5 L1,5 Z M22,5 L22,7 L21,7 L21,5 L22,5 Z M1,2 L1,4 L0,4 L0,2 L1,2 Z M22,2 L22,4 L21,4 L21,2 L22,2 Z M2,0 L2,1 L0,1 L0,0 L2,0 Z M5,0 L5,1 L3,1 L3,0 L5,0 Z M8,0 L8,1 L6,1 L6,0 L8,0 Z M11,0 L11,1 L9,1 L9,0 L11,0 Z M14,0 L14,1 L12,1 L12,0 L14,0 Z M17,0 L17,1 L15,1 L15,0 L17,0 Z M20,0 L20,1 L18,1 L18,0 L20,0 Z M22,0 L22,1 L21,1 L21,0 L22,0 Z" id="Shape"></path>
        </g>
    </g>
</svg>