<svg id="Layer_1" data-name="Layer 1" xmlns="http://www.w3.org/2000/svg" xmlns:xlink="http://www.w3.org/1999/xlink" width="48" height="48" viewBox="0 0 48 48">
  <defs>
    <linearGradient id="linear-gradient" x1="10.062" y1="3.162" x2="20.938" y2="14.037" gradientUnits="userSpaceOnUse">
      <stop offset="0" stop-color="#fff"/>
      <stop offset="1" stop-color="#bebebe"/>
    </linearGradient>
    <linearGradient id="Dark_Blue_Grad" data-name="Dark Blue Grad" x1="3.268" y1="22.803" x2="27.732" y2="47.268" gradientUnits="userSpaceOnUse">
      <stop offset="0" stop-color="#73b4c8"/>
      <stop offset="0.175" stop-color="#6aaec3"/>
      <stop offset="0.457" stop-color="#529eb5"/>
      <stop offset="0.809" stop-color="#2c839f"/>
      <stop offset="1" stop-color="#147391"/>
    </linearGradient>
    <linearGradient id="paper_gradient" data-name="paper gradient" x1="26.161" y1="26.161" x2="43.839" y2="43.839" gradientUnits="userSpaceOnUse">
      <stop offset="0" stop-color="#fff"/>
      <stop offset="0.221" stop-color="#f8f8f8"/>
      <stop offset="0.541" stop-color="#e5e5e5"/>
      <stop offset="0.92" stop-color="#c6c6c6"/>
      <stop offset="1" stop-color="#bebebe"/>
    </linearGradient>
  </defs>
  <title>graAddUser48R</title>
  <path d="M22.5,7.937c0,4.108-3.134,9.563-7,9.563s-7-5.455-7-9.563A7.229,7.229,0,0,1,15.5.5,7.229,7.229,0,0,1,22.5,7.937Z" transform="translate(0 0)" stroke="#464646" stroke-miterlimit="10" fill="url(#linear-gradient)"/>
  <path d="M30.5,44.5V29.267c0-3.773-2.436-7.026-6.007-8.767a15.566,15.566,0,0,1-8.993,3,15.566,15.566,0,0,1-8.993-3C2.936,22.241.5,25.494.5,29.267V44.5Z" transform="translate(0 0)" stroke="#464646" stroke-miterlimit="10" fill="url(#Dark_Blue_Grad)"/>
  <line x1="7.5" y1="44" x2="7.5" y2="32" fill="none" stroke="#147391" stroke-linejoin="round"/>
  <line x1="23.5" y1="44" x2="23.5" y2="32" fill="none" stroke="#147391" stroke-linejoin="round"/>
  <circle cx="35" cy="35" r="12.5" stroke="#464646" stroke-miterlimit="10" fill="url(#paper_gradient)"/>
  <g>
    <polygon points="33.5 42.5 33.5 36.5 27.5 36.5 27.5 33.5 33.5 33.5 33.5 27.5 36.5 27.5 36.5 33.5 42.5 33.5 42.5 36.5 36.5 36.5 36.5 42.5 33.5 42.5" fill="#fff" fill-rule="evenodd"/>
    <path d="M36,28v6h6v2H36v6H34V36H28V34h6V28h2m1-1H33v6H27v4h6v6h4V37h6V33H37V27Z" transform="translate(0 0)" fill="#6e6e6e"/>
  </g>
</svg>
