<svg id="Layer_1" data-name="Layer 1" xmlns="http://www.w3.org/2000/svg" xmlns:xlink="http://www.w3.org/1999/xlink" width="48" height="48" viewBox="0 0 48 48">
  <defs>
    <linearGradient id="linear-gradient" x1="28.723" y1="8.875" x2="34.277" y2="14.429" gradientUnits="userSpaceOnUse">
      <stop offset="0" stop-color="#fff"/>
      <stop offset="1" stop-color="#bebebe"/>
    </linearGradient>
    <linearGradient id="Dark_Blue_Grad" data-name="Dark Blue Grad" x1="25.378" y1="19.119" x2="37.622" y2="31.362" gradientUnits="userSpaceOnUse">
      <stop offset="0" stop-color="#73b4c8"/>
      <stop offset="0.175" stop-color="#6aaec3"/>
      <stop offset="0.457" stop-color="#529eb5"/>
      <stop offset="0.809" stop-color="#2c839f"/>
      <stop offset="1" stop-color="#147391"/>
    </linearGradient>
    <linearGradient id="linear-gradient-2" x1="14.723" y1="8.875" x2="20.277" y2="14.429" xlink:href="#linear-gradient"/>
    <linearGradient id="Dark_Blue_Grad-2" x1="11.378" y1="19.119" x2="23.622" y2="31.362" xlink:href="#Dark_Blue_Grad"/>
    <linearGradient id="linear-gradient-3" x1="21.723" y1="19.875" x2="27.277" y2="25.429" xlink:href="#linear-gradient"/>
    <linearGradient id="Dark_Blue_Grad-3" x1="18.378" y1="30.119" x2="30.622" y2="42.362" xlink:href="#Dark_Blue_Grad"/>
    <linearGradient id="linear-gradient-4" x1="35.723" y1="15.875" x2="41.277" y2="21.429" xlink:href="#linear-gradient"/>
    <linearGradient id="Dark_Blue_Grad-4" x1="32.378" y1="26.119" x2="44.622" y2="38.362" xlink:href="#Dark_Blue_Grad"/>
    <linearGradient id="linear-gradient-5" x1="7.723" y1="15.875" x2="13.277" y2="21.429" xlink:href="#linear-gradient"/>
    <linearGradient id="Dark_Blue_Grad-5" x1="4.378" y1="26.119" x2="16.622" y2="38.362" xlink:href="#Dark_Blue_Grad"/>
  </defs>
  <title>graCommunity48R</title>
  <path d="M35.074,11.314c0,2.1-1.6,4.883-3.574,4.883s-3.574-2.786-3.574-4.883a3.581,3.581,0,1,1,7.148,0Z" stroke="#464646" stroke-miterlimit="10" fill="url(#linear-gradient)"/>
  <path d="M38.5,30.484V22.233a5.456,5.456,0,0,0-2.8-4.749,6.232,6.232,0,0,1-8.394,0,5.456,5.456,0,0,0-2.8,4.749v8.251Z" stroke="#464646" stroke-miterlimit="10" fill="url(#Dark_Blue_Grad)"/>
  <line x1="27.5" y1="29.984" x2="27.5" y2="23.984" fill="none" stroke="#147391" stroke-linejoin="round"/>
  <line x1="35.5" y1="29.984" x2="35.5" y2="23.984" fill="none" stroke="#147391" stroke-linejoin="round"/>
  <path d="M21.074,11.314c0,2.1-1.6,4.883-3.574,4.883s-3.574-2.786-3.574-4.883a3.691,3.691,0,0,1,3.574-3.8A3.691,3.691,0,0,1,21.074,11.314Z" stroke="#464646" stroke-miterlimit="10" fill="url(#linear-gradient-2)"/>
  <path d="M24.5,30.484V22.233a5.456,5.456,0,0,0-2.8-4.749,6.629,6.629,0,0,1-4.2,1.625,6.629,6.629,0,0,1-4.2-1.625,5.456,5.456,0,0,0-2.8,4.749v8.251Z" stroke="#464646" stroke-miterlimit="10" fill="url(#Dark_Blue_Grad-2)"/>
  <line x1="13.5" y1="29.984" x2="13.5" y2="23.984" fill="none" stroke="#147391" stroke-linejoin="round"/>
  <line x1="21.5" y1="29.984" x2="21.5" y2="23.984" fill="none" stroke="#147391" stroke-linejoin="round"/>
  <path d="M28.074,22.314c0,2.1-1.6,4.883-3.574,4.883s-3.574-2.786-3.574-4.883a3.581,3.581,0,1,1,7.148,0Z" stroke="#464646" stroke-miterlimit="10" fill="url(#linear-gradient-3)"/>
  <path d="M31.5,41.484V33.233a5.456,5.456,0,0,0-2.8-4.749,6.629,6.629,0,0,1-4.2,1.625,6.629,6.629,0,0,1-4.2-1.625,5.456,5.456,0,0,0-2.8,4.749v8.251Z" stroke="#464646" stroke-miterlimit="10" fill="url(#Dark_Blue_Grad-3)"/>
  <line x1="20.5" y1="40.984" x2="20.5" y2="34.984" fill="none" stroke="#147391" stroke-linejoin="round"/>
  <line x1="28.5" y1="40.984" x2="28.5" y2="34.984" fill="none" stroke="#147391" stroke-linejoin="round"/>
  <path d="M42.074,18.314c0,2.1-1.6,4.883-3.574,4.883s-3.574-2.786-3.574-4.883a3.581,3.581,0,1,1,7.148,0Z" stroke="#464646" stroke-miterlimit="10" fill="url(#linear-gradient-4)"/>
  <path d="M45.5,37.484V29.233a5.456,5.456,0,0,0-2.8-4.749,6.232,6.232,0,0,1-8.394,0,5.456,5.456,0,0,0-2.8,4.749v8.251Z" stroke="#464646" stroke-miterlimit="10" fill="url(#Dark_Blue_Grad-4)"/>
  <line x1="34.5" y1="36.984" x2="34.5" y2="30.984" fill="none" stroke="#147391" stroke-linejoin="round"/>
  <line x1="42.5" y1="36.984" x2="42.5" y2="30.984" fill="none" stroke="#147391" stroke-linejoin="round"/>
  <path d="M14.074,18.314c0,2.1-1.6,4.883-3.574,4.883s-3.574-2.786-3.574-4.883a3.691,3.691,0,0,1,3.574-3.8A3.691,3.691,0,0,1,14.074,18.314Z" stroke="#464646" stroke-miterlimit="10" fill="url(#linear-gradient-5)"/>
  <path d="M17.5,37.484V29.233a5.456,5.456,0,0,0-2.8-4.749,6.629,6.629,0,0,1-4.2,1.625,6.629,6.629,0,0,1-4.2-1.625,5.456,5.456,0,0,0-2.8,4.749v8.251Z" stroke="#464646" stroke-miterlimit="10" fill="url(#Dark_Blue_Grad-5)"/>
  <line x1="6.5" y1="36.984" x2="6.5" y2="30.984" fill="none" stroke="#147391" stroke-linejoin="round"/>
  <line x1="14.5" y1="36.984" x2="14.5" y2="30.984" fill="none" stroke="#147391" stroke-linejoin="round"/>
  <rect width="48" height="48" fill="none"/>
</svg>
