<svg id="Layer_1" data-name="Layer 1" xmlns="http://www.w3.org/2000/svg" xmlns:xlink="http://www.w3.org/1999/xlink" width="48" height="48" viewBox="0 0 48 48">
  <defs>
    <linearGradient id="Dark_Blue_Grad" data-name="Dark Blue Grad" x1="18.472" y1="4.182" x2="31.067" y2="51.672" gradientUnits="userSpaceOnUse">
      <stop offset="0" stop-color="#73b4c8"/>
      <stop offset="0.175" stop-color="#6aaec3"/>
      <stop offset="0.457" stop-color="#529eb5"/>
      <stop offset="0.809" stop-color="#2c839f"/>
      <stop offset="1" stop-color="#147391"/>
    </linearGradient>
    <linearGradient id="paper_gradient" data-name="paper gradient" x1="24.07" y1="6.014" x2="23.9" y2="42.099" gradientUnits="userSpaceOnUse">
      <stop offset="0" stop-color="#fff"/>
      <stop offset="0.221" stop-color="#f8f8f8"/>
      <stop offset="0.541" stop-color="#e5e5e5"/>
      <stop offset="0.92" stop-color="#c6c6c6"/>
      <stop offset="1" stop-color="#bebebe"/>
    </linearGradient>
  </defs>
  <title>graDocument48R</title>
  <polyline points="41.413 10.559 45.5 10.559 45.5 39.492 25.9 39.492 23.902 41.559 21.798 39.492 2.5 39.492 2.5 10.559 6.498 10.559" stroke="#464646" stroke-linecap="round" stroke-linejoin="round" fill="url(#Dark_Blue_Grad)"/>
  <polygon points="41.5 35.324 26.07 35.324 24 37.382 21.841 35.324 6.5 35.324 6.5 6.5 21.841 6.5 24 8.559 25.965 6.5 41.5 6.5 41.5 35.324" stroke="#464646" stroke-linecap="round" stroke-linejoin="round" fill="url(#paper_gradient)"/>
  <line x1="24" y1="8.559" x2="24" y2="35.324" fill="none" stroke="#464646" stroke-linecap="round" stroke-linejoin="round"/>
  <line x1="9.588" y1="12.676" x2="19.882" y2="12.676" fill="none" stroke="#464646" stroke-linecap="round" stroke-linejoin="round"/>
  <line x1="9.588" y1="20.912" x2="19.882" y2="20.912" fill="none" stroke="#464646" stroke-linecap="round" stroke-linejoin="round"/>
  <line x1="9.588" y1="29.147" x2="19.882" y2="29.147" fill="none" stroke="#464646" stroke-linecap="round" stroke-linejoin="round"/>
  <line x1="9.588" y1="16.794" x2="17.824" y2="16.794" fill="none" stroke="#464646" stroke-linecap="round" stroke-linejoin="round"/>
  <line x1="9.588" y1="25.029" x2="17.824" y2="25.029" fill="none" stroke="#464646" stroke-linecap="round" stroke-linejoin="round"/>
  <line x1="28.118" y1="12.676" x2="38.412" y2="12.676" fill="none" stroke="#464646" stroke-linecap="round" stroke-linejoin="round"/>
  <line x1="28.118" y1="20.912" x2="38.412" y2="20.912" fill="none" stroke="#464646" stroke-linecap="round" stroke-linejoin="round"/>
  <line x1="28.118" y1="29.147" x2="38.412" y2="29.147" fill="none" stroke="#464646" stroke-linecap="round" stroke-linejoin="round"/>
  <line x1="28.118" y1="16.794" x2="36.353" y2="16.794" fill="none" stroke="#464646" stroke-linecap="round" stroke-linejoin="round"/>
  <line x1="28.118" y1="25.029" x2="36.353" y2="25.029" fill="none" stroke="#464646" stroke-linecap="round" stroke-linejoin="round"/>
  <rect width="48" height="48" fill="none"/>
</svg>
