<?xml version="1.0" encoding="UTF-8"?>
<svg width="42px" height="42px" viewBox="0 0 42 42" version="1.1" xmlns="http://www.w3.org/2000/svg" xmlns:xlink="http://www.w3.org/1999/xlink">
    <title>graFaq48R</title>
    <defs>
        <linearGradient x1="34.3025162%" y1="-29.4717949%" x2="80.7819384%" y2="172.166667%" id="linearGradient-1">
            <stop stop-color="#73B4C8" offset="0%"></stop>
            <stop stop-color="#6AAEC3" offset="17.5%"></stop>
            <stop stop-color="#529EB5" offset="45.7%"></stop>
            <stop stop-color="#2C839F" offset="80.9%"></stop>
            <stop stop-color="#147391" offset="100%"></stop>
        </linearGradient>
    </defs>
    <g id="Page-1" stroke="none" stroke-width="1" fill="none" fill-rule="evenodd">
        <g id="graFaq48R" transform="translate(0.975500, 0.975500)" fill-rule="nonzero">
            <path d="M34.2345,30.6605 L21.7975,30.6605 L12.9445,39.5245 L12.9335,30.6605 L5.8425,30.6605 C2.9054497,30.6605 0.5245,28.2795503 0.5245,25.3425 L0.5245,5.8425 C0.5245,2.9054497 2.9054497,0.5245 5.8425,0.5245 L34.2345,0.5245 C35.642031,0.525549026 36.991201,1.08707054 37.9838455,2.08496907 C38.9764899,3.08286759 39.5308813,4.43498312 39.5245545,5.8425 L39.5245545,25.3425 C39.5308813,26.7500169 38.9764899,28.1021324 37.9838455,29.1000309 C36.991201,30.0979295 35.642031,30.659451 34.2345,30.6605 L34.2345,30.6605 Z" id="Path" fill="url(#linearGradient-1)"></path>
            <path d="M34.2348909,0 L5.8425,0 C2.61577635,0 0,2.61577635 0,5.8425 L0,25.3425 L0.00402983716,25.5615336 C0.119214497,28.6867715 2.68911098,31.185 5.8425,31.185 L12.4095,31.1845 L12.4200004,39.5251509 L12.4274042,39.615361 C12.49486,40.0208851 13.0075139,40.2036238 13.3156077,39.8951472 L22.0145,31.1845 L34.2345,31.185 C35.7818722,31.1838469 37.2647105,30.566693 38.3557006,29.4699282 C39.4466749,28.3731794 40.0560029,26.8871166 40.0491133,25.3401424 L40.0491133,5.8425 C40.0560029,4.29788338 39.4466749,2.81182058 38.3557006,1.71507179 C37.2647105,0.618307039 35.7818722,0.00115310343 34.2348909,0 Z M5.8425,1.04899985 L34.2341091,1.04899985 C35.5021897,1.04994495 36.7176915,1.55583404 37.6119903,2.45486635 C38.5062804,3.35388994 39.0057599,4.57204809 39.000108,5.84014237 L39.000108,25.3425 C39.0057599,26.6129519 38.5062804,27.8311101 37.6119903,28.7301337 C36.7176915,29.629166 35.5021897,30.1350551 34.2341091,30.1360001 L21.7975,30.136 L21.7148894,30.1425443 C21.6062832,30.1598658 21.5050975,30.2110499 21.4263923,30.2898528 L13.4665,38.2575 L13.4579996,30.6598491 C13.4576404,30.3704301 13.2229192,30.136 12.9335,30.136 L5.8425,30.136 C3.19512305,30.136 1.049,27.9898769 1.049,25.3425 L1.049,5.8425 C1.049,3.19512305 3.19512305,1.04899985 5.8425,1.04899985 Z" id="Path" fill="#464646"></path>
            <g id="Group" transform="translate(13.309500, 4.048488)">
                <path d="M6.715,17.5000055 C5.80805301,17.49891 5.073102,16.763959 5.072,15.8570121 L5.072,13.8760121 C5.07499805,11.9463539 6.19358037,10.1924791 7.942,9.37601205 C9.10039356,8.84281649 9.7808999,7.6216156 9.62489384,6.3559793 C9.46888778,5.09034299 8.51219893,4.07094761 7.259,3.83501205 C7.07936098,3.80345709 6.89738635,3.78706599 6.715,3.78601205 C6.02651219,3.78250868 5.3594228,4.02508664 4.834,4.47001205 C4.16975251,5.02593376 3.78627467,5.84782896 3.787,6.71401205 C3.787,7.6214159 3.05140384,8.35701205 2.144,8.35701205 C1.23659616,8.35701205 0.500999918,7.6214159 0.500999918,6.71401205 C0.500732774,5.0644882 1.15643294,3.4825648 2.32357255,2.31692586 C3.49071216,1.15128691 5.07347786,0.49762257 6.723,0.500005523 C7.09352918,0.501390279 7.46324324,0.534848565 7.828,0.600012051 C10.4941125,1.08553391 12.5382761,3.24258638 12.8799211,5.93092528 C13.2215661,8.61926417 11.7819211,11.2190531 9.322,12.3560121 C8.73235827,12.6334568 8.35682951,13.2273616 8.359,13.8790121 L8.359,15.8570121 C8.35789702,16.764349 7.62233749,17.4994611 6.715,17.5000055 L6.715,17.5000055 Z" id="Path" fill="#FFFFFF"></path>
                <path d="M6.723,1.00000644 C7.06461085,1.00000644 7.40557478,1.02971574 7.742,1.08901205 C10.1952702,1.53479257 12.0765064,3.51938343 12.3905652,5.99296826 C12.704624,8.4665531 11.3790296,10.8582993 9.115,11.9030121 C8.34894274,12.2612298 7.85933269,13.0303386 7.859,13.8760121 L7.859,15.8540121 C7.859,16.4852735 7.34726147,16.9970121 6.716,16.9970121 C6.08473853,16.9970121 5.573,16.4852735 5.573,15.8540121 L5.573,13.8760121 C5.57322688,12.1394822 6.57872243,10.5600861 8.152,9.82501205 C9.50844997,9.20094038 10.3053492,7.77106022 10.1225961,6.28916167 C9.93984313,4.80726313 8.81942794,3.61383302 7.352,3.33801205 C7.14157083,3.30228336 6.92843783,3.28488474 6.715,3.28601205 C5.80575655,3.28574669 4.93367715,3.64682473 4.29074491,4.28975697 C3.64781268,4.9326892 3.28673464,5.8047686 3.287,6.71401205 C3.287,7.34527352 2.77526147,7.85701205 2.144,7.85701205 C1.51273853,7.85701205 1.001,7.34527352 1.001,6.71401205 C1.001,5.19717792 1.60410555,3.74258597 2.67741929,2.67077284 C3.75073303,1.59895971 5.20616736,0.997888377 6.723,1.00000644 M6.723,6.01040563e-06 L6.723,6.01040563e-06 C4.94077764,-0.00237698889 3.23073244,0.703934029 1.96966598,1.96331231 C0.708599532,3.22269058 3.55271368e-15,4.93178809 3.55271368e-15,6.71401205 C3.55271368e-15,7.89755827 0.959453781,8.85701205 2.143,8.85701205 C3.32654622,8.85701205 4.286,7.89755827 4.286,6.71401205 C4.28553715,5.9952608 4.60380782,5.31330454 5.155,4.85201205 C5.59115385,4.48384843 6.14424034,4.28317731 6.715,4.28601205 C6.86986215,4.28607139 7.0244321,4.29945407 7.177,4.32601205 C8.21394701,4.52555529 9.00333212,5.37194389 9.13020784,6.42026596 C9.25708356,7.46858802 8.69240476,8.47885549 7.733,8.92001205 C5.80638649,9.81950258 4.574462,11.7527664 4.573,13.8790121 L4.573,15.8570121 C4.573,17.0405583 5.53245378,18.000006 6.716,18.000006 C7.89954622,18.000006 8.859,17.0405583 8.859,15.8570121 L8.859,13.8760121 C8.8566718,13.4192117 9.11908504,13.0023918 9.532,12.8070121 C12.1896758,11.5777201 13.7445506,8.76820431 13.3747946,5.86343589 C13.0050386,2.95866747 10.7958918,0.628284411 7.915,0.104012051 C7.5219757,0.0362960592 7.12381346,0.00283704701 6.725,0.00401205127 L6.723,6.01040563e-06 Z" id="Shape" fill="#147391"></path>
            </g>
            <g id="Group" transform="translate(17.524500, 22.524500)">
                <circle id="Oval" fill="#FFFFFF" cx="2.501" cy="2.5" r="2"></circle>
                <path d="M2.5,1 C3.32842712,1 4,1.67157288 4,2.5 C4,3.32842712 3.32842712,4 2.5,4 C1.67157288,4 1,3.32842712 1,2.5 C1,1.67157288 1.67157288,1 2.5,1 M2.5,0 C1.11928813,0 0,1.11928813 0,2.5 C0,3.88071187 1.11928813,5 2.5,5 C3.88071187,5 5,3.88071187 5,2.5 C5,1.11928813 3.88071187,0 2.5,0 L2.5,0 Z" id="Shape" fill="#147391"></path>
            </g>
        </g>
    </g>
</svg>