<svg id="Layer_1" data-name="Layer 1" xmlns="http://www.w3.org/2000/svg" xmlns:xlink="http://www.w3.org/1999/xlink" width="48" height="48" viewBox="0 0 48 48">
  <defs>
    <linearGradient id="paper_gradient" data-name="paper gradient" x1="23.85" y1="8.86" x2="24.233" y2="47.413" gradientUnits="userSpaceOnUse">
      <stop offset="0" stop-color="#fff"/>
      <stop offset="0.221" stop-color="#f8f8f8"/>
      <stop offset="0.541" stop-color="#e5e5e5"/>
      <stop offset="0.92" stop-color="#c6c6c6"/>
      <stop offset="1" stop-color="#bebebe"/>
    </linearGradient>
    <linearGradient id="Dark_Blue_Grad" data-name="Dark Blue Grad" x1="12.978" y1="22.224" x2="18.065" y2="22.224" gradientUnits="userSpaceOnUse">
      <stop offset="0" stop-color="#73b4c8"/>
      <stop offset="0.175" stop-color="#6aaec3"/>
      <stop offset="0.457" stop-color="#529eb5"/>
      <stop offset="0.809" stop-color="#2c839f"/>
      <stop offset="1" stop-color="#147391"/>
    </linearGradient>
    <linearGradient id="linear-gradient" x1="21.797" y1="-0.715" x2="6.478" y2="30.817" xlink:href="#Dark_Blue_Grad"/>
    <linearGradient id="New_Gradient_Swatch_1" data-name="New Gradient Swatch 1" x1="12.978" y1="12.203" x2="18.065" y2="12.203" gradientUnits="userSpaceOnUse">
      <stop offset="0" stop-color="#cde6eb"/>
      <stop offset="0.221" stop-color="#c6e2e8"/>
      <stop offset="0.542" stop-color="#b3d8e1"/>
      <stop offset="0.921" stop-color="#93c7d5"/>
      <stop offset="1" stop-color="#8cc3d2"/>
    </linearGradient>
    <linearGradient id="linear-gradient-2" x1="15.023" y1="28.984" x2="43.5" y2="28.984" gradientUnits="userSpaceOnUse">
      <stop offset="0" stop-color="#fff09b"/>
      <stop offset="0.122" stop-color="#ffed92"/>
      <stop offset="0.319" stop-color="#ffe47a"/>
      <stop offset="0.567" stop-color="#ffd754"/>
      <stop offset="0.853" stop-color="#ffc41e"/>
      <stop offset="1" stop-color="#ffb900"/>
    </linearGradient>
    <linearGradient id="paper_gradient-2" x1="33.326" y1="22.376" x2="38.413" y2="22.376" xlink:href="#paper_gradient"/>
  </defs>
  <title>graLicense48R</title>
  <rect x="4.5" y="7.579" width="39" height="32.842" stroke="#464646" stroke-miterlimit="10" fill="url(#paper_gradient)"/>
  <polyline points="18.065 17.833 18.065 26.615 15.522 24.072 12.978 26.615 12.978 17.833" stroke="#464646" stroke-miterlimit="10" fill="url(#Dark_Blue_Grad)"/>
  <path d="M22.821,15.425a2.654,2.654,0,0,0-.7-3.068,2.63,2.63,0,0,0-1.826-4.712,2.629,2.629,0,0,0-4.614-2.038,2.631,2.631,0,0,0-4.713,1.825,2.63,2.63,0,0,0-2.038,4.614,2.631,2.631,0,0,0,1.826,4.714A2.63,2.63,0,0,0,15.366,18.8a2.631,2.631,0,0,0,4.713-1.826A2.654,2.654,0,0,0,22.821,15.425Z" stroke="#464646" stroke-miterlimit="10" fill="url(#linear-gradient)"/>
  <path d="M14.494,14.53a2.544,2.544,0,1,1,3.354-1.3A2.546,2.546,0,0,1,14.494,14.53Z" stroke="#464646" stroke-miterlimit="10" fill="url(#New_Gradient_Swatch_1)"/>
  <path d="M35.022,14.746a8.479,8.479,0,0,0-8.479,8.478A8.383,8.383,0,0,0,27.6,27.251l-2.756,2.765V33.4H21.457v3.391H18.065L15.272,39.57a.847.847,0,0,0,0,1.2l2.193,2.2a.849.849,0,0,0,1.2,0L31,30.642a8.393,8.393,0,0,0,4.027,1.06,8.478,8.478,0,0,0,0-16.956Z" stroke="#464646" stroke-miterlimit="10" fill="url(#linear-gradient-2)"/>
  <circle cx="35.87" cy="22.376" r="2.543" stroke="#464646" stroke-miterlimit="10" fill="url(#paper_gradient-2)"/>
  <rect width="48" height="48" fill="none"/>
</svg>
