<?xml version="1.0" encoding="UTF-8"?>
<svg width="16px" height="16px" viewBox="0 0 16 16" version="1.1" xmlns="http://www.w3.org/2000/svg" xmlns:xlink="http://www.w3.org/1999/xlink">
    <title>indicatorError16</title>
    <g id="Page-1" stroke="none" stroke-width="1" fill="none" fill-rule="evenodd">
        <g id="indicatorError16" transform="translate(0.469000, 0.469000)" fill-rule="nonzero">
            <circle id="Ellipse_738" fill="#BF1B1B" cx="7.5" cy="7.5" r="7.5"></circle>
            <path d="M7.5,-0.469 C3.09884283,-0.469 -0.469,3.09884283 -0.469,7.5 C-0.469,11.9011572 3.09884283,15.469 7.5,15.469 C11.9011572,15.469 15.469,11.9011572 15.469,7.5 C15.469,3.09884283 11.9011572,-0.469 7.5,-0.469 Z M7.5,0.469 C11.3831141,0.469 14.531,3.61688592 14.531,7.5 C14.531,11.3831141 11.3831141,14.531 7.5,14.531 C3.61688592,14.531 0.469,11.3831141 0.469,7.5 C0.469,3.61688592 3.61688592,0.469 7.5,0.469 Z" id="Ellipse_738" fill="#464646"></path>
            <path d="M7.5,2.5355 C10.2959415,2.5355 12.5625,4.80205845 12.5625,7.598 C12.5625,10.3939415 10.2959415,12.6605 7.5,12.6605 C4.70405845,12.6605 2.4375,10.3939415 2.4375,7.598 C2.4375,4.80205845 4.70405845,2.5355 7.5,2.5355 Z M7.5,3.6605 C5.3253788,3.6605 3.5625,5.4233788 3.5625,7.598 C3.5625,9.7726212 5.3253788,11.5355 7.5,11.5355 C9.6746212,11.5355 11.4375,9.7726212 11.4375,7.598 C11.4375,5.4233788 9.6746212,3.6605 7.5,3.6605 Z M9.64644661,4.74444661 L10.3535534,5.45155339 L5.35355339,10.4515534 L4.64644661,9.74444661 L9.64644661,4.74444661 Z" id="Shape" fill="#FFFFFF"></path>
        </g>
    </g>
</svg>