<?xml version="1.0" encoding="UTF-8"?>
<svg width="16px" height="15px" viewBox="0 0 16 15" version="1.1" xmlns="http://www.w3.org/2000/svg" xmlns:xlink="http://www.w3.org/1999/xlink">
    <title>indicatorRedWarning16</title>
    <g id="Page-1" stroke="none" stroke-width="1" fill="none" fill-rule="evenodd">
        <g id="indicatorRedWarning16" transform="translate(0.001642, 0.008925)">
            <path d="M1.16400285,14.9695455 C0.738675071,14.9695455 0.315634675,14.6699522 0.138647503,14.316375 C-0.0383396678,13.9627979 -0.0732328752,13.5352191 0.196995688,13.0958477 C4.63525942,4.84999153 6.9013801,0.648595451 6.99535772,0.491659519 C7.13632416,0.25625562 7.53760842,0 7.99535772,0 C8.45310702,0 8.86383597,0.249217846 8.99535772,0.491659519 L15.8216524,13.0958477 C16.1488447,13.7046883 15.9563093,14.1530807 15.7471637,14.4910748 C15.5380182,14.8290689 15.1580672,14.9695455 14.7276701,14.9695455 L1.16400285,14.9695455 Z" id="Path_9209" fill="#DC0000" fill-rule="nonzero"></path>
            <path d="M7.99835745,10.4916595 C8.82678458,10.4916595 9.49835745,11.1632324 9.49835745,11.9916595 C9.49835745,12.8200866 8.82678458,13.4916595 7.99835745,13.4916595 C7.16993033,13.4916595 6.49835745,12.8200866 6.49835745,11.9916595 C6.49835745,11.1632324 7.16993033,10.4916595 7.99835745,10.4916595 Z M8.99535772,3.9920748 L8.99535772,9.9920748 L6.99535772,9.9920748 L6.99535772,3.9920748 L8.99535772,3.9920748 Z" id="Shape" fill="#FFFFFF"></path>
        </g>
    </g>
</svg>