<?xml version="1.0" encoding="UTF-8"?>
<svg width="16px" height="16px" viewBox="0 0 16 16" version="1.1" xmlns="http://www.w3.org/2000/svg" xmlns:xlink="http://www.w3.org/1999/xlink">
    <title>indicatorSuccess16</title>
    <g id="Page-1" stroke="none" stroke-width="1" fill="none" fill-rule="evenodd">
        <g id="indicatorSuccess16" fill-rule="nonzero">
            <circle id="Ellipse_735" fill="#2A932A" cx="7.969" cy="7.969" r="7.5"></circle>
            <path d="M7.969,3.33066907e-16 C3.56784283,3.33066907e-16 3.33066907e-16,3.56784283 3.33066907e-16,7.969 C3.33066907e-16,12.3701572 3.56784283,15.938 7.969,15.938 C12.3701572,15.938 15.938,12.3701572 15.938,7.969 C15.938,3.56784283 12.3701572,3.33066907e-16 7.969,3.33066907e-16 Z M7.969,0.938 C11.8521141,0.938 15,4.08588592 15,7.969 C15,11.8521141 11.8521141,15 7.969,15 C4.08588592,15 0.938,11.8521141 0.938,7.969 C0.938,4.08588592 4.08588592,0.938 7.969,0.938 Z" id="Ellipse_735" fill="#464646"></path>
            <polygon id="Path_9320" fill="#FFFFFF" points="11.4967219 4.41212123 12.2552781 4.96387877 6.93249671 12.2816387 3.41941999 8.76968615 4.08258001 8.10631385 6.819 10.842"></polygon>
        </g>
    </g>
</svg>