<?xml version="1.0" encoding="UTF-8"?>
<svg width="16px" height="16px" viewBox="0 0 16 16" version="1.1" xmlns="http://www.w3.org/2000/svg" xmlns:xlink="http://www.w3.org/1999/xlink">
    <title>indicatorPending</title>
    <g id="Page-1" stroke="none" stroke-width="1" fill="none" fill-rule="evenodd">
        <g id="indicatorPending" fill-rule="nonzero">
            <circle id="Oval" fill="#EB780A" cx="8" cy="8" r="7.5"></circle>
            <path d="M8,16 C3.581722,16 0,12.418278 0,8 C0,3.581722 3.581722,0 8,0 C12.418278,0 16,3.581722 16,8 C15.9950401,12.4162219 12.4162219,15.9950401 8,16 Z M8,1 C4.13400675,1 1,4.13400675 1,8 C1,11.8659932 4.13400675,15 8,15 C11.8659932,15 15,11.8659932 15,8 C14.9955914,4.13583434 11.8641657,1.00440864 8,1 Z" id="Shape" fill="#464646"></path>
            <path d="M9.5,2.5 L9.5,3.5 L8.5,3.5 L8.5,4.551 C9.2452623,4.63516752 9.95614613,4.90407348 10.5689293,5.33138454 L10.794,5.499 L11.646,4.646 C11.772472,4.51952798 11.956809,4.47013504 12.129573,4.51642701 C12.302337,4.56271898 12.437281,4.69766302 12.483573,4.87042701 C12.5221496,5.014397 12.4942784,5.16640379 12.4107266,5.28626338 L12.354,5.354 L11.5,6.21 C12.1451464,6.99682736 12.4984337,7.98249877 12.5,9 C12.5058186,11.4141908 10.6011888,13.4006325 8.18888696,13.4962937 C5.77658514,13.5919548 3.72063676,11.7625719 3.5352656,9.35550139 C3.35534653,7.01922703 5.00013595,4.95092964 7.29007891,4.58000472 L7.5,4.551 L7.5,3.5 L6.5,3.5 L6.5,2.5 L9.5,2.5 Z M8,5.5 C6.06700338,5.5 4.5,7.06700338 4.5,9 C4.5,10.9329966 6.06700338,12.5 8,12.5 C8.92825771,12.5 9.81849641,12.1312511 10.4748737,11.4748737 C11.1312511,10.8184964 11.5,9.92825771 11.5,9 C11.5,7.06700338 9.93299662,5.5 8,5.5 Z M8.5,6.5 L8.5,8.5 L10.5,8.5 L10.5,9.5 L7.5,9.5 L7.5,6.5 L8.5,6.5 Z" id="Shape" fill="#FFFFFF"></path>
        </g>
    </g>
</svg>