<?xml version="1.0" encoding="UTF-8"?>
<svg width="16px" height="15px" viewBox="0 0 16 15" version="1.1" xmlns="http://www.w3.org/2000/svg" xmlns:xlink="http://www.w3.org/1999/xlink">
    <title>indicatorWarning16</title>
    <g id="Page-1" stroke="none" stroke-width="1" fill="none" fill-rule="evenodd">
        <g id="indicatorWarning16" transform="translate(0.000165, 0.000585)" fill-rule="nonzero">
            <path d="M14.7458351,14.4994153 L1.24783507,14.4994153 C0.985090459,14.4994153 0.741611352,14.3615598 0.606430364,14.1362581 C0.471249376,13.9109565 0.464190549,13.6312488 0.587835073,13.3994153 L7.33583507,0.893415282 C7.46735133,0.650983735 7.72102793,0.5 7.99683507,0.5 C8.27264222,0.5 8.52631881,0.650983735 8.65783507,0.893415282 L15.4058351,13.3934153 C15.5294796,13.6252488 15.5224208,13.9049565 15.3872398,14.1302581 C15.2520588,14.3555598 15.0085797,14.4934153 14.7458351,14.4934153 L14.7458351,14.4994153 Z" id="Path_9209" fill="#EB780A"></path>
            <path d="M7.99683507,0 C7.53764552,0 7.11530097,0.251371857 6.89634039,0.654994592 L0.147805314,13.1619836 C-0.0596360048,13.5509236 -0.0478587103,14.0176016 0.177683901,14.393506 C0.403226513,14.7694103 0.809459033,14.9994153 1.24783507,14.9994153 L14.7458351,14.9994153 L14.8357107,14.9913596 L14.8488348,14.987 L14.7458351,14.9934153 C15.1842111,14.9934153 15.5904436,14.7634103 15.8159862,14.387506 C16.0415289,14.0116016 16.0533061,13.5449236 15.8470115,13.1581212 L9.0978172,0.65589533 C8.87836917,0.251371857 8.45602463,0 7.99683507,0 Z M7.99683507,1 C8.08925981,1 8.17426845,1.05059561 8.21834039,1.13183597 L14.9658529,13.6309352 C15.005653,13.705574 15.0033127,13.7983113 14.9584933,13.8730102 L14.9186076,13.9233371 C14.8881438,13.9529161 14.8505483,13.9742023 14.8095111,13.9851065 L14.6788348,13.999 L1.24783507,13.9994153 C1.16072189,13.9994153 1.07999619,13.9537092 1.03517683,13.8790102 C0.990357462,13.8043113 0.988017102,13.711574 1.02901154,13.6347094 L7.77586483,1.13084698 C7.81940169,1.05059561 7.90441034,1 7.99683507,1 Z" id="Path_9209" fill="#464646"></path>
            <circle id="Ellipse_720" fill="#FFFFFF" cx="7.99683507" cy="12.0004153" r="1"></circle>
            <polygon id="Line_11542" fill="#FFFFFF" points="8.49683507 4.00041528 8.49683507 10.0004153 7.49683507 10.0004153 7.49683507 4.00041528"></polygon>
        </g>
    </g>
</svg>