<svg id="Layer_1" data-name="Layer 1" xmlns="http://www.w3.org/2000/svg" xmlns:xlink="http://www.w3.org/1999/xlink" viewBox="0 0 48 48">
    <linearGradient id="linear-gradient" x1="3.5" y1="41.5" x2="45" gradientTransform="matrix(1, 0, 0, -1, 0, 48)" gradientUnits="userSpaceOnUse">
      <stop offset="0" stop-color="#fff"/>
      <stop offset="0.232" stop-color="#fafafa"/>
      <stop offset="0.496" stop-color="#ededed"/>
      <stop offset="0.775" stop-color="#d6d6d6"/>
      <stop offset="1" stop-color="#bebebe"/>
    </linearGradient>
    <linearGradient id="paper_gradient" data-name="paper gradient" x1="29.25" y1="44.25" x2="42.25" y2="31.25" gradientTransform="matrix(1, 0, 0, -1, 0, 48)" gradientUnits="userSpaceOnUse">
      <stop offset="0" stop-color="#fff"/>
      <stop offset="0.221" stop-color="#f8f8f8"/>
      <stop offset="0.541" stop-color="#e5e5e5"/>
      <stop offset="0.92" stop-color="#c6c6c6"/>
      <stop offset="1" stop-color="#bebebe"/>
    </linearGradient>
  <polygon points="32.5 0.5 9.5 0.5 9.5 47.5 45.5 47.5 45.5 13.5 32.5 0.5" stroke="#464646" stroke-miterlimit="10" fill="url(#linear-gradient)"/>
  <polygon points="32.5 0.5 32.5 13.5 45.5 13.5 32.5 0.5" stroke="#464646" stroke-linejoin="round" fill="url(#paper_gradient)"/>
  <rect x="0.5" y="26.5" width="47" height="16" fill="#5fa942" stroke="#464646" stroke-miterlimit="10"/>
    <path d="M11.051,37.9v-4.9q0-.559.065-1.655h-.022a4.859,4.859,0,0,1-.22.86L8.543,37.9H7.71L5.363,32.25c-.061-.189-.134-.494-.22-.913H5.111c.011.1.022.35.035.758s.019.76.019,1.058V37.9H3.978v-7.7H5.8l1.96,4.867a6.58,6.58,0,0,1,.349,1.063h.033l.408-1.074,2.014-4.856h1.751v7.7Z" fill="#fff"/>
    <path d="M19.183,37.9l-.7-1.945H15.4L14.725,37.9h-1.4l2.916-7.7h1.418l2.927,7.7Zm-2.234-6.548h-.032a2.869,2.869,0,0,1-.113.553l-1.053,2.971h2.363L17.056,31.9A2.875,2.875,0,0,1,16.949,31.348Z" fill="#fff"/>
    <path d="M28.115,33.948a4.112,4.112,0,0,1-.513,2.073,3.466,3.466,0,0,1-1.469,1.386,4.78,4.78,0,0,1-2.2.489h-2.32v-7.7H23.99a4.413,4.413,0,0,1,3.094.956A3.634,3.634,0,0,1,28.115,33.948Zm-1.353.021a2.59,2.59,0,0,0-.737-1.985,2.927,2.927,0,0,0-2.083-.69H22.889v5.5H23.92a2.594,2.594,0,0,0,2.842-2.825Z" fill="#fff"/>
    <path d="M30.279,35.511a1.613,1.613,0,0,0,.457,1.144,1.692,1.692,0,0,0,1.2.392,2.722,2.722,0,0,0,.9-.148,2.926,2.926,0,0,0,.752-.378v1.047a2.724,2.724,0,0,1-.838.333,4.655,4.655,0,0,1-1.112.129,2.5,2.5,0,0,1-1.939-.75,2.963,2.963,0,0,1-.687-2.081,3.305,3.305,0,0,1,.341-1.541,2.543,2.543,0,0,1,.945-1.029,2.511,2.511,0,0,1,1.33-.368,2.266,2.266,0,0,1,1.77.7,2.783,2.783,0,0,1,.63,1.934v.618Zm2.509-.935a1.456,1.456,0,0,0-.306-1,1.093,1.093,0,0,0-.859-.344,1.2,1.2,0,0,0-.876.373,1.735,1.735,0,0,0-.468.97Z" fill="#fff"/>
</svg>
