<svg id="Layer_1" data-name="Layer 1" xmlns="http://www.w3.org/2000/svg" xmlns:xlink="http://www.w3.org/1999/xlink" viewBox="0 0 48 48">
    <linearGradient id="linear-gradient" x1="3.5" y1="41.5" x2="45" gradientTransform="matrix(1, 0, 0, -1, 0, 48)" gradientUnits="userSpaceOnUse">
      <stop offset="0" stop-color="#fff"/>
      <stop offset="0.232" stop-color="#fafafa"/>
      <stop offset="0.496" stop-color="#ededed"/>
      <stop offset="0.775" stop-color="#d6d6d6"/>
      <stop offset="1" stop-color="#bebebe"/>
    </linearGradient>
    <linearGradient id="paper_gradient" data-name="paper gradient" x1="29.25" y1="44.25" x2="42.25" y2="31.25" gradientTransform="matrix(1, 0, 0, -1, 0, 48)" gradientUnits="userSpaceOnUse">
      <stop offset="0" stop-color="#fff"/>
      <stop offset="0.221" stop-color="#f8f8f8"/>
      <stop offset="0.541" stop-color="#e5e5e5"/>
      <stop offset="0.92" stop-color="#c6c6c6"/>
      <stop offset="1" stop-color="#bebebe"/>
    </linearGradient>
  <polygon points="32.5 0.5 9.5 0.5 9.5 47.5 45.5 47.5 45.5 13.5 32.5 0.5" stroke="#464646" stroke-miterlimit="10" fill="url(#linear-gradient)"/>
  <polygon points="32.5 0.5 32.5 13.5 45.5 13.5 32.5 0.5" stroke="#464646" stroke-linejoin="round" fill="url(#paper_gradient)"/>
  <rect x="0.5" y="17.5" width="47" height="25" fill="#ef4237" stroke="#464646" stroke-miterlimit="10"/>
    <path d="M9.972,28.369a5.224,5.224,0,0,1-2.68.661,4.151,4.151,0,0,1-2.018-.478,3.286,3.286,0,0,1-1.35-1.359,4.569,4.569,0,0,1,.054-4.155,3.691,3.691,0,0,1,1.471-1.455,4.35,4.35,0,0,1,2.127-.519,6.686,6.686,0,0,1,1.209.113,4.07,4.07,0,0,1,.956.274v1.316a3.343,3.343,0,0,0-.951-.421,4.55,4.55,0,0,0-1.289-.17,2.687,2.687,0,0,0-1.383.363,2.5,2.5,0,0,0-.967,1.023,3.211,3.211,0,0,0-.346,1.515,2.983,2.983,0,0,0,.687,2.086,2.435,2.435,0,0,0,1.9.755,2.827,2.827,0,0,0,1.3-.29V25.807h-1.6v-1.1H9.972Z" fill="#fff"/>
    <path d="M14.365,22.294v6.6H13.076v-6.6H10.869v-1.1h5.709v1.1Z" fill="#fff"/>
    <path d="M9.107,32.784A2.386,2.386,0,0,1,7.705,35a3.5,3.5,0,0,1-1.536.322H5.256V38.1H3.978v-7.7H6.357a3.026,3.026,0,0,1,2.039.617A2.222,2.222,0,0,1,9.107,32.784Zm-1.343.043a1.242,1.242,0,0,0-.416-1,1.828,1.828,0,0,0-1.211-.352H5.256v2.772h.822a1.924,1.924,0,0,0,1.24-.36A1.278,1.278,0,0,0,7.764,32.827Z" fill="#fff"/>
    <path d="M15.509,35.292a2.949,2.949,0,0,1-.773,2.138,2.787,2.787,0,0,1-2.1.8,2.728,2.728,0,0,1-2.028-.76,2.8,2.8,0,0,1-.754-2.06,2.95,2.95,0,0,1,.773-2.159,2.865,2.865,0,0,1,2.143-.79,2.662,2.662,0,0,1,2.014.755A2.869,2.869,0,0,1,15.509,35.292Zm-1.289.043a2.071,2.071,0,0,0-.406-1.386,1.389,1.389,0,0,0-1.114-.472,1.41,1.41,0,0,0-1.144.494,2.114,2.114,0,0,0-.413,1.4,2.037,2.037,0,0,0,.413,1.362,1.435,1.435,0,0,0,1.155.486,1.358,1.358,0,0,0,1.128-.478A2.212,2.212,0,0,0,14.22,35.335Z" fill="#fff"/>
    <path d="M22.594,38.1H21.272l-1.009-3.653a1.728,1.728,0,0,1-.056-.3c-.013-.114-.025-.2-.036-.272H20.15a3.559,3.559,0,0,1-.108.559L18.963,38.1h-1.3l-1.617-5.5h1.289l.978,3.883a3.145,3.145,0,0,1,.081.537h.032a2.537,2.537,0,0,1,.1-.558L19.656,32.6h1.187l1.036,3.894a5.242,5.242,0,0,1,.076.548h.032a3.57,3.57,0,0,1,.091-.548l.935-3.894h1.2Z" fill="#fff"/>
    <path d="M26.02,35.711a1.6,1.6,0,0,0,.457,1.144,1.689,1.689,0,0,0,1.2.392,2.758,2.758,0,0,0,.9-.147,2.944,2.944,0,0,0,.752-.379v1.047a2.745,2.745,0,0,1-.838.333,4.663,4.663,0,0,1-1.113.129,2.492,2.492,0,0,1-1.937-.75,2.957,2.957,0,0,1-.688-2.081,3.318,3.318,0,0,1,.34-1.541,2.55,2.55,0,0,1,.945-1.029,2.514,2.514,0,0,1,1.33-.368,2.26,2.26,0,0,1,1.77.7,2.772,2.772,0,0,1,.631,1.933v.618Zm2.509-.935a1.461,1.461,0,0,0-.306-1,1.093,1.093,0,0,0-.86-.343,1.19,1.19,0,0,0-.875.373,1.719,1.719,0,0,0-.468.969Z" fill="#fff"/>
    <path d="M34.12,33.8a1.042,1.042,0,0,0-.316-.129,1.6,1.6,0,0,0-.4-.059,1.034,1.034,0,0,0-.876.462,2.017,2.017,0,0,0-.332,1.2V38.1H30.951V32.6h1.241v1.069h.022a1.817,1.817,0,0,1,.553-.86,1.3,1.3,0,0,1,.853-.306,1.324,1.324,0,0,1,.5.075Z" fill="#fff"/>
</svg>
