<svg id="Layer_1" data-name="Layer 1" xmlns="http://www.w3.org/2000/svg" xmlns:xlink="http://www.w3.org/1999/xlink" viewBox="0 0 48 48">
    <linearGradient id="linear-gradient" x1="3.5" y1="41.5" x2="45" gradientTransform="matrix(1, 0, 0, -1, 0, 48)" gradientUnits="userSpaceOnUse">
      <stop offset="0" stop-color="#fff"/>
      <stop offset="0.232" stop-color="#fafafa"/>
      <stop offset="0.496" stop-color="#ededed"/>
      <stop offset="0.775" stop-color="#d6d6d6"/>
      <stop offset="1" stop-color="#bebebe"/>
    </linearGradient>
    <linearGradient id="paper_gradient" data-name="paper gradient" x1="29.25" y1="44.25" x2="42.25" y2="31.25" gradientTransform="matrix(1, 0, 0, -1, 0, 48)" gradientUnits="userSpaceOnUse">
      <stop offset="0" stop-color="#fff"/>
      <stop offset="0.221" stop-color="#f8f8f8"/>
      <stop offset="0.541" stop-color="#e5e5e5"/>
      <stop offset="0.92" stop-color="#c6c6c6"/>
      <stop offset="1" stop-color="#bebebe"/>
    </linearGradient>
  <polygon points="32.5 0.5 9.5 0.5 9.5 47.5 45.5 47.5 45.5 13.5 32.5 0.5" stroke="#464646" stroke-miterlimit="10" fill="url(#linear-gradient)"/>
  <polygon points="32.5 0.5 32.5 13.5 45.5 13.5 32.5 0.5" stroke="#464646" stroke-linejoin="round" fill="url(#paper_gradient)"/>
  <rect x="0.5" y="26.5" width="47" height="16" fill="#726ba6" stroke="#464646" stroke-miterlimit="10"/>
    <path d="M9.338,37.568a3.57,3.57,0,0,1-.985.338,5.865,5.865,0,0,1-1.207.124,3.934,3.934,0,0,1-1.96-.475A3.173,3.173,0,0,1,3.9,36.206,4.348,4.348,0,0,1,3.451,34.2a4.43,4.43,0,0,1,.516-2.148,3.624,3.624,0,0,1,1.442-1.469,4.128,4.128,0,0,1,2.054-.519,6.536,6.536,0,0,1,1,.081,3.46,3.46,0,0,1,.87.236v1.3A3.557,3.557,0,0,0,7.5,31.2a2.76,2.76,0,0,0-1.41.36,2.432,2.432,0,0,0-.959,1.023,3.361,3.361,0,0,0-.338,1.544,2.849,2.849,0,0,0,.7,2.025,2.434,2.434,0,0,0,1.864.746,3.6,3.6,0,0,0,1.982-.542Z" fill="#fff"/>
    <path d="M13.592,37.9v-.758H13.57a1.829,1.829,0,0,1-1.627.892,1.785,1.785,0,0,1-1.278-.441A1.558,1.558,0,0,1,10.2,36.4a1.7,1.7,0,0,1,.457-1.241A2.205,2.205,0,0,1,12,34.576l1.606-.22q0-1.123-1.042-1.123a2.948,2.948,0,0,0-.981.167,3.112,3.112,0,0,0-.846.446v-1.1a3.173,3.173,0,0,1,.889-.338,4.412,4.412,0,0,1,1.066-.151,2.123,2.123,0,0,1,1.593.551,2.2,2.2,0,0,1,.534,1.6V37.9Zm-2.175-1.628a.7.7,0,0,0,.257.567,1,1,0,0,0,.656.212,1.2,1.2,0,0,0,.913-.379,1.332,1.332,0,0,0,.36-.953v-.494l-1.187.155a1.5,1.5,0,0,0-.782.28A.788.788,0,0,0,11.417,36.268Z" fill="#fff"/>
    <path d="M21.579,35a3.348,3.348,0,0,1-.683,2.208,2.273,2.273,0,0,1-1.847.822A1.763,1.763,0,0,1,17.5,37.2h-.022v3.222H16.234V32.4h1.241v.88H17.5a2.061,2.061,0,0,1,1.826-1.015A2.02,2.02,0,0,1,20.977,33,3.074,3.074,0,0,1,21.579,35Zm-1.289-.021a1.949,1.949,0,0,0-.363-1.249,1.223,1.223,0,0,0-1.012-.454,1.332,1.332,0,0,0-1.051.457,1.73,1.73,0,0,0-.4,1.182v.7a1.382,1.382,0,0,0,.382,1,1.268,1.268,0,0,0,.95.4,1.293,1.293,0,0,0,1.1-.527A2.489,2.489,0,0,0,20.29,34.979Z" fill="#fff"/>
    <path d="M23.732,35.511a1.609,1.609,0,0,0,.457,1.144,1.688,1.688,0,0,0,1.2.392,2.712,2.712,0,0,0,.9-.148,2.91,2.91,0,0,0,.752-.378v1.047a2.7,2.7,0,0,1-.838.333,4.634,4.634,0,0,1-1.111.129,2.5,2.5,0,0,1-1.939-.75,2.959,2.959,0,0,1-.688-2.081,3.318,3.318,0,0,1,.341-1.541,2.546,2.546,0,0,1,.946-1.029,2.511,2.511,0,0,1,1.33-.368,2.269,2.269,0,0,1,1.77.7,2.784,2.784,0,0,1,.631,1.934v.618Zm2.508-.935a1.461,1.461,0,0,0-.3-1,1.1,1.1,0,0,0-.86-.344,1.2,1.2,0,0,0-.876.373,1.735,1.735,0,0,0-.468.97Z" fill="#fff"/>
    <path d="M28.663,37.9V29.753H29.9V37.9Z" fill="#fff"/>
    <path d="M31.591,37.9V29.753h1.241V37.9Z" fill="#fff"/>
    <path d="M37.43,37.9v-.758h-.022a1.83,1.83,0,0,1-1.627.892,1.789,1.789,0,0,1-1.279-.441,1.56,1.56,0,0,1-.467-1.192,1.7,1.7,0,0,1,.457-1.241,2.2,2.2,0,0,1,1.342-.58l1.606-.22q0-1.123-1.042-1.123a2.946,2.946,0,0,0-.98.167,3.112,3.112,0,0,0-.846.446v-1.1a3.173,3.173,0,0,1,.889-.338,4.4,4.4,0,0,1,1.066-.151,2.125,2.125,0,0,1,1.593.551,2.2,2.2,0,0,1,.534,1.6V37.9Zm-2.176-1.628a.7.7,0,0,0,.258.567,1,1,0,0,0,.656.212,1.2,1.2,0,0,0,.912-.379,1.327,1.327,0,0,0,.36-.953v-.494l-1.186.155a1.492,1.492,0,0,0-.782.28A.789.789,0,0,0,35.254,36.268Z" fill="#fff"/>
</svg>
