<svg id="Layer_1" data-name="Layer 1" xmlns="http://www.w3.org/2000/svg" xmlns:xlink="http://www.w3.org/1999/xlink" viewBox="0 0 48 48">
  <defs>
    <linearGradient id="linear-gradient" x1="3.5" y1="41.5" x2="45" gradientTransform="matrix(1, 0, 0, -1, 0, 48)" gradientUnits="userSpaceOnUse">
      <stop offset="0" stop-color="#fff"/>
      <stop offset="0.232" stop-color="#fafafa"/>
      <stop offset="0.496" stop-color="#ededed"/>
      <stop offset="0.775" stop-color="#d6d6d6"/>
      <stop offset="1" stop-color="#bebebe"/>
    </linearGradient>
    <linearGradient id="paper_gradient" data-name="paper gradient" x1="29.25" y1="44.25" x2="42.25" y2="31.25" gradientTransform="matrix(1, 0, 0, -1, 0, 48)" gradientUnits="userSpaceOnUse">
      <stop offset="0" stop-color="#fff"/>
      <stop offset="0.221" stop-color="#f8f8f8"/>
      <stop offset="0.541" stop-color="#e5e5e5"/>
      <stop offset="0.92" stop-color="#c6c6c6"/>
      <stop offset="1" stop-color="#bebebe"/>
    </linearGradient>
  </defs>
  <title>typeMSWord48</title>
  <polygon fill="url(#linear-gradient)" points="32.5 0.5 9.5 0.5 9.5 47.5 45.5 47.5 45.5 13.5 32.5 0.5"/>
  <path fill="#464646" d="M46,48H9V0H32.707L46,13.293ZM10,47H45V13.707L32.293,1H10Z" transform="translate(0 0)"/>
  <polygon fill="url(#paper_gradient)" points="32.5 0.5 32.5 13.5 45.5 13.5 32.5 0.5"/>
  <path fill="#464646" d="M45.5,14h-13a.5.5,0,0,1-.5-.5V.5a.5.5,0,0,1,.854-.354l13,13A.5.5,0,0,1,45.5,14ZM33,13H44.293L33,1.707Z" transform="translate(0 0)"/>
  <rect fill="#2c579b" x="0.5" y="26.5" width="47" height="16"/>
  <path fill="#464646" d="M48,43H0V26H48ZM1,42H47V27H1Z" transform="translate(0 0)"/>
  <path fill="#fff" d="M11.459,37.9H9.95L8.5,32.53a4.292,4.292,0,0,1-.124-.817H8.355a4.177,4.177,0,0,1-.056.454c-.031.178-.055.3-.073.363L6.787,37.9H5.256l-2.17-7.7h1.4l1.435,5.581a4.457,4.457,0,0,1,.107.832h.032a5.546,5.546,0,0,1,.145-.843l1.552-5.57H9.118l1.471,5.635a4.34,4.34,0,0,1,.124.768h.021a5.691,5.691,0,0,1,.108-.8l1.386-5.6H13.57Z" transform="translate(0 0)"/>
  <path fill="#fff" d="M19.758,35.092a2.943,2.943,0,0,1-.774,2.137,2.781,2.781,0,0,1-2.1.8,2.731,2.731,0,0,1-2.027-.76,2.8,2.8,0,0,1-.755-2.06,2.954,2.954,0,0,1,.773-2.159,2.862,2.862,0,0,1,2.144-.79,2.663,2.663,0,0,1,2.014.755A2.873,2.873,0,0,1,19.758,35.092Zm-1.289.043a2.077,2.077,0,0,0-.406-1.386,1.391,1.391,0,0,0-1.114-.473,1.41,1.41,0,0,0-1.144.495,2.112,2.112,0,0,0-.414,1.4,2.035,2.035,0,0,0,.414,1.361,1.431,1.431,0,0,0,1.154.487,1.358,1.358,0,0,0,1.128-.478A2.208,2.208,0,0,0,18.469,35.135Z" transform="translate(0 0)"/>
  <path fill="#fff" d="M24.216,33.6a1.05,1.05,0,0,0-.317-.129,1.583,1.583,0,0,0-.4-.059,1.029,1.029,0,0,0-.875.462,2,2,0,0,0-.333,1.2V37.9H21.047V32.4h1.241v1.068h.021a1.826,1.826,0,0,1,.553-.859,1.3,1.3,0,0,1,.854-.306,1.324,1.324,0,0,1,.5.075Z" transform="translate(0 0)"/>
  <path fill="#fff" d="M28.813,37.9v-.86h-.021a1.957,1.957,0,0,1-1.805.994,2.048,2.048,0,0,1-1.659-.741,3.042,3.042,0,0,1-.618-2.009,3.321,3.321,0,0,1,.685-2.194,2.262,2.262,0,0,1,1.834-.825,1.963,1.963,0,0,1,.923.21,1.565,1.565,0,0,1,.64.607h.021V29.753h1.242V37.9Zm.011-3.212a1.4,1.4,0,0,0-.389-.994,1.369,1.369,0,0,0-2.052.1A2.388,2.388,0,0,0,26,35.242a2.022,2.022,0,0,0,.379,1.3,1.25,1.25,0,0,0,1.028.47,1.278,1.278,0,0,0,1.01-.476,1.831,1.831,0,0,0,.408-1.238Z" transform="translate(0 0)"/>
</svg>
