<svg id="Layer_1" data-name="Layer 1" xmlns="http://www.w3.org/2000/svg" xmlns:xlink="http://www.w3.org/1999/xlink" viewBox="0 0 48 48">
  <defs>
    <linearGradient id="linear-gradient" x1="3.5" y1="41.5" x2="45" gradientTransform="matrix(1, 0, 0, -1, 0, 48)" gradientUnits="userSpaceOnUse">
      <stop offset="0" stop-color="#fff"/>
      <stop offset="0.232" stop-color="#fafafa"/>
      <stop offset="0.496" stop-color="#ededed"/>
      <stop offset="0.775" stop-color="#d6d6d6"/>
      <stop offset="1" stop-color="#bebebe"/>
    </linearGradient>
    <linearGradient id="paper_gradient" data-name="paper gradient" x1="29.25" y1="44.25" x2="42.25" y2="31.25" gradientTransform="matrix(1, 0, 0, -1, 0, 48)" gradientUnits="userSpaceOnUse">
      <stop offset="0" stop-color="#fff"/>
      <stop offset="0.221" stop-color="#f8f8f8"/>
      <stop offset="0.541" stop-color="#e5e5e5"/>
      <stop offset="0.92" stop-color="#c6c6c6"/>
      <stop offset="1" stop-color="#bebebe"/>
    </linearGradient>
  </defs>
  <title>typeMSPowerPoint48</title>
  <polygon fill="url(#linear-gradient)"  points="32.5 0.5 9.5 0.5 9.5 47.5 45.5 47.5 45.5 13.5 32.5 0.5"/>
  <polygon fill="url(#linear-gradient)"  points="32.5 0.5 32.5 13.5 45.5 13.5 32.5 0.5"/>
  <path fill="#464646"  d="M45.854,13.146l-13-13L32.707,0H9V48H46V13.293ZM44.293,13H33V1.707ZM10,47V1H32V13.5a.5.5,0,0,0,.5.5H45V47Z" transform="translate(0)"/>
  <rect fill="#d24726" x="0.5" y="17.5" width="47" height="25"/>
  <rect  fill="none" stroke="#464646" stroke-miterlimit="10"  x="0.5" y="17.5" width="47" height="25"/>
  <path id="P" fill="#FFFFFF"  d="M9.107,23.583a2.389,2.389,0,0,1-1.4,2.219,3.5,3.5,0,0,1-1.536.322H5.256V28.9H3.978v-7.7H6.357a3.021,3.021,0,0,1,2.039.618A2.22,2.22,0,0,1,9.107,23.583Zm-1.343.043a1.238,1.238,0,0,0-.416-1,1.828,1.828,0,0,0-1.211-.352H5.256v2.771h.822a1.929,1.929,0,0,0,1.24-.359A1.279,1.279,0,0,0,7.764,23.626Z" transform="translate(0)"/>
  <path id="o" fill="#FFFFFF"  d="M15.509,26.092a2.947,2.947,0,0,1-.773,2.137,2.784,2.784,0,0,1-2.1.8,2.732,2.732,0,0,1-2.028-.76,2.8,2.8,0,0,1-.754-2.06,2.95,2.95,0,0,1,.773-2.159,2.861,2.861,0,0,1,2.143-.79,2.662,2.662,0,0,1,2.014.755A2.869,2.869,0,0,1,15.509,26.092Zm-1.289.043a2.071,2.071,0,0,0-.406-1.386,1.39,1.39,0,0,0-1.114-.473,1.41,1.41,0,0,0-1.144.5,2.112,2.112,0,0,0-.413,1.4,2.034,2.034,0,0,0,.413,1.361,1.433,1.433,0,0,0,1.155.487,1.36,1.36,0,0,0,1.128-.478A2.214,2.214,0,0,0,14.22,26.135Z" transform="translate(0)"/>
  <path id="w" fill="#FFFFFF"  d="M22.594,28.9H21.272l-1.009-3.653a1.723,1.723,0,0,1-.056-.3c-.013-.113-.025-.2-.036-.271H20.15a3.543,3.543,0,0,1-.108.558L18.963,28.9h-1.3l-1.617-5.5h1.289l.978,3.883a3.145,3.145,0,0,1,.081.537h.032a2.559,2.559,0,0,1,.1-.559L19.656,23.4h1.187l1.036,3.894a5.254,5.254,0,0,1,.076.547h.032a3.575,3.575,0,0,1,.091-.547l.935-3.894h1.2Z" transform="translate(0)"/>
  <path id="e" fill="#FFFFFF"  d="M26.02,26.511a1.6,1.6,0,0,0,.457,1.144,1.689,1.689,0,0,0,1.2.392,2.733,2.733,0,0,0,.9-.148,2.942,2.942,0,0,0,.752-.378v1.047a2.745,2.745,0,0,1-.838.333,4.663,4.663,0,0,1-1.113.129,2.492,2.492,0,0,1-1.937-.75,2.959,2.959,0,0,1-.688-2.081,3.318,3.318,0,0,1,.34-1.541,2.55,2.55,0,0,1,.945-1.029,2.514,2.514,0,0,1,1.33-.368,2.263,2.263,0,0,1,1.77.7,2.774,2.774,0,0,1,.631,1.934v.618Zm2.509-.935a1.461,1.461,0,0,0-.306-1,1.094,1.094,0,0,0-.86-.344,1.194,1.194,0,0,0-.875.373,1.722,1.722,0,0,0-.468.97Z" transform="translate(0)"/>
  <path id="r" fill="#FFFFFF"  d="M34.12,24.6a1.042,1.042,0,0,0-.316-.129,1.6,1.6,0,0,0-.4-.059,1.034,1.034,0,0,0-.876.462,2.017,2.017,0,0,0-.332,1.2V28.9H30.951V23.4h1.241v1.068h.022a1.819,1.819,0,0,1,.553-.859,1.3,1.3,0,0,1,.853-.306,1.324,1.324,0,0,1,.5.075Z" transform="translate(0)"/>
  <path id="P-2" data-name="P" fill="#FFFFFF"  d="M9.107,32.784A2.386,2.386,0,0,1,7.705,35a3.5,3.5,0,0,1-1.536.322H5.256V38.1H3.978v-7.7H6.357a3.026,3.026,0,0,1,2.039.617A2.222,2.222,0,0,1,9.107,32.784Zm-1.343.043a1.242,1.242,0,0,0-.416-1,1.828,1.828,0,0,0-1.211-.352H5.256v2.772h.822a1.924,1.924,0,0,0,1.24-.36A1.278,1.278,0,0,0,7.764,32.827Z" transform="translate(0)"/>
  <path id="o-2" data-name="o" fill="#FFFFFF"  d="M15.509,35.292a2.949,2.949,0,0,1-.773,2.138,2.787,2.787,0,0,1-2.1.8,2.728,2.728,0,0,1-2.028-.76,2.8,2.8,0,0,1-.754-2.06,2.95,2.95,0,0,1,.773-2.159,2.865,2.865,0,0,1,2.143-.79,2.662,2.662,0,0,1,2.014.755A2.869,2.869,0,0,1,15.509,35.292Zm-1.289.043a2.071,2.071,0,0,0-.406-1.386,1.389,1.389,0,0,0-1.114-.472,1.41,1.41,0,0,0-1.144.494,2.114,2.114,0,0,0-.413,1.4,2.037,2.037,0,0,0,.413,1.362,1.435,1.435,0,0,0,1.155.486,1.358,1.358,0,0,0,1.128-.478A2.212,2.212,0,0,0,14.22,35.335Z" transform="translate(0)"/>
  <path id="i" fill="#FFFFFF"  d="M18.2,30.651a.665.665,0,0,1-.223.511.771.771,0,0,1-.54.2.762.762,0,0,1-.537-.2.669.669,0,0,1-.22-.511.686.686,0,0,1,.223-.521.754.754,0,0,1,.534-.209.744.744,0,0,1,.545.215A.7.7,0,0,1,18.2,30.651ZM16.8,38.1V32.6h1.241v5.5Z" transform="translate(0)"/>
  <path id="n" fill="#FFFFFF"  d="M23.367,38.1V35.007a2.047,2.047,0,0,0-.261-1.152.946.946,0,0,0-.84-.378,1.179,1.179,0,0,0-.932.426,1.578,1.578,0,0,0-.368,1.067V38.1h-1.24V32.6h1.24v.881h.022a1.969,1.969,0,0,1,1.783-1.016,1.691,1.691,0,0,1,1.356.559,2.548,2.548,0,0,1,.481,1.7V38.1Z" transform="translate(0)"/>
  <path id="t" fill="#FFFFFF"  d="M29.061,38.042a1.551,1.551,0,0,1-.4.126,2.653,2.653,0,0,1-.556.062q-1.617,0-1.617-1.74V33.6h-.912v-1h.912V31.328l1.246-.381V32.6h1.328v1H27.733v2.664a1.132,1.132,0,0,0,.189.738.737.737,0,0,0,.591.218,1.031,1.031,0,0,0,.271-.046.93.93,0,0,0,.277-.121Z" transform="translate(0)"/>
</svg>
