<svg id="Layer_1" data-name="Layer 1" xmlns="http://www.w3.org/2000/svg" xmlns:xlink="http://www.w3.org/1999/xlink" viewBox="0 0 48 48">
    <linearGradient id="linear-gradient" x1="3.5" y1="41.5" x2="45" gradientTransform="matrix(1, 0, 0, -1, 0, 48)" gradientUnits="userSpaceOnUse">
      <stop offset="0" stop-color="#fff"/>
      <stop offset="0.232" stop-color="#fafafa"/>
      <stop offset="0.496" stop-color="#ededed"/>
      <stop offset="0.775" stop-color="#d6d6d6"/>
      <stop offset="1" stop-color="#bebebe"/>
    </linearGradient>
    <linearGradient id="paper_gradient" data-name="paper gradient" x1="29.25" y1="44.25" x2="42.25" y2="31.25" gradientTransform="matrix(1, 0, 0, -1, 0, 48)" gradientUnits="userSpaceOnUse">
      <stop offset="0" stop-color="#fff"/>
      <stop offset="0.221" stop-color="#f8f8f8"/>
      <stop offset="0.541" stop-color="#e5e5e5"/>
      <stop offset="0.92" stop-color="#c6c6c6"/>
      <stop offset="1" stop-color="#bebebe"/>
    </linearGradient>
  <polygon points="32.5 0.5 9.5 0.5 9.5 47.5 45.5 47.5 45.5 13.5 32.5 0.5" stroke="#464646" stroke-miterlimit="10" fill="url(#linear-gradient)"/>
  <polygon points="32.5 0.5 32.5 13.5 45.5 13.5 32.5 0.5" stroke="#464646" stroke-linejoin="round" fill="url(#paper_gradient)"/>
  <rect x="0.5" y="26.5" width="47" height="16" fill="#48bcc2" stroke="#464646" stroke-miterlimit="10"/>
    <path d="M8.183,35.86a1.923,1.923,0,0,1-.725,1.592,3.171,3.171,0,0,1-2.025.578A4.188,4.188,0,0,1,4.4,37.89a2.748,2.748,0,0,1-.806-.311v-1.4a2.8,2.8,0,0,0,.892.537,2.912,2.912,0,0,0,1.085.22,1.481,1.481,0,0,0,.915-.244.839.839,0,0,0,.32-.712,1.042,1.042,0,0,0-.317-.735,5.015,5.015,0,0,0-1.2-.806,4.073,4.073,0,0,1-1.294-.98,1.917,1.917,0,0,1-.425-1.244,1.979,1.979,0,0,1,.323-1.109,2.134,2.134,0,0,1,.923-.768,3.238,3.238,0,0,1,1.365-.277,5.041,5.041,0,0,1,.983.1,3.024,3.024,0,0,1,.687.2V31.7a2.28,2.28,0,0,0-.754-.4,2.87,2.87,0,0,0-.906-.148,1.442,1.442,0,0,0-.916.268.85.85,0,0,0-.34.7,1.1,1.1,0,0,0,.112.515,1.327,1.327,0,0,0,.355.408,6.084,6.084,0,0,0,.875.527A4.755,4.755,0,0,1,7.74,34.638,1.861,1.861,0,0,1,8.183,35.86Z" fill="#fff"/>
    <path d="M9.655,40.479a2.849,2.849,0,0,1-.763-.086V39.335a1.463,1.463,0,0,0,.607.134,1.015,1.015,0,0,0,.967-.7l.376-.87-2.2-5.5h1.4l1.289,3.872a3.6,3.6,0,0,1,.118.526h.022l.134-.526L12.931,32.4h1.262l-2.384,6.16a3.551,3.551,0,0,1-.913,1.461A1.847,1.847,0,0,1,9.655,40.479Z" fill="#fff"/>
    <path d="M18.356,36.322a1.5,1.5,0,0,1-.591,1.238,2.5,2.5,0,0,1-1.6.47,3.754,3.754,0,0,1-.745-.086,3.22,3.22,0,0,1-.7-.215V36.542a2.732,2.732,0,0,0,.752.381,2.373,2.373,0,0,0,.736.135q.891,0,.891-.591a.574.574,0,0,0-.088-.336.948.948,0,0,0-.307-.252,5.842,5.842,0,0,0-.673-.315,3.393,3.393,0,0,1-.8-.445,1.354,1.354,0,0,1-.387-.505,1.69,1.69,0,0,1-.126-.677,1.473,1.473,0,0,1,.586-1.208,2.35,2.35,0,0,1,1.514-.468,3.654,3.654,0,0,1,.647.067,2.9,2.9,0,0,1,.589.164v1.123a2.194,2.194,0,0,0-.6-.277,2.355,2.355,0,0,0-.682-.105.931.931,0,0,0-.585.167.515.515,0,0,0-.215.424.6.6,0,0,0,.169.454,2.86,2.86,0,0,0,.8.416,2.743,2.743,0,0,1,1.09.693A1.417,1.417,0,0,1,18.356,36.322Z" fill="#fff"/>
    <path d="M26.762,37.9v-4.9q0-.559.064-1.655h-.021a4.842,4.842,0,0,1-.221.86l-2.331,5.7h-.832L21.074,32.25a9.308,9.308,0,0,1-.22-.913h-.033q.016.146.035.758c.013.408.019.76.019,1.058V37.9H19.688v-7.7h1.826l1.961,4.867a6.683,6.683,0,0,1,.349,1.063h.032l.408-1.074,2.015-4.856h1.75v7.7Z" fill="#fff"/>
    <path d="M29.974,37.9v-7.7h1.278v6.6h3.014v1.1Z" fill="#fff"/>
</svg>
