<svg id="Layer_1" data-name="Layer 1" xmlns="http://www.w3.org/2000/svg" xmlns:xlink="http://www.w3.org/1999/xlink" viewBox="0 0 48 48">
    <linearGradient id="linear-gradient" x1="3.5" y1="41.5" x2="45" gradientTransform="matrix(1, 0, 0, -1, 0, 48)" gradientUnits="userSpaceOnUse">
      <stop offset="0" stop-color="#fff"/>
      <stop offset="0.232" stop-color="#fafafa"/>
      <stop offset="0.496" stop-color="#ededed"/>
      <stop offset="0.775" stop-color="#d6d6d6"/>
      <stop offset="1" stop-color="#bebebe"/>
    </linearGradient>
    <linearGradient id="paper_gradient" data-name="paper gradient" x1="29.25" y1="44.25" x2="42.25" y2="31.25" gradientTransform="matrix(1, 0, 0, -1, 0, 48)" gradientUnits="userSpaceOnUse">
      <stop offset="0" stop-color="#fff"/>
      <stop offset="0.221" stop-color="#f8f8f8"/>
      <stop offset="0.541" stop-color="#e5e5e5"/>
      <stop offset="0.92" stop-color="#c6c6c6"/>
      <stop offset="1" stop-color="#bebebe"/>
    </linearGradient>
  <polygon points="32.5 0.5 9.5 0.5 9.5 47.5 45.5 47.5 45.5 13.5 32.5 0.5" stroke="#464646" stroke-miterlimit="10" fill="url(#linear-gradient)"/>
  <polygon points="32.5 0.5 32.5 13.5 45.5 13.5 32.5 0.5" stroke="#464646" stroke-linejoin="round" fill="url(#paper_gradient)"/>
  <rect x="0.5" y="17.5" width="47" height="25" fill="#48bcc2" stroke="#464646" stroke-miterlimit="10"/>
    <path d="M9.929,25.705q0,3.324-3.078,3.325a2.881,2.881,0,0,1-2.215-.811,3.423,3.423,0,0,1-.755-2.412V21.193H5.165V25.78q0,2.116,1.772,2.116a1.566,1.566,0,0,0,1.292-.512,2.38,2.38,0,0,0,.416-1.523V21.193H9.929Z" fill="#fff"/>
    <path d="M18.861,28.9v-4.9q0-.56.064-1.655H18.9a4.859,4.859,0,0,1-.22.86l-2.331,5.7H15.52L13.173,23.25c-.061-.189-.134-.494-.22-.913H12.92q.016.146.035.758c.013.408.019.76.019,1.058V28.9H11.787v-7.7h1.826l1.961,4.867a6.683,6.683,0,0,1,.349,1.063h.032l.408-1.074,2.014-4.856h1.751v7.7Z" fill="#fff"/>
    <path d="M22.073,28.9v-7.7h1.278v6.6h3.014v1.1Z" fill="#fff"/>
    <path d="M27.229,26.376v-.913h2.938v.913Z" fill="#fff"/>
    <path d="M8.183,36.06a1.922,1.922,0,0,1-.725,1.592,3.165,3.165,0,0,1-2.025.578A4.141,4.141,0,0,1,4.4,38.09a2.72,2.72,0,0,1-.806-.311v-1.4a2.8,2.8,0,0,0,.892.537,2.914,2.914,0,0,0,1.085.221,1.488,1.488,0,0,0,.915-.244.842.842,0,0,0,.32-.712,1.042,1.042,0,0,0-.317-.736,5.045,5.045,0,0,0-1.2-.806,4.073,4.073,0,0,1-1.294-.98,1.917,1.917,0,0,1-.425-1.244,1.974,1.974,0,0,1,.323-1.108,2.136,2.136,0,0,1,.923-.769,3.238,3.238,0,0,1,1.365-.276,5.04,5.04,0,0,1,.983.1,3.024,3.024,0,0,1,.687.2V31.9a2.28,2.28,0,0,0-.754-.4,2.87,2.87,0,0,0-.906-.148,1.437,1.437,0,0,0-.916.269.846.846,0,0,0-.34.7,1.1,1.1,0,0,0,.112.515,1.341,1.341,0,0,0,.355.409,6.1,6.1,0,0,0,.875.526A4.755,4.755,0,0,1,7.74,34.838,1.863,1.863,0,0,1,8.183,36.06Z" fill="#fff"/>
    <path d="M9.655,40.679a2.849,2.849,0,0,1-.763-.086V39.535a1.447,1.447,0,0,0,.607.134,1.015,1.015,0,0,0,.967-.7l.376-.87-2.2-5.5h1.4l1.289,3.872a3.613,3.613,0,0,1,.118.527h.022l.134-.527L12.931,32.6h1.262l-2.384,6.16a3.551,3.551,0,0,1-.913,1.461A1.847,1.847,0,0,1,9.655,40.679Z" fill="#fff"/>
    <path d="M18.356,36.522a1.5,1.5,0,0,1-.591,1.238,2.5,2.5,0,0,1-1.6.47,3.754,3.754,0,0,1-.745-.086,3.22,3.22,0,0,1-.7-.215V36.742a2.763,2.763,0,0,0,.752.382,2.4,2.4,0,0,0,.736.134q.891,0,.891-.591a.576.576,0,0,0-.088-.336.948.948,0,0,0-.307-.252,5.873,5.873,0,0,0-.673-.314,3.426,3.426,0,0,1-.8-.446,1.354,1.354,0,0,1-.387-.505,1.686,1.686,0,0,1-.126-.677,1.473,1.473,0,0,1,.586-1.208,2.35,2.35,0,0,1,1.514-.468,3.654,3.654,0,0,1,.647.067,2.9,2.9,0,0,1,.589.164v1.123a2.194,2.194,0,0,0-.6-.277,2.354,2.354,0,0,0-.682-.1.931.931,0,0,0-.585.166.516.516,0,0,0-.215.424.608.608,0,0,0,.169.455,2.916,2.916,0,0,0,.8.416,2.732,2.732,0,0,1,1.09.692A1.417,1.417,0,0,1,18.356,36.522Z" fill="#fff"/>
    <path d="M26.762,38.1v-4.9q0-.559.064-1.654h-.021a4.851,4.851,0,0,1-.221.859l-2.331,5.7h-.832l-2.347-5.645a9.382,9.382,0,0,1-.22-.913h-.033c.011.1.023.349.035.757s.019.761.019,1.058V38.1H19.688v-7.7h1.826l1.961,4.866a6.683,6.683,0,0,1,.349,1.063h.032l.408-1.074,2.015-4.855h1.75v7.7Z" fill="#fff"/>
    <path d="M29.974,38.1v-7.7h1.278v6.6h3.014v1.1Z" fill="#fff"/>
</svg>
