<svg id="Layer_1" data-name="Layer 1" xmlns="http://www.w3.org/2000/svg" xmlns:xlink="http://www.w3.org/1999/xlink" viewBox="0 0 48 48">
    <linearGradient id="linear-gradient" x1="3.5" y1="41.5" x2="45" gradientTransform="matrix(1, 0, 0, -1, 0, 48)" gradientUnits="userSpaceOnUse">
      <stop offset="0" stop-color="#fff"/>
      <stop offset="0.232" stop-color="#fafafa"/>
      <stop offset="0.496" stop-color="#ededed"/>
      <stop offset="0.775" stop-color="#d6d6d6"/>
      <stop offset="1" stop-color="#bebebe"/>
    </linearGradient>
    <linearGradient id="paper_gradient" data-name="paper gradient" x1="29.25" y1="44.25" x2="42.25" y2="31.25" gradientTransform="matrix(1, 0, 0, -1, 0, 48)" gradientUnits="userSpaceOnUse">
      <stop offset="0" stop-color="#fff"/>
      <stop offset="0.221" stop-color="#f8f8f8"/>
      <stop offset="0.541" stop-color="#e5e5e5"/>
      <stop offset="0.92" stop-color="#c6c6c6"/>
      <stop offset="1" stop-color="#bebebe"/>
    </linearGradient>
    <rect id="_Rectangle_" data-name="&lt;Rectangle&gt;" width="48" height="48" fill="none"/>
  <polygon points="32.5 0.5 9.5 0.5 9.5 47.5 45.5 47.5 45.5 13.5 32.5 0.5" stroke="#464646" stroke-miterlimit="10" fill="url(#linear-gradient)"/>
  <polygon points="32.5 0.5 32.5 13.5 45.5 13.5 32.5 0.5" stroke="#464646" stroke-linejoin="round" fill="url(#paper_gradient)"/>
    <rect id="_Rectangle_2" data-name="&lt;Rectangle&gt;" width="48" height="48" fill="none"/>
    <rect id="_Rectangle_3" data-name="&lt;Rectangle&gt;" width="48" height="48" fill="none"/>
    <rect id="_Rectangle_4" data-name="&lt;Rectangle&gt;" width="48" height="48" fill="none"/>
    <rect id="_Rectangle_5" data-name="&lt;Rectangle&gt;" width="48" height="48" fill="none"/>
    <rect id="_Rectangle_6" data-name="&lt;Rectangle&gt;" width="48" height="48" fill="none"/>
  <rect x="0.5" y="26.5" width="47" height="16" fill="#f47321" stroke="#464646" stroke-miterlimit="10"/>
    <path d="M11.051,37.9v-4.9q0-.559.065-1.655h-.022a4.859,4.859,0,0,1-.22.86L8.543,37.9H7.71L5.363,32.25c-.061-.189-.134-.494-.22-.913H5.111c.011.1.022.35.035.758s.019.76.019,1.058V37.9H3.978v-7.7H5.8l1.96,4.867a6.58,6.58,0,0,1,.349,1.063h.033l.408-1.074,2.014-4.856h1.751v7.7Z" fill="#fff"/>
    <path d="M17.045,37.9v-.758h-.021a1.83,1.83,0,0,1-1.628.892,1.788,1.788,0,0,1-1.278-.441,1.56,1.56,0,0,1-.467-1.192,1.7,1.7,0,0,1,.456-1.241,2.208,2.208,0,0,1,1.343-.58l1.606-.22q0-1.123-1.042-1.123a2.946,2.946,0,0,0-.98.167,3.1,3.1,0,0,0-.846.446v-1.1a3.16,3.16,0,0,1,.889-.338,4.406,4.406,0,0,1,1.066-.151,2.125,2.125,0,0,1,1.593.551,2.2,2.2,0,0,1,.534,1.6V37.9ZM14.87,36.268a.7.7,0,0,0,.258.567,1,1,0,0,0,.655.212,1.2,1.2,0,0,0,.913-.379,1.327,1.327,0,0,0,.36-.953v-.494l-1.187.155a1.5,1.5,0,0,0-.782.28A.792.792,0,0,0,14.87,36.268Z" fill="#fff"/>
    <path d="M22.588,37.842a1.527,1.527,0,0,1-.4.126,2.646,2.646,0,0,1-.556.062q-1.616,0-1.616-1.74V33.4H19.1v-1h.913V31.128l1.246-.381V32.4h1.326v1H21.262v2.664a1.129,1.129,0,0,0,.188.738.74.74,0,0,0,.591.218,1.031,1.031,0,0,0,.271-.046.977.977,0,0,0,.276-.121Z" fill="#fff"/>
    <path d="M23.738,37.9V29.753h1.241V37.9Z" fill="#fff"/>
    <path d="M29.576,37.9v-.758h-.021a1.83,1.83,0,0,1-1.627.892,1.793,1.793,0,0,1-1.28-.441,1.563,1.563,0,0,1-.466-1.192,1.7,1.7,0,0,1,.457-1.241,2.2,2.2,0,0,1,1.341-.58l1.607-.22q0-1.123-1.042-1.123a2.952,2.952,0,0,0-.981.167,3.106,3.106,0,0,0-.845.446v-1.1a3.164,3.164,0,0,1,.888-.338,4.407,4.407,0,0,1,1.067-.151,2.126,2.126,0,0,1,1.593.551,2.2,2.2,0,0,1,.534,1.6V37.9ZM27.4,36.268a.7.7,0,0,0,.258.567,1,1,0,0,0,.656.212,1.2,1.2,0,0,0,.913-.379,1.327,1.327,0,0,0,.36-.953v-.494l-1.187.155a1.5,1.5,0,0,0-.782.28A.792.792,0,0,0,27.4,36.268Z" fill="#fff"/>
    <path d="M37.563,35a3.367,3.367,0,0,1-.677,2.2,2.255,2.255,0,0,1-1.842.825,1.774,1.774,0,0,1-1.563-.827H33.46V37.9H32.219V29.753H33.46v3.523h.021a2.062,2.062,0,0,1,1.827-1.015,2.161,2.161,0,0,1,1.211.333,2.11,2.11,0,0,1,.775.954A3.611,3.611,0,0,1,37.563,35Zm-1.289-.021a1.936,1.936,0,0,0-.365-1.251,1.228,1.228,0,0,0-1.01-.452,1.33,1.33,0,0,0-1.05.457,1.711,1.711,0,0,0-.4,1.171v.725a1.379,1.379,0,0,0,.379.985,1.257,1.257,0,0,0,.953.4,1.3,1.3,0,0,0,1.1-.527A2.489,2.489,0,0,0,36.274,34.979Z" fill="#fff"/>
</svg>
