<?xml version="1.0" encoding="UTF-8"?>
<svg width="48px" height="48px" viewBox="0 0 48 48" version="1.1" xmlns="http://www.w3.org/2000/svg" xmlns:xlink="http://www.w3.org/1999/xlink">
    <title>typeAppAmeSim48</title>
    <g id="Page-1" stroke="none" stroke-width="1" fill="none" fill-rule="evenodd">
        <g id="typeAppAmeSim48">
            <rect id="Rectangle" fill="#005578" fill-rule="nonzero" x="0" y="0" width="48" height="48"></rect>
            <path d="M5.15353281,17.3669728 C7.51639652,15.7650775 10.4053496,14.8851456 13.7635831,15.1053576 C15.3538481,15.2096373 16.9626265,15.7970904 18.950325,16.8577666 L19.4391499,17.1236646 L19.9516072,17.4123779 L20.5039217,17.7327172 L21.8253106,18.5239397 L23.9999175,19.835445 C30.442146,23.6580439 34.7978622,24.8548226 39.7176788,23.1669784 L40.0393634,23.0528092 L41.7606366,27.7471908 C35.1843525,30.158495 29.6284476,28.8431743 22.3018396,24.633922 L21.4484449,24.1354435 L17.8620663,22.0136282 L16.5202611,21.2378768 L15.8840775,20.8845062 L15.3734318,20.6169809 L14.9631666,20.4225607 L14.7547248,20.3356989 L14.5679295,20.2678164 L14.4527416,20.2317466 L14.2375422,20.1779818 L14.1299461,20.1579271 C14.0230328,20.1401546 13.9172554,20.1287665 13.8044039,20.119605 L13.4364169,20.0946424 C11.2460092,19.9510091 9.44161732,20.5005999 7.95926889,21.5055529 C7.25261877,21.9846239 6.78379504,22.4430684 6.56965154,22.7087307 L6.51757581,22.776275 L2.48242419,19.823725 C2.98133519,19.14188 3.86260516,18.2421527 5.15353281,17.3669728 Z" id="Path" fill="#8CC3D2" fill-rule="nonzero"></path>
            <path d="M44,15 L44,42.4 C44,44.5940067 41.3939157,45.7002251 39.8163978,44.2486913 L39.702858,44.1378955 L30.902858,35.0378955 L34.497142,31.5621045 L39,36.219 L39,15 L44,15 Z M41.1,3 C43.2745611,3 44.3885508,5.56636851 42.9760264,7.15309158 L42.865327,7.27020357 L6.56532697,43.4702036 L3.03467303,39.9297964 L35.051,8 L25,8 L25,3 L41.1,3 Z" id="Combined-Shape" fill="#FFFFFF" fill-rule="nonzero"></path>
            <rect id="_x3C_Tranche_x3E_" x="0" y="0" width="48" height="48"></rect>
        </g>
    </g>
</svg>