<svg id="Layer_1" data-name="Layer 1" xmlns="http://www.w3.org/2000/svg" xmlns:xlink="http://www.w3.org/1999/xlink" viewBox="0 0 48 48">
    <linearGradient id="linear-gradient" x1="3.5" y1="41.5" x2="45" gradientTransform="matrix(1, 0, 0, -1, 0, 48)" gradientUnits="userSpaceOnUse">
      <stop offset="0" stop-color="#fff"/>
      <stop offset="0.232" stop-color="#fafafa"/>
      <stop offset="0.496" stop-color="#ededed"/>
      <stop offset="0.775" stop-color="#d6d6d6"/>
      <stop offset="1" stop-color="#bebebe"/>
    </linearGradient>
    <linearGradient id="paper_gradient" data-name="paper gradient" x1="29.25" y1="44.25" x2="42.25" y2="31.25" gradientTransform="matrix(1, 0, 0, -1, 0, 48)" gradientUnits="userSpaceOnUse">
      <stop offset="0" stop-color="#fff"/>
      <stop offset="0.221" stop-color="#f8f8f8"/>
      <stop offset="0.541" stop-color="#e5e5e5"/>
      <stop offset="0.92" stop-color="#c6c6c6"/>
      <stop offset="1" stop-color="#bebebe"/>
    </linearGradient>
  <polygon points="32.5 0.5 9.5 0.5 9.5 47.5 45.5 47.5 45.5 13.5 32.5 0.5" stroke="#464646" stroke-miterlimit="10" fill="url(#linear-gradient)"/>
  <polygon points="32.5 0.5 32.5 13.5 45.5 13.5 32.5 0.5" stroke="#464646" stroke-linejoin="round" fill="url(#paper_gradient)"/>
  <rect x="0.5" y="17.5" width="47" height="25" fill="#203d77" stroke="#464646" stroke-miterlimit="10"/>
    <path d="M11.051,28.9v-4.9q0-.56.065-1.655h-.022a4.859,4.859,0,0,1-.22.86L8.543,28.9H7.71L5.363,23.25c-.061-.189-.134-.494-.22-.913H5.111c.011.1.022.35.035.758s.019.76.019,1.058V28.9H3.978v-7.7H5.8l1.96,4.867a6.58,6.58,0,0,1,.349,1.063h.033l.408-1.074,2.014-4.856h1.751v7.7Z" fill="#fff"/>
    <path d="M17.045,28.9v-.758h-.021a1.83,1.83,0,0,1-1.628.892,1.788,1.788,0,0,1-1.278-.441,1.56,1.56,0,0,1-.467-1.192,1.7,1.7,0,0,1,.456-1.241,2.208,2.208,0,0,1,1.343-.58l1.606-.22q0-1.124-1.042-1.123a2.946,2.946,0,0,0-.98.167,3.1,3.1,0,0,0-.846.446v-1.1a3.16,3.16,0,0,1,.889-.338,4.406,4.406,0,0,1,1.066-.151,2.125,2.125,0,0,1,1.593.551,2.2,2.2,0,0,1,.534,1.6V28.9ZM14.87,27.268a.7.7,0,0,0,.258.567,1,1,0,0,0,.655.212,1.2,1.2,0,0,0,.913-.379,1.327,1.327,0,0,0,.36-.953v-.494l-1.187.155a1.5,1.5,0,0,0-.782.28A.792.792,0,0,0,14.87,27.268Z" fill="#fff"/>
    <path d="M24.624,28.38a2.8,2.8,0,0,1-3.1,3.1,5.247,5.247,0,0,1-1.007-.1,3.282,3.282,0,0,1-.809-.25V29.964a4.359,4.359,0,0,0,.954.406,3.289,3.289,0,0,0,.84.11,1.873,1.873,0,0,0,1.394-.492,1.95,1.95,0,0,0,.486-1.431v-.532h-.021a2.228,2.228,0,0,1-.717.739,2.03,2.03,0,0,1-1.088.266,2.054,2.054,0,0,1-1.654-.739,2.931,2.931,0,0,1-.623-1.958,3.433,3.433,0,0,1,.679-2.245,2.257,2.257,0,0,1,1.84-.827,1.723,1.723,0,0,1,1.563.817h.021V23.4h1.241Zm-1.23-2.686a1.416,1.416,0,0,0-.387-1,1.254,1.254,0,0,0-.956-.414,1.29,1.29,0,0,0-1.095.513,2.446,2.446,0,0,0-.387,1.491,1.957,1.957,0,0,0,.379,1.265,1.228,1.228,0,0,0,1.007.47,1.3,1.3,0,0,0,1.036-.478,1.834,1.834,0,0,0,.4-1.225Z" fill="#fff"/>
    <path d="M27.718,21.451a.661.661,0,0,1-.223.51.767.767,0,0,1-.54.205.757.757,0,0,1-.537-.205.666.666,0,0,1-.221-.51.687.687,0,0,1,.224-.521.753.753,0,0,1,.534-.209.74.74,0,0,1,.545.215A.693.693,0,0,1,27.718,21.451Zm-1.4,7.445V23.4h1.241v5.5Z" fill="#fff"/>
    <path d="M33.133,28.665a3.1,3.1,0,0,1-1.564.365,2.87,2.87,0,0,1-1.415-.344,2.416,2.416,0,0,1-.967-.978,2.9,2.9,0,0,1-.346-1.417,3.391,3.391,0,0,1,.357-1.585,2.541,2.541,0,0,1,1.036-1.066,3.192,3.192,0,0,1,1.577-.379,3.568,3.568,0,0,1,.725.078,2.112,2.112,0,0,1,.6.2v1.176a2.129,2.129,0,0,0-1.268-.441,1.634,1.634,0,0,0-1.255.519,1.953,1.953,0,0,0-.48,1.383,1.885,1.885,0,0,0,.462,1.348,1.637,1.637,0,0,0,1.252.489,1.946,1.946,0,0,0,.638-.124,2.485,2.485,0,0,0,.651-.338Z" fill="#fff"/>
    <path d="M10.482,34.148a4.1,4.1,0,0,1-.513,2.073A3.471,3.471,0,0,1,8.5,37.607a4.77,4.77,0,0,1-2.2.489H3.978v-7.7H6.357a4.408,4.408,0,0,1,3.094.956A3.63,3.63,0,0,1,10.482,34.148Zm-1.354.021a2.591,2.591,0,0,0-.735-1.984,2.931,2.931,0,0,0-2.084-.69H5.256v5.5H6.287a2.825,2.825,0,0,0,2.095-.75A2.813,2.813,0,0,0,9.128,34.169Z" fill="#fff"/>
    <path d="M14.951,33.8a1.05,1.05,0,0,0-.317-.129,1.583,1.583,0,0,0-.4-.059,1.032,1.032,0,0,0-.876.462,2.01,2.01,0,0,0-.333,1.2V38.1h-1.24V32.6h1.24v1.069h.022a1.824,1.824,0,0,1,.553-.86,1.3,1.3,0,0,1,.854-.306,1.324,1.324,0,0,1,.5.075Z" fill="#fff"/>
    <path d="M18.764,38.1v-.758h-.021a1.829,1.829,0,0,1-1.628.892,1.791,1.791,0,0,1-1.278-.44A1.559,1.559,0,0,1,15.37,36.6a1.7,1.7,0,0,1,.456-1.241,2.211,2.211,0,0,1,1.343-.58l1.606-.22q0-1.122-1.042-1.122a2.951,2.951,0,0,0-.981.166,3.106,3.106,0,0,0-.845.446v-1.1a3.164,3.164,0,0,1,.888-.338,4.413,4.413,0,0,1,1.067-.151,2.126,2.126,0,0,1,1.593.551,2.205,2.205,0,0,1,.534,1.6V38.1Zm-2.175-1.628a.7.7,0,0,0,.258.567,1,1,0,0,0,.655.212,1.2,1.2,0,0,0,.913-.379,1.327,1.327,0,0,0,.36-.953v-.494l-1.187.156a1.5,1.5,0,0,0-.782.279A.792.792,0,0,0,16.589,36.468Z" fill="#fff"/>
    <path d="M27.2,38.1H25.881l-1.01-3.653a1.824,1.824,0,0,1-.057-.3c-.011-.114-.023-.2-.035-.272h-.021a3.573,3.573,0,0,1-.107.559L23.571,38.1h-1.3l-1.616-5.5h1.289l.977,3.883a3.145,3.145,0,0,1,.081.537h.032a2.588,2.588,0,0,1,.1-.558L24.264,32.6h1.187l1.037,3.894a5.1,5.1,0,0,1,.074.548H26.6a3.228,3.228,0,0,1,.091-.548l.934-3.894h1.2Z" fill="#fff"/>
</svg>
