<?xml version="1.0" standalone="no"?>
<!DOCTYPE svg PUBLIC "-//W3C//DTD SVG 1.1//EN" "http://www.w3.org/Graphics/SVG/1.1/DTD/svg11.dtd" >
<svg xmlns="http://www.w3.org/2000/svg">
<metadata>Generated by IcoMoon</metadata>
<defs>
<font id="mylib-icons" horiz-adv-x="1024">
<font-face units-per-em="1024" ascent="960" descent="-64" />
<missing-glyph horiz-adv-x="1024" />
<glyph unicode="&#x20;" horiz-adv-x="512" d="" />
<glyph unicode="&#xe900;" glyph-name="cmdRevertMaximiseVertically16" horiz-adv-x="896" d="M896 256v-320h-320v64h256v256h64zM64 256v-256h256v-64h-320v320h64zM425.408 358.4c11.108 11.104 28.346 12.338 40.817 3.701l4.431-3.701 160-160-45.312-44.8-105.344 105.024v-258.624h-64v258.88l-105.28-105.792-45.312 45.312 160 160zM480 895.296v-258.176l105.344 105.28 45.248-44.8-160-160c-11.108-11.104-28.346-12.338-40.817-3.701l-4.431 3.701-160 160 45.312 44.8 105.344-105.024v257.92h64zM320 960v-64h-256v-256h-64v320h320zM896 960v-320h-64v256h-256v64h320z" />
<glyph unicode="&#xe901;" glyph-name="cmdMaximiseVertically16" horiz-adv-x="896" d="M896 256v-320h-320v64h256v256h64zM64 256v-256h256v-64h-320v320h64zM480 366.080v-258.24l105.344 105.536 45.248-45.248-160-160c-11.108-11.104-28.346-12.338-40.817-3.701l-4.431 3.701-160 160 45.312 45.248 105.344-105.216v257.92h64zM425.408 888.256c11.108 11.104 28.346 12.338 40.817 3.701l4.431-3.701 160-160-45.312-45.248-105.344 105.216v-258.624h-64v258.944l-105.28-105.536-45.312 45.248 160 160zM320 960v-64h-256v-256h-64v320h320zM896 960v-320h-64v256h-256v64h320z" />
<glyph unicode="&#xe903;" glyph-name="cmdAbortTask24" d="M486.4 409.6c106.667 106.667 285.867 106.667 392.533 0s106.667-285.867 0-392.533c-55.467-55.467-123.733-81.067-196.267-81.067s-140.8 25.6-196.267 81.067c-106.667 106.667-106.667 285.867 0 392.533zM448 960c46.933 0 85.333-38.4 85.333-85.333 27.733 0 55.467-14.716 69.535-37.315l2.998-5.352h183.467v-256h-42.667v213.333h-128v-85.333h-384v85.333h-128v-810.667h341.333v-42.667h-384v896h183.467c12.8 25.6 42.667 42.667 72.533 42.667 0 44.8 34.988 81.825 78.989 85.098l6.344 0.235h42.667zM861.867 362.667l-328.533-328.533c93.867-76.8 230.4-72.533 315.733 12.8 82.747 82.747 89.267 213.639 19.558 307.085l-6.758 8.648zM832 392.533c-93.867 76.8-230.4 72.533-315.733-12.8-82.747-82.747-89.267-213.639-19.558-307.085l6.758-8.648 328.533 328.533zM448 917.333h-42.667c-23.771 0-40.185-14.716-42.409-37.315l-0.258-5.352v-42.667h-42.667c-23.771 0-40.185-14.716-42.409-37.315l-0.258-5.352v-42.667h298.667v42.667c0 23.771-14.716 40.185-37.315 42.409l-5.352 0.258h-42.667v42.667c0 23.771-14.716 40.185-37.315 42.409l-5.352 0.258zM426.667 874.667c11.782 0 21.333-9.551 21.333-21.333s-9.551-21.333-21.333-21.333c-11.782 0-21.333 9.551-21.333 21.333s9.551 21.333 21.333 21.333z" />
<glyph unicode="&#xe904;" glyph-name="cmdAdd10" d="M512 960c282.77 0 512-229.23 512-512-0.339-282.629-229.371-511.661-512-512-282.77 0-512 229.23-512 512s229.23 512 512 512zM512 857.6c-226.216 0-409.6-183.384-409.6-409.6s183.384-409.6 409.6-409.6c226.216 0 409.6 183.384 409.6 409.6 0 108.633-43.154 212.816-119.969 289.631s-180.998 119.969-289.631 119.969zM563.2 704v-217.6h217.6v-102.4h-217.6v-217.6h-102.4v217.6h-217.6v102.4h217.6v217.6h102.4z" />
<glyph unicode="&#xe905;" glyph-name="cmdAdd13" d="M512 960c282.77 0 512-229.23 512-512-0.347-282.626-229.374-511.653-512-512-282.77 0-512 229.23-512 512s229.23 512 512 512zM512 881.231c-239.267 0-433.231-193.964-433.231-433.231s193.964-433.231 433.231-433.231c239.267 0 433.231 193.964 433.231 433.231-0.26 239.159-194.072 432.97-433.231 433.231zM551.385 723.692v-236.308h236.308v-78.769h-236.308v-236.308h-78.769v236.308h-236.308v78.769h236.308v236.308h78.769z" />
<glyph unicode="&#xe906;" glyph-name="cmdAdd16" d="M512 960c282.77 0 512-229.23 512-512-0.301-282.645-229.355-511.699-512-512-282.77 0-512 229.23-512 512s229.23 512 512 512zM512 891.733c-245.067 0-443.733-198.666-443.733-443.733s198.666-443.733 443.733-443.733c245.067 0 443.733 198.666 443.733 443.733-0.301 244.942-198.791 443.432-443.733 443.733zM546.133 686.933v-204.8h204.8v-68.267h-204.8v-204.8h-68.267v204.8h-204.8v68.267h204.8v204.8h68.267z" />
<glyph unicode="&#xe907;" glyph-name="cmdAdd24" d="M512 960c282.77 0 512-229.23 512-512-0.319-282.638-229.362-511.681-512-512-282.77 0-512 229.23-512 512s229.23 512 512 512zM512 915.478c-258.181 0-467.478-209.297-467.478-467.478s209.297-467.478 467.478-467.478c258.181 0 467.478 209.297 467.478 467.478-0.294 258.059-209.419 467.184-467.478 467.478zM534.261 692.87v-222.609h222.609v-44.522h-222.609v-222.609h-44.522v222.609h-222.609v44.522h222.609v222.609h44.522z" />
<glyph unicode="&#xe908;" glyph-name="cmdAddBranch24" d="M163.84 939.52v-40.96h122.88v-81.92h40.96v81.92h286.72v-204.8h-122.88v-40.96h122.88v-184.32c32.434 13.562 67.245 20.525 102.4 20.48 144.414 0.15 262.618-114.859 266.424-259.223s-108.173-265.441-252.395-272.901c-141.017-7.294-262.58 96.636-278.297 235.858l-0.907 9.546h-123.945v204.8h122.88v40.96h-122.88v204.8h122.88v40.96h-122.88v81.92h-40.96v-81.92h-122.88v-204.8h-40.96v204.8h-122.88v204.8h122.88v40.96h40.96zM803.011 430.852c-84.181 34.869-181.078 15.595-245.508-48.835s-83.704-161.327-48.835-245.508c34.869-84.181 117.014-139.069 208.132-139.069 124.372 0.113 225.167 100.908 225.28 225.28 0 91.117-54.888 173.263-139.069 208.132zM737.28 366.080v-122.88h122.88v-40.96h-122.88v-122.88h-40.96v122.88h-122.88v40.96h122.88v122.88h40.96zM492.79 366.080h-124.15v-122.88h82.944c2.992 39.37 14.762 77.513 34.378 111.652l6.828 11.228zM575.488 448h-83.968v-40.96h33.587c12.056 12.517 25.295 23.823 39.525 33.763l10.856 7.197zM573.44 611.84h-204.8v-122.88h204.8v122.88zM245.76 857.6h-204.8v-122.88h204.8v122.88zM573.44 857.6h-204.8v-122.88h204.8v122.88z" />
<glyph unicode="&#xe909;" glyph-name="cmdAddFromLibrary24" d="M426.667 960v-53.12l188.459 49.621 124.416-466.176 7.125 0.341c153.167 0 277.333-124.166 277.333-277.333s-124.166-277.333-277.333-277.333c-153.167 0-277.333 124.166-277.333 277.333l0.325 10.699 0.741 10.635h-470.4v42.667h42.667v682.667h384zM836.47 430.137c-87.689 36.322-188.623 16.245-255.737-50.869s-87.191-168.049-50.869-255.737c36.322-87.689 121.89-144.864 216.804-144.864 129.544 0.141 234.526 105.122 234.667 234.667 0 94.914-57.175 180.482-144.864 216.804zM768 362.667v-128h128v-42.667h-128v-128h-42.667v128h-128v42.667h128v128h42.667zM213.333 917.333h-128v-640h128v128h-85.333v42.667h85.333v469.333zM384 917.333h-128v-640h128v128h-85.333v42.667h85.333v469.333zM426.667 807.595v-530.261h50.432c9.243 38.903 26.8 75.286 51.401 106.675l8.46 10.274-110.293 413.312zM584.875 904.533l-130.688-34.517 117.845-441.472c32.421 26.382 70.361 45.020 110.928 54.58l13.616 2.849-111.701 418.56z" />
<glyph unicode="&#xe90a;" glyph-name="cmdAddLatestReference24" d="M276.166 922.537c182.028 80.612 395.007 25.525 515.306-131.774l7.248-9.758v138.035h40.96v-204.8h-204.8v40.96h132.055c-106.74 150.327-304.325 205.112-473.236 131.216s-262.779-256.187-224.823-436.606c37.956-180.419 197.316-309.436 381.684-309.010 13.354 0.315 26.684 1.313 39.936 2.99-40.113 98.958-17.122 212.314 58.378 287.823s188.853 98.514 287.816 58.412c1.117 8.826 1.933 17.686 2.447 26.565l0.543 13.33v20.48h40.96v-20.48c-0.034-15.079-0.851-30.142-2.446-45.129l-1.854-14.96c93.975-57.522 142.786-166.99 122.741-275.312s-104.797-193.074-213.119-213.119c-108.322-20.045-217.79 28.765-275.271 122.741-19.92-2.82-40.011-4.257-60.129-4.301-203.142-0.179-378.663 141.908-420.789 340.634s60.651 399.806 246.394 482.063zM823.491 451.332c-84.181 34.869-181.078 15.595-245.508-48.835s-83.704-161.327-48.835-245.508c34.869-84.181 117.014-139.069 208.132-139.069 124.353 0.158 225.122 100.927 225.28 225.28 0 91.117-54.888 173.263-139.069 208.132zM757.76 386.56v-122.88h122.88v-40.96h-122.88v-122.88h-40.96v122.88h-122.88v40.96h122.88v122.88h40.96zM260.219 708.219l190.341-190.3 149.34 149.34c5.142 5.324 12.757 7.459 19.917 5.585s12.752-7.466 14.627-14.627c1.874-7.16-0.261-14.775-5.585-19.917l-163.84-163.84c-3.838-3.828-9.038-5.98-14.459-5.98-5.435-0.010-10.652 2.142-14.5 5.98l-204.8 204.8c-7.761 8.036-7.65 20.809 0.249 28.709s20.673 8.011 28.709 0.249z" />
<glyph unicode="&#xe90b;" glyph-name="cmdAddPart24" d="M746.667 490.667c152.917 0 277.333-124.416 277.333-277.333s-124.416-277.333-277.333-277.333c-152.917 0-277.333 124.416-277.333 277.333s124.416 277.333 277.333 277.333zM746.667 448c-129.408 0-234.667-105.259-234.667-234.667s105.259-234.667 234.667-234.667c129.408 0 234.667 105.259 234.667 234.667s-105.259 234.667-234.667 234.667zM768 362.667v-128h128v-42.667h-128v-128h-42.667v128h-128v42.667h128v128h42.667zM351.36 956.757c5.76 3.627 12.824 4.231 19.018 1.813l3.595-1.813 341.333-213.333c5.191-3.236 8.693-8.545 9.717-14.472l0.31-3.619v-189.611h-42.667v151.125l-298.667-186.667v-333.696l31.957 19.968 22.613-36.181-64.597-40.363c-0.469 0-0.64-0.384-0.981-0.597-3.2-1.749-6.784-2.645-10.325-2.645-2.617 0-5.234 0.474-7.712 1.435l-3.595 1.808-341.333 213.333c-5.191 3.236-8.693 8.545-9.717 14.472l-0.31 3.619v384c0 6.116 2.637 11.905 7.121 15.912l2.906 2.179 341.333 213.333zM42.667 686.848v-333.696l298.667-186.667v333.696l-298.667 186.667zM362.667 913.493l-301.056-188.16 301.056-188.16 301.056 188.16-301.056 188.16z" />
<glyph unicode="&#xe90c;" glyph-name="cmdAddSection24" d="M716.8 509.44c144.409 0.127 262.592-114.891 266.383-259.251s-108.192-265.423-252.409-272.875c-141.012-7.287-262.567 96.642-278.284 235.859l-0.907 9.546h-369.664v286.72h634.88zM803.011 451.332c-84.181 34.869-181.078 15.595-245.508-48.835s-83.704-161.327-48.835-245.508c34.869-84.181 117.014-139.069 208.132-139.069 124.372 0.113 225.167 100.908 225.28 225.28 0 91.117-54.888 173.263-139.069 208.132zM737.28 386.56v-122.88h122.88v-40.96h-122.88v-122.88h-40.96v122.88h-122.88v40.96h122.88v122.88h40.96zM575.57 468.48h-452.69v-204.8h328.745c6.279 80.385 48.615 153.383 114.776 198.782l9.168 6.018zM81.92 591.36v-40.96h-81.92v40.96h81.92zM204.8 591.36v-40.96h-81.92v40.96h81.92zM327.68 591.36v-40.96h-81.92v40.96h81.92zM450.56 591.36v-40.96h-81.92v40.96h81.92zM573.44 591.36v-40.96h-81.92v40.96h81.92zM696.32 591.36v-40.96h-81.92v40.96h81.92zM819.2 591.36v-40.96h-81.92v40.96h81.92zM737.28 919.040v-286.72h-655.36v286.72h655.36zM696.32 878.080h-573.44v-204.8h573.44v204.8z" />
<glyph unicode="&#xe90d;" glyph-name="cmdAddtoStudy24" d="M896 960v-512c76.8-51.2 128-136.533 128-234.667 0-153.6-123.733-277.333-277.333-277.333s-277.333 123.733-277.333 277.333c0 153.6 123.733 277.333 277.333 277.333 33.6 0 63.933-6.533 93.858-16.742l12.808-4.592v448h-384v-512h-42.667v512h-384v-597.333h341.333v-42.667h-384v682.667h896zM746.667 448c-128 0-234.667-106.667-234.667-234.667s106.667-234.667 234.667-234.667c128 0 234.667 106.667 234.667 234.667s-106.667 234.667-234.667 234.667zM708.267 332.8l29.867-29.867-68.267-68.267h226.133v-42.667h-226.133l68.267-72.533-29.867-29.867-106.667 106.667c-7.585 7.585-8.428 18.542-2.528 26.876l2.528 2.991 106.667 106.667zM298.667 448v-42.667h-213.333v42.667h213.333zM384 576v-42.667h-298.667v42.667h298.667zM810.667 576v-42.667h-298.667v42.667h298.667zM384 704v-42.667h-298.667v42.667h298.667zM810.667 704v-42.667h-298.667v42.667h298.667zM384 832v-42.667h-298.667v42.667h298.667zM810.667 832v-42.667h-298.667v42.667h298.667z" />
<glyph unicode="&#xe90e;" glyph-name="cmdAlerts16" d="M830.272 96c0.002 0.409 0.003 0.893 0.003 1.377 0 89.696-36.18 170.941-94.743 229.939l0.020-0.020c-41.379 41.765-66.946 99.257-66.946 162.721 0 0.303 0.001 0.606 0.002 0.909v-0.047 116.224c-0.021 106.329-64.863 197.508-157.16 236.173l-1.688 0.627v42.368c-0.073 40.712-33.075 73.692-73.789 73.728h-41.731c-40.69-0.073-73.655-33.038-73.728-73.721v-42.055c-94-39.298-158.848-130.501-158.848-236.849 0-0.095 0-0.19 0-0.286v0.015-116.224c0.001-0.256 0.002-0.559 0.002-0.863 0-63.464-25.567-120.956-66.963-162.739l0.017 0.017c-58.545-59.035-94.722-140.331-94.722-230.076 0-0.429 0.001-0.857 0.002-1.286v0.066-31.168h279.488c3.941-71.833 63.151-128.589 135.616-128.589s131.675 56.756 135.601 128.24l0.015 0.349h279.552zM384.512 886.272c0 5.373 4.355 9.728 9.728 9.728v0h41.728c0 0 0 0 0 0 5.385 0 9.755-4.348 9.792-9.725v-26.243c-8.894 1.572-19.452 2.696-30.19 3.121l-0.466 0.015c-11.185-0.444-21.721-1.567-32.034-3.341l1.442 0.205zM415.104 0c-36.94 0.329-67.199 28.501-70.823 64.531l-0.025 0.301h141.696c-3.649-36.331-33.908-64.503-70.815-64.832h-0.033zM64.192 127.168c7.415 61.376 34.583 115.337 74.858 156.395l-0.042-0.043c52.492 52.912 84.93 125.785 84.93 206.235 0 0.396-0.001 0.791-0.002 1.186v-0.061 116.224c0 105.579 85.589 191.168 191.168 191.168s191.168-85.589 191.168-191.168v0-116.224c-0.001-0.334-0.002-0.73-0.002-1.125 0-80.45 32.438-153.323 84.949-206.254l-0.019 0.019c40.213-41.036 67.391-94.981 74.75-155.053l0.13-1.299z" />
<glyph unicode="&#xe90f;" glyph-name="cmdAlerts24" d="M840.533 320c-46.933 46.933-72.533 110.933-72.533 179.2v119.467c0 110.933-72.533 204.8-170.667 243.2v34.133c0 34.133-29.867 64-64 64h-42.667c-34.133 0-64-29.867-64-64v-38.4c-98.133-34.133-170.667-128-170.667-238.933v-119.467c0-68.267-25.6-132.267-72.533-179.2-64-64-98.133-145.067-98.133-234.667v-21.333h298.667c0-72.533 55.467-128 128-128s128 55.467 128 128h298.667v21.333c0 89.6-34.133 170.667-98.133 234.667zM469.333 896c0 12.8 8.533 21.333 21.333 21.333h42.667c12.8 0 21.333-8.533 21.333-21.333v-25.6c-12.8 4.267-29.867 4.267-42.667 4.267s-29.867 0-42.667-4.267v25.6zM512-21.333c-46.933 0-85.333 38.4-85.333 85.333h170.667c0-46.933-38.4-85.333-85.333-85.333zM128 106.667c4.267 68.267 34.133 132.267 85.333 183.467 55.467 55.467 85.333 128 85.333 209.067v119.467c0 119.467 93.867 213.333 213.333 213.333s213.333-93.867 213.333-213.333v-119.467c0-76.8 29.867-153.6 85.333-209.067 51.2-51.2 76.8-115.2 85.333-183.467h-768z" />
<glyph unicode="&#xe910;" glyph-name="cmdAlignBottom16" d="M1024 64v-64h-1024v64h1024zM448 576v-448h-384v448h384zM960 896v-768h-448v768h448zM384 512h-256v-320h256v320zM896 832h-320v-640h320v640z" />
<glyph unicode="&#xe911;" glyph-name="cmdAlignBottom24" d="M1024 42.667v-42.667h-1024v42.667h1024zM469.333 682.667v-554.667h-384v554.667h384zM938.667 896v-768h-384v768h384zM426.667 640h-298.667v-469.333h298.667v469.333zM896 853.333h-298.667v-682.667h298.667v682.667z" />
<glyph unicode="&#xe912;" glyph-name="cmdAlignLeft16" d="M128 960v-1024h-64v1024h64zM960 448v-448h-768v448h768zM896 384h-640v-320h640v320zM704 896v-384h-512v384h512zM640 832h-384v-256h384v256z" />
<glyph unicode="&#xe913;" glyph-name="cmdAlignLeft24" d="M106.667 960v-1024h-42.667v1024h42.667zM960 405.333v-384h-768v384h768zM917.333 362.667h-682.667v-298.667h682.667v298.667zM746.667 874.667v-384h-554.667v384h554.667zM704 832h-469.333v-298.667h469.333v298.667z" />
<glyph unicode="&#xe914;" glyph-name="cmdAlignRight16" d="M960 960v-1024h-64v1024h64zM832 448v-448h-768v448h768zM768 384h-640v-320h640v320zM832 896v-384h-512v384h512zM768 832h-384v-256h384v256z" />
<glyph unicode="&#xe915;" glyph-name="cmdAlignRight24" d="M960 960v-1024h-42.667v1024h42.667zM832 405.333v-384h-768v384h768zM789.333 362.667h-682.667v-298.667h682.667v298.667zM832 874.667v-384h-554.667v384h554.667zM789.333 832h-469.333v-298.667h469.333v298.667z" />
<glyph unicode="&#xe916;" glyph-name="cmdAlignTop16" d="M960 768v-768h-448v768h448zM896 704h-320v-640h320v640zM448 768v-448h-384v448h384zM384 704h-256v-320h256v320zM1024 896v-64h-1024v64h1024z" />
<glyph unicode="&#xe917;" glyph-name="cmdAlignTop24" d="M938.667 768v-768h-384v768h384zM896 725.333h-298.667v-682.667h298.667v682.667zM469.333 768v-554.667h-384v554.667h384zM426.667 725.333h-298.667v-469.333h298.667v469.333zM1024 896v-42.667h-1024v42.667h1024z" />
<glyph unicode="&#xe918;" glyph-name="cmdApply10" d="M512 960c282.77 0 512-229.23 512-512-0.339-282.629-229.371-511.661-512-512-282.77 0-512 229.23-512 512s229.23 512 512 512zM512 857.6c-226.216 0-409.6-183.384-409.6-409.6s183.384-409.6 409.6-409.6c226.216 0 409.6 183.384 409.6 409.6 0 108.633-43.154 212.816-119.969 289.631s-180.998 119.969-289.631 119.969zM724.89 678.912l83.046-60.006-351.949-487.322-211.661 241.869 77.107 67.379 126.771-144.896 276.685 382.976z" />
<glyph unicode="&#xe919;" glyph-name="cmdApply13" d="M512 960c282.77 0 512-229.23 512-512-0.347-282.626-229.374-511.653-512-512-282.77 0-512 229.23-512 512s229.23 512 512 512zM512 881.231c-239.267 0-433.231-193.964-433.231-433.231s193.964-433.231 433.231-433.231c239.267 0 433.231 193.964 433.231 433.231-0.26 239.159-194.072 432.97-433.231 433.231zM736.886 678.636l63.882-46.080-349.499-484.037-205.194 234.102 59.234 51.988 139.973-159.744 291.604 403.771z" />
<glyph unicode="&#xe91a;" glyph-name="cmdApply16" d="M512 960c282.77 0 512-229.23 512-512-0.301-282.645-229.355-511.699-512-512-282.77 0-512 229.23-512 512s229.23 512 512 512zM512 891.733c-245.067 0-443.733-198.666-443.733-443.733s198.666-443.733 443.733-443.733c245.067 0 443.733 198.666 443.733 443.733-0.301 244.942-198.791 443.432-443.733 443.733zM758.033 673.621l54.067-41.643-367.275-477.525-197.973 237.568 52.429 43.691 143.36-172.032 315.392 409.941z" />
<glyph unicode="&#xe91b;" glyph-name="cmdApply24" d="M512 960c282.77 0 512-229.23 512-512-0.319-282.638-229.362-511.681-512-512-282.77 0-512 229.23-512 512s229.23 512 512 512zM512 915.478c-258.181 0-467.478-209.297-467.478-467.478s209.297-467.478 467.478-467.478c258.181 0 467.478 209.297 467.478 467.478-0.294 258.059-209.419 467.184-467.478 467.478zM738.66 661.126l36.419-25.555-328.927-469.927-174.347 224.167 35.172 27.336 137.305-176.529 294.378 420.508z" />
<glyph unicode="&#xe91c;" glyph-name="cmdApplyExemption24" d="M737.28 509.44c147.456 0 266.24-118.784 266.24-266.24s-118.784-266.24-266.24-266.24c-147.456 0-266.24 118.784-266.24 266.24s118.784 266.24 266.24 266.24zM737.28 468.48c-122.88 0-225.28-102.4-225.28-225.28s102.4-225.28 225.28-225.28c122.88 0 225.28 102.4 225.28 225.28s-102.4 225.28-225.28 225.28zM757.76 386.56v-122.88h122.88v-40.96h-122.88v-122.88h-40.96v122.88h-122.88v40.96h122.88v122.88h40.96zM409.6 955.904c32.768 0 61.44-16.384 77.824-45.056l167.936-311.296-36.864-20.48-167.936 311.296c-16.384 28.672-65.536 28.672-81.92 0l-303.104-557.056c-8.192-16.384-8.192-32.768 0-45.056s24.576-20.48 40.96-20.48l282.624-4.096v-40.96h-282.624c-32.768 0-57.344 16.384-73.728 40.96-15.124 22.686-16.287 52.351-3.49 79.332l302.498 567.836c16.384 28.672 45.056 45.056 77.824 45.056zM516.096 624.128l32.768-24.576-200.704-290.816-118.784 167.936 32.768 24.576 86.016-118.784 167.936 241.664z" />
<glyph unicode="&#xe91d;" glyph-name="cmdApplyGradeRuleTemplate24" d="M778.24 960v-458.015c127.725-30.132 214.444-148.839 204.314-279.678s-114.087-234.783-244.928-244.897c-127.486-9.854-243.441 72.237-277.162 194.606l-2.49 9.743h-457.974v778.24h778.24zM803.011 451.332c-84.181 34.869-181.078 15.595-245.508-48.835s-83.704-161.327-48.835-245.508c34.869-84.181 117.014-139.069 208.132-139.069 124.372 0.113 225.167 100.908 225.28 225.28 0 91.117-54.888 173.263-139.069 208.132zM737.28 386.56v-122.88h122.88v-40.96h-122.88v-122.88h-40.96v122.88h-122.88v40.96h122.88v122.88h40.96zM368.64 550.4h-327.68v-327.68h327.68v327.68zM737.28 550.4h-327.68v-327.68h41.984c-0.492 6.799-1.024 13.599-1.024 20.48 0.181 146.965 119.275 266.059 266.24 266.24l10.271-0.312 10.209-0.712v41.984zM327.68 509.44v-40.96h-188.334l122.855-81.92-122.896-81.92h188.375v-40.96h-245.76v51.921l106.373 70.959-106.373 70.959v51.921h245.76zM491.52 919.040h-81.92v-327.68h327.68v81.92h-245.76v245.76zM368.64 919.040h-327.68v-327.68h327.68v327.68zM204.8 878.080v-81.92h81.92v-40.96h-81.92v-81.92h-40.96v81.92h-81.92v40.96h81.92v81.92h40.96zM532.48 890.081v-175.841h175.841l-175.841 175.841zM737.28 919.040h-175.841l175.841-175.841v175.841z" />
<glyph unicode="&#xe91e;" glyph-name="cmdArcCenter24" d="M512 960c280.487 0 512-231.513 512-512s-231.513-512-512-512c-280.487 0-512 231.513-512 512s231.513 512 512 512zM512 915.478c-258.226 0-467.478-209.252-467.478-467.478s209.252-467.478 467.478-467.478c258.226 0 467.478 209.252 467.478 467.478s-209.252 467.478-467.478 467.478zM534.261 648.348v-178.087h178.087v-44.522h-178.087v-178.087h-44.522v178.087h-178.087v44.522h178.087v178.087h44.522z" />
<glyph unicode="&#xe91f;" glyph-name="cmdAssign10" d="M716.8 953.446c24.286-7.276 43.027-26.677 49.459-51.2l10.078-19.917 22.674-42.15c3.986-7.181 8.052-14.406 12.16-21.624l24.874-42.824 35.421-58.611 27.914-44.557h124.621v-312.218c2.1-100.169-11.937-200.024-41.574-295.731l-9.626-25.293-158.184-39.908-122.95-29.349-70.186-15.644c-7.315-1.562-14.427-3.054-21.295-4.464l-37.937-7.377c-17.167-3.102-31.381-5.252-41.515-6.133l-11.219-0.441-7.827 0.325-5.701 0.813-6.008 1.601c-1.028 0.347-2.070 0.739-3.126 1.18l-6.512 3.285c-1.115 0.661-2.245 1.383-3.391 2.172l-7.067 5.57c-1.211 1.076-2.438 2.229-3.682 3.465l-7.675 8.456-8.108 10.715-8.565 13.241c-1.467 2.432-2.954 4.981-4.461 7.651l-9.293 17.531-9.807 20.725-10.344 24.186-10.904 27.915-11.487 31.911-12.093 36.175-12.723 40.706-13.375 45.504-14.050 50.569-14.748 55.902h-216.166c-61.44 0-102.4 61.44-102.4 153.6-0.482 31.229 5.37 62.232 17.203 91.136 12.883 36.337 46.668 61.107 85.197 62.464h425.37c-30.85 80.868-16.886 172.002 36.762 239.923 34.952 47.715 94.074 71.293 152.269 60.723zM676.352 852.070c-17.246-7.86-31.808-20.606-41.882-36.659-28.785-61.771-23.152-134.099 14.848-190.669l37.581-74.342h-575.693c-11.574-33.152-11.574-69.248 0-102.4h503.194v-102.4h-189.747c8.292-34.414 17.611-68.556 27.94-102.38l161.808-0.020v-102.4l-127.067-0.037c12.649-33.868 26.339-67.356 41.051-100.417l21.982 3.896 63.13 13.198 82.584 18.878 94.718 22.726 102.847 25.578c19.258 77.075 28.652 156.283 27.955 235.725v210.022h-79.053l-44.279 69.423-41.361 67.666-27.997 47.684-27.608 49.231-17.069 32.159c-2.709 5.252-5.341 10.438-7.881 15.539z" />
<glyph unicode="&#xe920;" glyph-name="cmdAssign13" d="M736.807 909.115l7.877-7.877 2.678-10.634c26.153-91.19 72.758-175.214 136.271-245.681h89.246l9.374-25.994c25.992-83.128 40.015-169.475 41.697-256.445l0.051-32.638c1.587-97.971-12.507-195.564-41.748-289.083l-7.247-20.244-100.906-22.81-101.645-22.208-85.757-17.765-58.284-11.141-32.903-5.61-26.224-3.67c-3.723-0.427-7.099-0.756-10.094-0.978l-10.944-0.315-5.048 0.329-7.408 1.657-4.065 1.642-4.326 2.355-4.602 3.198-4.894 4.17-5.201 5.27-5.524 6.5-5.862 7.858-9.462 14.615-6.775 11.817-7.168 13.626-7.575 15.564-12.161 27.263-8.662 20.974-9.124 23.363-14.585 39.806-15.711 45.906-11.125 34.208-17.703 57.040-18.967 64.301-20.284 71.996-223.862 0.709c-40.429-1.722-78.554 18.837-99.328 53.563-22.579 38.932-22.759 86.931-0.473 126.031 18.779 32.352 52.437 52.834 89.291 55.034l11.14 0.105 422.124-1.418c-45.253 120.694-12.214 193.27 19.063 230.788l8.819 9.777 8.309 7.936 7.383 6.164 3.215 2.438c41.639 37.259 103.504 40.789 149.11 8.507zM675.604 853.346c-20.308-2.289-39.12-11.793-53.012-26.782-38.124-40.96-33.083-113.585 14.415-204.8l30.169-57.817-549.022 2.206c-12.55 0.692-24.532-5.298-31.508-15.754-7.916-14.48-7.916-31.994 0-46.474 5.311-8.755 14.46-14.272 24.429-15.067l519.079-1.474v-78.769h-206.060c6.543-26.442 13.583-52.748 21.115-78.905l185.052-0.278-0.128-78.769-160.588 0.226c8.725-26.456 17.96-52.741 27.702-78.84l133.098-0.785-0.5-78.768-101.352 0.608c10.9-26.034 22.314-51.862 34.235-77.468l19.49 2.76 25.85 4.424 48.338 9.197 97.068 20.030 122.936 26.882 37.866 8.545c21.068 79.052 31.479 160.564 30.956 242.373 0.435 79.697-9.386 159.118-29.223 236.308h-65.851l-11.579 11.5c-74.448 78.41-130.167 172.666-162.974 275.692z" />
<glyph unicode="&#xe921;" glyph-name="cmdAssign16" d="M636.544 93.504c-26.752 0-56 0.576-88 1.472-19.2 0.512-35.392 1.024-47.808 1.024-0.481-0.011-1.048-0.017-1.617-0.017-43.299 0-78.4 35.101-78.4 78.4 0 0.568 0.006 1.135 0.018 1.701l-0.001-0.084c0.035 8.032 1.178 15.784 3.283 23.128l-0.147-0.6c-36.2 14.293-61.345 48.973-61.345 89.527 0 15.658 3.749 30.44 10.397 43.498l-0.252-0.545c-30.919 16.62-51.584 48.74-51.584 85.687 0 0.048 0 0.096 0 0.144v-0.007c0.105 11.188 2.042 21.889 5.524 31.865l-0.212-0.697h-208.512c-53.275 0.856-96.202 43.962-96.768 97.226v0.054c-0.007 0.42-0.011 0.915-0.011 1.411 0 51.535 41.777 93.312 93.312 93.312 0.274 0 0.547-0.001 0.82-0.004h473.558c-39.936 102.4-13.568 158.464 7.872 184.256 20.106 24.574 50.433 40.135 84.395 40.135 9.767 0 19.233-1.287 28.238-3.7l-0.761 0.173c24.115-6.098 42.206-26.172 45.282-50.906l0.030-0.294c12.326-100.199 70.416-184.66 152.388-232.865l1.468-0.799h18.304l6.72-3.328c11.712-5.824 70.4-43.264 70.4-208.384 1.106-11.803 1.737-25.523 1.737-39.39 0-65.894-14.238-128.462-39.806-184.796l1.142 2.81-7.424-11.712-13.632-2.624c-21.538-4.709-46.279-7.407-71.65-7.407-15.578 0-30.919 1.017-45.96 2.988l1.77-0.19c-44.838-20.619-97.284-32.641-152.538-32.641-14.172 0-28.16 0.791-41.921 2.331l1.691-0.154zM500.736 192c-8.837 0-16-7.163-16-16s7.163-16 16-16v0c12.8 0 30.016-0.512 49.664-1.088 54.848-1.472 221.376-6.4 243.904 19.2l15.744 23.936 25.6-13.44c12.228-2.555 26.279-4.018 40.672-4.018s28.444 1.463 42.013 4.248l-1.341-0.23c14.345 45.882 22.609 98.639 22.609 153.326 0 7.817-0.169 15.594-0.503 23.329l0.038-1.102c0.965 7.97 1.515 17.199 1.515 26.557 0 44.838-12.636 86.725-34.542 122.293l0.579-1.010-20.096 2.944c-106.883 57.233-181.776 162.141-196.5 285.525l-0.172 1.771c-0.344 0.007-0.749 0.011-1.156 0.011-14.105 0-27.083-4.823-37.375-12.91l0.131 0.099c-31.36-26.368-25.6-88.704 14.976-166.72l24.704-46.72h-576c-0.182 0.004-0.396 0.006-0.61 0.006-16.189 0-29.312-13.123-29.312-29.312 0-0.497 0.012-0.992 0.037-1.483l-0.003 0.069c0.303-18.012 14.627-32.582 32.512-33.278l0.064-0.002h415.232v-64h-118.592c-0.038 0-0.082 0-0.127 0-16.153 0-29.248-13.095-29.248-29.248 0-0.676 0.023-1.346 0.068-2.010l-0.005 0.090c0-0.003 0-0.007 0-0.011 0-17.84 14.229-32.357 31.957-32.821l0.043-0.001h128v-64h-86.592c-17.673 0-32-14.327-32-32s14.327-32 32-32v0h88.192v-64z" />
<glyph unicode="&#xe922;" glyph-name="cmdAssign24" d="M628.736 103.979c-18.603 0-37.717 0-57.088 0.555-14.421 0.256-27.435 0.512-38.4 0.512-1.058-0.060-2.295-0.094-3.54-0.094-20.66 0-39.128 9.389-51.368 24.134l-0.089 0.11c-10.544 15.039-16.85 33.72-16.85 53.873 0 3.145 0.154 6.255 0.454 9.321l-0.031-0.389h-11.947c-47.098 0.040-85.264 38.229-85.264 85.333 0 17.869 5.493 34.456 14.882 48.164l-0.189-0.292c-33.741 12.535-57.353 44.444-57.387 81.873v0.004c0.024 15.055 4.059 29.162 11.093 41.316l-0.213-0.399h-232.32c-48.051 0.049-86.991 38.989-87.040 87.035v0.005c0.073 46.171 37.495 83.578 83.665 83.627h507.397c-49.195 110.933-22.656 170.197-0.939 196.267 18.924 23.246 47.539 37.976 79.594 37.976 9.028 0 17.783-1.168 26.122-3.362l-0.714 0.16c20.723-5.035 36.345-22.123 39.14-43.258l0.028-0.262c16.698-114.558 80.728-211.534 171.24-271.954l1.432-0.9 18.048-0.469c12.032-2.56 72.107-23.979 72.107-194.603 0-154.496-30.464-187.264-48.64-193.067-22.274-5.069-47.853-7.974-74.111-7.974-17.886 0-35.456 1.348-52.616 3.947l1.927-0.24c-36.267-30.805-116.053-36.949-208.384-36.949zM504.533 190.976c-0.289-2.126-0.454-4.584-0.454-7.080 0-10.404 2.864-20.138 7.847-28.458l-0.14 0.252c4.513-5.038 11.038-8.194 18.301-8.194 1.145 0 2.271 0.078 3.374 0.23l-0.128-0.014c11.093 0 24.363-0.256 39.125-0.512 65.323-1.323 218.24-4.011 240.768 30.080l10.539 15.957 17.067-8.533c15.124-3.338 32.496-5.25 50.314-5.25 19.486 0 38.437 2.287 56.601 6.607l-1.657-0.332c5.077 7.381 21.888 40.363 21.888 152.747 0 120.533-30.891 147.669-38.4 152.405h-20.779l-4.907 2.688c-106.675 67.198-180.926 177.529-198.408 305.915l-0.248 2.223c-0.469 4.608-7.168 6.955-9.216 7.552-3.804 0.855-8.173 1.345-12.656 1.345-19.005 0-35.953-8.806-46.986-22.56l-0.092-0.118c-17.067-20.437-36.693-71.125 20.992-180.651l16.853-31.275h-577.024c-22.62-0.024-40.954-18.343-41.003-40.955v-0.005c0.048-24.487 19.886-44.325 44.369-44.373h414.298v-42.667h-109.44c-22.579-0.048-40.869-18.339-40.917-40.913v-0.005c0.024-24.536 19.92-44.416 44.459-44.416 0.045 0 0.090 0 0.135 0h126.244v-42.667h-85.333c-23.564 0-42.667-19.103-42.667-42.667s19.103-42.667 42.667-42.667v0h88.192l0.683-42.667z" />
<glyph unicode="&#xe923;" glyph-name="cmdAssign32" d="M685.6 88.928c-36.992 0-78.144 1.888-121.376 4.224-27.68 1.504-52.064 2.848-69.632 2.848-1.356-0.102-2.938-0.16-4.533-0.16-35.488 0-64.256 28.768-64.256 64.256 0 11.933 3.253 23.107 8.921 32.682l-0.163-0.298c-23.551 1.589-43.603 15.183-54.226 34.659l-0.174 0.349c-7.834 13.758-12.452 30.228-12.452 47.777 0 16.868 4.267 32.74 11.78 46.595l-0.256-0.516c0.306 0.604 0.604 1.106 0.929 1.589l-0.033-0.053c-34.744 9.808-59.789 41.204-59.84 78.458v0.006c0 0.010 0 0.022 0 0.033 0 17.563 5.792 33.774 15.57 46.826l-0.146-0.203h-245.056c-44.85 0.055-81.193 36.398-81.248 81.243v0.005c0.036 43.479 35.273 78.716 78.749 78.752h525.827c-49.728 108.608-24.512 165.312-3.936 190.080 17.067 21.030 42.913 34.359 71.873 34.359 8.164 0 16.080-1.059 23.619-3.048l-0.644 0.144c17.945-4.35 31.499-19.078 34.053-37.332l0.027-0.236c13.303-106.962 76.161-196.87 164.516-247.116l1.628-0.852h39.616l3.392-1.696c6.816-3.2 66.464-38.016 66.464-211.968 0-168.928-35.2-201.248-42.272-205.984l-5.952-2.464c-21.888-4.833-47.029-7.601-72.817-7.601-19.608 0-38.842 1.601-57.578 4.678l2.043-0.277c-26.176-22.976-81.728-29.76-152.416-29.76zM494.592 192c-1.363 0.204-2.936 0.32-4.537 0.32-17.85 0-32.32-14.47-32.32-32.32s14.47-32.32 32.32-32.32c1.6 0 3.174 0.116 4.712 0.341l-0.175-0.021c18.016 0 42.976-1.344 71.392-2.912 80.928-4.32 231.744-12.544 254.176 21.312l7.904 11.968 12.8-6.56c16.819-3.881 36.132-6.105 55.964-6.105 20.85 0 41.127 2.459 60.554 7.102l-1.767-0.356c5.312 7.712 27.040 46.72 27.040 177.888 0 133.056-36.576 173.152-46.624 181.664l-41.312 1.472c-102.084 54.796-173.539 155.179-187.361 273.178l-0.159 1.67c-0.64 6.4-7.584 9.376-11.648 10.624-3.932 0.895-8.446 1.408-13.081 1.408-19.208 0-36.359-8.81-47.631-22.61l-0.087-0.11c-16.928-20.384-36.992-70.688 19.2-178.24l12.192-23.392h-577.984c-25.813-0.018-46.734-20.939-46.752-46.75v-0.002c0.018-27.192 22.056-49.23 49.246-49.248h414.754v-32h-106.4c-25.753-0.036-46.62-20.903-46.656-46.652v-0.004c0.018-27.245 22.099-49.326 49.342-49.344h126.658v-32h-97.76c-0.034 0-0.074 0-0.115 0-10.245 0-19.113-5.892-23.401-14.473l-0.068-0.151c-4.537-8.75-7.198-19.102-7.198-30.076 0-11.651 2.999-22.601 8.268-32.121l-0.173 0.341c6.216-11.613 18.265-19.378 32.127-19.378 0.406 0 0.81 0.007 1.212 0.020l-0.059-0.002c4.256 0 95.584 0 95.584 0v-32z" />
<glyph unicode="&#xe924;" glyph-name="cmdAssignLot24" d="M512 448c115.2 115.2 307.2 115.2 422.4 0 119.467-119.467 119.467-307.2 0-422.4-55.467-55.467-132.267-85.333-209.067-85.333s-153.6 25.6-213.333 85.333c-115.2 115.2-115.2 307.2 0 422.4zM904.533 418.133c-102.4 98.133-264.533 98.133-362.667 0-98.133-102.4-98.133-264.533 0-362.667 102.4-98.133 264.533-98.133 362.667 0 102.4 98.133 102.4 264.533 0 362.667zM797.867 384l42.667-8.533-12.8-55.467h68.267v-42.667h-76.8l-17.067-85.333h51.2v-42.667h-64l-12.8-64-42.667 8.533 12.8 55.467h-85.333l-12.8-64-42.667 8.533 12.8 55.467h-64v42.667h72.533l17.067 85.333h-46.933v42.667h59.733l12.8 64 42.667-8.533-12.8-55.467h85.333l12.8 64zM349.867 955.733c7.314 3.657 14.629 4.18 19.256 1.567l2.077-1.567 341.333-187.733c7.314-3.657 11.494-7.314 12.539-13.658l0.261-3.408v-170.667h-42.667v132.267l-298.667-183.467v-388.267c0-4.267-4.267-12.8-12.8-12.8 0-2.844-1.896-3.793-4.425-4.109l-4.109-0.158-3.2 0.667-6.4 2.933-3.2 0.667-341.333 209.067c-3.556 3.556-7.111 7.111-8.198 13.136l-0.336 3.931v396.8c0 3.413 2.731 9.557 6.007 14.063l2.526 3.004 341.333 187.733zM42.667 712.533v-349.867l298.667-183.467v349.867l-298.667 183.467zM772.267 277.333h-85.333l-17.067-85.333h85.333l17.067 85.333zM362.667 913.067l-298.667-166.4 298.667-183.467 298.667 183.467-298.667 166.4z" />
<glyph unicode="&#xe925;" glyph-name="cmdAssignProject24" d="M737.28 468.48c147.456 0 266.24-118.784 266.24-266.24s-118.784-266.24-266.24-266.24c-147.456 0-266.24 118.784-266.24 266.24s118.784 266.24 266.24 266.24zM737.28 427.52c-122.88 0-225.28-102.4-225.28-225.28s102.4-225.28 225.28-225.28c122.88 0 225.28 102.4 225.28 225.28s-102.4 225.28-225.28 225.28zM831.488 923.136l28.672-126.976h143.36v-327.68h-40.96v163.84h-901.12v-532.48h327.68v-40.96h-368.64v802.816c0 30.84 21.77 54.424 51.65 57.092l5.694 0.252h196.608c18.204 0 33.173-6.473 44.904-19.418l4.248-5.158 45.056-73.728 462.848 102.4zM700.416 321.024l32.768-32.768-69.632-65.536h217.088v-40.96h-217.088l69.632-65.536-32.768-32.768-114.688 118.784 114.688 118.784zM798.72 873.984l-638.976-143.36 12.288-57.344h675.84l-49.152 200.704zM278.528 878.080h-200.704c-7.168 0-14.336-6.272-16.016-13.328l-0.368-3.056v-188.416h69.632l-20.48 90.112 217.088 49.152-36.864 61.44-4.608 2.048c-1.707 0.683-3.641 1.365-5.348 1.745l-2.332 0.303zM962.56 755.2h-94.208l20.48-81.92h73.728v81.92z" />
<glyph unicode="&#xe926;" glyph-name="cmdAssignTask24" d="M605.867 362.667c85.333-59.733 196.267-59.733 281.6 0 4.267 4.267 12.8 4.267 21.333 0 72.533-34.133 115.2-98.133 115.2-170.667v-256h-42.667v256c0 51.2-29.867 98.133-81.067 123.733-93.867-59.733-213.333-59.733-311.467 0-46.933-25.6-76.8-72.533-76.8-123.733v-256h-42.667v256c0 68.267 42.667 132.267 115.2 170.667 8.533 4.267 17.067 4.267 21.333 0zM896 106.667v-170.667h-42.667v170.667h42.667zM640 106.667v-170.667h-42.667v170.667h42.667zM298.667 960c23.771 0 40.185-14.716 42.409-37.315l0.258-5.352h21.333c27.733 0 48.109-14.716 57.71-37.315l2.023-5.352h132.267v-426.667h-42.667v384h-85.333v-85.333h-298.667v85.333h-85.333v-597.333h341.333v-42.667h-384v682.667h132.267c7.924 23.771 26.884 40.185 53.466 42.409l6.268 0.258h21.333c0 23.771 14.716 40.185 37.315 42.409l5.352 0.258h42.667zM145.067 635.733l238.933-243.2v140.8h42.667v-213.333h-213.333v42.667h140.8l-243.2 238.933 34.133 34.133zM746.667 704c81.067 0 149.333-68.267 149.333-153.6s-68.267-187.733-149.333-187.733c-81.067 0-149.333 102.4-149.333 187.733s68.267 153.6 149.333 153.6zM746.667 661.333c-59.733 0-106.667-46.933-106.667-110.933s51.2-145.067 106.667-145.067c55.467 0 106.667 81.067 106.667 145.067s-46.933 110.933-106.667 110.933zM298.667 917.333h-42.667v-42.667h-64c-11.378 0-19.384-6.742-21.023-17.231l-0.31-4.103v-64h213.333v64c0 11.378-6.742 19.384-17.231 21.023l-4.103 0.31h-64v42.667z" />
<glyph unicode="&#xe927;" glyph-name="cmdAssignVendor24" d="M746.667 490.667c153.167 0 277.333-124.166 277.333-277.333-0.165-153.099-124.235-277.169-277.333-277.333-153.167 0-277.333 124.166-277.333 277.333s124.166 277.333 277.333 277.333zM478.72 956.373c6.543 4.423 14.995 4.869 21.967 1.159 5.81-3.091 9.801-8.647 10.963-14.984l0.35-3.882v-533.333h-42.667v493.227l-426.667-287.787v-632.107h128v128h170.667v-128h128v42.667h42.667v-64c0-10.473-7.547-19.183-17.499-20.99l-3.835-0.344h-469.333c-10.473 0-19.184 7.547-20.991 17.499l-0.345 3.835v664.789c-0.053 5.725 2.193 11.167 6.129 15.166l3.26 2.711 469.333 316.373zM746.667 448c-129.603 0-234.667-105.064-234.667-234.667s105.064-234.667 234.667-234.667c129.603 0 234.667 105.064 234.667 234.667-0.141 129.544-105.122 234.526-234.667 234.667zM298.667 64h-85.333v-85.333h85.333v85.333zM731.435 356.565l30.165-30.165-91.733-91.733h226.133v-42.667h-225.664l91.264-91.435-30.165-30.165-128 128c-7.403 7.405-8.225 18.898-2.468 27.211l2.468 2.954 128 128zM384 234.667v-42.667h-256v42.667h256zM384 320v-42.667h-256v42.667h256zM384 405.333v-42.667h-256v42.667h256zM384 490.667v-42.667h-256v42.667h256zM384 576v-42.667h-256v42.667h256z" />
<glyph unicode="&#xe928;" glyph-name="cmdAttach16" d="M288-25.6c-70.4 0-140.8 25.6-198.4 83.2-108.8 108.8-108.8 288 0 396.8l371.2 371.2 44.8-44.8-371.2-371.2c-83.2-83.2-83.2-224 0-307.2s224-83.2 307.2 0l460.8 460.8c57.6 57.6 57.6 153.6 0 211.2s-153.6 57.6-211.2 0l-396.8-396.8c-32-32-32-83.2 0-115.2s83.2-32 115.2 0l307.2 307.2 44.8-44.8-307.2-307.2c-57.6-57.6-147.2-57.6-204.8 0s-57.6 147.2 0 204.8l396.8 396.8c83.2 83.2 217.6 83.2 300.8 0s83.2-217.6 0-300.8l-460.8-460.8c-57.6-57.6-128-83.2-198.4-83.2z" />
<glyph unicode="&#xe929;" glyph-name="cmdAttach24" d="M264.533-21.333c-68.267 0-136.533 25.6-187.733 76.8-102.4 102.4-102.4 268.8 0 371.2l418.133 418.133 29.867-29.867-418.133-418.133c-85.333-85.333-85.333-226.133 0-311.467s226.133-85.333 311.467 0l512 512c64 64 64 162.133 0 226.133s-162.133 64-226.133 0l-430.933-435.2c-17.067-17.067-29.867-42.667-29.867-68.267s8.533-51.2 29.867-68.267c38.4-38.4 102.4-38.4 140.8 0l341.333 341.333 29.867-29.867-341.333-341.333c-55.467-55.467-145.067-55.467-200.533 0-25.6 25.6-42.667 64-42.667 102.4s12.8 72.533 42.667 102.4l430.933 426.667c38.4 38.4 89.6 59.733 145.067 59.733s106.667-21.333 145.067-59.733 59.733-89.6 59.733-145.067-21.333-106.667-59.733-145.067l-512-512c-55.467-46.933-123.733-72.533-187.733-72.533z" />
<glyph unicode="&#xe92a;" glyph-name="cmdBack16" d="M898.496 533.76c15.7 25.899 24.991 57.197 24.991 90.666 0 31.668-8.318 61.393-22.889 87.109l0.458-0.879c-83.072 149.701-240.203 249.344-420.607 249.344-0.158 0-0.315 0-0.473 0h-6.375c-259.244-5.361-468.023-214.006-473.591-472.69l-0.009-0.526c-0.032-2.052-0.050-4.474-0.050-6.901 0-265.097 214.903-480 480-480 163.827 0 308.485 82.074 395.099 207.348l1.047 1.601-52.736 36.16c-75.964-110.024-201.372-181.205-343.406-181.205-229.75 0-416 186.25-416 416 0 2.168 0.017 4.331 0.050 6.491l-0.004-0.326c7.496 223.383 186.664 402.551 409.348 410.029l0.7 0.019h5.952c0.056 0 0.123 0 0.189 0 156.382 0 292.591-86.368 363.529-214.007l1.082-2.121c9.090-15.971 14.448-35.089 14.448-55.458 0-21.406-5.917-41.431-16.206-58.526l0.286 0.513c-19.455-32.776-54.664-54.401-94.924-54.401-0.198 0-0.397 0.001-0.595 0.002h-449.185l204.032 204.032c5.785 5.792 9.362 13.79 9.362 22.624 0 17.683-14.335 32.018-32.018 32.018-8.849 0-16.86-3.59-22.656-9.393v0l-258.624-258.624c-5.808-5.794-9.401-13.805-9.401-22.656s3.593-16.862 9.401-22.655l0.001-0.001 258.624-258.944c5.796-5.804 13.807-9.394 22.656-9.394 17.683 0 32.018 14.335 32.018 32.018 0 8.834-3.577 16.832-9.362 22.624l-204.032 204.352h449.216c0.3-0.002 0.654-0.003 1.009-0.003 63.47 0 118.976 34.092 149.207 84.963l0.44 0.799z" />
<glyph unicode="&#xe92b;" glyph-name="cmdBack24" d="M866.133 448c34.133 0 64 12.8 85.333 38.4s25.6 55.467 21.333 85.333c-55.467 247.467-281.6 409.6-533.333 384-230.4-25.6-409.6-204.8-435.2-430.933-17.067-140.8 25.6-277.333 123.733-384 93.867-102.4 226.133-162.133 366.933-162.133 149.333 0 285.867 64 379.733 179.2l-34.133 25.6c-85.333-102.4-213.333-166.4-345.6-166.4-128 0-247.467 55.467-332.8 149.333-85.333 98.133-123.733 221.867-110.933 349.867 21.333 204.8 187.733 371.2 392.533 392.533 226.133 29.867 435.2-119.467 486.4-345.6 4.267-17.067 0-34.133-12.8-51.2s-29.867-25.6-51.2-25.6c0 0 0 0 0 0h-494.933l238.933 238.933-29.867 29.867-294.4-294.4 294.4-294.4 29.867 29.867-238.933 251.733h494.933c0 0 0 0 0 0z" />
<glyph unicode="&#xe92c;" glyph-name="cmdBackwards16" d="M512 960c279.893 0 512-232.107 512-512s-232.107-512-512-512c-279.893 0-512 232.107-512 512s232.107 512 512 512zM512 891.733c-245.76 0-443.733-197.973-443.733-443.733s197.973-443.733 443.733-443.733c245.76 0 443.733 197.973 443.733 443.733s-197.973 443.733-443.733 443.733zM750.933 686.933v-477.867l-273.067 197.973v-197.973l-334.507 238.933 334.507 238.933v-197.973l273.067 197.973zM409.6 550.4l-143.36-102.4 143.36-102.4v204.8zM682.667 550.4l-143.36-102.4 143.36-102.4v204.8z" />
<glyph unicode="&#xe92d;" glyph-name="cmdBackwards24" d="M512 960c280.487 0 512-231.513 512-512s-231.513-512-512-512c-280.487 0-512 231.513-512 512s231.513 512 512 512zM512 915.478c-258.226 0-467.478-209.252-467.478-467.478s209.252-467.478 467.478-467.478c258.226 0 467.478 209.252 467.478 467.478s-209.252 467.478-467.478 467.478zM801.391 692.87v-489.739l-311.652 213.704v-213.704l-351.722 244.87 351.722 244.87v-213.704l311.652 213.704zM445.217 603.826l-227.061-155.826 227.061-155.826v311.652zM756.87 603.826l-227.061-155.826 227.061-155.826v311.652z" />
<glyph unicode="&#xe92e;" glyph-name="cmdCalendar16" d="M384 960v-128h256v128h192v-128h96c49.901 0 90.909-38.073 95.561-86.755l0.439-9.245v-704c0-49.901-38.073-90.909-86.755-95.561l-9.245-0.439h-832c-49.901 0-90.909 38.073-95.561 86.755l-0.439 9.245v704c0 49.901 38.073 90.909 86.755 95.561l9.245 0.439h96v128h192zM256 128h-192v-96c0-15.709 11.32-28.775 26.248-31.484l5.752-0.516h160v128zM704 128h-384v-128h384v128zM960 128h-192v-128h160c15.709 0 28.775 11.32 31.484 26.248l0.516 5.752v96zM256 320h-192v-128h192v128zM704 320h-384v-128h384v128zM960 320h-192v-128h192v128zM256 512h-192v-128h192v128zM704 512h-384v-128h384v128zM960 512h-192v-128h192v128zM928 768h-832c-15.709 0-28.775-11.32-31.484-26.248l-0.516-5.752v-160h896v160c0 15.709-11.32 28.775-26.248 31.484l-5.752 0.516zM320 704v-64h-64v64h64zM768 704v-64h-64v64h64zM768 896h-64v-64h64v64zM320 896h-64v-64h64v64z" />
<glyph unicode="&#xe92f;" glyph-name="cmdCancel24" d="M874.24 810.283c-199.637 199.723-524.544 199.595-724.224-0.171-96.725-96.725-150.016-225.323-150.016-362.112s53.248-265.429 150.016-362.155c99.84-99.925 230.955-149.845 362.155-149.845 131.115 0 262.229 49.92 362.027 149.76 199.723 199.765 199.723 524.757 0.043 724.523zM42.667 447.957c0 125.397 48.853 243.285 137.515 331.989 91.563 91.605 211.84 137.387 332.075 137.387 113.451 0 226.645-41.344 315.989-122.923l-662.485-662.485c-79.232 86.656-123.093 197.888-123.093 316.032zM844.032 115.925c-177.963-177.963-464.128-182.357-648.107-14.165l662.485 662.485c168.021-184.064 163.584-470.272-14.379-648.32z" />
<glyph unicode="&#xe930;" glyph-name="cmdCancelCheckout24" d="M548.864 431.616c102.4 102.4 274.432 102.4 376.832 0s102.4-274.432 0-376.832c-53.248-53.248-118.784-77.824-188.416-77.824s-135.168 24.576-188.416 77.824c-102.4 102.4-102.4 274.432 0 376.832zM909.312 386.56l-315.392-315.392c90.112-73.728 221.184-69.632 303.104 12.288 79.438 79.438 85.696 205.093 18.776 294.802l-6.488 8.302zM880.64 415.232c-90.112 73.728-221.184 69.632-303.104-12.288-79.438-79.438-85.696-205.093-18.776-294.802l6.488-8.302 315.392 315.392zM184.32 673.28v-40.96h-122.88v-491.52h368.64v-40.96h-409.6v573.44h163.84zM311.296 955.904c7.022 3.511 20.062 4.012 28.803 1.505l3.965-1.505 184.32-184.32-32.768-28.672-147.456 147.456v-503.808h-40.96v503.808l-151.552-147.456-28.672 28.672 184.32 184.32zM634.88 673.28v-122.88h-40.96v81.92h-122.88v40.96h163.84z" />
<glyph unicode="&#xe931;" glyph-name="cmdCaution24" d="M512 892.463c7.75 0 14.986-3.878 19.278-10.332l489.739-845.913c3.999-6.89 4.012-15.392 0.032-22.294s-11.344-11.151-19.31-11.142h-979.478c-7.967-0.009-15.331 4.24-19.31 11.142s-3.967 15.404 0.032 22.294l489.739 845.913c4.292 6.454 11.528 10.332 19.278 10.332zM512 826.435l-451.139-779.13h902.278l-451.139 779.13zM512 225.391c24.589 0 44.522-19.933 44.522-44.522s-19.933-44.522-44.522-44.522c-24.589 0-44.522 19.933-44.522 44.522s19.933 44.522 44.522 44.522zM534.261 537.043v-222.609h-44.522v222.609h44.522z" />
<glyph unicode="&#xe932;" glyph-name="cmdChangeCurrency24" d="M316.575 959.935l11.105 0.065c18.506 0 37.038-0.545 55.351-1.629l21.854-1.56c14.478-1.212 28.754-2.768 42.7-4.664l20.658-3.101c101.904-16.778 181.813-52.663 186.863-106.485l0.253-5.442v-39.69c63.652-26.157 80.429-57.016 81.822-79.966l0.098-3.223v-122.88c-0.31-13.492-4.938-26.466-13.111-37.058l-4.378-5.089c117.811-9.553 217.582-90.227 251.55-203.269s-4.811-235.348-97.707-308.166c-92.896-72.818-220.924-81.267-322.583-21.287s-156.173 176.13-137.354 292.655c-28.262-2.703-56.893-4.506-86.016-4.506-18.506 0-37.038 0.545-55.351 1.629l-21.854 1.56c-14.478 1.212-28.754 2.768-42.7 4.664l-20.658 3.101c-101.904 16.778-181.813 52.663-186.863 106.485l-0.253 5.442v122.88c0 22.774 14.582 54.518 77.824 81.592-44.564 18.967-74.18 44.428-77.51 76.214l-0.314 6.034v122.88c0 56.851 81.816 94.589 187.116 111.927l20.658 3.101c13.947 1.897 28.222 3.452 42.7 4.664l21.854 1.56c14.65 0.867 29.44 1.389 44.246 1.564zM696.32 509.44c-135.73 0-245.76-110.030-245.76-245.76s110.030-245.76 245.76-245.76c135.664 0.158 245.602 110.096 245.76 245.76 0 135.73-110.030 245.76-245.76 245.76zM615.301 293.54l28.959-29-41.902-41.82h134.922v-40.96h-134.799l41.82-41.861-29-28.959-76.8 76.923c-3.852 3.842-6.017 9.059-6.017 14.5 0 4.352 1.385 8.562 3.912 12.039l2.105 2.461 76.8 76.677zM818.34 416.42l76.8-76.923c3.811-3.842 5.976-9.059 5.976-14.5 0-4.352-1.385-8.562-3.912-12.039l-2.105-2.461-76.8-76.677-28.959 29 41.902 41.82h-134.922v40.96h134.799l-41.779 41.861 29 28.959zM40.96 487.649v-60.129c0-15.407 23.794-34.043 66.625-49.645l14.976-5.080c49.615-15.675 119.852-27.196 205.119-27.196 31.974 0.070 63.919 1.944 95.683 5.612 10.354 32 26.272 61.923 47.022 88.392-47.141-8.058-94.88-12.101-142.705-12.083-108.448 0-217.795 18.738-278.717 55.066l-8.003 5.063zM82.207 589.066c-29.737-14.705-41.247-29.327-41.247-38.666 0-15.407 23.794-34.043 66.625-49.645l14.976-5.080c49.615-15.675 119.852-27.196 205.119-27.196 12.698 0 25.068 0.655 37.478 1.188-145.49 6.881-280.044 47.555-282.952 119.398zM696.32 651.653c-58.941-39.813-173.22-60.293-286.72-60.293-13.844 0-27.361 0.41-40.755 1.024-13.681-0.614-27.402-1.024-41.165-1.024-61.401-0.627-122.635 5.974-182.442 19.649l-22.358 5.459v-25.108c0-15.407 23.794-34.043 66.625-49.645l14.976-5.080c49.615-15.675 119.852-27.196 205.119-27.196 53.113-0.486 106.106 4.666 158.091 15.355l22.215 4.92c14.124 5.692 28.767 10.226 43.704 13.558 43.601 16.615 60.679 34.21 62.537 45.955l0.173 2.132v60.293zM614.4 774.533c-58.941-39.813-173.22-60.293-286.72-60.293-108.565 0-217.843 18.738-278.723 55.21l-7.997 5.083v-60.293c0-15.407 23.794-34.043 66.625-49.645l14.976-5.080c49.615-15.675 119.852-27.196 205.119-27.196s155.505 11.52 205.119 27.196l14.976 5.080c40.452 14.735 63.923 32.176 66.406 47.048l0.219 2.597v60.293zM655.36 752.742v-38.502c-0.745-18.949-9.444-36.705-23.962-48.906 41.615 15.442 64.922 33.71 64.922 48.906 0 8.583-9.772 21.633-34.471 35.123l-6.489 3.379zM327.68 919.040c-85.267 0-155.505-11.52-205.119-27.196l-14.976-5.080c-42.831-15.602-66.625-34.237-66.625-49.645s23.794-34.043 66.625-49.645l14.976-5.080c49.615-15.675 119.852-27.196 205.119-27.196s155.505 11.52 205.119 27.196l14.976 5.080c42.831 15.602 66.625 34.237 66.625 49.645s-23.794 34.043-66.625 49.645l-14.976 5.080c-49.615 15.675-119.852 27.196-205.119 27.196z" />
<glyph unicode="&#xe933;" glyph-name="cmdChangeOwner24" d="M725.333 533.333c166.4 0 298.667-132.267 298.667-298.667s-132.267-298.667-298.667-298.667c-166.4 0-298.667 132.267-298.667 298.667 0 93.867 42.667 179.2 110.933 230.4-8.533 8.533-21.333 17.067-29.867 21.333-110.933-72.533-256-72.533-366.933 0-56.747-32.427-94.24-87.957-97.847-144.643l-0.286-8.957v-311.467h-42.667v311.467c0 81.067 51.2 157.867 132.267 196.267 8.533 4.267 17.067 4.267 21.333 0 102.4-72.533 238.933-72.533 341.333 0 3.657 3.657 10.449 4.18 17.689 1.567l3.645-1.567c21.333-8.533 42.667-21.333 59.733-38.4 42.667 25.6 93.867 42.667 149.333 42.667zM725.333 490.667c-140.8 0-256-115.2-256-256s115.2-256 256-256c140.8 0 256 115.2 256 256s-115.2 256-256 256zM170.667 234.667v-213.333h-42.667v213.333h42.667zM640 264.533l29.867-29.867-42.667-42.667h140.8v-51.2h-140.8l42.667-42.667-29.867-29.867-81.067 81.067-0.667 3.867-2.933 9.333c-0.4 1.467-0.667 2.8-0.667 3.867 0 7.111 0 11.259 2.469 14.914l1.798 2.153 81.067 81.067zM853.333 392.533l81.067-76.8c0-1.422 0.474-3.319 1.106-5.215l2.844-6.933c0.198-0.415 0.316-0.652 0.316-0.652l-0.158-7.269c-0.237-3.081-0.83-5.452-2.311-7.644l-1.798-2.153-81.067-81.067-29.867 29.867 42.667 42.667h-140.8v42.667h140.8l-42.667 42.667 29.867 29.867zM320 960c106.667 0 192-85.333 192-187.733 0-110.933-85.333-238.933-192-238.933s-192 128-192 238.933c0 102.4 85.333 187.733 192 187.733zM320 917.333c-81.067 0-149.333-64-149.333-145.067 0-85.333 68.267-196.267 149.333-196.267s149.333 110.933 149.333 196.267c0 81.067-68.267 145.067-149.333 145.067z" />
<glyph unicode="&#xe934;" glyph-name="cmdChangePassword24" d="M913.723 881.231l51.2-51.2c27.569-27.569 27.569-70.892 0-94.523l-70.892-70.892h-106.338v-118.154h-118.154v-106.338l-66.954-66.954c27.569-55.138 31.508-118.154 19.692-181.169-23.631-118.154-118.154-208.738-232.369-232.369-19.692-3.938-35.446-3.938-55.138-3.938-78.769 0-153.6 31.508-208.738 86.646-70.892 70.892-98.462 165.415-82.708 263.877 23.631 118.154 114.215 212.677 232.369 236.308 63.015 11.815 126.031 3.938 181.169-23.631l362.338 362.338c27.569 27.569 70.892 27.569 94.523 0zM846.769 853.662l-382.031-382.031-11.815 7.877c-35.446 19.692-78.769 27.569-118.154 27.569-15.754 0-35.446 0-51.2-3.938-102.4-19.692-181.169-102.4-200.862-200.862-15.754-86.646 11.815-169.354 70.892-228.431s145.723-86.646 228.431-70.892c102.4 19.692 181.169 98.462 200.862 200.862 11.815 59.077 3.938 118.154-23.631 169.354l-7.877 11.815 74.831 74.831v126.031h118.154v118.154h129.969l59.077 59.077c7.877 3.938 11.815 11.815 11.815 19.692s-3.938 15.754-7.877 19.692l-51.2 51.2c-11.815 11.815-27.569 11.815-39.385 0zM295.385 310.154c55.138 0 98.462-43.323 98.462-98.462s-43.323-98.462-98.462-98.462c-55.138 0-98.462 43.323-98.462 98.462s43.323 98.462 98.462 98.462zM295.385 270.769c-31.508 0-59.077-27.569-59.077-59.077s27.569-59.077 59.077-59.077c31.508 0 59.077 27.569 59.077 59.077s-27.569 59.077-59.077 59.077z" />
<glyph unicode="&#xe935;" glyph-name="cmdChangeTextCase24" d="M314.446 801.263l152.882-395.929h2.005v-5.163l80.384-208.171h26.283c12.8 0 21.333-8.533 21.333-21.333s-8.533-21.333-21.333-21.333h-106.667c-12.8 0-21.333 8.533-21.333 21.333s8.533 21.333 21.333 21.333h31.445l-64.171 170.667h-275.883l-64.171-170.667h31.445c12.8 0 21.333-8.533 21.333-21.333s-8.533-21.333-21.333-21.333h-106.667c-12.8 0-21.333 8.533-21.333 21.333s8.533 21.333 21.333 21.333h26.197l80.469 212.181v1.152h0.427l148.907 392.533c3.962 15.848 29.997 16.98 37.113 3.396zM957.271 629.477l6.996-6.543c38.4-34.133 55.467-85.333 55.467-149.333v-298.667c4.267-17.067-4.267-25.6-17.067-25.6s-21.333 8.533-21.333 21.333l0.050 31.77c-34.117-23.44-90.707-53.103-170.717-53.103-93.867 0-170.667 76.8-170.667 170.667 0 98.133 72.533 170.667 170.667 170.667 58.076 0 110.305-14.033 147.504-28.017l16.068-6.4c2.489-1.049 4.881-2.085 7.171-3.101l-0.077 16.185c0 47.787-11.15 88.14-36.92 114.122l-5.747 5.345c-25.6 25.6-59.733 34.133-106.667 29.867s-89.6-21.333-140.8-51.2c-8.533-4.267-21.333-4.267-29.867 8.533-4.267 8.533-4.267 21.333 8.533 29.867 55.467 38.4 106.667 55.467 157.867 59.733 51.769 3.982 96.104-6.903 129.537-36.123zM814.933 443.733c-72.533 0-128-55.467-128-128 0-68.267 59.733-128 128-128 74.342 0 125.69 30.659 151.476 50.884l7.29 5.992 5.573 5.011c0.785 0.737 1.497 1.422 2.137 2.048l-0.010 151.755-10.229 4.79c-1.929 0.868-3.967 1.767-6.109 2.688l-14.062 5.748c-33.004 12.806-81.938 27.084-136.065 27.084zM298.667 729.6l-121.899-324.267h243.797l-121.899 324.267z" />
<glyph unicode="&#xe936;" glyph-name="cmdChangeTextCase32" d="M300.8 790.4l236.224-598.4h22.976c9.6 0 16-6.4 16-16s-6.4-16-16-16h-105.6c-9.6 0-16 6.4-16 16s9.6 16 16 16h48.8l-75.52 192h-279.36l-75.52-192h48.8c9.6 0 16-6.4 16-16s-9.6-16-16-16h-105.6c-9.6 0-16 6.4-16 16s6.4 16 16 16h19.776l236.224 598.4c6.4 12.8 25.6 12.8 28.8 0zM969.6 633.6c35.2-35.2 54.4-89.6 54.4-153.6v-304c0-9.6-6.4-16-16-16s-16 6.4-16 16l0.034 45.877c-30.528-25.648-91.989-61.877-182.434-61.877-92.8 0-169.6 76.8-169.6 169.6 0 96 73.6 169.6 169.6 169.6 64.061 0 120.793-17.797 158.821-33.032l12.626-5.238 10.962-4.826-0.009 23.896c0 54.4-14.272 97.383-40.119 123.557l-4.681 4.443c-25.6 25.6-64 35.2-112 32s-92.8-19.2-147.2-54.4c-6.4-3.2-16-3.2-22.4 6.4-3.2 6.4-3.2 16 6.4 22.4 54.4 35.2 105.6 51.2 160 57.6 57.6 6.4 102.4-9.6 137.6-38.4zM806.4 467.2c-76.8 0-137.6-60.8-137.6-137.6s60.8-137.6 137.6-137.6c80.094 0 135.294 32.216 162.628 54.052l6.497 5.433 5.221 4.794 3.933 3.987 2.634 3.012c0.99 1.234 1.488 2.040 1.488 2.322l3.2-2.4 0.061 156.301-8.782 4.484-7.754 3.71-9.171 4.131-10.502 4.419-11.745 4.574c-34.956 13.055-83.833 26.381-137.707 26.381zM288 739.2l-127.104-323.2h254.208l-127.104 323.2z" />
<glyph unicode="&#xe937;" glyph-name="cmdCheckin24" d="M311.652 692.87v-44.522h-178.087v-667.826h756.87v667.826h-178.087v44.522h222.609v-756.87h-845.913v756.87h222.609zM534.261 960v-592.139l160.278 164.73 35.617-35.617-218.157-213.704-218.157 213.704 35.617 35.617 160.278-164.73v592.139h44.522z" />
<glyph unicode="&#xe938;" glyph-name="cmdCheckmark16" d="M384 44.8l-313.6 352 51.2 38.4 262.4-288 518.4 672 51.2-38.4z" />
<glyph unicode="&#xe939;" glyph-name="cmdCheckmark24" d="M376.491 69.248l-276.821 336.469 32.939 27.136 243.669-296.192 544.64 669.824 33.109-26.923-577.536-710.315z" />
<glyph unicode="&#xe93a;" glyph-name="cmdCheckout24" d="M320 661.333v-42.667h-170.667v-640h725.333v640h-170.667v42.667h213.333v-725.333h-810.667v725.333h213.333zM512 925.867l166.4-162.133-34.133-34.133-110.933 115.2v-567.467h-42.667v567.467l-110.933-115.2-34.133 34.133 166.4 162.133z" />
<glyph unicode="&#xe93b;" glyph-name="cmdChild24" d="M170.667 832v-768l682.667 384-682.667 384z" />
<glyph unicode="&#xe93c;" glyph-name="cmdChildExpanded24" d="M896 789.333h-768l384-682.667z" />
<glyph unicode="&#xe93d;" glyph-name="cmdClaimTask24" d="M897.024 660.992c16.384-4.096 32.768-16.384 40.96-32.768 32.768-57.344 49.152-126.976 49.152-196.608l-0.187-21.772c-1.544-83.964-13.904-173.198-81.733-248.564v-204.8h-45.056v212.992c0 4.096 0 8.192 4.096 12.288 59.837 63.577 71.87 147.642 73.51 224.135l0.218 21.625c0 61.44-16.384 122.88-45.056 176.128-2.56 5.12-6.72 7.040-9.48 7.76l-2.808 0.432c-8.192 0-12.288 0-20.48-4.096l-0.91-3.641-0.775-5.63c-0.337-4.383-0.135-9.844 1.686-15.305 16.384-32.768 24.576-69.632 24.576-102.4 0-110.592-81.92-241.664-200.704-262.144h-4.096c-53.248-8.192-110.592 8.192-159.744 40.96-40.96-24.576-69.632-65.536-69.632-106.496v-196.608h-40.96v192.512c0 61.44 40.96 118.784 102.4 151.552 8.192 4.096 16.384 4.096 20.48 0 40.96-28.672 94.208-45.056 143.36-36.864 102.4 16.384 172.032 126.976 172.032 221.184 0 28.672-8.192 57.344-20.48 86.016s-8.192 61.44 16.384 77.824c16.384 12.288 32.768 16.384 53.248 12.288zM573.44 79.36v-122.88h-40.96v122.88h40.96zM655.36 611.84c69.632 0 122.88-57.344 122.88-126.976 0-73.728-53.248-159.744-122.88-159.744s-122.88 86.016-122.88 159.744c0 69.632 53.248 126.976 122.88 126.976zM221.184 587.264l188.416-192.512v135.168h40.96v-204.8h-204.8v40.96h135.168l-192.512 192.512 32.768 28.672zM655.36 570.88c-45.056 0-81.92-40.96-81.92-86.016 0-53.248 40.96-118.784 81.92-118.784s81.92 65.536 81.92 118.784c0 45.056-36.864 86.016-81.92 86.016zM507.904 939.52l106.496-159.744v-126.976h-40.96v81.92h-163.84v-20.48c0-16.384-8.192-32.768-16.384-45.056-10.533-7.022-24.074-14.043-38.046-15.906l-7.010-0.478h-81.92c-30.84 0-58.053 25.398-61.147 55.705l-0.293 5.735v20.48h-163.84v-204.8h81.92v-40.96h-122.88v290.816l114.688 159.744h393.216zM487.424 898.56h-348.16l-90.112-122.88h196.608v-61.44c0-10.923 6.473-18.609 16.541-20.182l3.939-0.298h81.92l3.712 0.64 8.96 2.816c1.408 0.384 2.688 0.64 3.712 0.64 3.277 3.277 3.932 9.175 4.063 13.5l0.033 64.324h200.704l-81.92 122.88z" />
<glyph unicode="&#xe93e;" glyph-name="cmdClassification24" d="M222.609 114.087h445.217v133.565h311.652v-311.652h-311.652v133.565h-489.739v578.783h-133.565v311.652h311.652v-311.652h-133.565v-133.565h133.565v89.043h311.652v-311.652h-311.652v178.087h-133.565v-356.174zM712.348-19.478h222.609v222.609h-222.609v-222.609zM623.304 559.304h-222.609v-222.609h222.609v222.609zM311.652 915.478h-222.609v-222.609h222.609v222.609z" />
<glyph unicode="&#xe93f;" glyph-name="cmdClipboard16" d="M697.6 832c-12.8 64-51.2 64-89.6 64h-32c0 64-25.6 64-64 64h-64c-38.4 0-64 0-64-64h-32c-44.8 0-76.8 0-89.6-64h-198.4v-896h832v896h-198.4zM320 832c0 19.2 12.8 0 32 0h96v64h64v-64h96c19.2 0 32 19.2 32 0v-128h-320v128zM832 0h-704v768h128v-128h448v128h128v-768z" />
<glyph unicode="&#xe940;" glyph-name="cmdClipboard24" d="M533.333 960c46.933 0 85.333-38.4 85.333-85.333 21.333 0 42.667-8.533 59.733-25.6l3.2-3.867 6.4-9.333 3.2-3.867h183.467v-896h-725.333v896h183.467c12.8 25.6 42.667 42.667 72.533 42.667 0 44.8 34.988 81.825 78.989 85.098l6.344 0.235h42.667zM320 789.333h-128v-810.667h640v810.667h-128v-85.333h-384v85.333zM533.333 917.333h-42.667c-23.771 0-40.185-14.716-42.409-37.315l-0.258-5.352v-42.667h-42.667c-23.771 0-40.185-14.716-42.409-37.315l-0.258-5.352v-42.667h298.667v42.667c0 12.8-4.267 21.333-12.8 29.867-7.314 7.314-14.629 11.494-24.63 12.539l-5.237 0.261h-42.667v42.667c0 23.771-14.716 40.185-37.315 42.409l-5.352 0.258zM512 874.667c11.782 0 21.333-9.551 21.333-21.333s-9.551-21.333-21.333-21.333c-11.782 0-21.333 9.551-21.333 21.333s9.551 21.333 21.333 21.333z" />
<glyph unicode="&#xe941;" glyph-name="cmdClose16OLD" d="M1024 960v-1024h-1024v1024h1024zM950.857 886.857h-877.714v-877.714h877.714v877.714zM775.314 769.829l58.514-58.514-270.629-263.314 270.629-263.314-58.514-58.514-263.314 270.629-263.314-270.629-58.514 58.514 270.629 263.314-270.629 263.314 58.514 58.514 263.314-270.629 263.314 270.629z" />
<glyph unicode="&#xe942;" glyph-name="cmdClose24" d="M35.312 954.85l476.667-476.672 473.675 473.655 30.17-30.17-473.679-473.65 473.679-473.675-30.17-30.17-473.675 473.679-476.667-476.696-30.17 30.17 476.672 476.692-476.672 476.667z" />
<glyph unicode="&#xe943;" glyph-name="cmdClose24OLD" d="M1024 960v-1024h-1024v1024h1024zM972.8 908.8h-921.6v-921.6h921.6v921.6zM824.32 801.28l40.96-40.96-317.44-312.32 317.44-312.32-40.96-40.96-312.32 317.44-312.32-317.44-40.96 40.96 317.44 312.32-317.44 312.32 40.96 40.96 312.32-317.44 312.32 317.44z" />
<glyph unicode="&#xe944;" glyph-name="cmdClose32" d="M996.216 954.849l22.627-22.627-484.227-484.22 484.227-484.223-22.627-22.627-484.223 484.227-484.221-484.227-22.627 22.627 484.192 484.224-484.192 484.221 22.627 22.627 484.221-484.192z" />
<glyph unicode="&#xe945;" glyph-name="cmdCloseFile16" d="M268.8 704c22.4 0 39.9-9.8 52.5-25.112l5.1-6.888 57.6-96h448v-128h-64v64h-422.4l-70.4 128-207.496-0.030c-2.963-0.119-3.556-0.711-3.674-3.674l-0.030-533.896 134.4 262.4c0 11.2 9.8 17.5 20.825 18.9l4.775 0.3h768c12.8 0 19.2-6.4 25.6-12.8 5.486-10.971 6.269-21.943 2.351-28.884l-2.351-3.116-192-384c0-11.2-9.8-17.5-20.825-18.9l-4.775-0.3h-800v697.6c0 35.84 27.876 66.105 62.813 69.981l7.587 0.419h198.4zM940.8 320h-697.6l-160-320h697.6l160 320zM710.4 947.2l44.8-44.8-70.4-70.4h96c130.2 0 236.375-102.106 242.884-230.678l0.316-12.522v-76.8h-64v76.8c0 92.444-77.151 173.019-168.59 178.861l-10.61 0.339h-96l76.8-76.8-44.8-44.8-153.6 153.6 147.2 147.2z" />
<glyph unicode="&#xe946;" glyph-name="cmdCloseFile24" d="M264.533 704c18.963 0 34.555-6.742 46.775-20.227l4.425-5.373 59.733-102.4h477.867v-128h-42.667v85.333h-460.8l-68.267 123.733-4.8 2.133c-1.778 0.711-3.793 1.422-5.57 1.817l-2.43 0.316h-209.067c-7.467 0-14.933-6.533-16.683-13.883l-0.383-3.183v-576l128 324.267c3.657 7.314 10.449 11.494 17.689 12.539l3.645 0.261h810.667c5.689 0 9.481-1.896 12.642-4.425l4.425-4.109c3.413-6.827 4.096-10.923 4.233-16.657l0.034-4.676-170.667-426.667c-3.657-7.314-10.449-11.494-17.689-12.539l-3.645-0.261h-832v708.267c0 32.125 22.677 56.692 53.802 59.471l5.931 0.262h204.8zM968.533 362.667h-763.733l-153.6-384h768l149.333 384zM729.6 951.467l29.867-29.867-89.6-89.6h119.467c124.878 0 229.451-101.527 234.478-225.34l0.189-9.327v-64h-42.667v64c0 103.619-80.527 187.106-182.911 191.793l-9.089 0.207h-119.467l89.6-98.133-29.867-29.867-145.067 145.067 145.067 145.067z" />
<glyph unicode="&#xe947;" glyph-name="cmdClosePanel24" d="M911.104 816.896l-30.208 30.208-368.896-368.939-368.896 368.939-30.208-30.208 368.939-368.896-368.939-368.896 30.208-30.208 368.896 368.939 368.896-368.939 30.208 30.208-368.939 368.896z" />
<glyph unicode="&#xe948;" glyph-name="cmdCloudConsole32" d="M512 960c281.6 0 512-230.4 512-512s-230.4-512-512-512c-281.6 0-512 230.4-512 512s230.4 512 512 512zM512 928c-265.6 0-480-214.4-480-480s214.4-480 480-480c265.6 0 480 214.4 480 480s-214.4 480-480 480zM512 870.4c5.689 0 13.906-5.057 15.662-10.675l45.138-254.925 166.4 80c6.4 3.2 16 3.2 19.2-3.2 5.6-5.6 6.3-11.2 4.244-16.8l-1.044-2.4-80-166.4 252.8-44.8c6.4-3.2 12.8-9.6 12.8-16 0-5.689-5.057-13.906-10.675-15.662l-254.925-45.138 80-166.4c3.2-6.4 3.2-12.8-3.2-19.2l-2.9-0.5-7-2.2-2.9-0.5h-6.4l-166.4 80-44.8-252.8c-3.2-6.4-9.6-12.8-16-12.8-5.689 0-13.906 5.057-15.662 10.675l-45.138 254.925-166.4-80c-6.4-3.2-16 0-19.2 3.2-5.6 5.6-6.3 11.2-4.244 16.8l1.044 2.4 80 166.4-252.8 44.8c-6.4 3.2-12.8 9.6-12.8 16 0 5.689 5.057 13.906 10.675 15.662l2.125 0.338 252.8 44.8-80 166.4c0 6.4 0 12.8 3.2 19.2 5.12 2.56 10.24 3.072 15.36 3.174l3.84 0.026 166.4-80 44.8 252.8c3.2 6.4 9.6 12.8 16 12.8zM512 297.6l-32-16 32-176 32 176-32 16zM377.6 368l-64-131.2 131.2 64-9.6 57.6-57.6 9.6zM646.4 368l-57.6-9.6-9.6-57.6 131.2-64-64 131.2zM550.4 556.8l-32-16c-2.667-2.667-7.556-3.111-10.963-1.333l-1.837 1.333-32 16-9.6-60.8c0-5.6-4.9-11.2-10.412-12.512l-2.388-0.288-60.8-9.6 16-32c2.667-2.667 3.111-7.556 1.333-10.963l-1.333-1.837-16-32 60.8-9.6c5.6 0 11.2-4.9 12.512-10.412l0.288-2.388 9.6-60.8 32 16h12.8l32-16 9.6 60.8c0 5.6 4.9 11.2 10.412 12.512l2.388 0.288 60.8 9.6-16 32v12.8l16 32-60.8 9.6c-5.6 0-11.2 4.9-12.512 10.412l-0.288 2.388-9.6 60.8zM358.4 467.2l-176-32 176-32 16 32-16 32zM665.6 467.2l-16-32 16-32 176 32-176 32zM710.4 633.6l-131.2-64 9.6-57.6 57.6-9.6 64 131.2zM313.6 633.6l64-131.2 57.6 9.6 9.6 57.6-131.2 64zM512 764.8l-32-172.8 32-16 32 12.8-32 176z" />
<glyph unicode="&#xe949;" glyph-name="cmdCloudDrive24" d="M698.182 960c89.494 4.020 130.263-55.886 156.549-122.12l6.048-15.988 5.597-16.055 14.916-45.982 142.15-632.599-3.119-0.698c1.561-6.022 2.63-12.156 3.2-18.34l0.478-9.308v-46.545c0-61.695-48.013-112.176-108.713-116.116l-7.651-0.248h-791.273c-61.695 0-112.176 48.013-116.116 108.713l-0.248 7.651v46.545c0.067 6.221 0.638 12.42 1.705 18.539l1.972 9.109-3.119 0.698 145.455 642.932 9.014 27.584 5.003 14.205 5.439 14.202c27.514 68.451 74.1 132.741 194.879 133.926l12.761-0.105h325.073zM907.636 168.727h-791.273c-36.291 0-66.115-27.689-69.499-63.094l-0.32-6.724v-46.545c0-36.291 27.689-66.115 63.094-69.499l6.724-0.32h791.273c36.291 0 66.115 27.689 69.499 63.094l0.32 6.724v46.545c0 36.291-27.689 66.115-63.094 69.499l-6.724 0.32zM280.716 119.994c25.706 0 46.545-20.839 46.545-46.545s-20.839-46.545-46.545-46.545c-25.706 0-46.545 20.839-46.545 46.545s20.839 46.545 46.545 46.545zM142.569 121.437c25.706 0 46.545-20.839 46.545-46.545s-20.839-46.545-46.545-46.545c-25.706 0-46.545 20.839-46.545 46.545s20.839 46.545 46.545 46.545zM372.364 913.455c-102.682 3.044-139.343-42.684-163.73-104.563l-5.434-14.551c-0.878-2.468-1.743-4.956-2.6-7.463l-7.549-23.004-2.494-7.836-3.398-10.426-121.996-542.673c13.237 6.677 27.613 10.722 42.333 11.943l8.867 0.392h791.273c14.75-0.129 29.309-3.093 42.894-8.701l8.027-3.68-126.185 556.963-9.855 30.037c-1.086 3.181-2.172 6.309-3.26 9.383l-6.579 17.786c-23.282 59.922-50.027 95.111-105.37 96.437l-334.946-0.042zM380.742 739.375c53.676 18.16 112.97 6.052 155.229-31.697 61.843 5.752 119.629-31.44 140.009-90.112 32.217-0.601 63.118-12.892 86.947-34.583 30.436-27.278 47.876-66.184 47.993-107.055 0.399-73.66-55.836-134.709-128.311-141.191l-8.118-0.493h-340.061c-58.046 1.319-108.43 40.373-124.183 96.256-18.658 58.257 1.562 121.942 50.409 158.767 10.065 68.016 55.94 125.359 120.087 150.109zM431.476 706.653c-12.68-0.044-25.264-2.199-37.236-6.377-49.356-19.936-84.373-64.232-92.694-116.351l-1.189-9.275-1.303-8.89-7.354-5.12c-38.939-25.191-56.087-73.406-41.798-117.527 9.422-36.335 40.292-62.734 77.092-66.833l7.434-0.519h340.108c53.639 2.213 95.772 46.719 95.046 100.399-0.238 29.117-12.663 56.802-34.257 76.335-17.279 15.788-39.877 24.248-63.061 23.843l-8.712-0.57-17.548-1.955-4.655 17.036c-10.332 47.652-54.368 79.741-102.225 75.802l-7.203-0.864-9.914-1.396-7.215 6.889c-22.151 22.125-52.014 34.804-83.316 35.375z" />
<glyph unicode="&#xe94a;" glyph-name="cmdColumnFreeze24" d="M1376 960h-1216c-88.366 0-160-71.634-160-160v0-1024c0-88.366 71.634-160 160-160v0h1216c88.366 0 160 71.634 160 160v0 1024c0 88.366-71.634 160-160 160v0zM960 896v-256h-384v256zM80.512-277.696c-10.338 14.981-16.512 33.527-16.512 53.515 0 0.064 0 0.127 0 0.191v-0.010 160h367.808zM64 576h368.512l-368.512-225.664zM136.96 640l375.040 229.696v-229.696zM512 549.696v-229.696h-375.040zM64 256h368.512l-368.512-225.664zM512 229.696v-229.696h-375.040zM576 0v256h384v-256zM960-64v-256h-384v256zM576 320v256h384v-256zM160 896h272.512l-368.512-225.664v129.664c0 53.019 42.981 96 96 96v0zM138.496-317.376l373.504 227.264v-229.888h-352c-7.657 0.057-15.064 1.011-22.157 2.76l0.653-0.136zM1472-224c0-53.019-42.981-96-96-96v0h-352v256h448zM1472 0h-448v256h448zM1472 320h-448v256h448zM1472 640h-448v256h352c53.019 0 96-42.981 96-96v0z" />
<glyph unicode="&#xe94b;" glyph-name="cmdColumnUnfreeze24" d="M704 604.444c176.653-0.188 319.812-143.347 320-320 0-176.731-143.269-320-320-320s-320 143.269-320 320c0 176.731 143.269 320 320 320zM704 561.778c-153.167 0-277.333-124.166-277.333-277.333s124.166-277.333 277.333-277.333c153.089 0.188 277.145 124.244 277.333 277.333 0 153.167-124.166 277.333-277.333 277.333zM917.333 945.778c28.29 0 55.421-11.238 75.425-31.242 18.465-18.465 29.461-43.003 31.044-68.92l0.198-6.505v-342.656h-42.667v193.323h-298.667v-43.989h-42.667v43.989h-256v-296.875h-42.667v66.005l-250.027-153.131h250.027v-41.131l8.533-13.867-257.536-156.587c3.131-0.751 6.312-1.263 9.516-1.531l4.82-0.219h234.667v71.125h42.667v-112.896h-21.333v-0.896h-256c-57.010 0-103.574 44.725-106.519 101.002l-0.148 5.665v682.667c0 57.010 44.725 103.574 101.002 106.519l5.665 0.148h810.667zM838.229 448.882l30.208-30.208-134.272-134.229 134.272-134.229-30.208-30.208-134.229 134.272-134.229-134.272-30.208 30.208 134.272 134.229-134.272 134.229 30.208 30.208 134.229-134.272 134.229 134.272zM287.872 263.111h-245.206v-106.667c-0.021-10.945 2.796-21.677 8.132-31.163l2.877-4.635 234.197 142.464zM288.341 476.444h-245.675v-150.443l245.675 150.443zM341.333 672.242l-250.027-153.131h250.027v153.131zM288.341 689.778h-245.675v-150.443l245.675 150.443zM341.333 885.575l-250.027-153.131h250.027v153.131zM640 903.111h-256v-170.667h256v170.667zM917.333 903.111h-234.667v-170.667h298.667v106.667c0 33.873-26.316 61.601-59.618 63.852l-4.382 0.148zM288.341 903.111h-181.675c-33.873 0-61.601-26.316-63.852-59.618l-0.148-4.382v-86.443l245.675 150.443z" />
<glyph unicode="&#xe94c;" glyph-name="cmdCompareView24" d="M490.667 938.667v-981.333h-469.333v981.333h469.333zM1002.667 938.667v-981.333h-469.333v981.333h469.333zM960 896h-384v-904.533h388.267v426.667h-268.8l89.6-89.6c8.533-8.533 8.533-21.333 0-29.867-2.844-2.844-5.689-3.793-9.798-4.109l-7.269-0.158-7.269 0.158c-3.081 0.237-5.452 0.83-7.644 2.311l-2.153 1.798-128 128-0.444 2.594-2.321 6.007c-0.819 2.321-1.502 5.052-1.502 8.465 0 7.111 0 11.259 2.469 14.914l1.798 2.153 128 128c8.533 8.533 21.333 8.533 29.867 0 7.585-7.585 8.428-18.542 2.528-26.876l-2.528-2.991-89.6-89.6h268.8v426.667zM448 900.267h-384v-426.667h273.067l-89.6 89.6c-8.533 8.533-8.533 21.333 0 29.867 7.585 7.585 18.542 8.428 26.876 2.528l2.991-2.528 128-128c7.585-7.585 8.428-18.542 2.528-26.876l-2.528-2.991-128-128c-3.556-3.556-7.111-4.148-13.136-4.247h-7.862c-6.025 0.099-9.58 0.691-13.136 4.247-7.585 7.585-8.428 18.542-2.528 26.876l2.528 2.991 89.6 89.6h-268.8v-426.667h384v900.267z" />
<glyph unicode="&#xe94d;" glyph-name="cmdConfiguration24" d="M836.267 661.333c17.067-4.267 29.867-17.067 29.867-38.4 7.68-11.52 4.992-26.496-4.954-38.707l-3.58-3.959-68.267-68.267-12.8-55.467 42.667-42.667 55.467 12.8 68.267 68.267c8.533 8.533 17.067 12.8 29.867 12.8l3.2-0.667 6.4-2.933c1.067-0.4 2.133-0.667 3.2-0.667 17.067-4.267 25.6-17.067 29.867-34.133 12.8-68.267-12.8-136.533-59.733-183.467-34.133-29.867-81.067-46.933-140.8-46.933l-17.225 0.158c-8.77 0.237-17.896 0.83-27.911 2.311l-10.331 1.798-234.667-268.8-6.573-6.133c-24.716-21.511-56.005-32.267-87.294-32.267-34.133 0-68.267 12.8-93.867 38.4s-38.4 59.733-38.4 93.867c0 35.2 10.756 63.23 32.267 90.662l6.133 7.472h4.267l268.8 234.667-2.093 14.18c-6.731 52.345-5.884 131.443 44.759 182.087 39.822 39.822 87.078 61.061 141.767 63.716l11.833 0.284h29.867zM832 618.667h-25.6c-46.933 0-89.6-17.067-123.733-51.2-34.816-34.816-38.065-89.361-35.238-130.096l1.209-13.749 1.464-12.274 2.699-18.814c0-3.413 0-6.827-2.185-10.24l-2.082-2.56-281.6-247.467c-17.067-17.067-25.6-38.4-25.6-64 0-21.333 8.533-46.933 17.067-59.733 17.067-17.067 38.4-25.6 64-25.6 22.756 0 42.14 6.742 58.153 20.227l5.847 5.373 247.467 281.6c3.413 3.413 6.827 4.096 10.24 4.233l6.827 0.034c21.333-4.267 42.667-8.533 64-8.533 51.2 0 85.333 12.8 110.933 38.4 40 40 57.5 87.5 52.5 138.984l-1.3 10.349-72.533-72.533c-3.413-3.413-4.096-4.096-6.417-4.233l-2.116-0.034-76.8-17.067h-4.233c-1.165 0.095-3.674 0.493-6.451 2.469l-2.117 1.798-64 64c-3.413 3.413-4.096 6.827-4.233 10.24l-0.034 2.56 17.067 76.8c0 2.56 1.536 5.12 2.765 6.758l1.502 1.775 72.533 72.533zM434.492 103.8c9.042 2.8 22.575 2.333 26.308-1.4 7.585-7.585 8.428-18.542 2.528-26.876l-2.528-2.991-2.991-2.528c-8.334-5.9-19.291-5.057-26.876 2.528s-8.428 18.542-2.528 26.876l2.528 2.991 3.558 1.4zM213.333 960v-213.333h-85.333v-170.667h85.333v85.333h213.333v-213.333h-213.333v85.333h-85.333v-256h85.333v85.333h213.333v-85.333h-42.667v42.667h-128v-128h42.667v-42.667h-85.333v85.333h-128v512h-85.333v213.333h213.333zM384 618.667h-128v-128h128v128zM170.667 917.333h-128v-128h128v128z" />
<glyph unicode="&#xe94e;" glyph-name="cmdConfigureBasedOnSelection24" d="M746.667 490.667c153.167 0 277.333-124.166 277.333-277.333-0.188-153.089-124.244-277.145-277.333-277.333-153.167 0-277.333 124.166-277.333 277.333s124.166 277.333 277.333 277.333zM725.973 960.003c13.799 0.039 27.585-0.873 41.259-2.733 16.077-2.206 29.51-13.34 34.661-28.728 4.578-13.678 1.907-28.613-6.827-39.797l-3.557-4.008-103.339-103.339-20.096-96.896 80.341-80.341 96.896 20.053 103.211 103.424c11.439 11.51 28.417 15.534 43.805 10.384s26.523-18.584 28.728-34.661c10.967-80.374-11.074-161.764-61.099-225.621-11.17 8.885-22.883 17.064-35.072 24.491 41.529 51.619 61.246 117.229 55.304 182.891l-1.416 12.309-107.904-107.904c-1.957-1.946-4.263-3.483-6.784-4.542l-3.926-1.218-114.517-23.723c-1.402-0.303-2.832-0.46-4.267-0.469-4.494 0.019-8.837 1.455-12.431 4.060l-2.545 2.169-96.683 96.683c-4.029 4.057-6.219 9.512-6.197 15.116l0.437 4.212 23.723 114.517c0.568 2.705 1.654 5.261 3.184 7.532l2.619 3.177 107.861 108.032c-79.371 11.031-159.319-15.824-215.936-72.533-47.401-47.429-55.128-122.953-52.352-181.715l1.119-17.081 1.574-15.806c0.291-2.513 0.593-4.962 0.903-7.341l1.928-13.389 1.946-11.442 1.789-9.225c1.266-6.242-0.331-12.651-4.222-17.534l-2.605-2.733-414.976-361.472c-24.411-24.785-38.017-58.226-37.845-93.013-0.045-54.007 32.565-102.682 82.528-123.185 47.188-19.365 101.009-9.972 138.776 23.54l6.493 6.163 136.832 157.099c1.527-13.445 3.858-26.782 6.982-39.94l3.386-13.095-115.936-133.056-1.013-1.045c-32.902-33.259-77.704-52.030-124.487-52.16-46.783-0.127-91.688 18.399-124.771 51.477-65.775 66.004-68.43 171.273-7.626 240.443l7.594 8.069 406.731 354.368-2.335 14.1c-0.38 2.492-0.753 5.053-1.116 7.676l-2.024 16.467-1.612 17.768c-5.178 70.32 2.351 164.438 64.175 226.229 55.76 56.084 131.645 87.52 210.731 87.299zM746.667 448c-129.603 0-234.667-105.064-234.667-234.667s105.064-234.667 234.667-234.667c129.603 0 234.667 105.064 234.667 234.667-0.141 129.544-105.122 234.526-234.667 234.667zM140.459 136.789c10.777 10.785 26.489 15.001 41.217 11.060s26.235-15.44 30.187-30.165c3.457-12.885 0.67-26.527-7.3-36.961l-3.73-4.264-4.022-3.551c-16.747-13.022-40.962-11.838-56.352 3.551s-16.573 39.605-3.551 56.352l3.551 3.979zM710.229 335.104l30.208-30.208-70.272-70.229h225.835v-42.667h-225.835l70.272-70.229-30.208-30.208-121.728 121.771 121.728 121.771z" />
<glyph unicode="&#xe94f;" glyph-name="cmdConnect24" d="M298.667 917.333v-426.667h42.667v-42.667h-42.667v-469.333h-298.667v938.667h298.667zM1024 917.333v-938.667h-298.667v469.333h-42.667v42.667h42.667v426.667h298.667zM256 874.667h-213.333v-853.333h213.333v426.667h-46.592c-8.789-24.789-32.256-42.667-60.075-42.667-35.328 0-64 28.672-64 64s28.672 64 64 64c25.679 0 47.613-15.233 57.782-37.074l2.293-5.593h46.592v384zM981.333 874.667h-213.333v-853.333h213.333v853.333zM484.437 633.685l149.333-149.333c8.32-8.32 8.32-21.845 0-30.165l-149.333-149.291-30.165 30.165 134.229 134.229-134.229 134.229 30.165 30.165zM874.667 533.333c35.346 0 64-28.654 64-64s-28.654-64-64-64c-35.346 0-64 28.654-64 64s28.654 64 64 64zM469.333 490.667v-42.667h-85.333v42.667h85.333zM554.667 490.667v-42.667h-42.667v42.667h42.667z" />
<glyph unicode="&#xe950;" glyph-name="cmdConnection24" d="M1001.739 960v-445.217h-178.087v-89.043h-578.783v-44.522h222.609v-445.217h-445.217v445.217h178.087v89.043h578.783v44.522h-222.609v445.217h445.217zM422.957 336.696h-356.174v-356.174h356.174v356.174zM957.217 915.478h-356.174v-356.174h356.174v356.174z" />
<glyph unicode="&#xe951;" glyph-name="cmdContextHelp16" d="M1024 209.067v-273.067h-273.067v68.267h204.8v204.8h68.267zM68.267 209.067v-204.8h204.8v-68.267h-273.067v273.067h68.267zM512 72.533c18.851 0 34.133-15.282 34.133-34.133s-15.282-34.133-34.133-34.133c-18.851 0-34.133 15.282-34.133 34.133s15.282 34.133 34.133 34.133zM539.226 818.92l13.734-2.28c91.418-13.060 170.344-88.579 188.983-178.762l2.164-12.384c20.48-109.227-34.133-211.627-136.533-259.413-40.96-20.48-68.267-61.44-68.267-102.4v-20.48c6.827-20.48-6.827-34.133-27.307-34.133s-34.133 13.653-34.133 34.133v20.48c0 68.267 40.96 136.533 102.4 163.84 64.674 32.337 104.839 101.436 97.279 172.469l-1.706 11.851c-6.827 75.093-61.44 129.707-129.707 143.36-54.613 6.827-102.4-6.827-143.36-40.96s-61.44-81.92-61.44-129.707c0-20.48-13.653-34.133-34.133-34.133s-34.133 13.653-34.133 34.133c0 68.267 34.133 136.533 88.747 184.32 44.601 38.229 112.989 58.618 177.412 50.066zM273.067 960v-68.267h-204.8v-204.8h-68.267v273.067h273.067zM1024 960v-273.067h-68.267v204.8h-204.8v68.267h273.067z" />
<glyph unicode="&#xe952;" glyph-name="cmdContextHelp24" d="M1024 203.13v-267.13h-267.13v44.522h222.609v222.609h44.522zM44.522 203.13v-222.609h222.609v-44.522h-267.13v267.13h44.522zM512 69.565c12.294 0 22.261-9.967 22.261-22.261s-9.967-22.261-22.261-22.261c-12.294 0-22.261 9.967-22.261 22.261s9.967 22.261 22.261 22.261zM556.522 866.504c97.948-17.809 178.087-97.948 195.896-195.896 17.234-107.714-32.245-211.258-128.261-262.212l-9.756-4.918c-48.974-22.261-80.139-71.235-80.139-124.661v-97.948c0-13.357-8.904-22.261-22.261-22.261s-22.261 8.904-22.261 22.261v97.948c0 68.138 36.661 132.202 98.294 164.918l8.558 4.264c84.591 40.070 129.113 124.661 111.304 218.157-13.357 80.139-80.139 146.922-160.278 160.278-57.878 8.904-120.209-4.452-164.73-44.522s-71.235-97.948-71.235-155.826c0-13.357-8.904-22.261-22.261-22.261s-22.261 8.904-22.261 22.261c0 71.235 31.165 142.47 89.043 186.991s129.113 66.783 200.348 53.426zM267.13 960v-44.522h-222.609v-222.609h-44.522v267.13h267.13zM1024 960v-267.13h-44.522v222.609h-222.609v44.522h267.13z" />
<glyph unicode="&#xe953;" glyph-name="cmdConvertToParent24" d="M426.667 320v-42.667h-170.667v-298.667h597.333v298.667h-213.333v42.667h256v-384h-768v384h298.667zM213.333 277.333h-42.667v-298.667h42.667v298.667zM533.333 840.533l187.733-183.467-34.133-34.133-132.267 136.533v-652.8h-42.667v652.8l-132.267-136.533-34.133 34.133 187.733 183.467zM1024 960v-512h-384v42.667h341.333v426.667h-853.333v-426.667h298.667v-42.667h-426.667v512h1024zM85.333 917.333h-42.667v-426.667h42.667v426.667z" />
<glyph unicode="&#xe954;" glyph-name="cmdCopy16" d="M748.8 768l275.2-275.2v-556.8h-704v832h428.8zM704 704h-320v-704h576v448h-256v256zM704 960v-128h-64v64h-576v-704h192v-64h-256v832h704zM768 659.2v-147.2h147.2l-147.2 147.2z" />
<glyph unicode="&#xe955;" glyph-name="cmdCopy24" d="M755.2 789.333l268.8-268.8v-584.533h-682.667v853.333h413.867zM725.333 746.667h-341.333v-768h597.333v512h-256v256zM682.667 960v-128h-42.667v85.333h-597.333v-768h256v-42.667h-298.667v853.333h682.667zM768 716.8v-183.467h183.467l-183.467 183.467z" />
<glyph unicode="&#xe956;" glyph-name="cmdCreateBlock24" d="M409.6 939.52v-88.433l245.76-141.435v-138.772h122.88v-40.96h-122.88v-48.415c20.119 4.875 40.739 7.377 61.44 7.455 114.153 0.119 215.679-72.548 252.381-180.641s0.411-227.554-90.215-296.965c-90.626-69.412-215.416-73.326-310.214-9.73-91.835 61.609-135.722 173.29-111.232 280.381l2.584 10.347-50.504-29.041v-142.991h-40.96v142.95l-245.76 141.353v125.297h-122.88v40.96h122.88v138.772l245.76 141.23v88.637h40.96zM803.011 430.852c-84.181 34.869-181.078 15.595-245.508-48.835s-83.704-161.327-48.835-245.508c34.869-84.181 117.014-139.069 208.132-139.069 124.372 0.113 225.167 100.908 225.28 225.28 0 91.117-54.888 173.263-139.069 208.132zM737.28 366.080v-122.88h122.88v-40.96h-122.88v-122.88h-40.96v122.88h-122.88v40.96h122.88v122.88h40.96zM163.84 662.385v-234.045l204.8-117.801v234.086l-204.8 117.76zM614.4 662.426l-204.8-117.801v-234.086l76.063 43.827c27.241 47.756 68.475 85.881 118 109.319l10.737 4.796v193.946zM389.12 815.616l-204.8-117.76 204.8-117.76 204.8 117.76-204.8 117.76z" />
<glyph unicode="&#xe957;" glyph-name="cmdCreateChange24" d="M430.080 886.272l36.864 20.48 241.664-417.792h8.192c147.456 0 266.24-118.784 266.24-266.24s-118.784-266.24-266.24-266.24c-106.906 0-198.501 65.067-241.488 154.503l-4.272 9.337h-450.56c-8.192 0-12.288 4.096-16.384 8.192-3.413 6.827-3.982 10.809-1.707 16.687l1.707 3.793 266.24 471.040 32.768-16.384-245.76-446.464h401.408c-4.096 20.48-8.192 40.96-8.192 61.44 0 127.53 85.307 231.794 203.102 259.973l9.89 2.171-233.472 405.504zM716.8 448c-122.88 0-225.28-102.4-225.28-225.28s102.4-225.28 225.28-225.28c122.88 0 225.28 102.4 225.28 225.28s-102.4 225.28-225.28 225.28zM737.28 366.080v-122.88h122.88v-40.96h-122.88v-122.88h-40.96v122.88h-122.88v40.96h122.88v122.88h40.96z" />
<glyph unicode="&#xe958;" glyph-name="cmdCreateChangeProposal24" d="M746.667 490.667c153.167 0 277.333-124.166 277.333-277.333-0.188-153.089-124.244-277.145-277.333-277.333-153.167 0-277.333 124.166-277.333 277.333s124.166 277.333 277.333 277.333zM746.667 448c-129.603 0-234.667-105.064-234.667-234.667s105.064-234.667 234.667-234.667c129.603 0 234.667 105.064 234.667 234.667-0.141 129.544-105.122 234.526-234.667 234.667zM768 362.667v-128h128v-42.667h-128v-128h-42.667v128h-128v42.667h128v128h42.667zM402.56 949.205l195.285-344.107 198.613 178.773c7.378 6.642 18.176 7.213 26.135 1.879l3.219-2.647 128-128c7.080-7.070 8.182-17.924 3.165-26.17l-2.525-3.356-112.384-122.539-31.403 28.885 98.56 107.435-99.243 99.243-394.923-355.456 48.128-47.872-30.123-30.208-37.376 37.205-30.549-122.155 33.664-32.427c4.172-4.021 6.528-9.566 6.528-15.36 0.006-4.925-1.408-9.72-4.035-13.826l-2.194-2.942-42.667-42.667c-4.009-3.998-9.442-6.239-15.104-6.229l-3.355 0.332-3.259 0.863-64 21.333c-7.013 2.342-12.313 8.148-14.008 15.345-1.412 5.997-0.153 12.248 3.333 17.189l2.355 2.795 59.733 59.733 13.312 53.077h-314.112c-7.548 0.058-14.504 4.101-18.291 10.631-3.156 5.442-3.719 11.936-1.678 17.757l1.537 3.398 224.512 397.227 37.12-20.992-206.635-365.355h288.213l17.28 69.205c0.684 2.742 1.903 5.306 3.571 7.553l2.829 3.114 195.584 176.128-199.936 352.171 37.12 21.035zM341.675 183.467l-24.832-24.832 18.688-6.229 18.944 18.816-12.8 12.245z" />
<glyph unicode="&#xe959;" glyph-name="cmdCreateGroup24" d="M746.624 490.667c152.917 0 277.376-124.459 277.376-277.376 0-152.875-124.459-277.291-277.376-277.291-152.875 0-277.291 124.416-277.291 277.291 0 152.917 124.416 277.376 277.291 277.376zM746.624 448c-129.365 0-234.624-105.301-234.624-234.709 0-129.365 105.259-234.624 234.624-234.624 129.408 0 234.709 105.259 234.709 234.624 0 129.408-105.301 234.709-234.709 234.709zM768 362.667v-128h128v-42.667h-128v-128h-42.667v128h-128v42.667h128v128h42.667zM42.667 277.333v-42.667h42.667v-42.667h-85.333v85.333h42.667zM256 234.667v-42.667h-85.333v42.667h85.333zM426.667 234.667v-42.667h-85.333v42.667h85.333zM512 533.333v-85.333h-42.667v42.667h-341.333v-170.667h298.667v-42.667h-341.333v256h426.667zM42.667 448v-85.333h-42.667v85.333h42.667zM597.333 618.667v-85.333h-42.667v85.333h42.667zM42.667 618.667v-85.333h-42.667v85.333h42.667zM512 874.667v-256h-426.667v256h426.667zM469.333 832h-341.333v-170.667h341.333v170.667zM597.333 789.333v-85.333h-42.667v85.333h42.667zM42.667 789.333v-85.333h-42.667v85.333h42.667zM85.333 960v-42.667h-42.667v-42.667h-42.667v85.333h85.333zM597.333 960v-85.333h-42.667v42.667h-42.667v42.667h85.333zM256 960v-42.667h-85.333v42.667h85.333zM426.667 960v-42.667h-85.333v42.667h85.333z" />
<glyph unicode="&#xe95a;" glyph-name="cmdCreateInteraction24" d="M746.667 490.667c153.167 0 277.333-124.166 277.333-277.333-0.141-153.108-124.225-277.192-277.333-277.333-153.167 0-277.333 124.166-277.333 277.333s124.166 277.333 277.333 277.333zM746.667 448c-129.603 0-234.667-105.064-234.667-234.667s105.064-234.667 234.667-234.667c129.603 0 234.667 105.064 234.667 234.667-0.141 129.544-105.122 234.526-234.667 234.667zM737.152 957.739c4.803 2.4 10.285 2.88 15.36 1.44l3.712-1.44 170.667-85.333c6.015-3.014 10.183-8.643 11.405-15.107l0.371-3.965v-213.333c0-6.736-3.183-12.986-8.431-16.969l-3.387-2.103-170.667-85.333c-4.803-2.4-10.285-2.88-15.36-1.44l-3.712 1.44-170.667 85.333c-6.015 3.014-10.183 8.643-11.405 15.107l-0.371 3.965v64h-341.333v-264.064l158.891-79.531c6.015-3.014 10.183-8.643 11.405-15.107l0.371-3.965v-213.333c-0.007-6.736-3.186-12.986-8.432-16.969l-3.387-2.103-170.667-85.333c-4.803-2.4-10.285-2.88-15.36-1.44l-3.712 1.44-170.667 85.333c-6.015 3.014-10.183 8.643-11.405 15.107l-0.371 3.965v213.333c0 6.728 3.165 12.975 8.397 16.964l3.379 2.108 158.891 79.36v306.901h384v106.667c0.007 6.736 3.186 12.986 8.432 16.969l3.387 2.103 170.667 85.333zM768 362.667v-128h128v-42.667h-128v-128h-42.667v128h-128v42.667h128v128h42.667zM42.667 306.816v-165.632l128-64v165.632l-128 64zM341.333 306.816l-128-64v-165.632l128 64v165.632zM192 402.816l-122.965-61.483 122.965-61.483 122.965 61.483-122.965 61.483zM597.333 818.816v-165.632l128-64v165.632l-128 64zM896 818.816l-128-64v-165.632l128 64v165.632zM746.667 914.816l-122.965-61.483 122.965-61.483 122.965 61.483-122.965 61.483z" />
<glyph unicode="&#xe95b;" glyph-name="cmdCreateLocation24" d="M362.667 960c188.203 0 341.333-152.875 341.333-340.779 0-33.621-10.624-78.037-31.104-133.632 16.981 3.243 34.475 5.12 52.395 5.12 152.917 0 277.376-124.459 277.376-277.376s-124.459-277.333-277.376-277.333c-110.976 0-206.677 65.707-250.965 160.128l-36.597-60.144-47.576-75.469-9.694-14.915c-3.925-6.016-10.624-9.6-17.792-9.6s-13.867 3.584-17.792 9.6l-33.88 52.715-32.557 52.292-25.542 42.080-27.621 46.639-21.569 37.345-21.903 38.884-14.61 26.561-14.493 26.92-14.27 27.148-13.94 27.247-13.505 27.215c-2.209 4.526-4.395 9.045-6.556 13.555l-12.652 26.923c-8.213 17.844-15.958 35.45-23.095 52.644l-10.23 25.461c-22.722 58.586-37.118 111.064-37.118 149.992 0 187.904 153.131 340.779 341.333 340.779zM725.291 448.043c-129.365 0-234.624-105.259-234.624-234.709 0-129.408 105.259-234.667 234.624-234.667 129.408 0 234.709 105.259 234.709 234.667s-105.301 234.709-234.709 234.709zM362.667 917.333c-164.693 0-298.667-133.717-298.667-298.112 0-44.264 21.727-109.968 53.797-182.837l13.352-29.496c6.925-14.905 14.203-30.021 21.743-45.233l15.402-30.518c5.232-10.193 10.554-20.395 15.939-30.572l16.313-30.423 16.526-30.070c2.763-4.971 5.528-9.919 8.292-14.84l16.542-29.161 24.402-42.066 23.423-39.447 21.898-36.142 31.624-51.031 19.456-30.714 29.699 47.086 12.245 19.771 27.137 44.551 24.146 40.572c-4.992 20.779-7.936 42.368-7.936 64.683 0 112.516 67.41 209.488 163.947 252.905l9.749 4.162 1.28 3.243c25.429 63.445 38.357 112.427 38.357 145.579 0 164.395-133.973 298.112-298.667 298.112zM746.667 362.667v-128h128v-42.667h-128v-128h-42.667v128h-128v42.667h128v128h42.667zM362.667 746.667c70.571 0 128-57.429 128-128.043 0-70.571-57.429-127.957-128-127.957s-128 57.387-128 127.957c0 70.613 57.429 128.043 128 128.043zM362.667 704c-47.061 0-85.333-38.272-85.333-85.376 0-47.019 38.272-85.291 85.333-85.291s85.333 38.272 85.333 85.291c0 47.104-38.272 85.376-85.333 85.376z" />
<glyph unicode="&#xe95c;" glyph-name="cmdCreatePort24" d="M746.667 490.667c153.167 0 277.333-124.166 277.333-277.333-0.165-153.099-124.235-277.169-277.333-277.333-153.167 0-277.333 124.166-277.333 277.333s124.166 277.333 277.333 277.333zM746.667 448c-129.603 0-234.667-105.064-234.667-234.667s105.064-234.667 234.667-234.667c129.603 0 234.667 105.064 234.667 234.667-0.141 129.544-105.122 234.526-234.667 234.667zM768 362.667v-128.085l128 0.085v-42.667l-128-0.085v-127.915h-42.667v127.915l-128-0.085v42.667l128 0.085v128.085h42.667zM768 960v-298.667h85.333v-42.667h-85.333v-42.667h-42.667v341.333h-554.667v-554.667h256v-42.667h-298.667v298.667h-128v42.667h128v298.667h640z" />
<glyph unicode="&#xe95d;" glyph-name="cmdCreateSchedule24" d="M852.125 468.062c103.032-42.672 170.211-143.21 170.211-254.729-0.141-152.196-123.473-275.547-275.669-275.712-111.519-0.017-212.067 67.147-254.755 170.172s-19.11 221.621 59.74 300.483c78.85 78.862 197.442 102.459 300.473 59.786zM746.667 449.664c-130.511-0.066-236.296-105.877-236.288-236.388s105.806-236.309 236.316-236.316c130.511-0.008 236.321 105.777 236.345 236.288-0.094 130.513-105.86 236.298-236.373 236.416zM896 960v-426.667h-42.667v384h-810.667v-810.667h384v-42.667h-426.667v896h896zM768 362.667v-128h128v-42.667h-128v-128h-42.667v128h-128v42.667h128v128h42.667zM469.333 448v-42.667h-64c-11.782 0-21.333-9.551-21.333-21.333v-42.667c0-11.782 9.551-21.333 21.333-21.333h21.333v-42.667h-21.333c-35.346 0-64 28.654-64 64v42.667c0 35.346 28.654 64 64 64h64zM490.667 661.333c35.346 0 64-28.654 64-64v-42.667c0-35.346-28.654-64-64-64h-341.333c-35.346 0-64 28.654-64 64v42.667c0 35.346 28.654 64 64 64h341.333zM490.667 618.667h-341.333c-11.782 0-21.333-9.551-21.333-21.333v-42.667c0-11.782 9.551-21.333 21.333-21.333h341.333c11.782 0 21.333 9.551 21.333 21.333v42.667c0 11.782-9.551 21.333-21.333 21.333zM810.667 874.667v-115.499l-85.333-85.333-72.832 72.832h-409.003l-72.832-72.832-85.333 85.333v115.499h725.333zM213.333 832h-85.333v-55.168l42.667-42.667 42.667 42.667v55.168zM768 832h-85.333v-55.168l42.667-42.667 42.667 42.667v55.168zM640 832h-384v-42.667h384v42.667z" />
<glyph unicode="&#xe95e;" glyph-name="cmdCreateServiceDiscrepancy24" d="M716.8 488.96c147.456 0 266.24-118.784 266.24-266.24s-118.784-266.24-266.24-266.24c-147.456 0-266.24 118.784-266.24 266.24s118.784 266.24 266.24 266.24zM716.8 448c-122.88 0-225.28-102.4-225.28-225.28s102.4-225.28 225.28-225.28c122.88 0 225.28 102.4 225.28 225.28s-102.4 225.28-225.28 225.28zM737.28 366.080v-122.88h122.88v-40.96h-122.88v-122.88h-40.96v122.88h-122.88v40.96h122.88v122.88h40.96zM409.6 939.52c38.229 0 69.323-17.84 89.949-46.861l4.259-6.387 172.032-315.392-36.864-20.48-172.032 315.392c-12.288 20.48-32.768 32.768-57.344 32.768-18.618 0-37.236-10.155-49.7-27.389l-3.548-5.379-307.2-573.44c-12.288-20.48-12.288-40.96 0-61.44 11.059-14.746 28.754-26.173 47.112-28.312l6.136-0.36h266.24v-40.96h-266.24c-36.864 0-69.632 16.384-86.016 49.152-19.017 30.427-20.376 64.387-7.355 95.319l3.259 7.081 307.2 573.44c16.384 32.768 49.152 53.248 90.112 53.248zM430.080 697.856c8.192 0 16.384-1.82 25.79-4.248l15.17-3.944 1.97-1.767 4.586-3.821c3.057-2.77 5.732-6.114 5.732-10.795 3.511-7.022 1.003-14.043-2.364-18.486l-1.732-1.994-65.536-61.44 53.248-53.248 61.44 61.44c4.096 4.096 12.288 4.096 20.48 4.096s12.288-4.096 16.384-12.288l5.632-22.016c1.536-6.656 2.56-12.8 2.56-18.944 0-77.824-65.536-143.36-143.36-143.36-6.554 0-15.729 0-23.331 2.097l-5.341 1.999-139.264-139.264c-16.384-16.384-36.864-24.576-57.344-24.576s-40.96 8.192-53.248 24.576c-27.079 27.079-28.584 76.079-4.513 105.594l4.513 4.998 139.264 139.264c-4.096 8.192-4.096 20.48-4.096 28.672 0 77.824 65.536 143.36 143.36 147.456zM421.888 652.8c-53.248-4.096-94.208-49.152-94.208-102.4l0.152-8.344c0.303-5.765 1.214-12.136 3.944-20.328 3.511-7.022 1.003-14.043-2.364-18.486l-1.732-1.994-147.456-147.456c-16.384-16.384-16.384-36.864 0-53.248 15.124-15.124 33.737-16.287 49.398-3.49l3.85 3.49 147.456 147.456c4.096 4.096 12.288 8.192 20.48 4.096 8.192-2.731 14.564-3.641 20.328-3.944l8.344-0.152c51.029 0 94.535 37.618 101.677 87.618l0.723 6.59-49.152-49.152c-7.282-7.282-17.8-8.091-25.801-2.427l-2.871 2.427-81.92 81.92c-3.511 7.022-4.012 20.062-1.505 28.803l1.505 3.965 49.152 45.056zM225.28 366.080c11.311 0 20.48-9.169 20.48-20.48s-9.169-20.48-20.48-20.48c-11.311 0-20.48 9.169-20.48 20.48s9.169 20.48 20.48 20.48z" />
<glyph unicode="&#xe95f;" glyph-name="cmdCreateSingle24" d="M757.76 468.48c147.456 0 266.24-118.784 266.24-266.24s-118.784-266.24-266.24-266.24c-147.456 0-266.24 118.784-266.24 266.24s118.784 266.24 266.24 266.24zM757.76 427.52c-122.88 0-225.28-102.4-225.28-225.28s102.4-225.28 225.28-225.28c122.88 0 225.28 102.4 225.28 225.28s-102.4 225.28-225.28 225.28zM729.088 898.56c27.079 27.079 68.772 28.584 97.475 4.513l4.925-4.513 90.112-90.112c27.079-27.079 28.584-68.772 4.513-97.475l-4.513-4.925-167.936-167.936-28.672 28.672 45.056 45.056-135.168 135.168-462.848-462.848 135.168-135.168 110.592 106.496 28.672-28.672-122.88-122.88-2.432-0.64-3.328-2.816-2.432-0.64-245.76-81.92h-8.192c-4.096 0-12.288 4.096-16.384 8.192-3.511 3.511-7.022 10.031-5.374 16.981l1.278 3.499 81.92 245.76c0 3.277 0 3.932 2.097 6.16l604.111 600.048zM778.24 345.6v-122.88h122.88v-40.96h-122.88v-122.88h-40.96v122.88h-122.88v40.96h122.88v122.88h40.96zM151.552 247.296l-57.344-176.128 176.128 57.344-118.784 118.784zM802.816 869.888c-11.171 11.171-29.112 12.186-41.514 3.047l-3.542-3.047-94.208-94.208 135.168-135.168 94.208 94.208c11.171 11.171 12.186 29.112 3.047 41.514l-3.047 3.542-90.112 90.112z" />
<glyph unicode="&#xe960;" glyph-name="cmdCreateTraceLink24" d="M260.267 571.733c102.4 102.4 268.8 102.4 371.2 0 39.619-39.619 64.522-86.596 74.71-140.931l2.090-12.669-42.667-4.267c-8.533 46.933-29.867 93.867-64 128-82.824 82.824-217.899 85.26-303.796 7.308l-7.671-7.308-170.667-170.667c-85.333-85.333-85.333-226.133 0-311.467 82.824-82.824 217.899-85.26 303.796-7.308l7.671 7.308 153.6 149.333 29.867-29.867-149.333-149.333c-51.2-51.2-119.467-76.8-187.733-76.8s-136.533 25.6-187.733 76.8c-99.774 99.774-102.333 260.309-7.675 363.199l7.675 8.001 170.667 170.667zM563.2 870.4c102.4 102.4 268.8 102.4 371.2 0 99.774-99.774 102.333-264.359 7.675-367.457l-7.675-8.009-170.667-170.667c-51.2-51.2-119.467-76.8-187.733-76.8s-136.533 25.6-187.733 76.8c-39.619 39.619-64.522 86.596-74.71 140.931l-2.090 12.669 42.667 4.267c8.533-46.933 29.867-93.867 64-128 82.824-82.824 217.899-85.26 303.796-7.308l7.671 7.308 170.667 170.667c85.333 85.333 85.333 226.133 0 311.467-82.824 82.824-217.899 85.26-303.796 7.308l-7.671-7.308-149.333-149.333-29.867 29.867 153.6 153.6z" />
<glyph unicode="&#xe961;" glyph-name="cmdCut16" d="M722.824 893.741c24.596 7.027 40.993 7.906 51.583 7.418l14.675-1.394c10.326 0 16.227-4.425 21.495-13.276l2.599-4.794v-24.094l-114.447-259.012h265.035c12.047 0 18.071-6.024 24.094-12.047s6.024-18.071 6.024-24.094c0-1.506-0.376-3.388-1.129-5.741l-3.388-8.565-13.553-27.859c-69.701-127.785-189.81-160.353-284.715-162.517l-10.437-0.119-89.141-0.035c-7.464-0.176-12.293-1.229-16.683-7.551l-2.599-4.461-48.188-90.353c10.326-5.163 20.652-19.177 27.185-30.662l2.933-5.479c24.094-42.165 24.094-102.4 6.024-150.588-30.118-78.306-96.376-132.518-162.635-132.518-9.638 0-19.275 0-28.913 3.084l-7.228 2.939c-36.141 12.047-66.259 48.188-84.329 90.353s-18.071 84.329 0 132.518l96.376 192.753h-162.635c-102.4 0-180.706 66.259-180.706 150.588s78.306 150.588 180.706 150.588c80.663 0 155.815-49.6 172.74-111.9l1.942-8.571h48.188l48.188 138.541c54.835 134.595 142.674 186.679 205.475 207.467l15.145 4.575 13.9 3.448c2.202 0.491 4.343 0.942 6.42 1.357zM437.935 237.128l-4.241 0.048c-42.165 0-84.329-36.141-102.4-84.329-12.047-36.141-12.047-66.259 0-96.376 10.708-26.771 21.417-44.024 40.587-51.758l7.602-2.454c48.188-18.071 102.4 18.071 126.494 84.329 12.047 36.141 12.047 78.306-6.024 102.4-5.354 16.063-15.468 32.125-34.571 39.727l-7.593 2.438-4.241 2.939c-4.771 2.313-10.842 2.891-15.613 3.036v0zM915.576 538.353h-421.647l-12.047-42.165c-5.163-10.326-14.752-16.227-24.972-17.702l-5.145-0.369h-60.235c-5.163-20.652-14.752-36.879-28.765-52.473l-7.376-7.762 71.071-0.035c8.956-0.211 14.119-1.686 19.282-12.012 5.020-10.039 5.856-20.078 2.51-30.118l-2.51-6.024-42.165-78.306c20.652 5.163 41.304 5.901 65.75 2.213l12.556-2.213 42.165 78.306c11.043 27.608 32.209 45.093 63.498 47.815l8.784 0.373h84.329c74.901 0 171.847 22.045 227.579 108.306l7.338 12.165zM210.824 598.588c-66.259 0-120.471-42.165-120.471-90.353s54.212-90.353 120.471-90.353c66.259 0 120.471 42.165 120.471 90.353s-54.212 90.353-120.471 90.353zM542.118 478.118c6.024-6.024 12.047-12.047 12.047-18.071 0-10.541-9.224-21.082-19.6-23.553l-4.494-0.541c-12.047 0-24.094 18.071-18.071 30.118s18.071 12.047 30.118 12.047zM734.871 839.529l-5.524-0.176c-47.411-2.961-128.485-43.792-181.061-165.53l-6.168-15-24.094-60.235h114.447l102.4 240.941z" />
<glyph unicode="&#xe962;" glyph-name="cmdCut24" d="M776.533 930.133c8.533 0 17.067-4.267 21.333-8.533l3.458-6.468c2.040-3.881 3.284-7.165 2.14-11.444l-125.064-306.354h320c8.533 0 17.067-4.267 21.333-8.533 3.657-7.314 4.18-14.629 1.567-19.256l-1.567-2.077-17.985-35.81-2.831-4.74-4.856-7.365-4.418-6.152-5.401-6.995-6.418-7.708c-2.312-2.674-4.8-5.444-7.468-8.291l-8.551-8.745c-42.486-41.665-121.45-93.917-252.136-97.471l-14.201-0.192h-123.733c-15.36 0-23.808-3.456-31.565-16.589l-2.569-4.745-12.8-25.6c68.267-38.4 93.867-128 64-217.6-29.867-85.333-98.133-136.533-166.4-136.533-11.378 0-20.859 1.896-29.709 4.425l-12.958 4.109c-76.8 25.6-115.2 128-81.067 226.133 0 0.61 0.37 1.981 1.057 4.002l2.961 7.902 7.315 17.696 13.455 30.974 47.745 105.826h-179.2c-106.667 0-192 64-192 149.333 0 81.067 85.333 149.333 192 149.333 94.749 0 169.611-51.707 186.183-120.559l1.551-7.441h51.2l59.733 140.8c47 117.5 119.887 175.461 175.887 203.824l11.726 5.636 11.115 4.795 10.411 4.020 9.614 3.31 8.723 2.666 7.738 2.087 9.557 2.189 11.229 1.873 29.867 4.267zM470.187 311.433l-5.12 0.034c-17.067 0-38.4-4.267-55.467-17.067-27.152-19.394-50.777-45.84-64.465-79.339l-3.802-10.261c-29.867-76.8-4.267-153.6 55.467-174.933 55.467-17.067 123.733 25.6 149.333 102.4 24.686 74.057 1.763 148.114-49.639 172.438l-5.828 2.495c-6.827 3.413-13.653 4.096-20.48 4.233v0zM533.333 554.667c-19.911 0-54.689-7.433-62.707-25.769l-1.293-4.097-2.077-3.396c-3.702-5.016-9.123-8.025-14.889-9.028l-4.367-0.376h-64c-7.758-31.030-22.567-58.534-47.635-79.307l-7.831-6.027h76.8c8.533 0 12.8-4.267 17.067-12.8 3.556-7.111 4.148-11.259 1.778-17.383l-27.378-63.684c23.040 15.36 49.536 20.352 76.378 18.086l8.956-1.020 17.067 29.867c18.824 37.647 44.291 45.398 64.677 46.701l7.856 0.233h123.733c114.109 0 186.393 41.824 226.914 76.84l9.121 8.248 7.932 7.837 6.774 7.277 5.647 6.567 6.425 8.194 2.965 4.14 3.023 4.63-430.933 4.267zM192 640c-81.067 0-149.333-46.933-149.333-106.667s68.267-106.667 149.333-106.667c81.067 0 149.333 46.933 149.333 106.667s-68.267 106.667-149.333 106.667zM533.333 512c11.782 0 21.333-9.551 21.333-21.333s-9.551-21.333-21.333-21.333c-11.782 0-21.333 9.551-21.333 21.333s9.551 21.333 21.333 21.333zM631.467 597.333l115.2 281.6-4.1-0.378-6.967-1.281-9.516-2.403-7.602-2.334c-1.344-0.442-2.726-0.912-4.143-1.411l-8.912-3.352-9.667-4.111-10.328-4.936c-5.313-2.685-10.839-5.704-16.524-9.093l-11.567-7.283c-41.117-27.296-88.305-73.941-123.352-152.507l-4.922-11.442-38.4-85.333c9.752 2.438 19.505 3.483 27.665 3.931l15.002 0.336h98.133z" />
<glyph unicode="&#xe963;" glyph-name="cmdDashboard16" d="M224 256v-320h-192v320h192zM480 448v-512h-192v512h192zM736 384v-448h-192v448h192zM992 640v-704h-192v704h192zM160 192h-64v-192h64v192zM416 384h-64v-384h64v384zM672 320h-64v-320h64v320zM928 576h-64v-576h64v576zM920.606 928.321c11.517-1.061 21.566-8.254 26.283-18.815s3.368-22.845-3.528-32.13l-213.312-298.624c-9.699-13.569-28.194-17.413-42.496-8.832l-189.312 113.6-153.216-191.552c-3.856-4.79-9.011-8.367-14.848-10.304l-256-85.376c-3.288-1.061-6.721-1.6-10.176-1.6-15.668 0.035-29.006 11.41-31.515 26.876s6.549 30.474 21.403 35.46l246.912 82.368 164.864 205.952c10.015 12.51 27.739 15.682 41.472 7.424l188.032-112.768 196.16 274.624c6.567 9.521 17.76 14.758 29.278 13.697z" />
<glyph unicode="&#xe964;" glyph-name="cmdDelete10" d="M968.192-38.4c-15.882 0.277-30.251 6.539-40.993 16.62l0.033-0.031c-1.434 1.229-7.782 7.373-18.432 17.715-53.35 51.2-209.101 202.65-387.891 357.478-93.952-85.058-178.511-176.857-254.239-275.775l-3.604-4.904c-27.12-49.38-72.797-85.727-127.406-99.937l-1.413-0.312c-2.633-0.209-5.701-0.328-8.796-0.328-33.098 0-63.017 13.607-84.47 35.532l-0.021 0.021c-74.65 67.584-30.72 177.254 6.554 231.424 77.141 108.323 165.388 201.741 264.873 281.754l2.698 2.099c-56.035 44.67-119.246 89.861-184.754 131.776l-9.089 5.44c-47.193 26.933-81.941 71.099-95.937 123.725l-0.319 1.408c-0.762 5.064-1.197 10.907-1.197 16.853 0 31.975 12.591 61.010 33.085 82.416l-0.041-0.043c32.695 30.845 76.897 49.803 125.526 49.803 32.596 0 63.203-8.518 89.715-23.449l-0.918 0.475c113.578-61.7 211.254-134.695 297.066-219.651l-0.106 0.105c107.281 60.852 231.585 113.796 362.073 152.326l12.711 3.219c5.54 1.867 11.919 2.945 18.551 2.945 22.97 0 42.921-12.929 52.972-31.906l0.157-0.325c3.507-7.394 5.554-16.064 5.554-25.213 0-20.748-10.53-39.036-26.537-49.812l-0.214-0.136c-43.315-31.744-150.835-112.64-274.739-215.040 112.166-138.748 211.586-295.717 291.909-463.569l6.177-14.332-46.182-21.811 46.387 21.606c4.605-8.409 7.313-18.424 7.313-29.071 0-19.275-8.876-36.477-22.763-47.741l-0.114-0.090c-9.121-6.944-20.647-11.161-33.154-11.264h-0.024zM923.955 6.349v0zM172.851 832c-0.953 0.065-2.066 0.101-3.188 0.101-14.132 0-26.9-5.842-36.019-15.244l-0.012-0.013c-8.397-9.523-7.68-14.336-7.373-16.384 2.355-15.77 27.136-39.834 48.64-53.146 97.101-62.134 180.332-122.988 259.653-188.413l-4.472 3.581 51.2-41.574-53.248-39.526c-115.317-84.792-213.485-184.36-294.158-297.284l-2.7-3.977c-14.029-20.48-40.96-79.155-21.914-96.87 8.294-7.578 13.107-8.909 14.234-8.909v0c4.71 0 19.558 7.066 56.525 58.266 93.038 121.299 193.071 228.38 302.511 325.057l2.436 2.111 33.382 30.72 34.406-29.389c86.938-74.24 169.779-148.89 239.923-213.811-60.209 95.762-121.176 178.455-187.568 256.383l2.531-3.045-33.28 39.014 39.117 33.28c29.286 24.781 58.061 48.64 85.606 71.168-36.147-17.51-74.24-37.478-113.664-60.109l-34.202-19.763-27.75 28.16c-85.822 89.234-184.56 165.187-293.393 225.057l-6.332 3.192c-14.967 6.592-32.365 10.71-50.647 11.359l-0.246 0.007zM972.288 749.056h-1.024z" />
<glyph unicode="&#xe965;" glyph-name="cmdDelete13" d="M971.461-64c-13.5 0.324-25.624 5.957-34.416 14.881l-0.006 0.006-16.62 17.329c-142.651 148.953-276.953 282.86-399.911 396.918-97.269-94.446-185.461-197.11-263.842-307.242l-4.604-6.811c-31.508-47.262-69.632-97.91-122.407-103.424-2.289-0.18-4.956-0.282-7.647-0.282-30.947 0-58.727 13.561-77.721 35.066l-0.097 0.112c-83.574 81.447 4.962 221.735 8.743 227.643 80.705 122.37 174.467 227.5 281.368 317.525l2.202 1.806c-63.132 54.675-132.458 108.34-204.657 158.137l-8.020 5.23c-44.247 27.579-76.658 70.613-89.879 121.391l-0.312 1.41c-0.763 5.045-1.199 10.866-1.199 16.789 0 29.865 11.081 57.143 29.355 77.945l-0.114-0.133c29.824 30.875 71.594 50.045 117.841 50.045 31.548 0 61.012-8.921 86.008-24.378l-0.703 0.405c115.915-68.050 215.421-148.422 301.543-241.371l0.773-0.845c109.557 67.334 235.878 125.479 369.195 167.945l12.285 3.378c4.869 1.856 10.501 2.93 16.383 2.93 17.82 0 33.337-9.863 41.389-24.428l0.123-0.243c3.28-6.375 5.203-13.912 5.203-21.898 0-16.515-8.224-31.109-20.8-39.911l-0.157-0.104c-45.529-35.604-159.744-127.921-289.713-245.209 116.713-152.999 219.993-326.832 302.16-512.111l6.536-16.51-35.84-16.305 36.234 15.36c3.573-6.743 5.67-14.741 5.67-23.228 0-16.122-7.568-30.476-19.345-39.704l-0.11-0.083c-6.927-4.956-15.551-7.953-24.871-8.034h-0.020zM937.59-23.513v0zM170.772 881.231c-0.854 0.044-1.855 0.069-2.861 0.069-18.097 0-34.304-8.094-45.198-20.86l-0.069-0.083c-7.103-7.229-11.487-17.148-11.487-28.092 0-1.731 0.11-3.437 0.323-5.111l-0.021 0.199c10.337-29.228 29.896-53.043 55.122-68.52l0.568-0.324c96.059-66.356 179.525-131.989 258.784-202.261l-2.784 2.423 35.84-30.956-37.022-29.617c-117.939-93.593-218.228-202.801-299.567-325.653l-3.222-5.178c-11.579-17.959-51.751-97.753-20.007-128.551 5.278-5.199 15.754-13.47 22.37-12.918 13.548 1.339 35.446 24.576 65.142 68.923 93.652 131.698 193.947 247.241 304.262 352.364l0.969 0.916 26.703 26.309 27.648-25.364c96.020-88.458 199.444-189.046 308.382-299.323-74.515 139.991-153.4 260.177-241.864 372.463l3.981-5.24-22.764 28.672 27.018 24.812c63.015 57.659 123.51 110.277 175.498 154.23-84.563-37.874-155.272-76.013-222.924-118.566l7.412 4.35-27.806-17.25-22.055 24.103c-86.961 97.738-187.463 180.886-299.124 247.222l-5.792 3.186c-16.196 7.96-35.165 12.912-55.213 13.62l-0.241 0.007zM973.036 790.646h-0.788z" />
</font>
</defs>
</svg>
